<?xml version="1.0" encoding="UTF-8" standalone="no"?>
<!DOCTYPE svg PUBLIC "-//W3C//DTD SVG 1.1//EN"
 "http://www.w3.org/Graphics/SVG/1.1/DTD/svg11.dtd">
<!-- Generated by graphviz version 14.0.2 (20251019.1705)
 -->
<!-- Title: VectoObjects.AbstractIEPCDataType_v2_3 Pages: 1 -->
<!--zoomable 190 -->

<svg id="main" version="1.1" xmlns="http://www.w3.org/2000/svg" xmlns:xlink="http://www.w3.org/1999/xlink" xml:space="preserve" onload="init(evt)">

<style type="text/css"><![CDATA[
.node, .edge {opacity: 0.7;}
.node.selected, .edge.selected {opacity: 1;}
.edge:hover path { stroke: red; }
.edge:hover polygon { stroke: red; fill: red; }
]]></style>

<defs>
  <circle id="rim" cx="0" cy="0" r="7"/>
  <circle id="rim2" cx="0" cy="0" r="3.5"/>
  <g id="zoomPlus">
    <use xlink:href="#rim" fill="#404040"><set attributeName="fill" to="#808080" begin="zoomplus.mouseover" end="zoomplus.mouseout"/></use>
    <path d="M-4,0h8M0,-4v8" fill="none" stroke="white" stroke-width="1.5" pointer-events="none"/>
  </g>
  <g id="zoomMin">
    <use xlink:href="#rim" fill="#404040"><set attributeName="fill" to="#808080" begin="zoomminus.mouseover" end="zoomminus.mouseout"/></use>
    <path d="M-4,0h8" fill="none" stroke="white" stroke-width="1.5" pointer-events="none"/>
  </g>
  <g id="arrowUp" transform="translate(30 24)">
    <use xlink:href="#rim"/>
    <path pointer-events="none" fill="none" stroke="white" stroke-width="1.5" d="M0,-3.0v7 M-2.5,-0.5L0,-3.0L2.5,-0.5"/>
  </g>
  <g id="arrowRight" transform="rotate(90) translate(36 -43)">
    <use xlink:href="#rim"/>
    <path pointer-events="none" fill="none" stroke="white" stroke-width="1.5" d="M0,-3.0v7 M-2.5,-0.5L0,-3.0L2.5,-0.5"/>
  </g>
  <g id="arrowDown" transform="rotate(180) translate(-30 -48)">
    <use xlink:href="#rim"/>
    <path pointer-events="none" fill="none" stroke="white" stroke-width="1.5" d="M0,-3.0v7 M-2.5,-0.5L0,-3.0L2.5,-0.5"/>
  </g>
  <g id="arrowLeft" transform="rotate(270) translate(-36 17)">
    <use xlink:href="#rim"/>
    <path pointer-events="none" fill="none" stroke="white" stroke-width="1.5" d="M0,-3.0v7 M-2.5,-0.5L0,-3.0L2.5,-0.5"/>
  </g>
  <g id="resetDef">
    <use xlink:href="#rim2" fill="#404040"><set attributeName="fill" to="#808080" begin="reset.mouseover" end="reset.mouseout"/></use>
  </g>
</defs>
<script type="application/ecmascript">
var viewWidth = 550;
var viewHeight = 190;
var sectionId = 'dynsection-0';
</script>
<script type="application/ecmascript" xlink:href="svg.min.js"/>
<svg id="graph" class="graph">
<g id="viewport">
<title>VectoObjects.AbstractIEPCDataType_v2_3</title>
<!-- Node1 -->
<g id="Node000001" class="node">
<title>Node1</title>
<g id="a_Node000001"><a xlink:title=" ">
<polygon fill="#999999" stroke="#666666" points="343.25,-107 184,-107 184,-75 343.25,-75 343.25,-107"/>
<text xml:space="preserve" text-anchor="start" x="192" y="-93.5" font-family="Helvetica,sans-Serif" font-size="10.00">VectoObjects.AbstractIEPCData</text>
<text xml:space="preserve" text-anchor="middle" x="263.62" y="-81.5" font-family="Helvetica,sans-Serif" font-size="10.00">Type_v2_3</text>
</a>
</g>
</g>
<!-- Node3 -->
<g id="Node000003" class="node">
<title>Node3</title>
<g id="a_Node000003"><a xlink:href="class_vecto_objects_1_1_i_e_p_c_measured_data_declaration_type__v2__3.html" target="_top" xlink:title=" ">
<polygon fill="white" stroke="#bfbfbf" points="532.88,-182 388.62,-182 388.62,-150 532.88,-150 532.88,-182"/>
<text xml:space="preserve" text-anchor="start" x="396.62" y="-168.5" font-family="Helvetica,sans-Serif" font-size="10.00">VectoObjects.IEPCMeasured</text>
<text xml:space="preserve" text-anchor="middle" x="460.75" y="-156.5" font-family="Helvetica,sans-Serif" font-size="10.00">DataDeclarationType_v2_3</text>
</a>
</g>
</g>
<!-- Node1&#45;&gt;Node3 -->
<g id="edge2_Node000001_Node000003" class="edge">
<title>Node1&#45;&gt;Node3</title>
<g id="a_edge2_Node000001_Node000003"><a xlink:title=" ">
<path fill="none" stroke="#63b8ff" d="M310.07,-112.2C330.93,-121.57 356.12,-132.39 379.25,-141 387.2,-143.96 395.69,-146.86 404.05,-149.58"/>
<polygon fill="#63b8ff" stroke="#63b8ff" points="311.52,-109.01 300.96,-108.07 308.63,-115.39 311.52,-109.01"/>
</a>
</g>
</g>
<!-- Node4 -->
<g id="Node000004" class="node">
<title>Node4</title>
<g id="a_Node000004"><a xlink:href="class_vecto_objects_1_1_i_e_p_c_measured_data_declaration_type__v2__6.html" target="_top" xlink:title=" ">
<polygon fill="white" stroke="#bfbfbf" points="532.88,-132 388.62,-132 388.62,-100 532.88,-100 532.88,-132"/>
<text xml:space="preserve" text-anchor="start" x="396.62" y="-118.5" font-family="Helvetica,sans-Serif" font-size="10.00">VectoObjects.IEPCMeasured</text>
<text xml:space="preserve" text-anchor="middle" x="460.75" y="-106.5" font-family="Helvetica,sans-Serif" font-size="10.00">DataDeclarationType_v2_6</text>
</a>
</g>
</g>
<!-- Node1&#45;&gt;Node4 -->
<g id="edge3_Node000001_Node000004" class="edge">
<title>Node1&#45;&gt;Node4</title>
<g id="a_edge3_Node000001_Node000004"><a xlink:title=" ">
<path fill="none" stroke="#63b8ff" d="M354.89,-102.56C366.13,-104.01 377.51,-105.46 388.41,-106.86"/>
<polygon fill="#63b8ff" stroke="#63b8ff" points="355.57,-99.12 345.21,-101.32 354.68,-106.07 355.57,-99.12"/>
</a>
</g>
</g>
<!-- Node5 -->
<g id="Node000005" class="node">
<title>Node5</title>
<g id="a_Node000005"><a xlink:href="class_vecto_objects_1_1_i_e_p_c_standard_values_data_declaration_type__v2__3.html" target="_top" xlink:title=" ">
<polygon fill="white" stroke="#bfbfbf" points="542.25,-82 379.25,-82 379.25,-50 542.25,-50 542.25,-82"/>
<text xml:space="preserve" text-anchor="start" x="387.25" y="-68.5" font-family="Helvetica,sans-Serif" font-size="10.00">VectoObjects.IEPCStandard</text>
<text xml:space="preserve" text-anchor="middle" x="460.75" y="-56.5" font-family="Helvetica,sans-Serif" font-size="10.00">ValuesDataDeclarationType_v2_3</text>
</a>
</g>
</g>
<!-- Node1&#45;&gt;Node5 -->
<g id="edge4_Node000001_Node000005" class="edge">
<title>Node1&#45;&gt;Node5</title>
<g id="a_edge4_Node000001_Node000005"><a xlink:title=" ">
<path fill="none" stroke="#63b8ff" d="M354.96,-79.43C362.97,-78.4 371.05,-77.37 378.97,-76.35"/>
<polygon fill="#63b8ff" stroke="#63b8ff" points="354.68,-75.93 345.21,-80.68 355.57,-82.88 354.68,-75.93"/>
</a>
</g>
</g>
<!-- Node6 -->
<g id="Node000006" class="node">
<title>Node6</title>
<g id="a_Node000006"><a xlink:href="class_vecto_objects_1_1_i_e_p_c_standard_values_data_declaration_type__v2__6.html" target="_top" xlink:title=" ">
<polygon fill="white" stroke="#bfbfbf" points="542.25,-32 379.25,-32 379.25,0 542.25,0 542.25,-32"/>
<text xml:space="preserve" text-anchor="start" x="387.25" y="-18.5" font-family="Helvetica,sans-Serif" font-size="10.00">VectoObjects.IEPCStandard</text>
<text xml:space="preserve" text-anchor="middle" x="460.75" y="-6.5" font-family="Helvetica,sans-Serif" font-size="10.00">ValuesDataDeclarationType_v2_6</text>
</a>
</g>
</g>
<!-- Node1&#45;&gt;Node6 -->
<g id="edge5_Node000001_Node000006" class="edge">
<title>Node1&#45;&gt;Node6</title>
<g id="a_edge5_Node000001_Node000006"><a xlink:title=" ">
<path fill="none" stroke="#63b8ff" d="M310.07,-69.8C330.93,-60.43 356.12,-49.61 379.25,-41 387.2,-38.04 395.69,-35.14 404.05,-32.42"/>
<polygon fill="#63b8ff" stroke="#63b8ff" points="308.63,-66.61 300.96,-73.93 311.52,-72.99 308.63,-66.61"/>
</a>
</g>
</g>
<!-- Node2 -->
<g id="Node000002" class="node">
<title>Node2</title>
<g id="a_Node000002"><a xlink:href="class_vecto_objects_1_1_vecto_simulation_component__v1__0.html" target="_top" xlink:title=" ">
<polygon fill="white" stroke="#bfbfbf" points="148,-107 0,-107 0,-75 148,-75 148,-107"/>
<text xml:space="preserve" text-anchor="start" x="8" y="-93.5" font-family="Helvetica,sans-Serif" font-size="10.00">VectoObjects.VectoSimulation</text>
<text xml:space="preserve" text-anchor="middle" x="74" y="-81.5" font-family="Helvetica,sans-Serif" font-size="10.00">Component_v1_0</text>
</a>
</g>
</g>
<!-- Node2&#45;&gt;Node1 -->
<g id="edge1_Node000001_Node000002" class="edge">
<title>Node2&#45;&gt;Node1</title>
<g id="a_edge1_Node000001_Node000002"><a xlink:title=" ">
<path fill="none" stroke="#63b8ff" d="M159.62,-91C167.65,-91 175.77,-91 183.75,-91"/>
<polygon fill="#63b8ff" stroke="#63b8ff" points="159.86,-87.5 149.86,-91 159.86,-94.5 159.86,-87.5"/>
</a>
</g>
</g>
</g>
</svg>

<g id="navigator" transform="translate(0 0)" fill="#404254">
  <rect fill="#f2f5e9" fill-opacity="0.5" stroke="#606060" stroke-width=".5" x="0" y="0" width="60" height="60"/>
  <use id="zoomplus" xlink:href="#zoomPlus" x="17" y="9" onmousedown="handleZoom(evt,'in')"/>
  <use id="zoomminus" xlink:href="#zoomMin" x="42" y="9" onmousedown="handleZoom(evt,'out')"/>
  <use id="reset" xlink:href="#resetDef" x="30" y="36" onmousedown="handleReset()"/>
   <use id="arrowup" xlink:href="#arrowUp" x="0" y="0" onmousedown="handlePan(0,-1)"/>
  <use id="arrowright" xlink:href="#arrowRight" x="0" y="0" onmousedown="handlePan(1,0)"/>
  <use id="arrowdown" xlink:href="#arrowDown" x="0" y="0" onmousedown="handlePan(0,1)"/>
  <use id="arrowleft" xlink:href="#arrowLeft" x="0" y="0" onmousedown="handlePan(-1,0)"/>
</g>
<svg viewBox="0 0 15 15" width="100%" height="30px" preserveAspectRatio="xMaxYMin meet">
 <g id="arrow_out" transform="scale(0.3 0.3)">
  <a xlink:href="class_vecto_objects_1_1_abstract_i_e_p_c_data_type__v2__3__inherit__graph_org.svg" target="_base">
   <rect id="button" ry="5" rx="5" y="6" x="6" height="38" width="38"
        fill="#f2f5e9" fill-opacity="0.5" stroke="#606060" stroke-width="1.0"/>
   <path id="arrow"
     d="M 11.500037,31.436501 C 11.940474,20.09759 22.043105,11.32322 32.158766,21.979434 L 37.068811,17.246167 C 37.068811,17.246167 37.088388,32 37.088388,32 L 22.160133,31.978069 C 22.160133,31.978069 26.997745,27.140456 26.997745,27.140456 C 18.528582,18.264221 13.291696,25.230495 11.500037,31.436501 z"
     style="fill:#404040;"/>
  </a>
 </g>
</svg>

<style type='text/css'>
<![CDATA[
[data-mouse-over-selected='false'] { opacity: 0.7; }
[data-mouse-over-selected='true']  { opacity: 1.0; }
]]>
</style>
<script type="application/ecmascript"><![CDATA[
document.addEventListener('DOMContentLoaded', (event) => {
  highlightEdges();
  highlightAdjacentNodes();
});
]]></script>
</svg>
