<?xml version="1.0" encoding="UTF-8" standalone="no"?>
<!DOCTYPE svg PUBLIC "-//W3C//DTD SVG 1.1//EN"
 "http://www.w3.org/Graphics/SVG/1.1/DTD/svg11.dtd">
<!-- Generated by graphviz version 14.0.2 (20251019.1705)
 -->
<!-- Title: VectoObjects.TyreDataDeclarationType_v2_3 Pages: 1 -->
<svg width="175pt" height="176pt"
 viewBox="0.00 0.00 175.00 176.00" xmlns="http://www.w3.org/2000/svg" xmlns:xlink="http://www.w3.org/1999/xlink">
<g id="graph0" class="graph" transform="scale(1 1) rotate(0) translate(4 172)">
<title>VectoObjects.TyreDataDeclarationType_v2_3</title>
<!-- Node1 -->
<g id="Node000001" class="node">
<title>Node1</title>
<g id="a_Node000001"><a xlink:title=" ">
<polygon fill="#999999" stroke="#666666" points="166.75,-32 0,-32 0,0 166.75,0 166.75,-32"/>
<text xml:space="preserve" text-anchor="start" x="8" y="-18.5" font-family="Helvetica,sans-Serif" font-size="10.00">VectoObjects.TyreDataDeclaration</text>
<text xml:space="preserve" text-anchor="middle" x="83.38" y="-6.5" font-family="Helvetica,sans-Serif" font-size="10.00">Type_v2_3</text>
</a>
</g>
</g>
<!-- Node2 -->
<g id="Node000002" class="node">
<title>Node2</title>
<g id="a_Node000002"><a xlink:href="class_vecto_objects_1_1_abstract_tyre_data_declaration_type__v1__0.html" target="_top" xlink:title=" ">
<polygon fill="white" stroke="#bfbfbf" points="150.25,-100 16.5,-100 16.5,-68 150.25,-68 150.25,-100"/>
<text xml:space="preserve" text-anchor="start" x="24.5" y="-86.5" font-family="Helvetica,sans-Serif" font-size="10.00">VectoObjects.AbstractTyre</text>
<text xml:space="preserve" text-anchor="middle" x="83.38" y="-74.5" font-family="Helvetica,sans-Serif" font-size="10.00">DataDeclarationType_v1_0</text>
</a>
</g>
</g>
<!-- Node2&#45;&gt;Node1 -->
<g id="edge1_Node000001_Node000002" class="edge">
<title>Node2&#45;&gt;Node1</title>
<g id="a_edge1_Node000001_Node000002"><a xlink:title=" ">
<path fill="none" stroke="#63b8ff" d="M83.38,-56.31C83.38,-48.12 83.38,-39.38 83.38,-32.22"/>
<polygon fill="#63b8ff" stroke="#63b8ff" points="79.88,-56.18 83.38,-66.18 86.88,-56.18 79.88,-56.18"/>
</a>
</g>
</g>
<!-- Node3 -->
<g id="Node000003" class="node">
<title>Node3</title>
<g id="a_Node000003"><a xlink:href="class_vecto_objects_1_1_vecto_simulation_component__v1__0.html" target="_top" xlink:title=" ">
<polygon fill="white" stroke="#bfbfbf" points="157.38,-168 9.38,-168 9.38,-136 157.38,-136 157.38,-168"/>
<text xml:space="preserve" text-anchor="start" x="17.38" y="-154.5" font-family="Helvetica,sans-Serif" font-size="10.00">VectoObjects.VectoSimulation</text>
<text xml:space="preserve" text-anchor="middle" x="83.38" y="-142.5" font-family="Helvetica,sans-Serif" font-size="10.00">Component_v1_0</text>
</a>
</g>
</g>
<!-- Node3&#45;&gt;Node2 -->
<g id="edge2_Node000002_Node000003" class="edge">
<title>Node3&#45;&gt;Node2</title>
<g id="a_edge2_Node000002_Node000003"><a xlink:title=" ">
<path fill="none" stroke="#63b8ff" d="M83.38,-124.31C83.38,-116.12 83.38,-107.38 83.38,-100.22"/>
<polygon fill="#63b8ff" stroke="#63b8ff" points="79.88,-124.18 83.38,-134.18 86.88,-124.18 79.88,-124.18"/>
</a>
</g>
</g>
</g>
</svg>
