<?xml version="1.0" encoding="UTF-8" standalone="no"?>
<!DOCTYPE svg PUBLIC "-//W3C//DTD SVG 1.1//EN"
 "http://www.w3.org/Graphics/SVG/1.1/DTD/svg11.dtd">
<!-- Generated by graphviz version 14.0.2 (20251019.1705)
 -->
<!-- Title: VectoObjects.AbstractBatterySystemDataType_v2_3 Pages: 1 -->
<svg width="732pt" height="140pt"
 viewBox="0.00 0.00 732.00 140.00" xmlns="http://www.w3.org/2000/svg" xmlns:xlink="http://www.w3.org/1999/xlink">
<g id="graph0" class="graph" transform="scale(1 1) rotate(0) translate(4 136)">
<title>VectoObjects.AbstractBatterySystemDataType_v2_3</title>
<!-- Node1 -->
<g id="Node000001" class="node">
<title>Node1</title>
<g id="a_Node000001"><a xlink:title=" ">
<polygon fill="#999999" stroke="#666666" points="535.5,-82 389.75,-82 389.75,-50 535.5,-50 535.5,-82"/>
<text xml:space="preserve" text-anchor="start" x="397.75" y="-68.5" font-family="Helvetica,sans-Serif" font-size="10.00">VectoObjects.AbstractBattery</text>
<text xml:space="preserve" text-anchor="middle" x="462.62" y="-56.5" font-family="Helvetica,sans-Serif" font-size="10.00">SystemDataType_v2_3</text>
</a>
</g>
</g>
<!-- Node4 -->
<g id="Node000004" class="node">
<title>Node4</title>
<g id="a_Node000004"><a xlink:href="class_vecto_objects_1_1_battery_system_data_type__v2__3.html" target="_top" xlink:title=" ">
<polygon fill="white" stroke="#bfbfbf" points="719.12,-132 576.38,-132 576.38,-100 719.12,-100 719.12,-132"/>
<text xml:space="preserve" text-anchor="start" x="584.38" y="-118.5" font-family="Helvetica,sans-Serif" font-size="10.00">VectoObjects.BatterySystem</text>
<text xml:space="preserve" text-anchor="middle" x="647.75" y="-106.5" font-family="Helvetica,sans-Serif" font-size="10.00">DataType_v2_3</text>
</a>
</g>
</g>
<!-- Node1&#45;&gt;Node4 -->
<g id="edge3_Node000001_Node000004" class="edge">
<title>Node1&#45;&gt;Node4</title>
<g id="a_edge3_Node000001_Node000004"><a xlink:title=" ">
<path fill="none" stroke="#63b8ff" d="M534.88,-85.46C551.94,-90.11 569.99,-95.04 586.5,-99.55"/>
<polygon fill="#63b8ff" stroke="#63b8ff" points="535.87,-82.1 525.3,-82.84 534.03,-88.85 535.87,-82.1"/>
</a>
</g>
</g>
<!-- Node5 -->
<g id="Node000005" class="node">
<title>Node5</title>
<g id="a_Node000005"><a xlink:href="class_vecto_objects_1_1_battery_system_standard_values_data_type__v2__3.html" target="_top" xlink:title=" ">
<polygon fill="white" stroke="#bfbfbf" points="724,-82 571.5,-82 571.5,-50 724,-50 724,-82"/>
<text xml:space="preserve" text-anchor="start" x="579.5" y="-68.5" font-family="Helvetica,sans-Serif" font-size="10.00">VectoObjects.BatterySystem</text>
<text xml:space="preserve" text-anchor="middle" x="647.75" y="-56.5" font-family="Helvetica,sans-Serif" font-size="10.00">StandardValuesDataType_v2_3</text>
</a>
</g>
</g>
<!-- Node1&#45;&gt;Node5 -->
<g id="edge4_Node000001_Node000005" class="edge">
<title>Node1&#45;&gt;Node5</title>
<g id="a_edge4_Node000001_Node000005"><a xlink:title=" ">
<path fill="none" stroke="#63b8ff" d="M547,-66C555.03,-66 563.14,-66 571.09,-66"/>
<polygon fill="#63b8ff" stroke="#63b8ff" points="547.25,-62.5 537.25,-66 547.25,-69.5 547.25,-62.5"/>
</a>
</g>
</g>
<!-- Node6 -->
<g id="Node000006" class="node">
<title>Node6</title>
<g id="a_Node000006"><a xlink:href="class_vecto_objects_1_1_battery_system_standard_values_data_type__v2__6.html" target="_top" xlink:title=" ">
<polygon fill="white" stroke="#bfbfbf" points="724,-32 571.5,-32 571.5,0 724,0 724,-32"/>
<text xml:space="preserve" text-anchor="start" x="579.5" y="-18.5" font-family="Helvetica,sans-Serif" font-size="10.00">VectoObjects.BatterySystem</text>
<text xml:space="preserve" text-anchor="middle" x="647.75" y="-6.5" font-family="Helvetica,sans-Serif" font-size="10.00">StandardValuesDataType_v2_6</text>
</a>
</g>
</g>
<!-- Node1&#45;&gt;Node6 -->
<g id="edge5_Node000001_Node000006" class="edge">
<title>Node1&#45;&gt;Node6</title>
<g id="a_edge5_Node000001_Node000006"><a xlink:title=" ">
<path fill="none" stroke="#63b8ff" d="M534.88,-46.54C551.94,-41.89 569.99,-36.96 586.5,-32.45"/>
<polygon fill="#63b8ff" stroke="#63b8ff" points="534.03,-43.15 525.3,-49.16 535.87,-49.9 534.03,-43.15"/>
</a>
</g>
</g>
<!-- Node2 -->
<g id="Node000002" class="node">
<title>Node2</title>
<g id="a_Node000002"><a xlink:href="class_vecto_objects_1_1_abstract_r_e_e_s_s_data_type__v2__3.html" target="_top" xlink:title=" ">
<polygon fill="white" stroke="#bfbfbf" points="353.75,-82 184,-82 184,-50 353.75,-50 353.75,-82"/>
<text xml:space="preserve" text-anchor="start" x="192" y="-68.5" font-family="Helvetica,sans-Serif" font-size="10.00">VectoObjects.AbstractREESSData</text>
<text xml:space="preserve" text-anchor="middle" x="268.88" y="-56.5" font-family="Helvetica,sans-Serif" font-size="10.00">Type_v2_3</text>
</a>
</g>
</g>
<!-- Node2&#45;&gt;Node1 -->
<g id="edge1_Node000001_Node000002" class="edge">
<title>Node2&#45;&gt;Node1</title>
<g id="a_edge1_Node000001_Node000002"><a xlink:title=" ">
<path fill="none" stroke="#63b8ff" d="M365.34,-66C373.4,-66 381.46,-66 389.3,-66"/>
<polygon fill="#63b8ff" stroke="#63b8ff" points="365.49,-62.5 355.49,-66 365.49,-69.5 365.49,-62.5"/>
</a>
</g>
</g>
<!-- Node3 -->
<g id="Node000003" class="node">
<title>Node3</title>
<g id="a_Node000003"><a xlink:href="class_vecto_objects_1_1_vecto_simulation_component__v1__0.html" target="_top" xlink:title=" ">
<polygon fill="white" stroke="#bfbfbf" points="148,-82 0,-82 0,-50 148,-50 148,-82"/>
<text xml:space="preserve" text-anchor="start" x="8" y="-68.5" font-family="Helvetica,sans-Serif" font-size="10.00">VectoObjects.VectoSimulation</text>
<text xml:space="preserve" text-anchor="middle" x="74" y="-56.5" font-family="Helvetica,sans-Serif" font-size="10.00">Component_v1_0</text>
</a>
</g>
</g>
<!-- Node3&#45;&gt;Node2 -->
<g id="edge2_Node000002_Node000003" class="edge">
<title>Node3&#45;&gt;Node2</title>
<g id="a_edge2_Node000002_Node000003"><a xlink:title=" ">
<path fill="none" stroke="#63b8ff" d="M159.91,-66C167.79,-66 175.77,-66 183.64,-66"/>
<polygon fill="#63b8ff" stroke="#63b8ff" points="159.98,-62.5 149.98,-66 159.98,-69.5 159.98,-62.5"/>
</a>
</g>
</g>
</g>
</svg>
