<?xml version="1.0" encoding="UTF-8" standalone="no"?>
<!DOCTYPE svg PUBLIC "-//W3C//DTD SVG 1.1//EN"
 "http://www.w3.org/Graphics/SVG/1.1/DTD/svg11.dtd">
<!-- Generated by graphviz version 14.0.2 (20251019.1705)
 -->
<!-- Title: VectoObjects.AbstractRetarderDataDeclarationType_v1_0 Pages: 1 -->
<svg width="516pt" height="90pt"
 viewBox="0.00 0.00 516.00 90.00" xmlns="http://www.w3.org/2000/svg" xmlns:xlink="http://www.w3.org/1999/xlink">
<g id="graph0" class="graph" transform="scale(1 1) rotate(0) translate(4 86)">
<title>VectoObjects.AbstractRetarderDataDeclarationType_v1_0</title>
<!-- Node1 -->
<g id="Node000001" class="node">
<title>Node1</title>
<g id="a_Node000001"><a xlink:title=" ">
<polygon fill="#999999" stroke="#666666" points="335.75,-57 184,-57 184,-25 335.75,-25 335.75,-57"/>
<text xml:space="preserve" text-anchor="start" x="192" y="-43.5" font-family="Helvetica,sans-Serif" font-size="10.00">VectoObjects.AbstractRetarder</text>
<text xml:space="preserve" text-anchor="middle" x="259.88" y="-31.5" font-family="Helvetica,sans-Serif" font-size="10.00">DataDeclarationType_v1_0</text>
</a>
</g>
</g>
<!-- Node3 -->
<g id="Node000003" class="node">
<title>Node3</title>
<g id="a_Node000003"><a xlink:href="class_vecto_objects_1_1_retarder_data_declaration_type__v1__0.html" target="_top" xlink:title=" ">
<polygon fill="white" stroke="#666666" points="507.75,-82 371.75,-82 371.75,-50 507.75,-50 507.75,-82"/>
<text xml:space="preserve" text-anchor="start" x="379.75" y="-68.5" font-family="Helvetica,sans-Serif" font-size="10.00">VectoObjects.RetarderData</text>
<text xml:space="preserve" text-anchor="middle" x="439.75" y="-56.5" font-family="Helvetica,sans-Serif" font-size="10.00">DeclarationType_v1_0</text>
</a>
</g>
</g>
<!-- Node1&#45;&gt;Node3 -->
<g id="edge2_Node000001_Node000003" class="edge">
<title>Node1&#45;&gt;Node3</title>
<g id="a_edge2_Node000001_Node000003"><a xlink:title=" ">
<path fill="none" stroke="#63b8ff" d="M347.42,-53.16C355.5,-54.3 363.6,-55.44 371.46,-56.54"/>
<polygon fill="#63b8ff" stroke="#63b8ff" points="347.94,-49.7 337.55,-51.78 346.97,-56.63 347.94,-49.7"/>
</a>
</g>
</g>
<!-- Node4 -->
<g id="Node000004" class="node">
<title>Node4</title>
<g id="a_Node000004"><a xlink:href="class_vecto_objects_1_1_retarder_data_declaration_type__v2__0.html" target="_top" xlink:title=" ">
<polygon fill="white" stroke="#666666" points="507.75,-32 371.75,-32 371.75,0 507.75,0 507.75,-32"/>
<text xml:space="preserve" text-anchor="start" x="379.75" y="-18.5" font-family="Helvetica,sans-Serif" font-size="10.00">VectoObjects.RetarderData</text>
<text xml:space="preserve" text-anchor="middle" x="439.75" y="-6.5" font-family="Helvetica,sans-Serif" font-size="10.00">DeclarationType_v2_0</text>
</a>
</g>
</g>
<!-- Node1&#45;&gt;Node4 -->
<g id="edge3_Node000001_Node000004" class="edge">
<title>Node1&#45;&gt;Node4</title>
<g id="a_edge3_Node000001_Node000004"><a xlink:title=" ">
<path fill="none" stroke="#63b8ff" d="M347.42,-28.84C355.5,-27.7 363.6,-26.56 371.46,-25.46"/>
<polygon fill="#63b8ff" stroke="#63b8ff" points="346.97,-25.37 337.55,-30.22 347.94,-32.3 346.97,-25.37"/>
</a>
</g>
</g>
<!-- Node2 -->
<g id="Node000002" class="node">
<title>Node2</title>
<g id="a_Node000002"><a xlink:href="class_vecto_objects_1_1_vecto_simulation_component__v1__0.html" target="_top" xlink:title=" ">
<polygon fill="white" stroke="#bfbfbf" points="148,-57 0,-57 0,-25 148,-25 148,-57"/>
<text xml:space="preserve" text-anchor="start" x="8" y="-43.5" font-family="Helvetica,sans-Serif" font-size="10.00">VectoObjects.VectoSimulation</text>
<text xml:space="preserve" text-anchor="middle" x="74" y="-31.5" font-family="Helvetica,sans-Serif" font-size="10.00">Component_v1_0</text>
</a>
</g>
</g>
<!-- Node2&#45;&gt;Node1 -->
<g id="edge1_Node000001_Node000002" class="edge">
<title>Node2&#45;&gt;Node1</title>
<g id="a_edge1_Node000001_Node000002"><a xlink:title=" ">
<path fill="none" stroke="#63b8ff" d="M159.72,-41C167.73,-41 175.81,-41 183.72,-41"/>
<polygon fill="#63b8ff" stroke="#63b8ff" points="159.98,-37.5 149.98,-41 159.98,-44.5 159.98,-37.5"/>
</a>
</g>
</g>
</g>
</svg>
