<?xml version="1.0" encoding="UTF-8" standalone="no"?>
<!DOCTYPE svg PUBLIC "-//W3C//DTD SVG 1.1//EN"
 "http://www.w3.org/Graphics/SVG/1.1/DTD/svg11.dtd">
<!-- Generated by graphviz version 14.0.2 (20251019.1705)
 -->
<!-- Title: VectoObjects.ElectricMachineSystemMeasuredDataDeclarationType_v2_3 Pages: 1 -->
<svg width="593pt" height="90pt"
 viewBox="0.00 0.00 593.00 90.00" xmlns="http://www.w3.org/2000/svg" xmlns:xlink="http://www.w3.org/1999/xlink">
<g id="graph0" class="graph" transform="scale(1 1) rotate(0) translate(4 86)">
<title>VectoObjects.ElectricMachineSystemMeasuredDataDeclarationType_v2_3</title>
<!-- Node1 -->
<g id="Node000001" class="node">
<title>Node1</title>
<g id="a_Node000001"><a xlink:title=" ">
<polygon fill="#999999" stroke="#666666" points="585,-57 374.75,-57 374.75,-25 585,-25 585,-57"/>
<text xml:space="preserve" text-anchor="start" x="382.75" y="-43.5" font-family="Helvetica,sans-Serif" font-size="10.00">VectoObjects.ElectricMachine</text>
<text xml:space="preserve" text-anchor="middle" x="479.88" y="-31.5" font-family="Helvetica,sans-Serif" font-size="10.00">SystemMeasuredDataDeclarationType_v2_3</text>
</a>
</g>
</g>
<!-- Node2 -->
<g id="Node000002" class="node">
<title>Node2</title>
<g id="a_Node000002"><a xlink:href="class_vecto_objects_1_1_abstract_electric_machine_system_data_type__v2__3.html" target="_top" xlink:title=" ">
<polygon fill="white" stroke="#bfbfbf" points="338.75,-82 184,-82 184,-50 338.75,-50 338.75,-82"/>
<text xml:space="preserve" text-anchor="start" x="192" y="-68.5" font-family="Helvetica,sans-Serif" font-size="10.00">VectoObjects.AbstractElectric</text>
<text xml:space="preserve" text-anchor="middle" x="261.38" y="-56.5" font-family="Helvetica,sans-Serif" font-size="10.00">MachineSystemDataType_v2_3</text>
</a>
</g>
</g>
<!-- Node2&#45;&gt;Node1 -->
<g id="edge1_Node000001_Node000002" class="edge">
<title>Node2&#45;&gt;Node1</title>
<g id="a_edge1_Node000001_Node000002"><a xlink:title=" ">
<path fill="none" stroke="#63b8ff" d="M350.41,-55.83C358.28,-54.93 366.3,-54 374.29,-53.08"/>
<polygon fill="#63b8ff" stroke="#63b8ff" points="350.05,-52.35 340.51,-56.98 350.85,-59.31 350.05,-52.35"/>
</a>
</g>
</g>
<!-- Node3 -->
<g id="Node000003" class="node">
<title>Node3</title>
<g id="a_Node000003"><a xlink:href="class_vecto_objects_1_1_vecto_simulation_component__v1__0.html" target="_top" xlink:title=" ">
<polygon fill="white" stroke="#bfbfbf" points="148,-82 0,-82 0,-50 148,-50 148,-82"/>
<text xml:space="preserve" text-anchor="start" x="8" y="-68.5" font-family="Helvetica,sans-Serif" font-size="10.00">VectoObjects.VectoSimulation</text>
<text xml:space="preserve" text-anchor="middle" x="74" y="-56.5" font-family="Helvetica,sans-Serif" font-size="10.00">Component_v1_0</text>
</a>
</g>
</g>
<!-- Node3&#45;&gt;Node2 -->
<g id="edge2_Node000002_Node000003" class="edge">
<title>Node3&#45;&gt;Node2</title>
<g id="a_edge2_Node000002_Node000003"><a xlink:title=" ">
<path fill="none" stroke="#63b8ff" d="M159.55,-66C167.6,-66 175.72,-66 183.68,-66"/>
<polygon fill="#63b8ff" stroke="#63b8ff" points="159.78,-62.5 149.78,-66 159.78,-69.5 159.78,-62.5"/>
</a>
</g>
</g>
<!-- Node4 -->
<g id="Node000004" class="node">
<title>Node4</title>
<g id="a_Node000004"><a xlink:href="interface_vecto_objects_1_1_i_component_data_declaration.html" target="_top" xlink:title=" ">
<polygon fill="white" stroke="#bfbfbf" points="337.25,-32 185.5,-32 185.5,0 337.25,0 337.25,-32"/>
<text xml:space="preserve" text-anchor="start" x="193.5" y="-18.5" font-family="Helvetica,sans-Serif" font-size="10.00">VectoObjects.IComponentData</text>
<text xml:space="preserve" text-anchor="middle" x="261.38" y="-6.5" font-family="Helvetica,sans-Serif" font-size="10.00">Declaration</text>
</a>
</g>
</g>
<!-- Node4&#45;&gt;Node1 -->
<g id="edge3_Node000001_Node000004" class="edge">
<title>Node4&#45;&gt;Node1</title>
<g id="a_edge3_Node000001_Node000004"><a xlink:title=" ">
<path fill="none" stroke="#63b8ff" d="M348.86,-25.99C357.3,-26.96 365.93,-27.96 374.52,-28.95"/>
<polygon fill="#63b8ff" stroke="#63b8ff" points="349.33,-22.52 338.99,-24.85 348.52,-29.47 349.33,-22.52"/>
</a>
</g>
</g>
</g>
</svg>
