<?xml version="1.0" encoding="UTF-8" standalone="no"?>
<!DOCTYPE svg PUBLIC "-//W3C//DTD SVG 1.1//EN"
 "http://www.w3.org/Graphics/SVG/1.1/DTD/svg11.dtd">
<!-- Generated by graphviz version 14.0.2 (20251019.1705)
 -->
<!-- Title: VectoObjects.AbstractTyreDataDeclarationType_v1_0 Pages: 1 -->
<svg width="529pt" height="240pt"
 viewBox="0.00 0.00 529.00 240.00" xmlns="http://www.w3.org/2000/svg" xmlns:xlink="http://www.w3.org/1999/xlink">
<g id="graph0" class="graph" transform="scale(1 1) rotate(0) translate(4 236)">
<title>VectoObjects.AbstractTyreDataDeclarationType_v1_0</title>
<!-- Node1 -->
<g id="Node000001" class="node">
<title>Node1</title>
<g id="a_Node000001"><a xlink:title=" ">
<polygon fill="#999999" stroke="#666666" points="317.75,-132 184,-132 184,-100 317.75,-100 317.75,-132"/>
<text xml:space="preserve" text-anchor="start" x="192" y="-118.5" font-family="Helvetica,sans-Serif" font-size="10.00">VectoObjects.AbstractTyre</text>
<text xml:space="preserve" text-anchor="middle" x="250.88" y="-106.5" font-family="Helvetica,sans-Serif" font-size="10.00">DataDeclarationType_v1_0</text>
</a>
</g>
</g>
<!-- Node3 -->
<g id="Node000003" class="node">
<title>Node3</title>
<g id="a_Node000003"><a xlink:href="class_vecto_objects_1_1_tyre_data_declaration_type__v1__0.html" target="_top" xlink:title=" ">
<polygon fill="white" stroke="#bfbfbf" points="520.5,-232 353.75,-232 353.75,-200 520.5,-200 520.5,-232"/>
<text xml:space="preserve" text-anchor="start" x="361.75" y="-218.5" font-family="Helvetica,sans-Serif" font-size="10.00">VectoObjects.TyreDataDeclaration</text>
<text xml:space="preserve" text-anchor="middle" x="437.12" y="-206.5" font-family="Helvetica,sans-Serif" font-size="10.00">Type_v1_0</text>
</a>
</g>
</g>
<!-- Node1&#45;&gt;Node3 -->
<g id="edge2_Node000001_Node000003" class="edge">
<title>Node1&#45;&gt;Node3</title>
<g id="a_edge2_Node000001_Node000003"><a xlink:title=" ">
<path fill="none" stroke="#63b8ff" d="M278.8,-139.81C298.43,-156.13 326.29,-177.24 353.75,-191 360.03,-194.15 366.78,-196.98 373.62,-199.51"/>
<polygon fill="#63b8ff" stroke="#63b8ff" points="281.18,-137.23 271.28,-133.44 276.65,-142.57 281.18,-137.23"/>
</a>
</g>
</g>
<!-- Node4 -->
<g id="Node000004" class="node">
<title>Node4</title>
<g id="a_Node000004"><a xlink:href="class_vecto_objects_1_1_tyre_data_declaration_type__v2__0.html" target="_top" xlink:title=" ">
<polygon fill="white" stroke="#bfbfbf" points="520.5,-182 353.75,-182 353.75,-150 520.5,-150 520.5,-182"/>
<text xml:space="preserve" text-anchor="start" x="361.75" y="-168.5" font-family="Helvetica,sans-Serif" font-size="10.00">VectoObjects.TyreDataDeclaration</text>
<text xml:space="preserve" text-anchor="middle" x="437.12" y="-156.5" font-family="Helvetica,sans-Serif" font-size="10.00">Type_v2_0</text>
</a>
</g>
</g>
<!-- Node1&#45;&gt;Node4 -->
<g id="edge3_Node000001_Node000004" class="edge">
<title>Node1&#45;&gt;Node4</title>
<g id="a_edge3_Node000001_Node000004"><a xlink:title=" ">
<path fill="none" stroke="#63b8ff" d="M323.57,-135.46C340.73,-140.11 358.9,-145.04 375.5,-149.55"/>
<polygon fill="#63b8ff" stroke="#63b8ff" points="324.49,-132.08 313.92,-132.84 322.66,-138.83 324.49,-132.08"/>
</a>
</g>
</g>
<!-- Node5 -->
<g id="Node000005" class="node">
<title>Node5</title>
<g id="a_Node000005"><a xlink:href="class_vecto_objects_1_1_tyre_data_declaration_type__v2__2.html" target="_top" xlink:title=" ">
<polygon fill="white" stroke="#bfbfbf" points="520.5,-132 353.75,-132 353.75,-100 520.5,-100 520.5,-132"/>
<text xml:space="preserve" text-anchor="start" x="361.75" y="-118.5" font-family="Helvetica,sans-Serif" font-size="10.00">VectoObjects.TyreDataDeclaration</text>
<text xml:space="preserve" text-anchor="middle" x="437.12" y="-106.5" font-family="Helvetica,sans-Serif" font-size="10.00">Type_v2_2</text>
</a>
</g>
</g>
<!-- Node1&#45;&gt;Node5 -->
<g id="edge4_Node000001_Node000005" class="edge">
<title>Node1&#45;&gt;Node5</title>
<g id="a_edge4_Node000001_Node000005"><a xlink:title=" ">
<path fill="none" stroke="#63b8ff" d="M329.57,-116C337.46,-116 345.5,-116 353.44,-116"/>
<polygon fill="#63b8ff" stroke="#63b8ff" points="329.65,-112.5 319.65,-116 329.65,-119.5 329.65,-112.5"/>
</a>
</g>
</g>
<!-- Node6 -->
<g id="Node000006" class="node">
<title>Node6</title>
<g id="a_Node000006"><a xlink:href="class_vecto_objects_1_1_tyre_data_declaration_type__v2__3.html" target="_top" xlink:title=" ">
<polygon fill="white" stroke="#bfbfbf" points="520.5,-82 353.75,-82 353.75,-50 520.5,-50 520.5,-82"/>
<text xml:space="preserve" text-anchor="start" x="361.75" y="-68.5" font-family="Helvetica,sans-Serif" font-size="10.00">VectoObjects.TyreDataDeclaration</text>
<text xml:space="preserve" text-anchor="middle" x="437.12" y="-56.5" font-family="Helvetica,sans-Serif" font-size="10.00">Type_v2_3</text>
</a>
</g>
</g>
<!-- Node1&#45;&gt;Node6 -->
<g id="edge5_Node000001_Node000006" class="edge">
<title>Node1&#45;&gt;Node6</title>
<g id="a_edge5_Node000001_Node000006"><a xlink:title=" ">
<path fill="none" stroke="#63b8ff" d="M323.57,-96.54C340.73,-91.89 358.9,-86.96 375.5,-82.45"/>
<polygon fill="#63b8ff" stroke="#63b8ff" points="322.66,-93.17 313.92,-99.16 324.49,-99.92 322.66,-93.17"/>
</a>
</g>
</g>
<!-- Node7 -->
<g id="Node000007" class="node">
<title>Node7</title>
<g id="a_Node000007"><a xlink:href="class_vecto_objects_1_1_tyre_data_declaration_type__v2__5.html" target="_top" xlink:title=" ">
<polygon fill="white" stroke="#bfbfbf" points="520.5,-32 353.75,-32 353.75,0 520.5,0 520.5,-32"/>
<text xml:space="preserve" text-anchor="start" x="361.75" y="-18.5" font-family="Helvetica,sans-Serif" font-size="10.00">VectoObjects.TyreDataDeclaration</text>
<text xml:space="preserve" text-anchor="middle" x="437.12" y="-6.5" font-family="Helvetica,sans-Serif" font-size="10.00">Type_v2_5</text>
</a>
</g>
</g>
<!-- Node1&#45;&gt;Node7 -->
<g id="edge6_Node000001_Node000007" class="edge">
<title>Node1&#45;&gt;Node7</title>
<g id="a_edge6_Node000001_Node000007"><a xlink:title=" ">
<path fill="none" stroke="#63b8ff" d="M278.8,-92.19C298.43,-75.87 326.29,-54.76 353.75,-41 360.03,-37.85 366.78,-35.02 373.62,-32.49"/>
<polygon fill="#63b8ff" stroke="#63b8ff" points="276.65,-89.43 271.28,-98.56 281.18,-94.77 276.65,-89.43"/>
</a>
</g>
</g>
<!-- Node2 -->
<g id="Node000002" class="node">
<title>Node2</title>
<g id="a_Node000002"><a xlink:href="class_vecto_objects_1_1_vecto_simulation_component__v1__0.html" target="_top" xlink:title=" ">
<polygon fill="white" stroke="#bfbfbf" points="148,-132 0,-132 0,-100 148,-100 148,-132"/>
<text xml:space="preserve" text-anchor="start" x="8" y="-118.5" font-family="Helvetica,sans-Serif" font-size="10.00">VectoObjects.VectoSimulation</text>
<text xml:space="preserve" text-anchor="middle" x="74" y="-106.5" font-family="Helvetica,sans-Serif" font-size="10.00">Component_v1_0</text>
</a>
</g>
</g>
<!-- Node2&#45;&gt;Node1 -->
<g id="edge1_Node000001_Node000002" class="edge">
<title>Node2&#45;&gt;Node1</title>
<g id="a_edge1_Node000001_Node000002"><a xlink:title=" ">
<path fill="none" stroke="#63b8ff" d="M159.71,-116C167.74,-116 175.8,-116 183.62,-116"/>
<polygon fill="#63b8ff" stroke="#63b8ff" points="159.92,-112.5 149.92,-116 159.92,-119.5 159.92,-112.5"/>
</a>
</g>
</g>
</g>
</svg>
