<?xml version="1.0" encoding="UTF-8" standalone="no"?>
<!DOCTYPE svg PUBLIC "-//W3C//DTD SVG 1.1//EN"
 "http://www.w3.org/Graphics/SVG/1.1/DTD/svg11.dtd">
<!-- Generated by graphviz version 14.0.2 (20251019.1705)
 -->
<!-- Title: VectoObjects.Abstract_Components_FCHV_Fx_PrimaryBusDeclarationType_v2_7 Pages: 1 -->
<svg width="583pt" height="140pt"
 viewBox="0.00 0.00 583.00 140.00" xmlns="http://www.w3.org/2000/svg" xmlns:xlink="http://www.w3.org/1999/xlink">
<g id="graph0" class="graph" transform="scale(1 1) rotate(0) translate(4 136)">
<title>VectoObjects.Abstract_Components_FCHV_Fx_PrimaryBusDeclarationType_v2_7</title>
<!-- Node1 -->
<g id="Node000001" class="node">
<title>Node1</title>
<g id="a_Node000001"><a xlink:title=" ">
<polygon fill="#999999" stroke="#666666" points="369.5,-88 204.25,-88 204.25,-44 369.5,-44 369.5,-88"/>
<text xml:space="preserve" text-anchor="start" x="212.25" y="-74.5" font-family="Helvetica,sans-Serif" font-size="10.00">VectoObjects.Abstract</text>
<text xml:space="preserve" text-anchor="start" x="212.25" y="-62.5" font-family="Helvetica,sans-Serif" font-size="10.00">_Components_FCHV_Fx_Primary</text>
<text xml:space="preserve" text-anchor="middle" x="286.88" y="-50.5" font-family="Helvetica,sans-Serif" font-size="10.00">BusDeclarationType_v2_7</text>
</a>
</g>
</g>
<!-- Node3 -->
<g id="Node000003" class="node">
<title>Node3</title>
<g id="a_Node000003"><a xlink:href="class_vecto_objects_1_1_components___f_c_h_v___f2___primary_bus_type__v2__7.html" target="_top" xlink:title=" ">
<polygon fill="white" stroke="#bfbfbf" points="574.5,-132 405.5,-132 405.5,-100 574.5,-100 574.5,-132"/>
<text xml:space="preserve" text-anchor="start" x="413.5" y="-118.5" font-family="Helvetica,sans-Serif" font-size="10.00">VectoObjects.Components</text>
<text xml:space="preserve" text-anchor="middle" x="490" y="-106.5" font-family="Helvetica,sans-Serif" font-size="10.00">_FCHV_F2_PrimaryBusType_v2_7</text>
</a>
</g>
</g>
<!-- Node1&#45;&gt;Node3 -->
<g id="edge2_Node000001_Node000003" class="edge">
<title>Node1&#45;&gt;Node3</title>
<g id="a_edge2_Node000001_Node000003"><a xlink:title=" ">
<path fill="none" stroke="#63b8ff" d="M380.77,-89.09C394.97,-92.62 409.38,-96.21 422.85,-99.55"/>
<polygon fill="#63b8ff" stroke="#63b8ff" points="381.99,-85.79 371.44,-86.77 380.3,-92.58 381.99,-85.79"/>
</a>
</g>
</g>
<!-- Node4 -->
<g id="Node000004" class="node">
<title>Node4</title>
<g id="a_Node000004"><a xlink:href="class_vecto_objects_1_1_components___f_c_h_v___f3___primary_bus_type__v2__7.html" target="_top" xlink:title=" ">
<polygon fill="white" stroke="#bfbfbf" points="574.5,-82 405.5,-82 405.5,-50 574.5,-50 574.5,-82"/>
<text xml:space="preserve" text-anchor="start" x="413.5" y="-68.5" font-family="Helvetica,sans-Serif" font-size="10.00">VectoObjects.Components</text>
<text xml:space="preserve" text-anchor="middle" x="490" y="-56.5" font-family="Helvetica,sans-Serif" font-size="10.00">_FCHV_F3_PrimaryBusType_v2_7</text>
</a>
</g>
</g>
<!-- Node1&#45;&gt;Node4 -->
<g id="edge3_Node000001_Node000004" class="edge">
<title>Node1&#45;&gt;Node4</title>
<g id="a_edge3_Node000001_Node000004"><a xlink:title=" ">
<path fill="none" stroke="#63b8ff" d="M381.22,-66C389.22,-66 397.29,-66 405.21,-66"/>
<polygon fill="#63b8ff" stroke="#63b8ff" points="381.48,-62.5 371.48,-66 381.48,-69.5 381.48,-62.5"/>
</a>
</g>
</g>
<!-- Node5 -->
<g id="Node000005" class="node">
<title>Node5</title>
<g id="a_Node000005"><a xlink:href="class_vecto_objects_1_1_components___f_c_h_v___f4___primary_bus_type__v2__7.html" target="_top" xlink:title=" ">
<polygon fill="white" stroke="#bfbfbf" points="574.5,-32 405.5,-32 405.5,0 574.5,0 574.5,-32"/>
<text xml:space="preserve" text-anchor="start" x="413.5" y="-18.5" font-family="Helvetica,sans-Serif" font-size="10.00">VectoObjects.Components</text>
<text xml:space="preserve" text-anchor="middle" x="490" y="-6.5" font-family="Helvetica,sans-Serif" font-size="10.00">_FCHV_F4_PrimaryBusType_v2_7</text>
</a>
</g>
</g>
<!-- Node1&#45;&gt;Node5 -->
<g id="edge4_Node000001_Node000005" class="edge">
<title>Node1&#45;&gt;Node5</title>
<g id="a_edge4_Node000001_Node000005"><a xlink:title=" ">
<path fill="none" stroke="#63b8ff" d="M380.77,-42.91C394.97,-39.38 409.38,-35.79 422.85,-32.45"/>
<polygon fill="#63b8ff" stroke="#63b8ff" points="380.3,-39.42 371.44,-45.23 381.99,-46.21 380.3,-39.42"/>
</a>
</g>
</g>
<!-- Node2 -->
<g id="Node000002" class="node">
<title>Node2</title>
<g id="a_Node000002"><a xlink:href="class_vecto_objects_1_1_abstract_vehicle_components_declaration_type__v2__0.html" target="_top" xlink:title=" ">
<polygon fill="white" stroke="#bfbfbf" points="168.25,-82 0,-82 0,-50 168.25,-50 168.25,-82"/>
<text xml:space="preserve" text-anchor="start" x="8" y="-68.5" font-family="Helvetica,sans-Serif" font-size="10.00">VectoObjects.AbstractVehicle</text>
<text xml:space="preserve" text-anchor="middle" x="84.12" y="-56.5" font-family="Helvetica,sans-Serif" font-size="10.00">ComponentsDeclarationType_v2_0</text>
</a>
</g>
</g>
<!-- Node2&#45;&gt;Node1 -->
<g id="edge1_Node000001_Node000002" class="edge">
<title>Node2&#45;&gt;Node1</title>
<g id="a_edge1_Node000001_Node000002"><a xlink:title=" ">
<path fill="none" stroke="#63b8ff" d="M179.88,-66C187.95,-66 196.07,-66 204.03,-66"/>
<polygon fill="#63b8ff" stroke="#63b8ff" points="180.03,-62.5 170.03,-66 180.03,-69.5 180.03,-62.5"/>
</a>
</g>
</g>
</g>
</svg>
