<?xml version="1.0" encoding="UTF-8" standalone="no"?>
<!DOCTYPE svg PUBLIC "-//W3C//DTD SVG 1.1//EN"
 "http://www.w3.org/Graphics/SVG/1.1/DTD/svg11.dtd">
<!-- Generated by graphviz version 14.0.2 (20251019.1705)
 -->
<!-- Title: VectoObjects.Vehicle_FCHV_Fx_MediumLorryDeclarationType_v2_7 Pages: 1 -->
<svg width="341pt" height="256pt"
 viewBox="0.00 0.00 341.00 256.00" xmlns="http://www.w3.org/2000/svg" xmlns:xlink="http://www.w3.org/1999/xlink">
<g id="graph0" class="graph" transform="scale(1 1) rotate(0) translate(4 252)">
<title>VectoObjects.Vehicle_FCHV_Fx_MediumLorryDeclarationType_v2_7</title>
<!-- Node1 -->
<g id="Node000001" class="node">
<title>Node1</title>
<g id="a_Node000001"><a xlink:title=" ">
<polygon fill="#999999" stroke="#666666" points="254.25,-44 77.75,-44 77.75,0 254.25,0 254.25,-44"/>
<text xml:space="preserve" text-anchor="start" x="85.75" y="-30.5" font-family="Helvetica,sans-Serif" font-size="10.00">VectoObjects.Vehicle</text>
<text xml:space="preserve" text-anchor="start" x="85.75" y="-18.5" font-family="Helvetica,sans-Serif" font-size="10.00">_FCHV_Fx_MediumLorryDeclaration</text>
<text xml:space="preserve" text-anchor="middle" x="166" y="-6.5" font-family="Helvetica,sans-Serif" font-size="10.00">Type_v2_7</text>
</a>
</g>
</g>
<!-- Node2 -->
<g id="Node000002" class="node">
<title>Node2</title>
<g id="a_Node000002"><a xlink:href="class_vecto_objects_1_1_abstract_vehicle_declaration_type__v2__0.html" target="_top" xlink:title=" ">
<polygon fill="white" stroke="#bfbfbf" points="152.88,-112 7.12,-112 7.12,-80 152.88,-80 152.88,-112"/>
<text xml:space="preserve" text-anchor="start" x="15.12" y="-98.5" font-family="Helvetica,sans-Serif" font-size="10.00">VectoObjects.AbstractVehicle</text>
<text xml:space="preserve" text-anchor="middle" x="80" y="-86.5" font-family="Helvetica,sans-Serif" font-size="10.00">DeclarationType_v2_0</text>
</a>
</g>
</g>
<!-- Node2&#45;&gt;Node1 -->
<g id="edge1_Node000001_Node000002" class="edge">
<title>Node2&#45;&gt;Node1</title>
<g id="a_edge1_Node000001_Node000002"><a xlink:title=" ">
<path fill="none" stroke="#63b8ff" d="M106.85,-72.52C117.62,-63.5 129.98,-53.15 140.61,-44.26"/>
<polygon fill="#63b8ff" stroke="#63b8ff" points="104.82,-69.66 99.4,-78.76 109.31,-75.02 104.82,-69.66"/>
</a>
</g>
</g>
<!-- Node3 -->
<g id="Node000003" class="node">
<title>Node3</title>
<g id="a_Node000003"><a xlink:href="class_vecto_objects_1_1_declaration_powertrain_component_type__v2__0.html" target="_top" xlink:title=" ">
<polygon fill="white" stroke="#bfbfbf" points="160,-180 0,-180 0,-148 160,-148 160,-180"/>
<text xml:space="preserve" text-anchor="start" x="8" y="-166.5" font-family="Helvetica,sans-Serif" font-size="10.00">VectoObjects.Declaration</text>
<text xml:space="preserve" text-anchor="middle" x="80" y="-154.5" font-family="Helvetica,sans-Serif" font-size="10.00">PowertrainComponentType_v2_0</text>
</a>
</g>
</g>
<!-- Node3&#45;&gt;Node2 -->
<g id="edge2_Node000002_Node000003" class="edge">
<title>Node3&#45;&gt;Node2</title>
<g id="a_edge2_Node000002_Node000003"><a xlink:title=" ">
<path fill="none" stroke="#63b8ff" d="M80,-136.31C80,-128.12 80,-119.38 80,-112.22"/>
<polygon fill="#63b8ff" stroke="#63b8ff" points="76.5,-136.18 80,-146.18 83.5,-136.18 76.5,-136.18"/>
</a>
</g>
</g>
<!-- Node4 -->
<g id="Node000004" class="node">
<title>Node4</title>
<g id="a_Node000004"><a xlink:href="class_vecto_objects_1_1_vecto_simulation_component__v2__0.html" target="_top" xlink:title=" ">
<polygon fill="white" stroke="#bfbfbf" points="154,-248 6,-248 6,-216 154,-216 154,-248"/>
<text xml:space="preserve" text-anchor="start" x="14" y="-234.5" font-family="Helvetica,sans-Serif" font-size="10.00">VectoObjects.VectoSimulation</text>
<text xml:space="preserve" text-anchor="middle" x="80" y="-222.5" font-family="Helvetica,sans-Serif" font-size="10.00">Component_v2_0</text>
</a>
</g>
</g>
<!-- Node4&#45;&gt;Node3 -->
<g id="edge3_Node000003_Node000004" class="edge">
<title>Node4&#45;&gt;Node3</title>
<g id="a_edge3_Node000003_Node000004"><a xlink:title=" ">
<path fill="none" stroke="#63b8ff" d="M80,-204.31C80,-196.12 80,-187.38 80,-180.22"/>
<polygon fill="#63b8ff" stroke="#63b8ff" points="76.5,-204.18 80,-214.18 83.5,-204.18 76.5,-204.18"/>
</a>
</g>
</g>
<!-- Node5 -->
<g id="Node000005" class="node">
<title>Node5</title>
<g id="a_Node000005"><a xlink:href="interface_vecto_objects_1_1_i_vehicle_declaration.html" target="_top" xlink:title=" ">
<polygon fill="white" stroke="#bfbfbf" points="332.75,-106 171.25,-106 171.25,-86 332.75,-86 332.75,-106"/>
<text xml:space="preserve" text-anchor="middle" x="252" y="-92.5" font-family="Helvetica,sans-Serif" font-size="10.00">VectoObjects.IVehicleDeclaration</text>
</a>
</g>
</g>
<!-- Node5&#45;&gt;Node1 -->
<g id="edge4_Node000001_Node000005" class="edge">
<title>Node5&#45;&gt;Node1</title>
<g id="a_edge4_Node000001_Node000005"><a xlink:title=" ">
<path fill="none" stroke="#63b8ff" d="M232.26,-78.47C220.11,-68.3 204.42,-55.16 191.36,-44.23"/>
<polygon fill="#63b8ff" stroke="#63b8ff" points="229.68,-80.88 239.6,-84.62 234.18,-75.51 229.68,-80.88"/>
</a>
</g>
</g>
</g>
</svg>
