<?xml version="1.0" encoding="UTF-8" standalone="no"?>
<!DOCTYPE svg PUBLIC "-//W3C//DTD SVG 1.1//EN"
 "http://www.w3.org/Graphics/SVG/1.1/DTD/svg11.dtd">
<!-- Generated by graphviz version 14.0.2 (20251019.1705)
 -->
<!-- Title: VectoObjects.Abstract_Components_FCHV_Fx_LorryDeclarationType_v2_7 Pages: 1 -->
<svg width="591pt" height="140pt"
 viewBox="0.00 0.00 591.00 140.00" xmlns="http://www.w3.org/2000/svg" xmlns:xlink="http://www.w3.org/1999/xlink">
<g id="graph0" class="graph" transform="scale(1 1) rotate(0) translate(4 136)">
<title>VectoObjects.Abstract_Components_FCHV_Fx_LorryDeclarationType_v2_7</title>
<!-- Node1 -->
<g id="Node000001" class="node">
<title>Node1</title>
<g id="a_Node000001"><a xlink:title=" ">
<polygon fill="#999999" stroke="#666666" points="407,-88 204.25,-88 204.25,-44 407,-44 407,-88"/>
<text xml:space="preserve" text-anchor="start" x="212.25" y="-74.5" font-family="Helvetica,sans-Serif" font-size="10.00">VectoObjects.Abstract</text>
<text xml:space="preserve" text-anchor="start" x="212.25" y="-62.5" font-family="Helvetica,sans-Serif" font-size="10.00">_Components_FCHV_Fx_LorryDeclaration</text>
<text xml:space="preserve" text-anchor="middle" x="305.62" y="-50.5" font-family="Helvetica,sans-Serif" font-size="10.00">Type_v2_7</text>
</a>
</g>
</g>
<!-- Node3 -->
<g id="Node000003" class="node">
<title>Node3</title>
<g id="a_Node000003"><a xlink:href="class_vecto_objects_1_1_components___f_c_h_v___f2___lorry_type__v2__7.html" target="_top" xlink:title=" ">
<polygon fill="white" stroke="#bfbfbf" points="582.75,-132 443,-132 443,-100 582.75,-100 582.75,-132"/>
<text xml:space="preserve" text-anchor="start" x="451" y="-118.5" font-family="Helvetica,sans-Serif" font-size="10.00">VectoObjects.Components</text>
<text xml:space="preserve" text-anchor="middle" x="512.88" y="-106.5" font-family="Helvetica,sans-Serif" font-size="10.00">_FCHV_F2_LorryType_v2_7</text>
</a>
</g>
</g>
<!-- Node1&#45;&gt;Node3 -->
<g id="edge2_Node000001_Node000003" class="edge">
<title>Node1&#45;&gt;Node3</title>
<g id="a_edge2_Node000001_Node000003"><a xlink:title=" ">
<path fill="none" stroke="#63b8ff" d="M409.93,-91.17C421.61,-94.01 433.29,-96.86 444.34,-99.55"/>
<polygon fill="#63b8ff" stroke="#63b8ff" points="410.76,-87.77 400.21,-88.8 409.1,-94.57 410.76,-87.77"/>
</a>
</g>
</g>
<!-- Node4 -->
<g id="Node000004" class="node">
<title>Node4</title>
<g id="a_Node000004"><a xlink:href="class_vecto_objects_1_1_components___f_c_h_v___f3___lorry_type__v2__7.html" target="_top" xlink:title=" ">
<polygon fill="white" stroke="#bfbfbf" points="582.75,-82 443,-82 443,-50 582.75,-50 582.75,-82"/>
<text xml:space="preserve" text-anchor="start" x="451" y="-68.5" font-family="Helvetica,sans-Serif" font-size="10.00">VectoObjects.Components</text>
<text xml:space="preserve" text-anchor="middle" x="512.88" y="-56.5" font-family="Helvetica,sans-Serif" font-size="10.00">_FCHV_F3_LorryType_v2_7</text>
</a>
</g>
</g>
<!-- Node1&#45;&gt;Node4 -->
<g id="edge3_Node000001_Node000004" class="edge">
<title>Node1&#45;&gt;Node4</title>
<g id="a_edge3_Node000001_Node000004"><a xlink:title=" ">
<path fill="none" stroke="#63b8ff" d="M418.93,-66C427.03,-66 435.05,-66 442.78,-66"/>
<polygon fill="#63b8ff" stroke="#63b8ff" points="418.96,-62.5 408.96,-66 418.96,-69.5 418.96,-62.5"/>
</a>
</g>
</g>
<!-- Node5 -->
<g id="Node000005" class="node">
<title>Node5</title>
<g id="a_Node000005"><a xlink:href="class_vecto_objects_1_1_components___f_c_h_v___f4___lorry_type__v2__7.html" target="_top" xlink:title=" ">
<polygon fill="white" stroke="#bfbfbf" points="582.75,-32 443,-32 443,0 582.75,0 582.75,-32"/>
<text xml:space="preserve" text-anchor="start" x="451" y="-18.5" font-family="Helvetica,sans-Serif" font-size="10.00">VectoObjects.Components</text>
<text xml:space="preserve" text-anchor="middle" x="512.88" y="-6.5" font-family="Helvetica,sans-Serif" font-size="10.00">_FCHV_F4_LorryType_v2_7</text>
</a>
</g>
</g>
<!-- Node1&#45;&gt;Node5 -->
<g id="edge4_Node000001_Node000005" class="edge">
<title>Node1&#45;&gt;Node5</title>
<g id="a_edge4_Node000001_Node000005"><a xlink:title=" ">
<path fill="none" stroke="#63b8ff" d="M409.93,-40.83C421.61,-37.99 433.29,-35.14 444.34,-32.45"/>
<polygon fill="#63b8ff" stroke="#63b8ff" points="409.1,-37.43 400.21,-43.2 410.76,-44.23 409.1,-37.43"/>
</a>
</g>
</g>
<!-- Node2 -->
<g id="Node000002" class="node">
<title>Node2</title>
<g id="a_Node000002"><a xlink:href="class_vecto_objects_1_1_abstract_vehicle_components_declaration_type__v2__0.html" target="_top" xlink:title=" ">
<polygon fill="white" stroke="#bfbfbf" points="168.25,-82 0,-82 0,-50 168.25,-50 168.25,-82"/>
<text xml:space="preserve" text-anchor="start" x="8" y="-68.5" font-family="Helvetica,sans-Serif" font-size="10.00">VectoObjects.AbstractVehicle</text>
<text xml:space="preserve" text-anchor="middle" x="84.12" y="-56.5" font-family="Helvetica,sans-Serif" font-size="10.00">ComponentsDeclarationType_v2_0</text>
</a>
</g>
</g>
<!-- Node2&#45;&gt;Node1 -->
<g id="edge1_Node000001_Node000002" class="edge">
<title>Node2&#45;&gt;Node1</title>
<g id="a_edge1_Node000001_Node000002"><a xlink:title=" ">
<path fill="none" stroke="#63b8ff" d="M180.18,-66C188.05,-66 196.03,-66 203.94,-66"/>
<polygon fill="#63b8ff" stroke="#63b8ff" points="180.25,-62.5 170.25,-66 180.25,-69.5 180.25,-62.5"/>
</a>
</g>
</g>
</g>
</svg>
