<?xml version="1.0" encoding="UTF-8" standalone="no"?>
<!DOCTYPE svg PUBLIC "-//W3C//DTD SVG 1.1//EN"
 "http://www.w3.org/Graphics/SVG/1.1/DTD/svg11.dtd">
<!-- Generated by graphviz version 14.0.2 (20251019.1705)
 -->
<!-- Title: VectoObjects.AbstractElectricMachineSystemDataType_v2_3 Pages: 1 -->
<svg width="593pt" height="164pt"
 viewBox="0.00 0.00 593.00 164.00" xmlns="http://www.w3.org/2000/svg" xmlns:xlink="http://www.w3.org/1999/xlink">
<g id="graph0" class="graph" transform="scale(1 1) rotate(0) translate(4 160)">
<title>VectoObjects.AbstractElectricMachineSystemDataType_v2_3</title>
<!-- Node1 -->
<g id="Node000001" class="node">
<title>Node1</title>
<g id="a_Node000001"><a xlink:title=" ">
<polygon fill="#999999" stroke="#666666" points="338.75,-94 184,-94 184,-62 338.75,-62 338.75,-94"/>
<text xml:space="preserve" text-anchor="start" x="192" y="-80.5" font-family="Helvetica,sans-Serif" font-size="10.00">VectoObjects.AbstractElectric</text>
<text xml:space="preserve" text-anchor="middle" x="261.38" y="-68.5" font-family="Helvetica,sans-Serif" font-size="10.00">MachineSystemDataType_v2_3</text>
</a>
</g>
</g>
<!-- Node3 -->
<g id="Node000003" class="node">
<title>Node3</title>
<g id="a_Node000003"><a xlink:href="class_vecto_objects_1_1_electric_machine_system_i_h_p_c_measured_data_declaration_type__v2__3.html" target="_top" xlink:title=" ">
<polygon fill="white" stroke="#bfbfbf" points="573.75,-156 386,-156 386,-112 573.75,-112 573.75,-156"/>
<text xml:space="preserve" text-anchor="start" x="394" y="-142.5" font-family="Helvetica,sans-Serif" font-size="10.00">VectoObjects.ElectricMachine</text>
<text xml:space="preserve" text-anchor="start" x="394" y="-130.5" font-family="Helvetica,sans-Serif" font-size="10.00">SystemIHPCMeasuredDataDeclaration</text>
<text xml:space="preserve" text-anchor="middle" x="479.88" y="-118.5" font-family="Helvetica,sans-Serif" font-size="10.00">Type_v2_3</text>
</a>
</g>
</g>
<!-- Node1&#45;&gt;Node3 -->
<g id="edge2_Node000001_Node000003" class="edge">
<title>Node1&#45;&gt;Node3</title>
<g id="a_edge2_Node000001_Node000003"><a xlink:title=" ">
<path fill="none" stroke="#63b8ff" d="M337.3,-97.38C355.03,-101.97 374.08,-106.89 392.28,-111.6"/>
<polygon fill="#63b8ff" stroke="#63b8ff" points="338.18,-93.99 327.63,-94.88 336.43,-100.77 338.18,-93.99"/>
</a>
</g>
</g>
<!-- Node4 -->
<g id="Node000004" class="node">
<title>Node4</title>
<g id="a_Node000004"><a xlink:href="class_vecto_objects_1_1_electric_machine_system_measured_data_declaration_type__v2__3.html" target="_top" xlink:title=" ">
<polygon fill="white" stroke="#bfbfbf" points="585,-94 374.75,-94 374.75,-62 585,-62 585,-94"/>
<text xml:space="preserve" text-anchor="start" x="382.75" y="-80.5" font-family="Helvetica,sans-Serif" font-size="10.00">VectoObjects.ElectricMachine</text>
<text xml:space="preserve" text-anchor="middle" x="479.88" y="-68.5" font-family="Helvetica,sans-Serif" font-size="10.00">SystemMeasuredDataDeclarationType_v2_3</text>
</a>
</g>
</g>
<!-- Node1&#45;&gt;Node4 -->
<g id="edge3_Node000001_Node000004" class="edge">
<title>Node1&#45;&gt;Node4</title>
<g id="a_edge3_Node000001_Node000004"><a xlink:title=" ">
<path fill="none" stroke="#63b8ff" d="M350.41,-78C358.28,-78 366.3,-78 374.29,-78"/>
<polygon fill="#63b8ff" stroke="#63b8ff" points="350.52,-74.5 340.52,-78 350.52,-81.5 350.52,-74.5"/>
</a>
</g>
</g>
<!-- Node5 -->
<g id="Node000005" class="node">
<title>Node5</title>
<g id="a_Node000005"><a xlink:href="class_vecto_objects_1_1_electric_machine_system_standard_values_data_declaration_type__v2__3.html" target="_top" xlink:title=" ">
<polygon fill="white" stroke="#bfbfbf" points="574.12,-44 385.62,-44 385.62,0 574.12,0 574.12,-44"/>
<text xml:space="preserve" text-anchor="start" x="393.62" y="-30.5" font-family="Helvetica,sans-Serif" font-size="10.00">VectoObjects.ElectricMachine</text>
<text xml:space="preserve" text-anchor="start" x="393.62" y="-18.5" font-family="Helvetica,sans-Serif" font-size="10.00">SystemStandardValuesDataDeclaration</text>
<text xml:space="preserve" text-anchor="middle" x="479.88" y="-6.5" font-family="Helvetica,sans-Serif" font-size="10.00">Type_v2_3</text>
</a>
</g>
</g>
<!-- Node1&#45;&gt;Node5 -->
<g id="edge4_Node000001_Node000005" class="edge">
<title>Node1&#45;&gt;Node5</title>
<g id="a_edge4_Node000001_Node000005"><a xlink:title=" ">
<path fill="none" stroke="#63b8ff" d="M337.3,-58.62C355.03,-54.03 374.08,-49.11 392.28,-44.4"/>
<polygon fill="#63b8ff" stroke="#63b8ff" points="336.43,-55.23 327.63,-61.12 338.18,-62.01 336.43,-55.23"/>
</a>
</g>
</g>
<!-- Node2 -->
<g id="Node000002" class="node">
<title>Node2</title>
<g id="a_Node000002"><a xlink:href="class_vecto_objects_1_1_vecto_simulation_component__v1__0.html" target="_top" xlink:title=" ">
<polygon fill="white" stroke="#bfbfbf" points="148,-94 0,-94 0,-62 148,-62 148,-94"/>
<text xml:space="preserve" text-anchor="start" x="8" y="-80.5" font-family="Helvetica,sans-Serif" font-size="10.00">VectoObjects.VectoSimulation</text>
<text xml:space="preserve" text-anchor="middle" x="74" y="-68.5" font-family="Helvetica,sans-Serif" font-size="10.00">Component_v1_0</text>
</a>
</g>
</g>
<!-- Node2&#45;&gt;Node1 -->
<g id="edge1_Node000001_Node000002" class="edge">
<title>Node2&#45;&gt;Node1</title>
<g id="a_edge1_Node000001_Node000002"><a xlink:title=" ">
<path fill="none" stroke="#63b8ff" d="M159.55,-78C167.6,-78 175.72,-78 183.68,-78"/>
<polygon fill="#63b8ff" stroke="#63b8ff" points="159.78,-74.5 149.78,-78 159.78,-81.5 159.78,-74.5"/>
</a>
</g>
</g>
</g>
</svg>
