<?xml version="1.0" encoding="UTF-8" standalone="no"?>
<!DOCTYPE svg PUBLIC "-//W3C//DTD SVG 1.1//EN"
 "http://www.w3.org/Graphics/SVG/1.1/DTD/svg11.dtd">
<!-- Generated by graphviz version 14.0.2 (20251019.1705)
 -->
<!-- Title: VectoInputManager.Core.BaseStandardValues Pages: 1 -->
<svg width="395pt" height="540pt"
 viewBox="0.00 0.00 395.00 540.00" xmlns="http://www.w3.org/2000/svg" xmlns:xlink="http://www.w3.org/1999/xlink">
<g id="graph0" class="graph" transform="scale(1 1) rotate(0) translate(4 536)">
<title>VectoInputManager.Core.BaseStandardValues</title>
<!-- Node1 -->
<g id="Node000001" class="node">
<title>Node1</title>
<g id="a_Node000001"><a xlink:title="Abstract base class for standard values calculators. Each component type has a concrete implementatio...">
<polygon fill="#999999" stroke="#666666" points="149.5,-282 0,-282 0,-250 149.5,-250 149.5,-282"/>
<text xml:space="preserve" text-anchor="start" x="8" y="-268.5" font-family="Helvetica,sans-Serif" font-size="10.00">VectoInputManager.Core.Base</text>
<text xml:space="preserve" text-anchor="middle" x="74.75" y="-256.5" font-family="Helvetica,sans-Serif" font-size="10.00">StandardValues</text>
</a>
</g>
</g>
<!-- Node2 -->
<g id="Node000002" class="node">
<title>Node2</title>
<g id="a_Node000002"><a xlink:href="class_vecto_input_manager_1_1_core_1_1_a_d_c_component_standard_values.html" target="_top" xlink:title="Calculates standard values for an Additional Driveline Component (ADC), producing a ratio and torque ...">
<polygon fill="white" stroke="#666666" points="385.62,-532 186.62,-532 186.62,-500 385.62,-500 385.62,-532"/>
<text xml:space="preserve" text-anchor="start" x="194.62" y="-518.5" font-family="Helvetica,sans-Serif" font-size="10.00">VectoInputManager.Core.ADCComponent</text>
<text xml:space="preserve" text-anchor="middle" x="286.12" y="-506.5" font-family="Helvetica,sans-Serif" font-size="10.00">StandardValues</text>
</a>
</g>
</g>
<!-- Node1&#45;&gt;Node2 -->
<g id="edge1_Node000001_Node000002" class="edge">
<title>Node1&#45;&gt;Node2</title>
<g id="a_edge1_Node000001_Node000002"><a xlink:title=" ">
<path fill="none" stroke="#63b8ff" d="M81.18,-293.2C92.15,-340.82 121.55,-439.14 185.5,-491 189.52,-494.26 193.9,-497.1 198.52,-499.57"/>
<polygon fill="#63b8ff" stroke="#63b8ff" points="84.66,-292.74 79.1,-283.72 77.83,-294.24 84.66,-292.74"/>
</a>
</g>
</g>
<!-- Node3 -->
<g id="Node000003" class="node">
<title>Node3</title>
<g id="a_Node000003"><a xlink:href="class_vecto_input_manager_1_1_core_1_1_angledrive_component_standard_values.html" target="_top" xlink:title="Calculates standard values for an angle drive from ratio, input torque and speed/torque grids,...">
<polygon fill="white" stroke="#666666" points="372.5,-482 199.75,-482 199.75,-450 372.5,-450 372.5,-482"/>
<text xml:space="preserve" text-anchor="start" x="207.75" y="-468.5" font-family="Helvetica,sans-Serif" font-size="10.00">VectoInputManager.Core.Angledrive</text>
<text xml:space="preserve" text-anchor="middle" x="286.12" y="-456.5" font-family="Helvetica,sans-Serif" font-size="10.00">ComponentStandardValues</text>
</a>
</g>
</g>
<!-- Node1&#45;&gt;Node3 -->
<g id="edge2_Node000001_Node000003" class="edge">
<title>Node1&#45;&gt;Node3</title>
<g id="a_edge2_Node000001_Node000003"><a xlink:title=" ">
<path fill="none" stroke="#63b8ff" d="M85.16,-292.94C100.15,-331.79 133.21,-403.02 185.5,-441 189.97,-444.25 194.82,-447.08 199.89,-449.54"/>
<polygon fill="#63b8ff" stroke="#63b8ff" points="88.55,-292.02 81.78,-283.87 81.99,-294.46 88.55,-292.02"/>
</a>
</g>
</g>
<!-- Node4 -->
<g id="Node000004" class="node">
<title>Node4</title>
<g id="a_Node000004"><a xlink:href="class_vecto_input_manager_1_1_core_1_1_axle_component_standard_values.html" target="_top" xlink:title="Calculates standard values for an axle (axlegear), deriving a torque loss map from ratio,...">
<polygon fill="white" stroke="#666666" points="359.38,-432 212.88,-432 212.88,-400 359.38,-400 359.38,-432"/>
<text xml:space="preserve" text-anchor="start" x="220.88" y="-418.5" font-family="Helvetica,sans-Serif" font-size="10.00">VectoInputManager.Core.Axle</text>
<text xml:space="preserve" text-anchor="middle" x="286.12" y="-406.5" font-family="Helvetica,sans-Serif" font-size="10.00">ComponentStandardValues</text>
</a>
</g>
</g>
<!-- Node1&#45;&gt;Node4 -->
<g id="edge3_Node000001_Node000004" class="edge">
<title>Node1&#45;&gt;Node4</title>
<g id="a_edge3_Node000001_Node000004"><a xlink:title=" ">
<path fill="none" stroke="#63b8ff" d="M91.3,-291.57C110.06,-320.18 144.27,-365.83 185.5,-391 193.8,-396.06 203.07,-400.1 212.54,-403.33"/>
<polygon fill="#63b8ff" stroke="#63b8ff" points="94.48,-290.03 86.14,-283.49 88.58,-293.8 94.48,-290.03"/>
</a>
</g>
</g>
<!-- Node5 -->
<g id="Node000005" class="node">
<title>Node5</title>
<g id="a_Node000005"><a xlink:href="class_vecto_input_manager_1_1_core_1_1_battery_component_standard_values.html" target="_top" xlink:title="Calculates standard values for a battery system (OCV curve, internal resistance, current limits) from...">
<polygon fill="white" stroke="#666666" points="365.38,-382 206.88,-382 206.88,-350 365.38,-350 365.38,-382"/>
<text xml:space="preserve" text-anchor="start" x="214.88" y="-368.5" font-family="Helvetica,sans-Serif" font-size="10.00">VectoInputManager.Core.Battery</text>
<text xml:space="preserve" text-anchor="middle" x="286.12" y="-356.5" font-family="Helvetica,sans-Serif" font-size="10.00">ComponentStandardValues</text>
</a>
</g>
</g>
<!-- Node1&#45;&gt;Node5 -->
<g id="edge4_Node000001_Node000005" class="edge">
<title>Node1&#45;&gt;Node5</title>
<g id="a_edge4_Node000001_Node000005"><a xlink:title=" ">
<path fill="none" stroke="#63b8ff" d="M103.88,-289.38C125.12,-305.96 155.62,-327.56 185.5,-341 192.66,-344.22 200.29,-347.07 208.04,-349.58"/>
<polygon fill="#63b8ff" stroke="#63b8ff" points="106.29,-286.82 96.28,-283.34 101.93,-292.3 106.29,-286.82"/>
</a>
</g>
</g>
<!-- Node6 -->
<g id="Node000006" class="node">
<title>Node6</title>
<g id="a_Node000006"><a xlink:href="class_vecto_input_manager_1_1_core_1_1_capacitor_component_standard_values.html" target="_top" xlink:title="Calculates standard values for a capacitor system (capacitance, internal resistance,...">
<polygon fill="white" stroke="#666666" points="370.62,-332 201.62,-332 201.62,-300 370.62,-300 370.62,-332"/>
<text xml:space="preserve" text-anchor="start" x="209.62" y="-318.5" font-family="Helvetica,sans-Serif" font-size="10.00">VectoInputManager.Core.Capacitor</text>
<text xml:space="preserve" text-anchor="middle" x="286.12" y="-306.5" font-family="Helvetica,sans-Serif" font-size="10.00">ComponentStandardValues</text>
</a>
</g>
</g>
<!-- Node1&#45;&gt;Node6 -->
<g id="edge5_Node000001_Node000006" class="edge">
<title>Node1&#45;&gt;Node6</title>
<g id="a_edge5_Node000001_Node000006"><a xlink:title=" ">
<path fill="none" stroke="#63b8ff" d="M155.55,-285.06C175.55,-289.83 196.82,-294.91 216.24,-299.55"/>
<polygon fill="#63b8ff" stroke="#63b8ff" points="156.61,-281.71 146.07,-282.79 154.98,-288.52 156.61,-281.71"/>
</a>
</g>
</g>
<!-- Node7 -->
<g id="Node000007" class="node">
<title>Node7</title>
<g id="a_Node000007"><a xlink:href="class_vecto_input_manager_1_1_core_1_1_e_m_s_component_standard_values.html" target="_top" xlink:title=" ">
<polygon fill="white" stroke="#bfbfbf" points="385.62,-282 186.62,-282 186.62,-250 385.62,-250 385.62,-282"/>
<text xml:space="preserve" text-anchor="start" x="194.62" y="-268.5" font-family="Helvetica,sans-Serif" font-size="10.00">VectoInputManager.Core.EMSComponent</text>
<text xml:space="preserve" text-anchor="middle" x="286.12" y="-256.5" font-family="Helvetica,sans-Serif" font-size="10.00">StandardValues</text>
</a>
</g>
</g>
<!-- Node1&#45;&gt;Node7 -->
<g id="edge6_Node000001_Node000007" class="edge">
<title>Node1&#45;&gt;Node7</title>
<g id="a_edge6_Node000001_Node000007"><a xlink:title=" ">
<path fill="none" stroke="#63b8ff" d="M161.32,-266C169.51,-266 177.87,-266 186.18,-266"/>
<polygon fill="#63b8ff" stroke="#63b8ff" points="161.38,-262.5 151.38,-266 161.38,-269.5 161.38,-262.5"/>
</a>
</g>
</g>
<!-- Node8 -->
<g id="Node000008" class="node">
<title>Node8</title>
<g id="a_Node000008"><a xlink:href="class_vecto_input_manager_1_1_core_1_1_fuel_cell_component_standard_values.html" target="_top" xlink:title="Calculates standard values for a fuel cell system using rated power and standard efficiency curves to...">
<polygon fill="white" stroke="#666666" points="362,-232 210.25,-232 210.25,-200 362,-200 362,-232"/>
<text xml:space="preserve" text-anchor="start" x="218.25" y="-218.5" font-family="Helvetica,sans-Serif" font-size="10.00">VectoInputManager.Core.Fuel</text>
<text xml:space="preserve" text-anchor="middle" x="286.12" y="-206.5" font-family="Helvetica,sans-Serif" font-size="10.00">CellComponentStandardValues</text>
</a>
</g>
</g>
<!-- Node1&#45;&gt;Node8 -->
<g id="edge7_Node000001_Node000008" class="edge">
<title>Node1&#45;&gt;Node8</title>
<g id="a_edge7_Node000001_Node000008"><a xlink:title=" ">
<path fill="none" stroke="#63b8ff" d="M155.55,-246.94C175.55,-242.17 196.82,-237.09 216.24,-232.45"/>
<polygon fill="#63b8ff" stroke="#63b8ff" points="154.98,-243.48 146.07,-249.21 156.61,-250.29 154.98,-243.48"/>
</a>
</g>
</g>
<!-- Node9 -->
<g id="Node000009" class="node">
<title>Node9</title>
<g id="a_Node000009"><a xlink:href="class_vecto_input_manager_1_1_core_1_1_gearbox_component_standard_values.html" target="_top" xlink:title="Calculates standard values for a gearbox based on input parameters and Annex VI guidance....">
<polygon fill="white" stroke="#666666" points="368,-182 204.25,-182 204.25,-150 368,-150 368,-182"/>
<text xml:space="preserve" text-anchor="start" x="212.25" y="-168.5" font-family="Helvetica,sans-Serif" font-size="10.00">VectoInputManager.Core.Gearbox</text>
<text xml:space="preserve" text-anchor="middle" x="286.12" y="-156.5" font-family="Helvetica,sans-Serif" font-size="10.00">ComponentStandardValues</text>
</a>
</g>
</g>
<!-- Node1&#45;&gt;Node9 -->
<g id="edge8_Node000001_Node000009" class="edge">
<title>Node1&#45;&gt;Node9</title>
<g id="a_edge8_Node000001_Node000009"><a xlink:title=" ">
<path fill="none" stroke="#63b8ff" d="M103.88,-242.62C125.12,-226.04 155.62,-204.44 185.5,-191 192.66,-187.78 200.29,-184.93 208.04,-182.42"/>
<polygon fill="#63b8ff" stroke="#63b8ff" points="101.93,-239.7 96.28,-248.66 106.29,-245.18 101.93,-239.7"/>
</a>
</g>
</g>
<!-- Node10 -->
<g id="Node000010" class="node">
<title>Node10</title>
<g id="a_Node000010"><a xlink:href="class_vecto_input_manager_1_1_core_1_1_i_e_p_c_component_standard_values.html" target="_top" xlink:title=" ">
<polygon fill="white" stroke="#bfbfbf" points="386.75,-132 185.5,-132 185.5,-100 386.75,-100 386.75,-132"/>
<text xml:space="preserve" text-anchor="start" x="193.5" y="-118.5" font-family="Helvetica,sans-Serif" font-size="10.00">VectoInputManager.Core.IEPCComponent</text>
<text xml:space="preserve" text-anchor="middle" x="286.12" y="-106.5" font-family="Helvetica,sans-Serif" font-size="10.00">StandardValues</text>
</a>
</g>
</g>
<!-- Node1&#45;&gt;Node10 -->
<g id="edge9_Node000001_Node000010" class="edge">
<title>Node1&#45;&gt;Node10</title>
<g id="a_edge9_Node000001_Node000010"><a xlink:title=" ">
<path fill="none" stroke="#63b8ff" d="M91.3,-240.43C110.06,-211.82 144.27,-166.17 185.5,-141 190.83,-137.75 196.56,-134.92 202.49,-132.46"/>
<polygon fill="#63b8ff" stroke="#63b8ff" points="88.58,-238.2 86.14,-248.51 94.48,-241.97 88.58,-238.2"/>
</a>
</g>
</g>
<!-- Node11 -->
<g id="Node000011" class="node">
<title>Node11</title>
<g id="a_Node000011"><a xlink:href="class_vecto_input_manager_1_1_core_1_1_retarder_component_standard_values.html" target="_top" xlink:title="Calculates standard values for a retarder (hydrodynamic/magnetic) and generates a drag torque loss cu...">
<polygon fill="white" stroke="#666666" points="368.38,-82 203.88,-82 203.88,-50 368.38,-50 368.38,-82"/>
<text xml:space="preserve" text-anchor="start" x="211.88" y="-68.5" font-family="Helvetica,sans-Serif" font-size="10.00">VectoInputManager.Core.Retarder</text>
<text xml:space="preserve" text-anchor="middle" x="286.12" y="-56.5" font-family="Helvetica,sans-Serif" font-size="10.00">ComponentStandardValues</text>
</a>
</g>
</g>
<!-- Node1&#45;&gt;Node11 -->
<g id="edge10_Node000001_Node000011" class="edge">
<title>Node1&#45;&gt;Node11</title>
<g id="a_edge10_Node000001_Node000011"><a xlink:title=" ">
<path fill="none" stroke="#63b8ff" d="M85.16,-239.06C100.15,-200.21 133.21,-128.98 185.5,-91 191.05,-86.96 197.19,-83.58 203.61,-80.74"/>
<polygon fill="#63b8ff" stroke="#63b8ff" points="81.99,-237.54 81.78,-248.13 88.55,-239.98 81.99,-237.54"/>
</a>
</g>
</g>
<!-- Node12 -->
<g id="Node000012" class="node">
<title>Node12</title>
<g id="a_Node000012"><a xlink:href="class_vecto_input_manager_1_1_core_1_1_torque_converter_component_standard_values.html" target="_top" xlink:title="Calculates standard torque converter characteristics (speed/torque ratio curves) from rated speed and...">
<polygon fill="white" stroke="#666666" points="374.75,-32 197.5,-32 197.5,0 374.75,0 374.75,-32"/>
<text xml:space="preserve" text-anchor="start" x="205.5" y="-18.5" font-family="Helvetica,sans-Serif" font-size="10.00">VectoInputManager.Core.Torque</text>
<text xml:space="preserve" text-anchor="middle" x="286.12" y="-6.5" font-family="Helvetica,sans-Serif" font-size="10.00">ConverterComponentStandardValues</text>
</a>
</g>
</g>
<!-- Node1&#45;&gt;Node12 -->
<g id="edge11_Node000001_Node000012" class="edge">
<title>Node1&#45;&gt;Node12</title>
<g id="a_edge11_Node000001_Node000012"><a xlink:title=" ">
<path fill="none" stroke="#63b8ff" d="M81.18,-238.8C92.15,-191.18 121.55,-92.86 185.5,-41 189.52,-37.74 193.9,-34.9 198.52,-32.43"/>
<polygon fill="#63b8ff" stroke="#63b8ff" points="77.83,-237.76 79.1,-248.28 84.66,-239.26 77.83,-237.76"/>
</a>
</g>
</g>
</g>
</svg>
