<?xml version="1.0" encoding="UTF-8" standalone="no"?>
<!DOCTYPE svg PUBLIC "-//W3C//DTD SVG 1.1//EN"
 "http://www.w3.org/Graphics/SVG/1.1/DTD/svg11.dtd">
<!-- Generated by graphviz version 14.0.2 (20251019.1705)
 -->
<!-- Title: VectoInputManager.Cli.CommonCommandSettings Pages: 1 -->
<!--zoomable 190 -->

<svg id="main" version="1.1" xmlns="http://www.w3.org/2000/svg" xmlns:xlink="http://www.w3.org/1999/xlink" xml:space="preserve" onload="init(evt)">

<style type="text/css"><![CDATA[
.node, .edge {opacity: 0.7;}
.node.selected, .edge.selected {opacity: 1;}
.edge:hover path { stroke: red; }
.edge:hover polygon { stroke: red; fill: red; }
]]></style>

<defs>
  <circle id="rim" cx="0" cy="0" r="7"/>
  <circle id="rim2" cx="0" cy="0" r="3.5"/>
  <g id="zoomPlus">
    <use xlink:href="#rim" fill="#404040"><set attributeName="fill" to="#808080" begin="zoomplus.mouseover" end="zoomplus.mouseout"/></use>
    <path d="M-4,0h8M0,-4v8" fill="none" stroke="white" stroke-width="1.5" pointer-events="none"/>
  </g>
  <g id="zoomMin">
    <use xlink:href="#rim" fill="#404040"><set attributeName="fill" to="#808080" begin="zoomminus.mouseover" end="zoomminus.mouseout"/></use>
    <path d="M-4,0h8" fill="none" stroke="white" stroke-width="1.5" pointer-events="none"/>
  </g>
  <g id="arrowUp" transform="translate(30 24)">
    <use xlink:href="#rim"/>
    <path pointer-events="none" fill="none" stroke="white" stroke-width="1.5" d="M0,-3.0v7 M-2.5,-0.5L0,-3.0L2.5,-0.5"/>
  </g>
  <g id="arrowRight" transform="rotate(90) translate(36 -43)">
    <use xlink:href="#rim"/>
    <path pointer-events="none" fill="none" stroke="white" stroke-width="1.5" d="M0,-3.0v7 M-2.5,-0.5L0,-3.0L2.5,-0.5"/>
  </g>
  <g id="arrowDown" transform="rotate(180) translate(-30 -48)">
    <use xlink:href="#rim"/>
    <path pointer-events="none" fill="none" stroke="white" stroke-width="1.5" d="M0,-3.0v7 M-2.5,-0.5L0,-3.0L2.5,-0.5"/>
  </g>
  <g id="arrowLeft" transform="rotate(270) translate(-36 17)">
    <use xlink:href="#rim"/>
    <path pointer-events="none" fill="none" stroke="white" stroke-width="1.5" d="M0,-3.0v7 M-2.5,-0.5L0,-3.0L2.5,-0.5"/>
  </g>
  <g id="resetDef">
    <use xlink:href="#rim2" fill="#404040"><set attributeName="fill" to="#808080" begin="reset.mouseover" end="reset.mouseout"/></use>
  </g>
</defs>
<script type="application/ecmascript">
var viewWidth = 509;
var viewHeight = 190;
var sectionId = 'dynsection-0';
</script>
<script type="application/ecmascript" xlink:href="svg.min.js"/>
<svg id="graph" class="graph">
<g id="viewport">
<title>VectoInputManager.Cli.CommonCommandSettings</title>
<!-- Node1 -->
<g id="Node000001" class="node">
<title>Node1</title>
<g id="a_Node000001"><a xlink:title="Base settings for all CLI commands, including a common verbose logging option. When verbose is enable...">
<polygon fill="#999999" stroke="#666666" points="290.75,-107 133,-107 133,-75 290.75,-75 290.75,-107"/>
<text xml:space="preserve" text-anchor="start" x="141" y="-93.5" font-family="Helvetica,sans-Serif" font-size="10.00">VectoInputManager.Cli.Common</text>
<text xml:space="preserve" text-anchor="middle" x="211.88" y="-81.5" font-family="Helvetica,sans-Serif" font-size="10.00">CommandSettings</text>
</a>
</g>
</g>
<!-- Node3 -->
<g id="Node000003" class="node">
<title>Node3</title>
<g id="a_Node000003"><a xlink:href="class_vecto_input_manager_1_1_cli_1_1_component_extractor_command_1_1_settings.html" target="_top" xlink:title=" ">
<polygon fill="white" stroke="#bfbfbf" points="498,-182 329.75,-182 329.75,-150 498,-150 498,-182"/>
<text xml:space="preserve" text-anchor="start" x="337.75" y="-168.5" font-family="Helvetica,sans-Serif" font-size="10.00">VectoInputManager.Cli.Component</text>
<text xml:space="preserve" text-anchor="middle" x="413.88" y="-156.5" font-family="Helvetica,sans-Serif" font-size="10.00">ExtractorCommand.Settings</text>
</a>
</g>
</g>
<!-- Node1&#45;&gt;Node3 -->
<g id="edge2_Node000001_Node000003" class="edge">
<title>Node1&#45;&gt;Node3</title>
<g id="a_edge2_Node000001_Node000003"><a xlink:title=" ">
<path fill="none" stroke="#63b8ff" d="M257.24,-112.1C278.08,-121.59 303.42,-132.53 326.75,-141 334.95,-143.97 343.68,-146.84 352.32,-149.51"/>
<polygon fill="#63b8ff" stroke="#63b8ff" points="258.7,-108.92 248.16,-107.92 255.78,-115.28 258.7,-108.92"/>
</a>
</g>
</g>
<!-- Node4 -->
<g id="Node000004" class="node">
<title>Node4</title>
<g id="a_Node000004"><a xlink:href="class_vecto_input_manager_1_1_cli_1_1_job_creator_command_1_1_settings.html" target="_top" xlink:title=" ">
<polygon fill="white" stroke="#bfbfbf" points="480.75,-132 347,-132 347,-100 480.75,-100 480.75,-132"/>
<text xml:space="preserve" text-anchor="start" x="355" y="-118.5" font-family="Helvetica,sans-Serif" font-size="10.00">VectoInputManager.Cli.Job</text>
<text xml:space="preserve" text-anchor="middle" x="413.88" y="-106.5" font-family="Helvetica,sans-Serif" font-size="10.00">CreatorCommand.Settings</text>
</a>
</g>
</g>
<!-- Node1&#45;&gt;Node4 -->
<g id="edge3_Node000001_Node000004" class="edge">
<title>Node1&#45;&gt;Node4</title>
<g id="a_edge3_Node000001_Node000004"><a xlink:title=" ">
<path fill="none" stroke="#63b8ff" d="M302.38,-102.19C317.3,-104.05 332.53,-105.96 346.72,-107.73"/>
<polygon fill="#63b8ff" stroke="#63b8ff" points="302.92,-98.73 292.56,-100.96 302.05,-105.67 302.92,-98.73"/>
</a>
</g>
</g>
<!-- Node5 -->
<g id="Node000005" class="node">
<title>Node5</title>
<g id="a_Node000005"><a xlink:href="class_vecto_input_manager_1_1_cli_1_1_standard_values_command_1_1_settings.html" target="_top" xlink:title=" ">
<polygon fill="white" stroke="#bfbfbf" points="492.38,-82 335.38,-82 335.38,-50 492.38,-50 492.38,-82"/>
<text xml:space="preserve" text-anchor="start" x="343.38" y="-68.5" font-family="Helvetica,sans-Serif" font-size="10.00">VectoInputManager.Cli.Standard</text>
<text xml:space="preserve" text-anchor="middle" x="413.88" y="-56.5" font-family="Helvetica,sans-Serif" font-size="10.00">ValuesCommand.Settings</text>
</a>
</g>
</g>
<!-- Node1&#45;&gt;Node5 -->
<g id="edge4_Node000001_Node000005" class="edge">
<title>Node1&#45;&gt;Node5</title>
<g id="a_edge4_Node000001_Node000005"><a xlink:title=" ">
<path fill="none" stroke="#63b8ff" d="M302.35,-79.82C313.26,-78.45 324.35,-77.07 335.07,-75.73"/>
<polygon fill="#63b8ff" stroke="#63b8ff" points="302.05,-76.33 292.56,-81.04 302.92,-83.27 302.05,-76.33"/>
</a>
</g>
</g>
<!-- Node6 -->
<g id="Node000006" class="node">
<title>Node6</title>
<g id="a_Node000006"><a xlink:href="class_vecto_input_manager_1_1_cli_1_1_xml_to_json_converter_command_1_1_settings.html" target="_top" xlink:title=" ">
<polygon fill="white" stroke="#bfbfbf" points="501,-32 326.75,-32 326.75,0 501,0 501,-32"/>
<text xml:space="preserve" text-anchor="start" x="334.75" y="-18.5" font-family="Helvetica,sans-Serif" font-size="10.00">VectoInputManager.Cli.Xml</text>
<text xml:space="preserve" text-anchor="middle" x="413.88" y="-6.5" font-family="Helvetica,sans-Serif" font-size="10.00">ToJsonConverterCommand.Settings</text>
</a>
</g>
</g>
<!-- Node1&#45;&gt;Node6 -->
<g id="edge5_Node000001_Node000006" class="edge">
<title>Node1&#45;&gt;Node6</title>
<g id="a_edge5_Node000001_Node000006"><a xlink:title=" ">
<path fill="none" stroke="#63b8ff" d="M257.24,-69.9C278.08,-60.41 303.42,-49.47 326.75,-41 334.95,-38.03 343.68,-35.16 352.32,-32.49"/>
<polygon fill="#63b8ff" stroke="#63b8ff" points="255.78,-66.72 248.16,-74.08 258.7,-73.08 255.78,-66.72"/>
</a>
</g>
</g>
<!-- Node2 -->
<g id="Node000002" class="node">
<title>Node2</title>
<g id="a_Node000002"><a xlink:title=" ">
<polygon fill="white" stroke="#bfbfbf" points="97,-101 0,-101 0,-81 97,-81 97,-101"/>
<text xml:space="preserve" text-anchor="middle" x="48.5" y="-87.5" font-family="Helvetica,sans-Serif" font-size="10.00">CommandSettings</text>
</a>
</g>
</g>
<!-- Node2&#45;&gt;Node1 -->
<g id="edge1_Node000001_Node000002" class="edge">
<title>Node2&#45;&gt;Node1</title>
<g id="a_edge1_Node000001_Node000002"><a xlink:title=" ">
<path fill="none" stroke="#63b8ff" d="M108.92,-91C116.62,-91 124.6,-91 132.55,-91"/>
<polygon fill="#63b8ff" stroke="#63b8ff" points="108.99,-87.5 98.99,-91 108.99,-94.5 108.99,-87.5"/>
</a>
</g>
</g>
</g>
</svg>

<g id="navigator" transform="translate(0 0)" fill="#404254">
  <rect fill="#f2f5e9" fill-opacity="0.5" stroke="#606060" stroke-width=".5" x="0" y="0" width="60" height="60"/>
  <use id="zoomplus" xlink:href="#zoomPlus" x="17" y="9" onmousedown="handleZoom(evt,'in')"/>
  <use id="zoomminus" xlink:href="#zoomMin" x="42" y="9" onmousedown="handleZoom(evt,'out')"/>
  <use id="reset" xlink:href="#resetDef" x="30" y="36" onmousedown="handleReset()"/>
   <use id="arrowup" xlink:href="#arrowUp" x="0" y="0" onmousedown="handlePan(0,-1)"/>
  <use id="arrowright" xlink:href="#arrowRight" x="0" y="0" onmousedown="handlePan(1,0)"/>
  <use id="arrowdown" xlink:href="#arrowDown" x="0" y="0" onmousedown="handlePan(0,1)"/>
  <use id="arrowleft" xlink:href="#arrowLeft" x="0" y="0" onmousedown="handlePan(-1,0)"/>
</g>
<svg viewBox="0 0 15 15" width="100%" height="30px" preserveAspectRatio="xMaxYMin meet">
 <g id="arrow_out" transform="scale(0.3 0.3)">
  <a xlink:href="class_vecto_input_manager_1_1_cli_1_1_common_command_settings__inherit__graph_org.svg" target="_base">
   <rect id="button" ry="5" rx="5" y="6" x="6" height="38" width="38"
        fill="#f2f5e9" fill-opacity="0.5" stroke="#606060" stroke-width="1.0"/>
   <path id="arrow"
     d="M 11.500037,31.436501 C 11.940474,20.09759 22.043105,11.32322 32.158766,21.979434 L 37.068811,17.246167 C 37.068811,17.246167 37.088388,32 37.088388,32 L 22.160133,31.978069 C 22.160133,31.978069 26.997745,27.140456 26.997745,27.140456 C 18.528582,18.264221 13.291696,25.230495 11.500037,31.436501 z"
     style="fill:#404040;"/>
  </a>
 </g>
</svg>

<style type='text/css'>
<![CDATA[
[data-mouse-over-selected='false'] { opacity: 0.7; }
[data-mouse-over-selected='true']  { opacity: 1.0; }
]]>
</style>
<script type="application/ecmascript"><![CDATA[
document.addEventListener('DOMContentLoaded', (event) => {
  highlightEdges();
  highlightAdjacentNodes();
});
]]></script>
</svg>
