<?xml version="1.0" encoding="UTF-8" standalone="no"?>
<!DOCTYPE svg PUBLIC "-//W3C//DTD SVG 1.1//EN"
 "http://www.w3.org/Graphics/SVG/1.1/DTD/svg11.dtd">
<!-- Generated by graphviz version 14.0.2 (20251019.1705)
 -->
<!-- Title: VectoObjects.AbstractCapacitorSystemDataType_v2_3 Pages: 1 -->
<svg width="743pt" height="90pt"
 viewBox="0.00 0.00 743.00 90.00" xmlns="http://www.w3.org/2000/svg" xmlns:xlink="http://www.w3.org/1999/xlink">
<g id="graph0" class="graph" transform="scale(1 1) rotate(0) translate(4 86)">
<title>VectoObjects.AbstractCapacitorSystemDataType_v2_3</title>
<!-- Node1 -->
<g id="Node000001" class="node">
<title>Node1</title>
<g id="a_Node000001"><a xlink:title=" ">
<polygon fill="#999999" stroke="#666666" points="546,-57 389.75,-57 389.75,-25 546,-25 546,-57"/>
<text xml:space="preserve" text-anchor="start" x="397.75" y="-43.5" font-family="Helvetica,sans-Serif" font-size="10.00">VectoObjects.AbstractCapacitor</text>
<text xml:space="preserve" text-anchor="middle" x="467.88" y="-31.5" font-family="Helvetica,sans-Serif" font-size="10.00">SystemDataType_v2_3</text>
</a>
</g>
</g>
<!-- Node4 -->
<g id="Node000004" class="node">
<title>Node4</title>
<g id="a_Node000004"><a xlink:href="class_vecto_objects_1_1_capacitor_system_data_type__v2__3.html" target="_top" xlink:title=" ">
<polygon fill="white" stroke="#bfbfbf" points="735.25,-82 582,-82 582,-50 735.25,-50 735.25,-82"/>
<text xml:space="preserve" text-anchor="start" x="590" y="-68.5" font-family="Helvetica,sans-Serif" font-size="10.00">VectoObjects.CapacitorSystem</text>
<text xml:space="preserve" text-anchor="middle" x="658.62" y="-56.5" font-family="Helvetica,sans-Serif" font-size="10.00">DataType_v2_3</text>
</a>
</g>
</g>
<!-- Node1&#45;&gt;Node4 -->
<g id="edge3_Node000001_Node000004" class="edge">
<title>Node1&#45;&gt;Node4</title>
<g id="a_edge3_Node000001_Node000004"><a xlink:title=" ">
<path fill="none" stroke="#63b8ff" d="M557.69,-52.76C565.67,-53.82 573.7,-54.88 581.56,-55.92"/>
<polygon fill="#63b8ff" stroke="#63b8ff" points="558.34,-49.32 547.96,-51.48 557.42,-56.26 558.34,-49.32"/>
</a>
</g>
</g>
<!-- Node5 -->
<g id="Node000005" class="node">
<title>Node5</title>
<g id="a_Node000005"><a xlink:href="class_vecto_objects_1_1_capacitor_system_data_type__v2__6.html" target="_top" xlink:title=" ">
<polygon fill="white" stroke="#bfbfbf" points="735.25,-32 582,-32 582,0 735.25,0 735.25,-32"/>
<text xml:space="preserve" text-anchor="start" x="590" y="-18.5" font-family="Helvetica,sans-Serif" font-size="10.00">VectoObjects.CapacitorSystem</text>
<text xml:space="preserve" text-anchor="middle" x="658.62" y="-6.5" font-family="Helvetica,sans-Serif" font-size="10.00">DataType_v2_6</text>
</a>
</g>
</g>
<!-- Node1&#45;&gt;Node5 -->
<g id="edge4_Node000001_Node000005" class="edge">
<title>Node1&#45;&gt;Node5</title>
<g id="a_edge4_Node000001_Node000005"><a xlink:title=" ">
<path fill="none" stroke="#63b8ff" d="M557.69,-29.24C565.67,-28.18 573.7,-27.12 581.56,-26.08"/>
<polygon fill="#63b8ff" stroke="#63b8ff" points="557.42,-25.74 547.96,-30.52 558.34,-32.68 557.42,-25.74"/>
</a>
</g>
</g>
<!-- Node2 -->
<g id="Node000002" class="node">
<title>Node2</title>
<g id="a_Node000002"><a xlink:href="class_vecto_objects_1_1_abstract_r_e_e_s_s_data_type__v2__3.html" target="_top" xlink:title=" ">
<polygon fill="white" stroke="#bfbfbf" points="353.75,-57 184,-57 184,-25 353.75,-25 353.75,-57"/>
<text xml:space="preserve" text-anchor="start" x="192" y="-43.5" font-family="Helvetica,sans-Serif" font-size="10.00">VectoObjects.AbstractREESSData</text>
<text xml:space="preserve" text-anchor="middle" x="268.88" y="-31.5" font-family="Helvetica,sans-Serif" font-size="10.00">Type_v2_3</text>
</a>
</g>
</g>
<!-- Node2&#45;&gt;Node1 -->
<g id="edge1_Node000001_Node000002" class="edge">
<title>Node2&#45;&gt;Node1</title>
<g id="a_edge1_Node000001_Node000002"><a xlink:title=" ">
<path fill="none" stroke="#63b8ff" d="M365.31,-41C373.34,-41 381.41,-41 389.28,-41"/>
<polygon fill="#63b8ff" stroke="#63b8ff" points="365.51,-37.5 355.51,-41 365.51,-44.5 365.51,-37.5"/>
</a>
</g>
</g>
<!-- Node3 -->
<g id="Node000003" class="node">
<title>Node3</title>
<g id="a_Node000003"><a xlink:href="class_vecto_objects_1_1_vecto_simulation_component__v1__0.html" target="_top" xlink:title=" ">
<polygon fill="white" stroke="#bfbfbf" points="148,-57 0,-57 0,-25 148,-25 148,-57"/>
<text xml:space="preserve" text-anchor="start" x="8" y="-43.5" font-family="Helvetica,sans-Serif" font-size="10.00">VectoObjects.VectoSimulation</text>
<text xml:space="preserve" text-anchor="middle" x="74" y="-31.5" font-family="Helvetica,sans-Serif" font-size="10.00">Component_v1_0</text>
</a>
</g>
</g>
<!-- Node3&#45;&gt;Node2 -->
<g id="edge2_Node000002_Node000003" class="edge">
<title>Node3&#45;&gt;Node2</title>
<g id="a_edge2_Node000002_Node000003"><a xlink:title=" ">
<path fill="none" stroke="#63b8ff" d="M159.91,-41C167.79,-41 175.77,-41 183.64,-41"/>
<polygon fill="#63b8ff" stroke="#63b8ff" points="159.98,-37.5 149.98,-41 159.98,-44.5 159.98,-37.5"/>
</a>
</g>
</g>
</g>
</svg>
