<?xml version="1.0" encoding="UTF-8" standalone="no"?>
<!DOCTYPE svg PUBLIC "-//W3C//DTD SVG 1.1//EN"
 "http://www.w3.org/Graphics/SVG/1.1/DTD/svg11.dtd">
<!-- Generated by graphviz version 14.0.2 (20251019.1705)
 -->
<!-- Title: VectoInputManager.Cli.JobCreatorCommand.Settings Pages: 1 -->
<svg width="166pt" height="164pt"
 viewBox="0.00 0.00 166.00 164.00" xmlns="http://www.w3.org/2000/svg" xmlns:xlink="http://www.w3.org/1999/xlink">
<g id="graph0" class="graph" transform="scale(1 1) rotate(0) translate(4 160)">
<title>VectoInputManager.Cli.JobCreatorCommand.Settings</title>
<!-- Node1 -->
<g id="Node000001" class="node">
<title>Node1</title>
<g id="a_Node000001"><a xlink:title=" ">
<polygon fill="#999999" stroke="#666666" points="145.75,-32 12,-32 12,0 145.75,0 145.75,-32"/>
<text xml:space="preserve" text-anchor="start" x="20" y="-18.5" font-family="Helvetica,sans-Serif" font-size="10.00">VectoInputManager.Cli.Job</text>
<text xml:space="preserve" text-anchor="middle" x="78.88" y="-6.5" font-family="Helvetica,sans-Serif" font-size="10.00">CreatorCommand.Settings</text>
</a>
</g>
</g>
<!-- Node2 -->
<g id="Node000002" class="node">
<title>Node2</title>
<g id="a_Node000002"><a xlink:href="class_vecto_input_manager_1_1_cli_1_1_common_command_settings.html" target="_top" xlink:title="Base settings for all CLI commands, including a common verbose logging option. When verbose is enable...">
<polygon fill="white" stroke="#666666" points="157.75,-100 0,-100 0,-68 157.75,-68 157.75,-100"/>
<text xml:space="preserve" text-anchor="start" x="8" y="-86.5" font-family="Helvetica,sans-Serif" font-size="10.00">VectoInputManager.Cli.Common</text>
<text xml:space="preserve" text-anchor="middle" x="78.88" y="-74.5" font-family="Helvetica,sans-Serif" font-size="10.00">CommandSettings</text>
</a>
</g>
</g>
<!-- Node2&#45;&gt;Node1 -->
<g id="edge1_Node000001_Node000002" class="edge">
<title>Node2&#45;&gt;Node1</title>
<g id="a_edge1_Node000001_Node000002"><a xlink:title=" ">
<path fill="none" stroke="#63b8ff" d="M78.88,-56.31C78.88,-48.12 78.88,-39.38 78.88,-32.22"/>
<polygon fill="#63b8ff" stroke="#63b8ff" points="75.38,-56.18 78.88,-66.18 82.38,-56.18 75.38,-56.18"/>
</a>
</g>
</g>
<!-- Node3 -->
<g id="Node000003" class="node">
<title>Node3</title>
<g id="a_Node000003"><a xlink:title=" ">
<polygon fill="white" stroke="#bfbfbf" points="127.38,-156 30.38,-156 30.38,-136 127.38,-136 127.38,-156"/>
<text xml:space="preserve" text-anchor="middle" x="78.88" y="-142.5" font-family="Helvetica,sans-Serif" font-size="10.00">CommandSettings</text>
</a>
</g>
</g>
<!-- Node3&#45;&gt;Node2 -->
<g id="edge2_Node000002_Node000003" class="edge">
<title>Node3&#45;&gt;Node2</title>
<g id="a_edge2_Node000002_Node000003"><a xlink:title=" ">
<path fill="none" stroke="#63b8ff" d="M78.88,-124.31C78.88,-116.37 78.88,-107.46 78.88,-100.14"/>
<polygon fill="#63b8ff" stroke="#63b8ff" points="75.38,-124.11 78.88,-134.11 82.38,-124.11 75.38,-124.11"/>
</a>
</g>
</g>
</g>
</svg>
