<?xml version="1.0" encoding="UTF-8" standalone="no"?>
<!DOCTYPE svg PUBLIC "-//W3C//DTD SVG 1.1//EN"
 "http://www.w3.org/Graphics/SVG/1.1/DTD/svg11.dtd">
<!-- Generated by graphviz version 14.0.2 (20251019.1705)
 -->
<!-- Title: VectoObjects.Vehicle_Exempted_CompletedBusDeclarationType_v2_7 Pages: 1 -->
<svg width="952pt" height="78pt"
 viewBox="0.00 0.00 952.00 78.00" xmlns="http://www.w3.org/2000/svg" xmlns:xlink="http://www.w3.org/1999/xlink">
<g id="graph0" class="graph" transform="scale(1 1) rotate(0) translate(4 74)">
<title>VectoObjects.Vehicle_Exempted_CompletedBusDeclarationType_v2_7</title>
<!-- Node1 -->
<g id="Node000001" class="node">
<title>Node1</title>
<g id="a_Node000001"><a xlink:title=" ">
<polygon fill="#999999" stroke="#666666" points="944,-54 759.25,-54 759.25,-10 944,-10 944,-54"/>
<text xml:space="preserve" text-anchor="start" x="767.25" y="-40.5" font-family="Helvetica,sans-Serif" font-size="10.00">VectoObjects.Vehicle</text>
<text xml:space="preserve" text-anchor="start" x="767.25" y="-28.5" font-family="Helvetica,sans-Serif" font-size="10.00">_Exempted_CompletedBusDeclaration</text>
<text xml:space="preserve" text-anchor="middle" x="851.62" y="-16.5" font-family="Helvetica,sans-Serif" font-size="10.00">Type_v2_7</text>
</a>
</g>
</g>
<!-- Node2 -->
<g id="Node000002" class="node">
<title>Node2</title>
<g id="a_Node000002"><a xlink:href="class_vecto_objects_1_1_abstract_completed_bus_vehicle_type__v2__4.html" target="_top" xlink:title=" ">
<polygon fill="white" stroke="#bfbfbf" points="723.25,-70 561.75,-70 561.75,-38 723.25,-38 723.25,-70"/>
<text xml:space="preserve" text-anchor="start" x="569.75" y="-56.5" font-family="Helvetica,sans-Serif" font-size="10.00">VectoObjects.AbstractCompleted</text>
<text xml:space="preserve" text-anchor="middle" x="642.5" y="-44.5" font-family="Helvetica,sans-Serif" font-size="10.00">BusVehicleType_v2_4</text>
</a>
</g>
</g>
<!-- Node2&#45;&gt;Node1 -->
<g id="edge1_Node000001_Node000002" class="edge">
<title>Node2&#45;&gt;Node1</title>
<g id="a_edge1_Node000001_Node000002"><a xlink:title=" ">
<path fill="none" stroke="#63b8ff" d="M734.85,-44.3C742.87,-43.44 751,-42.58 759.04,-41.73"/>
<polygon fill="#63b8ff" stroke="#63b8ff" points="734.66,-40.8 725.09,-45.33 735.4,-47.76 734.66,-40.8"/>
</a>
</g>
</g>
<!-- Node3 -->
<g id="Node000003" class="node">
<title>Node3</title>
<g id="a_Node000003"><a xlink:href="class_vecto_objects_1_1_abstract_vehicle_declaration_type__v2__0.html" target="_top" xlink:title=" ">
<polygon fill="white" stroke="#bfbfbf" points="525.75,-70 380,-70 380,-38 525.75,-38 525.75,-70"/>
<text xml:space="preserve" text-anchor="start" x="388" y="-56.5" font-family="Helvetica,sans-Serif" font-size="10.00">VectoObjects.AbstractVehicle</text>
<text xml:space="preserve" text-anchor="middle" x="452.88" y="-44.5" font-family="Helvetica,sans-Serif" font-size="10.00">DeclarationType_v2_0</text>
</a>
</g>
</g>
<!-- Node3&#45;&gt;Node2 -->
<g id="edge2_Node000002_Node000003" class="edge">
<title>Node3&#45;&gt;Node2</title>
<g id="a_edge2_Node000002_Node000003"><a xlink:title=" ">
<path fill="none" stroke="#63b8ff" d="M537.65,-54C545.57,-54 553.58,-54 561.46,-54"/>
<polygon fill="#63b8ff" stroke="#63b8ff" points="537.66,-50.5 527.66,-54 537.66,-57.5 537.66,-50.5"/>
</a>
</g>
</g>
<!-- Node4 -->
<g id="Node000004" class="node">
<title>Node4</title>
<g id="a_Node000004"><a xlink:href="class_vecto_objects_1_1_declaration_powertrain_component_type__v2__0.html" target="_top" xlink:title=" ">
<polygon fill="white" stroke="#bfbfbf" points="344,-70 184,-70 184,-38 344,-38 344,-70"/>
<text xml:space="preserve" text-anchor="start" x="192" y="-56.5" font-family="Helvetica,sans-Serif" font-size="10.00">VectoObjects.Declaration</text>
<text xml:space="preserve" text-anchor="middle" x="264" y="-44.5" font-family="Helvetica,sans-Serif" font-size="10.00">PowertrainComponentType_v2_0</text>
</a>
</g>
</g>
<!-- Node4&#45;&gt;Node3 -->
<g id="edge3_Node000003_Node000004" class="edge">
<title>Node4&#45;&gt;Node3</title>
<g id="a_edge3_Node000003_Node000004"><a xlink:title=" ">
<path fill="none" stroke="#63b8ff" d="M355.6,-54C363.66,-54 371.75,-54 379.62,-54"/>
<polygon fill="#63b8ff" stroke="#63b8ff" points="355.77,-50.5 345.77,-54 355.77,-57.5 355.77,-50.5"/>
</a>
</g>
</g>
<!-- Node5 -->
<g id="Node000005" class="node">
<title>Node5</title>
<g id="a_Node000005"><a xlink:href="class_vecto_objects_1_1_vecto_simulation_component__v2__0.html" target="_top" xlink:title=" ">
<polygon fill="white" stroke="#bfbfbf" points="148,-70 0,-70 0,-38 148,-38 148,-70"/>
<text xml:space="preserve" text-anchor="start" x="8" y="-56.5" font-family="Helvetica,sans-Serif" font-size="10.00">VectoObjects.VectoSimulation</text>
<text xml:space="preserve" text-anchor="middle" x="74" y="-44.5" font-family="Helvetica,sans-Serif" font-size="10.00">Component_v2_0</text>
</a>
</g>
</g>
<!-- Node5&#45;&gt;Node4 -->
<g id="edge4_Node000004_Node000005" class="edge">
<title>Node5&#45;&gt;Node4</title>
<g id="a_edge4_Node000004_Node000005"><a xlink:title=" ">
<path fill="none" stroke="#63b8ff" d="M159.96,-54C167.85,-54 175.82,-54 183.65,-54"/>
<polygon fill="#63b8ff" stroke="#63b8ff" points="160.01,-50.5 150.01,-54 160.01,-57.5 160.01,-50.5"/>
</a>
</g>
</g>
<!-- Node6 -->
<g id="Node000006" class="node">
<title>Node6</title>
<g id="a_Node000006"><a xlink:href="interface_vecto_objects_1_1_i_vehicle_declaration.html" target="_top" xlink:title=" ">
<polygon fill="white" stroke="#bfbfbf" points="723.25,-20 561.75,-20 561.75,0 723.25,0 723.25,-20"/>
<text xml:space="preserve" text-anchor="middle" x="642.5" y="-6.5" font-family="Helvetica,sans-Serif" font-size="10.00">VectoObjects.IVehicleDeclaration</text>
</a>
</g>
</g>
<!-- Node6&#45;&gt;Node1 -->
<g id="edge5_Node000001_Node000006" class="edge">
<title>Node6&#45;&gt;Node1</title>
<g id="a_edge5_Node000001_Node000006"><a xlink:title=" ">
<path fill="none" stroke="#63b8ff" d="M734.85,-19.7C742.87,-20.56 751,-21.42 759.04,-22.27"/>
<polygon fill="#63b8ff" stroke="#63b8ff" points="735.4,-16.24 725.09,-18.67 734.66,-23.2 735.4,-16.24"/>
</a>
</g>
</g>
</g>
</svg>
