<?xml version="1.0" encoding="UTF-8" standalone="no"?>
<!DOCTYPE svg PUBLIC "-//W3C//DTD SVG 1.1//EN"
 "http://www.w3.org/Graphics/SVG/1.1/DTD/svg11.dtd">
<!-- Generated by graphviz version 14.0.2 (20251019.1705)
 -->
<!-- Title: VectoObjects.TorqueConverterDataDeclarationType_v1_0 Pages: 1 -->
<svg width="185pt" height="176pt"
 viewBox="0.00 0.00 185.00 176.00" xmlns="http://www.w3.org/2000/svg" xmlns:xlink="http://www.w3.org/1999/xlink">
<g id="graph0" class="graph" transform="scale(1 1) rotate(0) translate(4 172)">
<title>VectoObjects.TorqueConverterDataDeclarationType_v1_0</title>
<!-- Node1 -->
<g id="Node000001" class="node">
<title>Node1</title>
<g id="a_Node000001"><a xlink:title=" ">
<polygon fill="#999999" stroke="#666666" points="163,-32 13.5,-32 13.5,0 163,0 163,-32"/>
<text xml:space="preserve" text-anchor="start" x="21.5" y="-18.5" font-family="Helvetica,sans-Serif" font-size="10.00">VectoObjects.TorqueConverter</text>
<text xml:space="preserve" text-anchor="middle" x="88.25" y="-6.5" font-family="Helvetica,sans-Serif" font-size="10.00">DataDeclarationType_v1_0</text>
</a>
</g>
</g>
<!-- Node2 -->
<g id="Node000002" class="node">
<title>Node2</title>
<g id="a_Node000002"><a xlink:href="class_vecto_objects_1_1_abstract_torque_converter_data_declaration_type__v1__0.html" target="_top" xlink:title=" ">
<polygon fill="white" stroke="#bfbfbf" points="176.5,-100 0,-100 0,-68 176.5,-68 176.5,-100"/>
<text xml:space="preserve" text-anchor="start" x="8" y="-86.5" font-family="Helvetica,sans-Serif" font-size="10.00">VectoObjects.AbstractTorque</text>
<text xml:space="preserve" text-anchor="middle" x="88.25" y="-74.5" font-family="Helvetica,sans-Serif" font-size="10.00">ConverterDataDeclarationType_v1_0</text>
</a>
</g>
</g>
<!-- Node2&#45;&gt;Node1 -->
<g id="edge1_Node000001_Node000002" class="edge">
<title>Node2&#45;&gt;Node1</title>
<g id="a_edge1_Node000001_Node000002"><a xlink:title=" ">
<path fill="none" stroke="#63b8ff" d="M88.25,-56.31C88.25,-48.12 88.25,-39.38 88.25,-32.22"/>
<polygon fill="#63b8ff" stroke="#63b8ff" points="84.75,-56.18 88.25,-66.18 91.75,-56.18 84.75,-56.18"/>
</a>
</g>
</g>
<!-- Node3 -->
<g id="Node000003" class="node">
<title>Node3</title>
<g id="a_Node000003"><a xlink:href="class_vecto_objects_1_1_vecto_simulation_component__v1__0.html" target="_top" xlink:title=" ">
<polygon fill="white" stroke="#bfbfbf" points="162.25,-168 14.25,-168 14.25,-136 162.25,-136 162.25,-168"/>
<text xml:space="preserve" text-anchor="start" x="22.25" y="-154.5" font-family="Helvetica,sans-Serif" font-size="10.00">VectoObjects.VectoSimulation</text>
<text xml:space="preserve" text-anchor="middle" x="88.25" y="-142.5" font-family="Helvetica,sans-Serif" font-size="10.00">Component_v1_0</text>
</a>
</g>
</g>
<!-- Node3&#45;&gt;Node2 -->
<g id="edge2_Node000002_Node000003" class="edge">
<title>Node3&#45;&gt;Node2</title>
<g id="a_edge2_Node000002_Node000003"><a xlink:title=" ">
<path fill="none" stroke="#63b8ff" d="M88.25,-124.31C88.25,-116.12 88.25,-107.38 88.25,-100.22"/>
<polygon fill="#63b8ff" stroke="#63b8ff" points="84.75,-124.18 88.25,-134.18 91.75,-124.18 84.75,-124.18"/>
</a>
</g>
</g>
</g>
</svg>
