<?xml version="1.0" encoding="UTF-8" standalone="no"?>
<!DOCTYPE svg PUBLIC "-//W3C//DTD SVG 1.1//EN"
 "http://www.w3.org/Graphics/SVG/1.1/DTD/svg11.dtd">
<!-- Generated by graphviz version 14.0.2 (20251019.1705)
 -->
<!-- Title: VectoObjects.AbstractVehicleComponentsDeclarationType_v2_0 Pages: 1 -->
<!--zoomable 1190 -->

<svg id="main" version="1.1" xmlns="http://www.w3.org/2000/svg" xmlns:xlink="http://www.w3.org/1999/xlink" xml:space="preserve" onload="init(evt)">

<style type="text/css"><![CDATA[
.node, .edge {opacity: 0.7;}
.node.selected, .edge.selected {opacity: 1;}
.edge:hover path { stroke: red; }
.edge:hover polygon { stroke: red; fill: red; }
]]></style>

<defs>
  <circle id="rim" cx="0" cy="0" r="7"/>
  <circle id="rim2" cx="0" cy="0" r="3.5"/>
  <g id="zoomPlus">
    <use xlink:href="#rim" fill="#404040"><set attributeName="fill" to="#808080" begin="zoomplus.mouseover" end="zoomplus.mouseout"/></use>
    <path d="M-4,0h8M0,-4v8" fill="none" stroke="white" stroke-width="1.5" pointer-events="none"/>
  </g>
  <g id="zoomMin">
    <use xlink:href="#rim" fill="#404040"><set attributeName="fill" to="#808080" begin="zoomminus.mouseover" end="zoomminus.mouseout"/></use>
    <path d="M-4,0h8" fill="none" stroke="white" stroke-width="1.5" pointer-events="none"/>
  </g>
  <g id="arrowUp" transform="translate(30 24)">
    <use xlink:href="#rim"/>
    <path pointer-events="none" fill="none" stroke="white" stroke-width="1.5" d="M0,-3.0v7 M-2.5,-0.5L0,-3.0L2.5,-0.5"/>
  </g>
  <g id="arrowRight" transform="rotate(90) translate(36 -43)">
    <use xlink:href="#rim"/>
    <path pointer-events="none" fill="none" stroke="white" stroke-width="1.5" d="M0,-3.0v7 M-2.5,-0.5L0,-3.0L2.5,-0.5"/>
  </g>
  <g id="arrowDown" transform="rotate(180) translate(-30 -48)">
    <use xlink:href="#rim"/>
    <path pointer-events="none" fill="none" stroke="white" stroke-width="1.5" d="M0,-3.0v7 M-2.5,-0.5L0,-3.0L2.5,-0.5"/>
  </g>
  <g id="arrowLeft" transform="rotate(270) translate(-36 17)">
    <use xlink:href="#rim"/>
    <path pointer-events="none" fill="none" stroke="white" stroke-width="1.5" d="M0,-3.0v7 M-2.5,-0.5L0,-3.0L2.5,-0.5"/>
  </g>
  <g id="resetDef">
    <use xlink:href="#rim2" fill="#404040"><set attributeName="fill" to="#808080" begin="reset.mouseover" end="reset.mouseout"/></use>
  </g>
</defs>
<script type="application/ecmascript">
var viewWidth = 625;
var viewHeight = 1190;
var sectionId = 'dynsection-0';
</script>
<script type="application/ecmascript" xlink:href="svg.min.js"/>
<svg id="graph" class="graph">
<g id="viewport">
<title>VectoObjects.AbstractVehicleComponentsDeclarationType_v2_0</title>
<!-- Node1 -->
<g id="Node000001" class="node">
<title>Node1</title>
<g id="a_Node000001"><a xlink:title=" ">
<polygon fill="#999999" stroke="#666666" points="168.25,-632 0,-632 0,-600 168.25,-600 168.25,-632"/>
<text xml:space="preserve" text-anchor="start" x="8" y="-618.5" font-family="Helvetica,sans-Serif" font-size="10.00">VectoObjects.AbstractVehicle</text>
<text xml:space="preserve" text-anchor="middle" x="84.12" y="-606.5" font-family="Helvetica,sans-Serif" font-size="10.00">ComponentsDeclarationType_v2_0</text>
</a>
</g>
</g>
<!-- Node2 -->
<g id="Node000002" class="node">
<title>Node2</title>
<g id="a_Node000002"><a xlink:href="class_vecto_objects_1_1_abstract___components___f_c_h_v___fx___lorry_declaration_type__v2__7.html" target="_top" xlink:title=" ">
<polygon fill="white" stroke="#bfbfbf" points="409.62,-1113 206.88,-1113 206.88,-1069 409.62,-1069 409.62,-1113"/>
<text xml:space="preserve" text-anchor="start" x="214.88" y="-1099.5" font-family="Helvetica,sans-Serif" font-size="10.00">VectoObjects.Abstract</text>
<text xml:space="preserve" text-anchor="start" x="214.88" y="-1087.5" font-family="Helvetica,sans-Serif" font-size="10.00">_Components_FCHV_Fx_LorryDeclaration</text>
<text xml:space="preserve" text-anchor="middle" x="308.25" y="-1075.5" font-family="Helvetica,sans-Serif" font-size="10.00">Type_v2_7</text>
</a>
</g>
</g>
<!-- Node1&#45;&gt;Node2 -->
<g id="edge1_Node000001_Node000002" class="edge">
<title>Node1&#45;&gt;Node2</title>
<g id="a_edge1_Node000001_Node000002"><a xlink:title=" ">
<path fill="none" stroke="#63b8ff" d="M90.04,-643.4C102.13,-706.08 137.32,-863.37 204.25,-978 225,-1013.53 258.38,-1047.46 281.49,-1068.7"/>
<polygon fill="#63b8ff" stroke="#63b8ff" points="93.49,-642.83 88.21,-633.65 86.62,-644.12 93.49,-642.83"/>
</a>
</g>
</g>
<!-- Node6 -->
<g id="Node000006" class="node">
<title>Node6</title>
<g id="a_Node000006"><a xlink:href="class_vecto_objects_1_1_abstract___components___f_c_h_v___fx___primary_bus_declaration_type__v2__7.html" target="_top" xlink:title=" ">
<polygon fill="white" stroke="#bfbfbf" points="390.88,-969 225.62,-969 225.62,-925 390.88,-925 390.88,-969"/>
<text xml:space="preserve" text-anchor="start" x="233.62" y="-955.5" font-family="Helvetica,sans-Serif" font-size="10.00">VectoObjects.Abstract</text>
<text xml:space="preserve" text-anchor="start" x="233.62" y="-943.5" font-family="Helvetica,sans-Serif" font-size="10.00">_Components_FCHV_Fx_Primary</text>
<text xml:space="preserve" text-anchor="middle" x="308.25" y="-931.5" font-family="Helvetica,sans-Serif" font-size="10.00">BusDeclarationType_v2_7</text>
</a>
</g>
</g>
<!-- Node1&#45;&gt;Node6 -->
<g id="edge5_Node000001_Node000006" class="edge">
<title>Node1&#45;&gt;Node6</title>
<g id="a_edge5_Node000001_Node000006"><a xlink:title=" ">
<path fill="none" stroke="#63b8ff" d="M90.19,-643.55C101.51,-698.13 133.62,-821.18 204.25,-896 215.35,-907.75 229.73,-917.17 244.21,-924.56"/>
<polygon fill="#63b8ff" stroke="#63b8ff" points="93.65,-643 88.26,-633.88 86.78,-644.37 93.65,-643"/>
</a>
</g>
</g>
<!-- Node10 -->
<g id="Node000010" class="node">
<title>Node10</title>
<g id="a_Node000010"><a xlink:href="class_vecto_objects_1_1_abstract___components___h_e_v___i_e_p_c___s___lorry_declaration_type__v2__4.html" target="_top" xlink:title=" ">
<polygon fill="white" stroke="#bfbfbf" points="384.12,-887 232.38,-887 232.38,-843 384.12,-843 384.12,-887"/>
<text xml:space="preserve" text-anchor="start" x="240.38" y="-873.5" font-family="Helvetica,sans-Serif" font-size="10.00">VectoObjects.Abstract</text>
<text xml:space="preserve" text-anchor="start" x="240.38" y="-861.5" font-family="Helvetica,sans-Serif" font-size="10.00">_Components_HEV_IEPC</text>
<text xml:space="preserve" text-anchor="middle" x="308.25" y="-849.5" font-family="Helvetica,sans-Serif" font-size="10.00">_S_LorryDeclarationType_v2_4</text>
</a>
</g>
</g>
<!-- Node1&#45;&gt;Node10 -->
<g id="edge9_Node000001_Node000010" class="edge">
<title>Node1&#45;&gt;Node10</title>
<g id="a_edge9_Node000001_Node000010"><a xlink:title=" ">
<path fill="none" stroke="#63b8ff" d="M92.62,-643.41C106.68,-689.63 141.39,-783.01 204.25,-834 212.44,-840.65 222.04,-845.87 232.02,-849.97"/>
<polygon fill="#63b8ff" stroke="#63b8ff" points="96.01,-642.53 89.84,-633.92 89.29,-644.5 96.01,-642.53"/>
</a>
</g>
</g>
<!-- Node12 -->
<g id="Node000012" class="node">
<title>Node12</title>
<g id="a_Node000012"><a xlink:href="class_vecto_objects_1_1_abstract___components___h_e_v___i_e_p_c___s___primary_bus_declaration_type__v2__4.html" target="_top" xlink:title=" ">
<polygon fill="white" stroke="#bfbfbf" points="398.75,-825 217.75,-825 217.75,-781 398.75,-781 398.75,-825"/>
<text xml:space="preserve" text-anchor="start" x="225.75" y="-811.5" font-family="Helvetica,sans-Serif" font-size="10.00">VectoObjects.Abstract</text>
<text xml:space="preserve" text-anchor="start" x="225.75" y="-799.5" font-family="Helvetica,sans-Serif" font-size="10.00">_Components_HEV_IEPC</text>
<text xml:space="preserve" text-anchor="middle" x="308.25" y="-787.5" font-family="Helvetica,sans-Serif" font-size="10.00">_S_PrimaryBusDeclarationType_v2_4</text>
</a>
</g>
</g>
<!-- Node1&#45;&gt;Node12 -->
<g id="edge11_Node000001_Node000012" class="edge">
<title>Node1&#45;&gt;Node12</title>
<g id="a_edge11_Node000001_Node000012"><a xlink:title=" ">
<path fill="none" stroke="#63b8ff" d="M98.37,-642.29C117.2,-677.06 154.99,-737.9 204.25,-772 208.78,-775.14 213.63,-777.96 218.68,-780.5"/>
<polygon fill="#63b8ff" stroke="#63b8ff" points="101.61,-640.94 93.84,-633.74 95.42,-644.21 101.61,-640.94"/>
</a>
</g>
</g>
<!-- Node14 -->
<g id="Node000014" class="node">
<title>Node14</title>
<g id="a_Node000014"><a xlink:href="class_vecto_objects_1_1_abstract___components___h_e_v___px___lorry_declaration_type__v2__4.html" target="_top" xlink:title=" ">
<polygon fill="white" stroke="#bfbfbf" points="406.62,-763 209.88,-763 209.88,-719 406.62,-719 406.62,-763"/>
<text xml:space="preserve" text-anchor="start" x="217.88" y="-749.5" font-family="Helvetica,sans-Serif" font-size="10.00">VectoObjects.Abstract</text>
<text xml:space="preserve" text-anchor="start" x="217.88" y="-737.5" font-family="Helvetica,sans-Serif" font-size="10.00">_Components_HEV_Px_LorryDeclaration</text>
<text xml:space="preserve" text-anchor="middle" x="308.25" y="-725.5" font-family="Helvetica,sans-Serif" font-size="10.00">Type_v2_4</text>
</a>
</g>
</g>
<!-- Node1&#45;&gt;Node14 -->
<g id="edge13_Node000001_Node000014" class="edge">
<title>Node1&#45;&gt;Node14</title>
<g id="a_edge13_Node000001_Node000014"><a xlink:title=" ">
<path fill="none" stroke="#63b8ff" d="M109.83,-640.11C132.65,-661.2 168.36,-691.31 204.25,-710 210.21,-713.11 216.53,-715.95 223,-718.55"/>
<polygon fill="#63b8ff" stroke="#63b8ff" points="112.23,-637.57 102.55,-633.27 107.44,-642.67 112.23,-637.57"/>
</a>
</g>
</g>
<!-- Node16 -->
<g id="Node000016" class="node">
<title>Node16</title>
<g id="a_Node000016"><a xlink:href="class_vecto_objects_1_1_abstract___components___h_e_v___px___primary_bus_declaration_type__v2__4.html" target="_top" xlink:title=" ">
<polygon fill="white" stroke="#bfbfbf" points="396.5,-701 220,-701 220,-657 396.5,-657 396.5,-701"/>
<text xml:space="preserve" text-anchor="start" x="228" y="-687.5" font-family="Helvetica,sans-Serif" font-size="10.00">VectoObjects.Abstract</text>
<text xml:space="preserve" text-anchor="start" x="228" y="-675.5" font-family="Helvetica,sans-Serif" font-size="10.00">_Components_HEV_Px_PrimaryBus</text>
<text xml:space="preserve" text-anchor="middle" x="308.25" y="-663.5" font-family="Helvetica,sans-Serif" font-size="10.00">DeclarationType_v2_4</text>
</a>
</g>
</g>
<!-- Node1&#45;&gt;Node16 -->
<g id="edge15_Node000001_Node000016" class="edge">
<title>Node1&#45;&gt;Node16</title>
<g id="a_edge15_Node000001_Node000016"><a xlink:title=" ">
<path fill="none" stroke="#63b8ff" d="M154.11,-635.57C177.59,-642.22 204.01,-649.72 228.21,-656.58"/>
<polygon fill="#63b8ff" stroke="#63b8ff" points="155.23,-632.24 144.65,-632.88 153.32,-638.98 155.23,-632.24"/>
</a>
</g>
</g>
<!-- Node18 -->
<g id="Node000018" class="node">
<title>Node18</title>
<g id="a_Node000018"><a xlink:href="class_vecto_objects_1_1_abstract___components___h_e_v___sx___lorry_declaration_type__v2__4.html" target="_top" xlink:title=" ">
<polygon fill="white" stroke="#bfbfbf" points="406.62,-638 209.88,-638 209.88,-594 406.62,-594 406.62,-638"/>
<text xml:space="preserve" text-anchor="start" x="217.88" y="-624.5" font-family="Helvetica,sans-Serif" font-size="10.00">VectoObjects.Abstract</text>
<text xml:space="preserve" text-anchor="start" x="217.88" y="-612.5" font-family="Helvetica,sans-Serif" font-size="10.00">_Components_HEV_Sx_LorryDeclaration</text>
<text xml:space="preserve" text-anchor="middle" x="308.25" y="-600.5" font-family="Helvetica,sans-Serif" font-size="10.00">Type_v2_4</text>
</a>
</g>
</g>
<!-- Node1&#45;&gt;Node18 -->
<g id="edge17_Node000001_Node000018" class="edge">
<title>Node1&#45;&gt;Node18</title>
<g id="a_edge17_Node000001_Node000018"><a xlink:title=" ">
<path fill="none" stroke="#63b8ff" d="M179.91,-616C189.74,-616 199.74,-616 209.6,-616"/>
<polygon fill="#63b8ff" stroke="#63b8ff" points="179.98,-612.5 169.98,-616 179.98,-619.5 179.98,-612.5"/>
</a>
</g>
</g>
<!-- Node22 -->
<g id="Node000022" class="node">
<title>Node22</title>
<g id="a_Node000022"><a xlink:href="class_vecto_objects_1_1_abstract___components___h_e_v___sx___primary_bus_declaration_type__v2__4.html" target="_top" xlink:title=" ">
<polygon fill="white" stroke="#bfbfbf" points="396.5,-529 220,-529 220,-485 396.5,-485 396.5,-529"/>
<text xml:space="preserve" text-anchor="start" x="228" y="-515.5" font-family="Helvetica,sans-Serif" font-size="10.00">VectoObjects.Abstract</text>
<text xml:space="preserve" text-anchor="start" x="228" y="-503.5" font-family="Helvetica,sans-Serif" font-size="10.00">_Components_HEV_Sx_PrimaryBus</text>
<text xml:space="preserve" text-anchor="middle" x="308.25" y="-491.5" font-family="Helvetica,sans-Serif" font-size="10.00">DeclarationType_v2_4</text>
</a>
</g>
</g>
<!-- Node1&#45;&gt;Node22 -->
<g id="edge21_Node000001_Node000022" class="edge">
<title>Node1&#45;&gt;Node22</title>
<g id="a_edge21_Node000001_Node000022"><a xlink:title=" ">
<path fill="none" stroke="#63b8ff" d="M128.69,-594.62C166.96,-575.84 222.47,-548.6 261.41,-529.5"/>
<polygon fill="#63b8ff" stroke="#63b8ff" points="127.17,-591.47 119.74,-599.01 130.26,-597.75 127.17,-591.47"/>
</a>
</g>
</g>
<!-- Node26 -->
<g id="Node000026" class="node">
<title>Node26</title>
<g id="a_Node000026"><a xlink:href="class_vecto_objects_1_1_abstract___components___i_e_p_c___lorry_declaration_type__v2__4.html" target="_top" xlink:title=" ">
<polygon fill="white" stroke="#bfbfbf" points="399.5,-448 217,-448 217,-404 399.5,-404 399.5,-448"/>
<text xml:space="preserve" text-anchor="start" x="225" y="-434.5" font-family="Helvetica,sans-Serif" font-size="10.00">VectoObjects.Abstract</text>
<text xml:space="preserve" text-anchor="start" x="225" y="-422.5" font-family="Helvetica,sans-Serif" font-size="10.00">_Components_IEPC_LorryDeclaration</text>
<text xml:space="preserve" text-anchor="middle" x="308.25" y="-410.5" font-family="Helvetica,sans-Serif" font-size="10.00">Type_v2_4</text>
</a>
</g>
</g>
<!-- Node1&#45;&gt;Node26 -->
<g id="edge25_Node000001_Node000026" class="edge">
<title>Node1&#45;&gt;Node26</title>
<g id="a_edge25_Node000001_Node000026"><a xlink:title=" ">
<path fill="none" stroke="#63b8ff" d="M101.97,-590.36C122.98,-559.94 161.4,-509.18 204.25,-476 218.16,-465.23 234.76,-455.93 250.53,-448.37"/>
<polygon fill="#63b8ff" stroke="#63b8ff" points="99.11,-588.35 96.38,-598.59 104.9,-592.28 99.11,-588.35"/>
</a>
</g>
</g>
<!-- Node28 -->
<g id="Node000028" class="node">
<title>Node28</title>
<g id="a_Node000028"><a xlink:href="class_vecto_objects_1_1_abstract___components___i_e_p_c___primary_bus_declaration_type__v2__4.html" target="_top" xlink:title=" ">
<polygon fill="white" stroke="#bfbfbf" points="389.38,-348 227.12,-348 227.12,-304 389.38,-304 389.38,-348"/>
<text xml:space="preserve" text-anchor="start" x="235.12" y="-334.5" font-family="Helvetica,sans-Serif" font-size="10.00">VectoObjects.Abstract</text>
<text xml:space="preserve" text-anchor="start" x="235.12" y="-322.5" font-family="Helvetica,sans-Serif" font-size="10.00">_Components_IEPC_PrimaryBus</text>
<text xml:space="preserve" text-anchor="middle" x="308.25" y="-310.5" font-family="Helvetica,sans-Serif" font-size="10.00">DeclarationType_v2_4</text>
</a>
</g>
</g>
<!-- Node1&#45;&gt;Node28 -->
<g id="edge27_Node000001_Node000028" class="edge">
<title>Node1&#45;&gt;Node28</title>
<g id="a_edge27_Node000001_Node000028"><a xlink:title=" ">
<path fill="none" stroke="#63b8ff" d="M94.78,-588.85C111.6,-544.37 149.77,-454.97 204.25,-395 221.18,-376.36 244.15,-360.35 264.1,-348.45"/>
<polygon fill="#63b8ff" stroke="#63b8ff" points="91.5,-587.63 91.31,-598.22 98.06,-590.06 91.5,-587.63"/>
</a>
</g>
</g>
<!-- Node30 -->
<g id="Node000030" class="node">
<title>Node30</title>
<g id="a_Node000030"><a xlink:href="class_vecto_objects_1_1_abstract___components___p_e_v___lorry_declaration_type__v2__4.html" target="_top" xlink:title=" ">
<polygon fill="white" stroke="#bfbfbf" points="397.62,-263 218.88,-263 218.88,-219 397.62,-219 397.62,-263"/>
<text xml:space="preserve" text-anchor="start" x="226.88" y="-249.5" font-family="Helvetica,sans-Serif" font-size="10.00">VectoObjects.Abstract</text>
<text xml:space="preserve" text-anchor="start" x="226.88" y="-237.5" font-family="Helvetica,sans-Serif" font-size="10.00">_Components_PEV_LorryDeclaration</text>
<text xml:space="preserve" text-anchor="middle" x="308.25" y="-225.5" font-family="Helvetica,sans-Serif" font-size="10.00">Type_v2_4</text>
</a>
</g>
</g>
<!-- Node1&#45;&gt;Node30 -->
<g id="edge29_Node000001_Node000030" class="edge">
<title>Node1&#45;&gt;Node30</title>
<g id="a_edge29_Node000001_Node000030"><a xlink:title=" ">
<path fill="none" stroke="#63b8ff" d="M88.62,-588.37C97.52,-528.23 126.18,-383.72 204.25,-295 215.79,-281.89 231.29,-271.47 246.76,-263.43"/>
<polygon fill="#63b8ff" stroke="#63b8ff" points="85.18,-587.67 87.26,-598.06 92.11,-588.64 85.18,-587.67"/>
</a>
</g>
</g>
<!-- Node34 -->
<g id="Node000034" class="node">
<title>Node34</title>
<g id="a_Node000034"><a xlink:href="class_vecto_objects_1_1_abstract___components___p_e_v___primary_bus_declaration_type__v2__4.html" target="_top" xlink:title=" ">
<polygon fill="white" stroke="#bfbfbf" points="412.25,-138 204.25,-138 204.25,-94 412.25,-94 412.25,-138"/>
<text xml:space="preserve" text-anchor="start" x="212.25" y="-124.5" font-family="Helvetica,sans-Serif" font-size="10.00">VectoObjects.Abstract</text>
<text xml:space="preserve" text-anchor="start" x="212.25" y="-112.5" font-family="Helvetica,sans-Serif" font-size="10.00">_Components_PEV_PrimaryBusDeclaration</text>
<text xml:space="preserve" text-anchor="middle" x="308.25" y="-100.5" font-family="Helvetica,sans-Serif" font-size="10.00">Type_v2_4</text>
</a>
</g>
</g>
<!-- Node1&#45;&gt;Node34 -->
<g id="edge33_Node000001_Node000034" class="edge">
<title>Node1&#45;&gt;Node34</title>
<g id="a_edge33_Node000001_Node000034"><a xlink:title=" ">
<path fill="none" stroke="#63b8ff" d="M88.02,-588.52C96.29,-519.87 124.78,-337.25 204.25,-210 222.33,-181.05 251.74,-155.47 274.51,-138.34"/>
<polygon fill="#63b8ff" stroke="#63b8ff" points="84.58,-587.78 86.91,-598.12 91.54,-588.58 84.58,-587.78"/>
</a>
</g>
</g>
<!-- Node38 -->
<g id="Node000038" class="node">
<title>Node38</title>
<g id="a_Node000038"><a xlink:href="class_vecto_objects_1_1_vehicle_components_type__v2__0.html" target="_top" xlink:title=" ">
<polygon fill="white" stroke="#bfbfbf" points="390.5,-76 226,-76 226,-44 390.5,-44 390.5,-76"/>
<text xml:space="preserve" text-anchor="start" x="234" y="-62.5" font-family="Helvetica,sans-Serif" font-size="10.00">VectoObjects.VehicleComponents</text>
<text xml:space="preserve" text-anchor="middle" x="308.25" y="-50.5" font-family="Helvetica,sans-Serif" font-size="10.00">Type_v2_0</text>
</a>
</g>
</g>
<!-- Node1&#45;&gt;Node38 -->
<g id="edge37_Node000001_Node000038" class="edge">
<title>Node1&#45;&gt;Node38</title>
<g id="a_edge37_Node000001_Node000038"><a xlink:title=" ">
<path fill="none" stroke="#63b8ff" d="M87.55,-588.16C96.7,-489.45 132.33,-158.18 204.25,-85 210.31,-78.83 217.62,-74.09 225.51,-70.45"/>
<polygon fill="#63b8ff" stroke="#63b8ff" points="84.07,-587.73 86.66,-598 91.04,-588.36 84.07,-587.73"/>
</a>
</g>
</g>
<!-- Node3 -->
<g id="Node000003" class="node">
<title>Node3</title>
<g id="a_Node000003"><a xlink:href="class_vecto_objects_1_1_components___f_c_h_v___f2___lorry_type__v2__7.html" target="_top" xlink:title=" ">
<polygon fill="white" stroke="#bfbfbf" points="602.62,-1182 462.88,-1182 462.88,-1150 602.62,-1150 602.62,-1182"/>
<text xml:space="preserve" text-anchor="start" x="470.88" y="-1168.5" font-family="Helvetica,sans-Serif" font-size="10.00">VectoObjects.Components</text>
<text xml:space="preserve" text-anchor="middle" x="532.75" y="-1156.5" font-family="Helvetica,sans-Serif" font-size="10.00">_FCHV_F2_LorryType_v2_7</text>
</a>
</g>
</g>
<!-- Node2&#45;&gt;Node3 -->
<g id="edge2_Node000002_Node000003" class="edge">
<title>Node2&#45;&gt;Node3</title>
<g id="a_edge2_Node000002_Node000003"><a xlink:title=" ">
<path fill="none" stroke="#63b8ff" d="M380.34,-1117.41C402.06,-1125.25 426.06,-1133.69 448.25,-1141 457.02,-1143.89 466.35,-1146.82 475.47,-1149.61"/>
<polygon fill="#63b8ff" stroke="#63b8ff" points="381.57,-1114.14 370.98,-1114.02 379.18,-1120.72 381.57,-1114.14"/>
</a>
</g>
</g>
<!-- Node4 -->
<g id="Node000004" class="node">
<title>Node4</title>
<g id="a_Node000004"><a xlink:href="class_vecto_objects_1_1_components___f_c_h_v___f3___lorry_type__v2__7.html" target="_top" xlink:title=" ">
<polygon fill="white" stroke="#bfbfbf" points="602.62,-1132 462.88,-1132 462.88,-1100 602.62,-1100 602.62,-1132"/>
<text xml:space="preserve" text-anchor="start" x="470.88" y="-1118.5" font-family="Helvetica,sans-Serif" font-size="10.00">VectoObjects.Components</text>
<text xml:space="preserve" text-anchor="middle" x="532.75" y="-1106.5" font-family="Helvetica,sans-Serif" font-size="10.00">_FCHV_F3_LorryType_v2_7</text>
</a>
</g>
</g>
<!-- Node2&#45;&gt;Node4 -->
<g id="edge3_Node000002_Node000004" class="edge">
<title>Node2&#45;&gt;Node4</title>
<g id="a_edge3_Node000002_Node000004"><a xlink:title=" ">
<path fill="none" stroke="#63b8ff" d="M421.32,-1103.59C435.35,-1105.17 449.36,-1106.74 462.46,-1108.21"/>
<polygon fill="#63b8ff" stroke="#63b8ff" points="421.92,-1100.14 411.59,-1102.5 421.13,-1107.09 421.92,-1100.14"/>
</a>
</g>
</g>
<!-- Node5 -->
<g id="Node000005" class="node">
<title>Node5</title>
<g id="a_Node000005"><a xlink:href="class_vecto_objects_1_1_components___f_c_h_v___f4___lorry_type__v2__7.html" target="_top" xlink:title=" ">
<polygon fill="white" stroke="#bfbfbf" points="602.62,-1082 462.88,-1082 462.88,-1050 602.62,-1050 602.62,-1082"/>
<text xml:space="preserve" text-anchor="start" x="470.88" y="-1068.5" font-family="Helvetica,sans-Serif" font-size="10.00">VectoObjects.Components</text>
<text xml:space="preserve" text-anchor="middle" x="532.75" y="-1056.5" font-family="Helvetica,sans-Serif" font-size="10.00">_FCHV_F4_LorryType_v2_7</text>
</a>
</g>
</g>
<!-- Node2&#45;&gt;Node5 -->
<g id="edge4_Node000002_Node000005" class="edge">
<title>Node2&#45;&gt;Node5</title>
<g id="a_edge4_Node000002_Node000005"><a xlink:title=" ">
<path fill="none" stroke="#63b8ff" d="M421.32,-1078.41C435.35,-1076.83 449.36,-1075.26 462.46,-1073.79"/>
<polygon fill="#63b8ff" stroke="#63b8ff" points="421.13,-1074.91 411.59,-1079.5 421.92,-1081.86 421.13,-1074.91"/>
</a>
</g>
</g>
<!-- Node7 -->
<g id="Node000007" class="node">
<title>Node7</title>
<g id="a_Node000007"><a xlink:href="class_vecto_objects_1_1_components___f_c_h_v___f2___primary_bus_type__v2__7.html" target="_top" xlink:title=" ">
<polygon fill="white" stroke="#bfbfbf" points="617.25,-1032 448.25,-1032 448.25,-1000 617.25,-1000 617.25,-1032"/>
<text xml:space="preserve" text-anchor="start" x="456.25" y="-1018.5" font-family="Helvetica,sans-Serif" font-size="10.00">VectoObjects.Components</text>
<text xml:space="preserve" text-anchor="middle" x="532.75" y="-1006.5" font-family="Helvetica,sans-Serif" font-size="10.00">_FCHV_F2_PrimaryBusType_v2_7</text>
</a>
</g>
</g>
<!-- Node6&#45;&gt;Node7 -->
<g id="edge6_Node000006_Node000007" class="edge">
<title>Node6&#45;&gt;Node7</title>
<g id="a_edge6_Node000006_Node000007"><a xlink:title=" ">
<path fill="none" stroke="#63b8ff" d="M390.26,-972.88C409.27,-978.89 429.46,-985.21 448.25,-991 457.36,-993.81 467.04,-996.74 476.47,-999.58"/>
<polygon fill="#63b8ff" stroke="#63b8ff" points="391.57,-969.62 380.98,-969.94 389.46,-976.3 391.57,-969.62"/>
</a>
</g>
</g>
<!-- Node8 -->
<g id="Node000008" class="node">
<title>Node8</title>
<g id="a_Node000008"><a xlink:href="class_vecto_objects_1_1_components___f_c_h_v___f3___primary_bus_type__v2__7.html" target="_top" xlink:title=" ">
<polygon fill="white" stroke="#bfbfbf" points="617.25,-982 448.25,-982 448.25,-950 617.25,-950 617.25,-982"/>
<text xml:space="preserve" text-anchor="start" x="456.25" y="-968.5" font-family="Helvetica,sans-Serif" font-size="10.00">VectoObjects.Components</text>
<text xml:space="preserve" text-anchor="middle" x="532.75" y="-956.5" font-family="Helvetica,sans-Serif" font-size="10.00">_FCHV_F3_PrimaryBusType_v2_7</text>
</a>
</g>
</g>
<!-- Node6&#45;&gt;Node8 -->
<g id="edge7_Node000006_Node000008" class="edge">
<title>Node6&#45;&gt;Node8</title>
<g id="a_edge7_Node000006_Node000008"><a xlink:title=" ">
<path fill="none" stroke="#63b8ff" d="M402.53,-954.97C417.54,-956.25 433.01,-957.57 447.79,-958.83"/>
<polygon fill="#63b8ff" stroke="#63b8ff" points="402.92,-951.49 392.66,-954.12 402.33,-958.46 402.92,-951.49"/>
</a>
</g>
</g>
<!-- Node9 -->
<g id="Node000009" class="node">
<title>Node9</title>
<g id="a_Node000009"><a xlink:href="class_vecto_objects_1_1_components___f_c_h_v___f4___primary_bus_type__v2__7.html" target="_top" xlink:title=" ">
<polygon fill="white" stroke="#bfbfbf" points="617.25,-932 448.25,-932 448.25,-900 617.25,-900 617.25,-932"/>
<text xml:space="preserve" text-anchor="start" x="456.25" y="-918.5" font-family="Helvetica,sans-Serif" font-size="10.00">VectoObjects.Components</text>
<text xml:space="preserve" text-anchor="middle" x="532.75" y="-906.5" font-family="Helvetica,sans-Serif" font-size="10.00">_FCHV_F4_PrimaryBusType_v2_7</text>
</a>
</g>
</g>
<!-- Node6&#45;&gt;Node9 -->
<g id="edge8_Node000006_Node000009" class="edge">
<title>Node6&#45;&gt;Node9</title>
<g id="a_edge8_Node000006_Node000009"><a xlink:title=" ">
<path fill="none" stroke="#63b8ff" d="M402.53,-934C417.54,-931.91 433.01,-929.76 447.79,-927.7"/>
<polygon fill="#63b8ff" stroke="#63b8ff" points="402.07,-930.53 392.65,-935.38 403.04,-937.47 402.07,-930.53"/>
</a>
</g>
</g>
<!-- Node11 -->
<g id="Node000011" class="node">
<title>Node11</title>
<g id="a_Node000011"><a xlink:href="class_vecto_objects_1_1_components___h_e_v___i_e_p_c___s___lorry_type__v2__4.html" target="_top" xlink:title=" ">
<polygon fill="white" stroke="#bfbfbf" points="611.62,-882 453.88,-882 453.88,-850 611.62,-850 611.62,-882"/>
<text xml:space="preserve" text-anchor="start" x="461.88" y="-868.5" font-family="Helvetica,sans-Serif" font-size="10.00">VectoObjects.Components</text>
<text xml:space="preserve" text-anchor="middle" x="532.75" y="-856.5" font-family="Helvetica,sans-Serif" font-size="10.00">_HEV_IEPC_S_LorryType_v2_4</text>
</a>
</g>
</g>
<!-- Node10&#45;&gt;Node11 -->
<g id="edge10_Node000010_Node000011" class="edge">
<title>Node10&#45;&gt;Node11</title>
<g id="a_edge10_Node000010_Node000011"><a xlink:title=" ">
<path fill="none" stroke="#63b8ff" d="M395.92,-865.39C414.88,-865.47 434.85,-865.56 453.46,-865.65"/>
<polygon fill="#63b8ff" stroke="#63b8ff" points="396.11,-861.89 386.09,-865.35 396.08,-868.89 396.11,-861.89"/>
</a>
</g>
</g>
<!-- Node13 -->
<g id="Node000013" class="node">
<title>Node13</title>
<g id="a_Node000013"><a xlink:href="class_vecto_objects_1_1_components___h_e_v___i_e_p_c___s___primary_bus__v2__4.html" target="_top" xlink:title=" ">
<polygon fill="white" stroke="#bfbfbf" points="615.75,-832 449.75,-832 449.75,-800 615.75,-800 615.75,-832"/>
<text xml:space="preserve" text-anchor="start" x="457.75" y="-818.5" font-family="Helvetica,sans-Serif" font-size="10.00">VectoObjects.Components</text>
<text xml:space="preserve" text-anchor="middle" x="532.75" y="-806.5" font-family="Helvetica,sans-Serif" font-size="10.00">_HEV_IEPC_S_PrimaryBus_v2_4</text>
</a>
</g>
</g>
<!-- Node12&#45;&gt;Node13 -->
<g id="edge12_Node000012_Node000013" class="edge">
<title>Node12&#45;&gt;Node13</title>
<g id="a_edge12_Node000012_Node000013"><a xlink:title=" ">
<path fill="none" stroke="#63b8ff" d="M410.5,-808.92C423.55,-809.68 436.78,-810.45 449.46,-811.19"/>
<polygon fill="#63b8ff" stroke="#63b8ff" points="410.81,-805.43 400.62,-808.34 410.4,-812.42 410.81,-805.43"/>
</a>
</g>
</g>
<!-- Node15 -->
<g id="Node000015" class="node">
<title>Node15</title>
<g id="a_Node000015"><a xlink:href="class_vecto_objects_1_1_components___h_e_v___px___lorry_type__v2__4.html" target="_top" xlink:title=" ">
<polygon fill="white" stroke="#bfbfbf" points="599.62,-782 465.88,-782 465.88,-750 599.62,-750 599.62,-782"/>
<text xml:space="preserve" text-anchor="start" x="473.88" y="-768.5" font-family="Helvetica,sans-Serif" font-size="10.00">VectoObjects.Components</text>
<text xml:space="preserve" text-anchor="middle" x="532.75" y="-756.5" font-family="Helvetica,sans-Serif" font-size="10.00">_HEV_Px_LorryType_v2_4</text>
</a>
</g>
</g>
<!-- Node14&#45;&gt;Node15 -->
<g id="edge14_Node000014_Node000015" class="edge">
<title>Node14&#45;&gt;Node15</title>
<g id="a_edge14_Node000014_Node000015"><a xlink:title=" ">
<path fill="none" stroke="#63b8ff" d="M418.05,-753.22C434.29,-755.05 450.59,-756.88 465.58,-758.57"/>
<polygon fill="#63b8ff" stroke="#63b8ff" points="418.67,-749.77 408.35,-752.13 417.89,-756.73 418.67,-749.77"/>
</a>
</g>
</g>
<!-- Node17 -->
<g id="Node000017" class="node">
<title>Node17</title>
<g id="a_Node000017"><a xlink:href="class_vecto_objects_1_1_components___h_e_v___px___primary_bus_type__v2__4.html" target="_top" xlink:title=" ">
<polygon fill="white" stroke="#bfbfbf" points="614.25,-732 451.25,-732 451.25,-700 614.25,-700 614.25,-732"/>
<text xml:space="preserve" text-anchor="start" x="459.25" y="-718.5" font-family="Helvetica,sans-Serif" font-size="10.00">VectoObjects.Components</text>
<text xml:space="preserve" text-anchor="middle" x="532.75" y="-706.5" font-family="Helvetica,sans-Serif" font-size="10.00">_HEV_Px_PrimaryBusType_v2_4</text>
</a>
</g>
</g>
<!-- Node16&#45;&gt;Node17 -->
<g id="edge16_Node000016_Node000017" class="edge">
<title>Node16&#45;&gt;Node17</title>
<g id="a_edge16_Node000016_Node000017"><a xlink:title=" ">
<path fill="none" stroke="#63b8ff" d="M407.85,-695.4C422.31,-697.8 437.05,-700.25 451.09,-702.59"/>
<polygon fill="#63b8ff" stroke="#63b8ff" points="408.8,-692.01 398.36,-693.82 407.65,-698.91 408.8,-692.01"/>
</a>
</g>
</g>
<!-- Node19 -->
<g id="Node000019" class="node">
<title>Node19</title>
<g id="a_Node000019"><a xlink:href="class_vecto_objects_1_1_components___h_e_v___s2___lorry_type__v2__4.html" target="_top" xlink:title=" ">
<polygon fill="white" stroke="#bfbfbf" points="599.62,-682 465.88,-682 465.88,-650 599.62,-650 599.62,-682"/>
<text xml:space="preserve" text-anchor="start" x="473.88" y="-668.5" font-family="Helvetica,sans-Serif" font-size="10.00">VectoObjects.Components</text>
<text xml:space="preserve" text-anchor="middle" x="532.75" y="-656.5" font-family="Helvetica,sans-Serif" font-size="10.00">_HEV_S2_LorryType_v2_4</text>
</a>
</g>
</g>
<!-- Node18&#45;&gt;Node19 -->
<g id="edge18_Node000018_Node000019" class="edge">
<title>Node18&#45;&gt;Node19</title>
<g id="a_edge18_Node000018_Node000019"><a xlink:title=" ">
<path fill="none" stroke="#63b8ff" d="M418.05,-640.45C434.29,-644.1 450.59,-647.76 465.58,-651.13"/>
<polygon fill="#63b8ff" stroke="#63b8ff" points="418.84,-637.04 408.32,-638.26 417.31,-643.87 418.84,-637.04"/>
</a>
</g>
</g>
<!-- Node20 -->
<g id="Node000020" class="node">
<title>Node20</title>
<g id="a_Node000020"><a xlink:href="class_vecto_objects_1_1_components___h_e_v___s3___lorry_type__v2__4.html" target="_top" xlink:title=" ">
<polygon fill="white" stroke="#bfbfbf" points="599.62,-632 465.88,-632 465.88,-600 599.62,-600 599.62,-632"/>
<text xml:space="preserve" text-anchor="start" x="473.88" y="-618.5" font-family="Helvetica,sans-Serif" font-size="10.00">VectoObjects.Components</text>
<text xml:space="preserve" text-anchor="middle" x="532.75" y="-606.5" font-family="Helvetica,sans-Serif" font-size="10.00">_HEV_S3_LorryType_v2_4</text>
</a>
</g>
</g>
<!-- Node18&#45;&gt;Node20 -->
<g id="edge19_Node000018_Node000020" class="edge">
<title>Node18&#45;&gt;Node20</title>
<g id="a_edge19_Node000018_Node000020"><a xlink:title=" ">
<path fill="none" stroke="#63b8ff" d="M418.05,-616C434.29,-616 450.59,-616 465.58,-616"/>
<polygon fill="#63b8ff" stroke="#63b8ff" points="418.36,-612.5 408.36,-616 418.36,-619.5 418.36,-612.5"/>
</a>
</g>
</g>
<!-- Node21 -->
<g id="Node000021" class="node">
<title>Node21</title>
<g id="a_Node000021"><a xlink:href="class_vecto_objects_1_1_components___h_e_v___s4___lorry_type__v2__4.html" target="_top" xlink:title=" ">
<polygon fill="white" stroke="#bfbfbf" points="599.62,-582 465.88,-582 465.88,-550 599.62,-550 599.62,-582"/>
<text xml:space="preserve" text-anchor="start" x="473.88" y="-568.5" font-family="Helvetica,sans-Serif" font-size="10.00">VectoObjects.Components</text>
<text xml:space="preserve" text-anchor="middle" x="532.75" y="-556.5" font-family="Helvetica,sans-Serif" font-size="10.00">_HEV_S4_LorryType_v2_4</text>
</a>
</g>
</g>
<!-- Node18&#45;&gt;Node21 -->
<g id="edge20_Node000018_Node000021" class="edge">
<title>Node18&#45;&gt;Node21</title>
<g id="a_edge20_Node000018_Node000021"><a xlink:title=" ">
<path fill="none" stroke="#63b8ff" d="M418.05,-591.55C434.29,-587.9 450.59,-584.24 465.58,-580.87"/>
<polygon fill="#63b8ff" stroke="#63b8ff" points="417.31,-588.13 408.32,-593.74 418.84,-594.96 417.31,-588.13"/>
</a>
</g>
</g>
<!-- Node23 -->
<g id="Node000023" class="node">
<title>Node23</title>
<g id="a_Node000023"><a xlink:href="class_vecto_objects_1_1_components___h_e_v___s2___primary_bus_type__v2__4.html" target="_top" xlink:title=" ">
<polygon fill="white" stroke="#bfbfbf" points="614.25,-532 451.25,-532 451.25,-500 614.25,-500 614.25,-532"/>
<text xml:space="preserve" text-anchor="start" x="459.25" y="-518.5" font-family="Helvetica,sans-Serif" font-size="10.00">VectoObjects.Components</text>
<text xml:space="preserve" text-anchor="middle" x="532.75" y="-506.5" font-family="Helvetica,sans-Serif" font-size="10.00">_HEV_S2_PrimaryBusType_v2_4</text>
</a>
</g>
</g>
<!-- Node22&#45;&gt;Node23 -->
<g id="edge22_Node000022_Node000023" class="edge">
<title>Node22&#45;&gt;Node23</title>
<g id="a_edge22_Node000022_Node000023"><a xlink:title=" ">
<path fill="none" stroke="#63b8ff" d="M408.28,-511.01C422.6,-511.58 437.19,-512.18 451.09,-512.74"/>
<polygon fill="#63b8ff" stroke="#63b8ff" points="408.51,-507.51 398.38,-510.61 408.23,-514.51 408.51,-507.51"/>
</a>
</g>
</g>
<!-- Node24 -->
<g id="Node000024" class="node">
<title>Node24</title>
<g id="a_Node000024"><a xlink:href="class_vecto_objects_1_1_components___h_e_v___s3___primary_bus_type__v2__4.html" target="_top" xlink:title=" ">
<polygon fill="white" stroke="#bfbfbf" points="614.25,-482 451.25,-482 451.25,-450 614.25,-450 614.25,-482"/>
<text xml:space="preserve" text-anchor="start" x="459.25" y="-468.5" font-family="Helvetica,sans-Serif" font-size="10.00">VectoObjects.Components</text>
<text xml:space="preserve" text-anchor="middle" x="532.75" y="-456.5" font-family="Helvetica,sans-Serif" font-size="10.00">_HEV_S3_PrimaryBusType_v2_4</text>
</a>
</g>
</g>
<!-- Node22&#45;&gt;Node24 -->
<g id="edge23_Node000022_Node000024" class="edge">
<title>Node22&#45;&gt;Node24</title>
<g id="a_edge23_Node000022_Node000024"><a xlink:title=" ">
<path fill="none" stroke="#63b8ff" d="M407.85,-488.83C422.31,-486.17 437.05,-483.45 451.09,-480.86"/>
<polygon fill="#63b8ff" stroke="#63b8ff" points="407.56,-485.33 398.36,-490.58 408.83,-492.21 407.56,-485.33"/>
</a>
</g>
</g>
<!-- Node25 -->
<g id="Node000025" class="node">
<title>Node25</title>
<g id="a_Node000025"><a xlink:href="class_vecto_objects_1_1_components___h_e_v___s4___primary_bus_type__v2__4.html" target="_top" xlink:title=" ">
<polygon fill="white" stroke="#bfbfbf" points="614.25,-432 451.25,-432 451.25,-400 614.25,-400 614.25,-432"/>
<text xml:space="preserve" text-anchor="start" x="459.25" y="-418.5" font-family="Helvetica,sans-Serif" font-size="10.00">VectoObjects.Components</text>
<text xml:space="preserve" text-anchor="middle" x="532.75" y="-406.5" font-family="Helvetica,sans-Serif" font-size="10.00">_HEV_S4_PrimaryBusType_v2_4</text>
</a>
</g>
</g>
<!-- Node22&#45;&gt;Node25 -->
<g id="edge24_Node000022_Node000025" class="edge">
<title>Node22&#45;&gt;Node25</title>
<g id="a_edge24_Node000022_Node000025"><a xlink:title=" ">
<path fill="none" stroke="#63b8ff" d="M365.57,-479.76C400.25,-463.07 439.68,-444.29 448.25,-441 456.16,-437.96 464.6,-435.05 472.97,-432.37"/>
<polygon fill="#63b8ff" stroke="#63b8ff" points="364.32,-476.48 356.83,-483.97 367.36,-482.78 364.32,-476.48"/>
</a>
</g>
</g>
<!-- Node27 -->
<g id="Node000027" class="node">
<title>Node27</title>
<g id="a_Node000027"><a xlink:href="class_vecto_objects_1_1_components___i_e_p_c___lorry_type__v2__4.html" target="_top" xlink:title=" ">
<polygon fill="white" stroke="#bfbfbf" points="599.25,-382 466.25,-382 466.25,-350 599.25,-350 599.25,-382"/>
<text xml:space="preserve" text-anchor="start" x="474.25" y="-368.5" font-family="Helvetica,sans-Serif" font-size="10.00">VectoObjects.Components</text>
<text xml:space="preserve" text-anchor="middle" x="532.75" y="-356.5" font-family="Helvetica,sans-Serif" font-size="10.00">_IEPC_LorryType_v2_4</text>
</a>
</g>
</g>
<!-- Node26&#45;&gt;Node27 -->
<g id="edge26_Node000026_Node000027" class="edge">
<title>Node26&#45;&gt;Node27</title>
<g id="a_edge26_Node000026_Node000027"><a xlink:title=" ">
<path fill="none" stroke="#63b8ff" d="M403.46,-400.59C426.16,-394.47 449.83,-388.09 470.56,-382.5"/>
<polygon fill="#63b8ff" stroke="#63b8ff" points="402.62,-397.2 393.88,-403.18 404.44,-403.95 402.62,-397.2"/>
</a>
</g>
</g>
<!-- Node29 -->
<g id="Node000029" class="node">
<title>Node29</title>
<g id="a_Node000029"><a xlink:href="class_vecto_objects_1_1_components___i_e_p_c___primary_bus_type__v2__4.html" target="_top" xlink:title=" ">
<polygon fill="white" stroke="#bfbfbf" points="607.12,-332 458.38,-332 458.38,-300 607.12,-300 607.12,-332"/>
<text xml:space="preserve" text-anchor="start" x="466.38" y="-318.5" font-family="Helvetica,sans-Serif" font-size="10.00">VectoObjects.Components</text>
<text xml:space="preserve" text-anchor="middle" x="532.75" y="-306.5" font-family="Helvetica,sans-Serif" font-size="10.00">_IEPC_PrimaryBusType_v2_4</text>
</a>
</g>
</g>
<!-- Node28&#45;&gt;Node29 -->
<g id="edge28_Node000028_Node000029" class="edge">
<title>Node28&#45;&gt;Node29</title>
<g id="a_edge28_Node000028_Node000029"><a xlink:title=" ">
<path fill="none" stroke="#63b8ff" d="M401,-321.88C420.06,-321.02 439.9,-320.13 458.2,-319.31"/>
<polygon fill="#63b8ff" stroke="#63b8ff" points="400.92,-318.38 391.09,-322.32 401.24,-325.37 400.92,-318.38"/>
</a>
</g>
</g>
<!-- Node31 -->
<g id="Node000031" class="node">
<title>Node31</title>
<g id="a_Node000031"><a xlink:href="class_vecto_objects_1_1_components___p_e_v___e2___lorry_type__v2__4.html" target="_top" xlink:title=" ">
<polygon fill="white" stroke="#bfbfbf" points="599.25,-282 466.25,-282 466.25,-250 599.25,-250 599.25,-282"/>
<text xml:space="preserve" text-anchor="start" x="474.25" y="-268.5" font-family="Helvetica,sans-Serif" font-size="10.00">VectoObjects.Components</text>
<text xml:space="preserve" text-anchor="middle" x="532.75" y="-256.5" font-family="Helvetica,sans-Serif" font-size="10.00">_PEV_E2_LorryType_v2_4</text>
</a>
</g>
</g>
<!-- Node30&#45;&gt;Node31 -->
<g id="edge30_Node000030_Node000031" class="edge">
<title>Node30&#45;&gt;Node31</title>
<g id="a_edge30_Node000030_Node000031"><a xlink:title=" ">
<path fill="none" stroke="#63b8ff" d="M409.07,-252.22C428.28,-254.37 447.96,-256.59 465.77,-258.59"/>
<polygon fill="#63b8ff" stroke="#63b8ff" points="409.66,-248.76 399.33,-251.12 408.88,-255.72 409.66,-248.76"/>
</a>
</g>
</g>
<!-- Node32 -->
<g id="Node000032" class="node">
<title>Node32</title>
<g id="a_Node000032"><a xlink:href="class_vecto_objects_1_1_components___p_e_v___e3___lorry_type__v2__4.html" target="_top" xlink:title=" ">
<polygon fill="white" stroke="#bfbfbf" points="599.25,-232 466.25,-232 466.25,-200 599.25,-200 599.25,-232"/>
<text xml:space="preserve" text-anchor="start" x="474.25" y="-218.5" font-family="Helvetica,sans-Serif" font-size="10.00">VectoObjects.Components</text>
<text xml:space="preserve" text-anchor="middle" x="532.75" y="-206.5" font-family="Helvetica,sans-Serif" font-size="10.00">_PEV_E3_LorryType_v2_4</text>
</a>
</g>
</g>
<!-- Node30&#45;&gt;Node32 -->
<g id="edge31_Node000030_Node000032" class="edge">
<title>Node30&#45;&gt;Node32</title>
<g id="a_edge31_Node000030_Node000032"><a xlink:title=" ">
<path fill="none" stroke="#63b8ff" d="M409.07,-229.78C428.28,-227.63 447.96,-225.41 465.77,-223.41"/>
<polygon fill="#63b8ff" stroke="#63b8ff" points="408.88,-226.28 399.33,-230.88 409.66,-233.24 408.88,-226.28"/>
</a>
</g>
</g>
<!-- Node33 -->
<g id="Node000033" class="node">
<title>Node33</title>
<g id="a_Node000033"><a xlink:href="class_vecto_objects_1_1_components___p_e_v___e4___lorry_type__v2__4.html" target="_top" xlink:title=" ">
<polygon fill="white" stroke="#bfbfbf" points="599.25,-182 466.25,-182 466.25,-150 599.25,-150 599.25,-182"/>
<text xml:space="preserve" text-anchor="start" x="474.25" y="-168.5" font-family="Helvetica,sans-Serif" font-size="10.00">VectoObjects.Components</text>
<text xml:space="preserve" text-anchor="middle" x="532.75" y="-156.5" font-family="Helvetica,sans-Serif" font-size="10.00">_PEV_E4_LorryType_v2_4</text>
</a>
</g>
</g>
<!-- Node30&#45;&gt;Node33 -->
<g id="edge32_Node000030_Node000033" class="edge">
<title>Node30&#45;&gt;Node33</title>
<g id="a_edge32_Node000030_Node000033"><a xlink:title=" ">
<path fill="none" stroke="#63b8ff" d="M380.34,-214.59C402.06,-206.75 426.06,-198.31 448.25,-191 457.02,-188.11 466.35,-185.18 475.47,-182.39"/>
<polygon fill="#63b8ff" stroke="#63b8ff" points="379.18,-211.28 370.98,-217.98 381.57,-217.86 379.18,-211.28"/>
</a>
</g>
</g>
<!-- Node35 -->
<g id="Node000035" class="node">
<title>Node35</title>
<g id="a_Node000035"><a xlink:href="class_vecto_objects_1_1_components___p_e_v___e2___primary_bus_type__v2__4.html" target="_top" xlink:title=" ">
<polygon fill="white" stroke="#bfbfbf" points="613.88,-132 451.62,-132 451.62,-100 613.88,-100 613.88,-132"/>
<text xml:space="preserve" text-anchor="start" x="459.62" y="-118.5" font-family="Helvetica,sans-Serif" font-size="10.00">VectoObjects.Components</text>
<text xml:space="preserve" text-anchor="middle" x="532.75" y="-106.5" font-family="Helvetica,sans-Serif" font-size="10.00">_PEV_E2_PrimaryBusType_v2_4</text>
</a>
</g>
</g>
<!-- Node34&#45;&gt;Node35 -->
<g id="edge34_Node000034_Node000035" class="edge">
<title>Node34&#45;&gt;Node35</title>
<g id="a_edge34_Node000034_Node000035"><a xlink:title=" ">
<path fill="none" stroke="#63b8ff" d="M423.92,-116C433.14,-116 442.32,-116 451.22,-116"/>
<polygon fill="#63b8ff" stroke="#63b8ff" points="424.2,-112.5 414.2,-116 424.2,-119.5 424.2,-112.5"/>
</a>
</g>
</g>
<!-- Node36 -->
<g id="Node000036" class="node">
<title>Node36</title>
<g id="a_Node000036"><a xlink:href="class_vecto_objects_1_1_components___p_e_v___e3___primary_bus_type__v2__4.html" target="_top" xlink:title=" ">
<polygon fill="white" stroke="#bfbfbf" points="613.88,-82 451.62,-82 451.62,-50 613.88,-50 613.88,-82"/>
<text xml:space="preserve" text-anchor="start" x="459.62" y="-68.5" font-family="Helvetica,sans-Serif" font-size="10.00">VectoObjects.Components</text>
<text xml:space="preserve" text-anchor="middle" x="532.75" y="-56.5" font-family="Helvetica,sans-Serif" font-size="10.00">_PEV_E3_PrimaryBusType_v2_4</text>
</a>
</g>
</g>
<!-- Node34&#45;&gt;Node36 -->
<g id="edge35_Node000034_Node000036" class="edge">
<title>Node34&#45;&gt;Node36</title>
<g id="a_edge35_Node000034_Node000036"><a xlink:title=" ">
<path fill="none" stroke="#63b8ff" d="M420.06,-91.1C433.12,-88.16 446.18,-85.23 458.54,-82.45"/>
<polygon fill="#63b8ff" stroke="#63b8ff" points="419.58,-87.62 410.59,-93.23 421.11,-94.45 419.58,-87.62"/>
</a>
</g>
</g>
<!-- Node37 -->
<g id="Node000037" class="node">
<title>Node37</title>
<g id="a_Node000037"><a xlink:href="class_vecto_objects_1_1_components___p_e_v___e4___primary_bus_type__v2__4.html" target="_top" xlink:title=" ">
<polygon fill="white" stroke="#bfbfbf" points="613.88,-32 451.62,-32 451.62,0 613.88,0 613.88,-32"/>
<text xml:space="preserve" text-anchor="start" x="459.62" y="-18.5" font-family="Helvetica,sans-Serif" font-size="10.00">VectoObjects.Components</text>
<text xml:space="preserve" text-anchor="middle" x="532.75" y="-6.5" font-family="Helvetica,sans-Serif" font-size="10.00">_PEV_E4_PrimaryBusType_v2_4</text>
</a>
</g>
</g>
<!-- Node34&#45;&gt;Node37 -->
<g id="edge36_Node000034_Node000037" class="edge">
<title>Node34&#45;&gt;Node37</title>
<g id="a_edge36_Node000034_Node000037"><a xlink:title=" ">
<path fill="none" stroke="#63b8ff" d="M407.25,-88.15C408.95,-87.14 410.62,-86.09 412.25,-85 433.26,-70.97 427.23,-55.02 448.25,-41 453.16,-37.73 458.51,-34.87 464.06,-32.38"/>
<polygon fill="#63b8ff" stroke="#63b8ff" points="405.66,-85.03 398.52,-92.86 408.98,-91.2 405.66,-85.03"/>
</a>
</g>
</g>
</g>
</svg>

<g id="navigator" transform="translate(0 0)" fill="#404254">
  <rect fill="#f2f5e9" fill-opacity="0.5" stroke="#606060" stroke-width=".5" x="0" y="0" width="60" height="60"/>
  <use id="zoomplus" xlink:href="#zoomPlus" x="17" y="9" onmousedown="handleZoom(evt,'in')"/>
  <use id="zoomminus" xlink:href="#zoomMin" x="42" y="9" onmousedown="handleZoom(evt,'out')"/>
  <use id="reset" xlink:href="#resetDef" x="30" y="36" onmousedown="handleReset()"/>
   <use id="arrowup" xlink:href="#arrowUp" x="0" y="0" onmousedown="handlePan(0,-1)"/>
  <use id="arrowright" xlink:href="#arrowRight" x="0" y="0" onmousedown="handlePan(1,0)"/>
  <use id="arrowdown" xlink:href="#arrowDown" x="0" y="0" onmousedown="handlePan(0,1)"/>
  <use id="arrowleft" xlink:href="#arrowLeft" x="0" y="0" onmousedown="handlePan(-1,0)"/>
</g>
<svg viewBox="0 0 15 15" width="100%" height="30px" preserveAspectRatio="xMaxYMin meet">
 <g id="arrow_out" transform="scale(0.3 0.3)">
  <a xlink:href="class_vecto_objects_1_1_abstract_vehicle_components_declaration_type__v2__0__inherit__graph_org.svg" target="_base">
   <rect id="button" ry="5" rx="5" y="6" x="6" height="38" width="38"
        fill="#f2f5e9" fill-opacity="0.5" stroke="#606060" stroke-width="1.0"/>
   <path id="arrow"
     d="M 11.500037,31.436501 C 11.940474,20.09759 22.043105,11.32322 32.158766,21.979434 L 37.068811,17.246167 C 37.068811,17.246167 37.088388,32 37.088388,32 L 22.160133,31.978069 C 22.160133,31.978069 26.997745,27.140456 26.997745,27.140456 C 18.528582,18.264221 13.291696,25.230495 11.500037,31.436501 z"
     style="fill:#404040;"/>
  </a>
 </g>
</svg>

<style type='text/css'>
<![CDATA[
[data-mouse-over-selected='false'] { opacity: 0.7; }
[data-mouse-over-selected='true']  { opacity: 1.0; }
]]>
</style>
<script type="application/ecmascript"><![CDATA[
document.addEventListener('DOMContentLoaded', (event) => {
  highlightEdges();
  highlightAdjacentNodes();
});
]]></script>
</svg>
