<?xml version="1.0" encoding="UTF-8" standalone="no"?>
<!DOCTYPE svg PUBLIC "-//W3C//DTD SVG 1.1//EN"
 "http://www.w3.org/Graphics/SVG/1.1/DTD/svg11.dtd">
<!-- Generated by graphviz version 14.0.2 (20251019.1705)
 -->
<!-- Title: VectoObjects.AbstractREESSDataType_v2_3 Pages: 1 -->
<svg width="743pt" height="240pt"
 viewBox="0.00 0.00 743.00 240.00" xmlns="http://www.w3.org/2000/svg" xmlns:xlink="http://www.w3.org/1999/xlink">
<g id="graph0" class="graph" transform="scale(1 1) rotate(0) translate(4 236)">
<title>VectoObjects.AbstractREESSDataType_v2_3</title>
<!-- Node1 -->
<g id="Node000001" class="node">
<title>Node1</title>
<g id="a_Node000001"><a xlink:title=" ">
<polygon fill="#999999" stroke="#666666" points="353.75,-107 184,-107 184,-75 353.75,-75 353.75,-107"/>
<text xml:space="preserve" text-anchor="start" x="192" y="-93.5" font-family="Helvetica,sans-Serif" font-size="10.00">VectoObjects.AbstractREESSData</text>
<text xml:space="preserve" text-anchor="middle" x="268.88" y="-81.5" font-family="Helvetica,sans-Serif" font-size="10.00">Type_v2_3</text>
</a>
</g>
</g>
<!-- Node3 -->
<g id="Node000003" class="node">
<title>Node3</title>
<g id="a_Node000003"><a xlink:href="class_vecto_objects_1_1_abstract_battery_system_data_type__v2__3.html" target="_top" xlink:title=" ">
<polygon fill="white" stroke="#bfbfbf" points="540.75,-157 395,-157 395,-125 540.75,-125 540.75,-157"/>
<text xml:space="preserve" text-anchor="start" x="403" y="-143.5" font-family="Helvetica,sans-Serif" font-size="10.00">VectoObjects.AbstractBattery</text>
<text xml:space="preserve" text-anchor="middle" x="467.88" y="-131.5" font-family="Helvetica,sans-Serif" font-size="10.00">SystemDataType_v2_3</text>
</a>
</g>
</g>
<!-- Node1&#45;&gt;Node3 -->
<g id="edge2_Node000001_Node000003" class="edge">
<title>Node1&#45;&gt;Node3</title>
<g id="a_edge2_Node000001_Node000003"><a xlink:title=" ">
<path fill="none" stroke="#63b8ff" d="M345.75,-110.26C364.33,-114.97 384.05,-119.98 402.06,-124.55"/>
<polygon fill="#63b8ff" stroke="#63b8ff" points="346.67,-106.88 336.12,-107.81 344.95,-113.67 346.67,-106.88"/>
</a>
</g>
</g>
<!-- Node7 -->
<g id="Node000007" class="node">
<title>Node7</title>
<g id="a_Node000007"><a xlink:href="class_vecto_objects_1_1_abstract_capacitor_system_data_type__v2__3.html" target="_top" xlink:title=" ">
<polygon fill="white" stroke="#bfbfbf" points="546,-82 389.75,-82 389.75,-50 546,-50 546,-82"/>
<text xml:space="preserve" text-anchor="start" x="397.75" y="-68.5" font-family="Helvetica,sans-Serif" font-size="10.00">VectoObjects.AbstractCapacitor</text>
<text xml:space="preserve" text-anchor="middle" x="467.88" y="-56.5" font-family="Helvetica,sans-Serif" font-size="10.00">SystemDataType_v2_3</text>
</a>
</g>
</g>
<!-- Node1&#45;&gt;Node7 -->
<g id="edge6_Node000001_Node000007" class="edge">
<title>Node1&#45;&gt;Node7</title>
<g id="a_edge6_Node000001_Node000007"><a xlink:title=" ">
<path fill="none" stroke="#63b8ff" d="M365.31,-78.89C373.34,-77.87 381.41,-76.85 389.28,-75.85"/>
<polygon fill="#63b8ff" stroke="#63b8ff" points="364.97,-75.4 355.49,-80.13 365.85,-82.35 364.97,-75.4"/>
</a>
</g>
</g>
<!-- Node2 -->
<g id="Node000002" class="node">
<title>Node2</title>
<g id="a_Node000002"><a xlink:href="class_vecto_objects_1_1_vecto_simulation_component__v1__0.html" target="_top" xlink:title=" ">
<polygon fill="white" stroke="#bfbfbf" points="148,-107 0,-107 0,-75 148,-75 148,-107"/>
<text xml:space="preserve" text-anchor="start" x="8" y="-93.5" font-family="Helvetica,sans-Serif" font-size="10.00">VectoObjects.VectoSimulation</text>
<text xml:space="preserve" text-anchor="middle" x="74" y="-81.5" font-family="Helvetica,sans-Serif" font-size="10.00">Component_v1_0</text>
</a>
</g>
</g>
<!-- Node2&#45;&gt;Node1 -->
<g id="edge1_Node000001_Node000002" class="edge">
<title>Node2&#45;&gt;Node1</title>
<g id="a_edge1_Node000001_Node000002"><a xlink:title=" ">
<path fill="none" stroke="#63b8ff" d="M159.91,-91C167.79,-91 175.77,-91 183.64,-91"/>
<polygon fill="#63b8ff" stroke="#63b8ff" points="159.98,-87.5 149.98,-91 159.98,-94.5 159.98,-87.5"/>
</a>
</g>
</g>
<!-- Node4 -->
<g id="Node000004" class="node">
<title>Node4</title>
<g id="a_Node000004"><a xlink:href="class_vecto_objects_1_1_battery_system_data_type__v2__3.html" target="_top" xlink:title=" ">
<polygon fill="white" stroke="#bfbfbf" points="730,-232 587.25,-232 587.25,-200 730,-200 730,-232"/>
<text xml:space="preserve" text-anchor="start" x="595.25" y="-218.5" font-family="Helvetica,sans-Serif" font-size="10.00">VectoObjects.BatterySystem</text>
<text xml:space="preserve" text-anchor="middle" x="658.62" y="-206.5" font-family="Helvetica,sans-Serif" font-size="10.00">DataType_v2_3</text>
</a>
</g>
</g>
<!-- Node3&#45;&gt;Node4 -->
<g id="edge3_Node000003_Node000004" class="edge">
<title>Node3&#45;&gt;Node4</title>
<g id="a_edge3_Node000003_Node000004"><a xlink:title=" ">
<path fill="none" stroke="#63b8ff" d="M514,-162.15C534.55,-171.46 559.31,-182.26 582,-191 589.61,-193.93 597.73,-196.84 605.72,-199.58"/>
<polygon fill="#63b8ff" stroke="#63b8ff" points="515.6,-159.03 505.05,-158.05 512.69,-165.39 515.6,-159.03"/>
</a>
</g>
</g>
<!-- Node5 -->
<g id="Node000005" class="node">
<title>Node5</title>
<g id="a_Node000005"><a xlink:href="class_vecto_objects_1_1_battery_system_standard_values_data_type__v2__3.html" target="_top" xlink:title=" ">
<polygon fill="white" stroke="#bfbfbf" points="734.88,-182 582.38,-182 582.38,-150 734.88,-150 734.88,-182"/>
<text xml:space="preserve" text-anchor="start" x="590.38" y="-168.5" font-family="Helvetica,sans-Serif" font-size="10.00">VectoObjects.BatterySystem</text>
<text xml:space="preserve" text-anchor="middle" x="658.62" y="-156.5" font-family="Helvetica,sans-Serif" font-size="10.00">StandardValuesDataType_v2_3</text>
</a>
</g>
</g>
<!-- Node3&#45;&gt;Node5 -->
<g id="edge4_Node000003_Node000005" class="edge">
<title>Node3&#45;&gt;Node5</title>
<g id="a_edge4_Node000003_Node000005"><a xlink:title=" ">
<path fill="none" stroke="#63b8ff" d="M552.17,-152.03C562.12,-153.35 572.23,-154.69 582.05,-155.99"/>
<polygon fill="#63b8ff" stroke="#63b8ff" points="552.91,-148.6 542.54,-150.76 552,-155.54 552.91,-148.6"/>
</a>
</g>
</g>
<!-- Node6 -->
<g id="Node000006" class="node">
<title>Node6</title>
<g id="a_Node000006"><a xlink:href="class_vecto_objects_1_1_battery_system_standard_values_data_type__v2__6.html" target="_top" xlink:title=" ">
<polygon fill="white" stroke="#bfbfbf" points="734.88,-132 582.38,-132 582.38,-100 734.88,-100 734.88,-132"/>
<text xml:space="preserve" text-anchor="start" x="590.38" y="-118.5" font-family="Helvetica,sans-Serif" font-size="10.00">VectoObjects.BatterySystem</text>
<text xml:space="preserve" text-anchor="middle" x="658.62" y="-106.5" font-family="Helvetica,sans-Serif" font-size="10.00">StandardValuesDataType_v2_6</text>
</a>
</g>
</g>
<!-- Node3&#45;&gt;Node6 -->
<g id="edge5_Node000003_Node000006" class="edge">
<title>Node3&#45;&gt;Node6</title>
<g id="a_edge5_Node000003_Node000006"><a xlink:title=" ">
<path fill="none" stroke="#63b8ff" d="M552.17,-129.97C562.12,-128.65 572.23,-127.31 582.05,-126.01"/>
<polygon fill="#63b8ff" stroke="#63b8ff" points="552,-126.46 542.54,-131.24 552.91,-133.4 552,-126.46"/>
</a>
</g>
</g>
<!-- Node8 -->
<g id="Node000008" class="node">
<title>Node8</title>
<g id="a_Node000008"><a xlink:href="class_vecto_objects_1_1_capacitor_system_data_type__v2__3.html" target="_top" xlink:title=" ">
<polygon fill="white" stroke="#bfbfbf" points="735.25,-82 582,-82 582,-50 735.25,-50 735.25,-82"/>
<text xml:space="preserve" text-anchor="start" x="590" y="-68.5" font-family="Helvetica,sans-Serif" font-size="10.00">VectoObjects.CapacitorSystem</text>
<text xml:space="preserve" text-anchor="middle" x="658.62" y="-56.5" font-family="Helvetica,sans-Serif" font-size="10.00">DataType_v2_3</text>
</a>
</g>
</g>
<!-- Node7&#45;&gt;Node8 -->
<g id="edge7_Node000007_Node000008" class="edge">
<title>Node7&#45;&gt;Node8</title>
<g id="a_edge7_Node000007_Node000008"><a xlink:title=" ">
<path fill="none" stroke="#63b8ff" d="M557.96,-66C565.85,-66 573.79,-66 581.56,-66"/>
<polygon fill="#63b8ff" stroke="#63b8ff" points="557.98,-62.5 547.98,-66 557.98,-69.5 557.98,-62.5"/>
</a>
</g>
</g>
<!-- Node9 -->
<g id="Node000009" class="node">
<title>Node9</title>
<g id="a_Node000009"><a xlink:href="class_vecto_objects_1_1_capacitor_system_data_type__v2__6.html" target="_top" xlink:title=" ">
<polygon fill="white" stroke="#bfbfbf" points="735.25,-32 582,-32 582,0 735.25,0 735.25,-32"/>
<text xml:space="preserve" text-anchor="start" x="590" y="-18.5" font-family="Helvetica,sans-Serif" font-size="10.00">VectoObjects.CapacitorSystem</text>
<text xml:space="preserve" text-anchor="middle" x="658.62" y="-6.5" font-family="Helvetica,sans-Serif" font-size="10.00">DataType_v2_6</text>
</a>
</g>
</g>
<!-- Node7&#45;&gt;Node9 -->
<g id="edge8_Node000007_Node000009" class="edge">
<title>Node7&#45;&gt;Node9</title>
<g id="a_edge8_Node000007_Node000009"><a xlink:title=" ">
<path fill="none" stroke="#63b8ff" d="M542.07,-46.61C559.73,-41.93 578.43,-36.98 595.52,-32.45"/>
<polygon fill="#63b8ff" stroke="#63b8ff" points="541.17,-43.23 532.4,-49.17 542.97,-49.99 541.17,-43.23"/>
</a>
</g>
</g>
</g>
</svg>
