<?xml version="1.0" encoding="UTF-8" standalone="no"?>
<!DOCTYPE svg PUBLIC "-//W3C//DTD SVG 1.1//EN"
 "http://www.w3.org/Graphics/SVG/1.1/DTD/svg11.dtd">
<!-- Generated by graphviz version 14.0.2 (20251019.1705)
 -->
<!-- Title: VectoObjects.EngineDataDeclarationType_v2_6 Pages: 1 -->
<svg width="573pt" height="90pt"
 viewBox="0.00 0.00 573.00 90.00" xmlns="http://www.w3.org/2000/svg" xmlns:xlink="http://www.w3.org/1999/xlink">
<g id="graph0" class="graph" transform="scale(1 1) rotate(0) translate(4 86)">
<title>VectoObjects.EngineDataDeclarationType_v2_6</title>
<!-- Node1 -->
<g id="Node000001" class="node">
<title>Node1</title>
<g id="a_Node000001"><a xlink:title=" ">
<polygon fill="#999999" stroke="#666666" points="564.75,-57 386.75,-57 386.75,-25 564.75,-25 564.75,-57"/>
<text xml:space="preserve" text-anchor="start" x="394.75" y="-43.5" font-family="Helvetica,sans-Serif" font-size="10.00">VectoObjects.EngineDataDeclaration</text>
<text xml:space="preserve" text-anchor="middle" x="475.75" y="-31.5" font-family="Helvetica,sans-Serif" font-size="10.00">Type_v2_6</text>
</a>
</g>
</g>
<!-- Node2 -->
<g id="Node000002" class="node">
<title>Node2</title>
<g id="a_Node000002"><a xlink:href="class_vecto_objects_1_1_abstract_combustion_engine_data_declaration_type__v1__0.html" target="_top" xlink:title=" ">
<polygon fill="white" stroke="#666666" points="350.75,-82 184,-82 184,-50 350.75,-50 350.75,-82"/>
<text xml:space="preserve" text-anchor="start" x="192" y="-68.5" font-family="Helvetica,sans-Serif" font-size="10.00">VectoObjects.AbstractCombustion</text>
<text xml:space="preserve" text-anchor="middle" x="267.38" y="-56.5" font-family="Helvetica,sans-Serif" font-size="10.00">EngineDataDeclarationType_v1_0</text>
</a>
</g>
</g>
<!-- Node2&#45;&gt;Node1 -->
<g id="edge1_Node000001_Node000002" class="edge">
<title>Node2&#45;&gt;Node1</title>
<g id="a_edge1_Node000001_Node000002"><a xlink:title=" ">
<path fill="none" stroke="#63b8ff" d="M362.42,-54.61C370.47,-53.63 378.58,-52.65 386.57,-51.68"/>
<polygon fill="#63b8ff" stroke="#63b8ff" points="362.14,-51.12 352.63,-55.79 362.98,-58.07 362.14,-51.12"/>
</a>
</g>
</g>
<!-- Node3 -->
<g id="Node000003" class="node">
<title>Node3</title>
<g id="a_Node000003"><a xlink:href="class_vecto_objects_1_1_vecto_simulation_component__v1__0.html" target="_top" xlink:title=" ">
<polygon fill="white" stroke="#bfbfbf" points="148,-82 0,-82 0,-50 148,-50 148,-82"/>
<text xml:space="preserve" text-anchor="start" x="8" y="-68.5" font-family="Helvetica,sans-Serif" font-size="10.00">VectoObjects.VectoSimulation</text>
<text xml:space="preserve" text-anchor="middle" x="74" y="-56.5" font-family="Helvetica,sans-Serif" font-size="10.00">Component_v1_0</text>
</a>
</g>
</g>
<!-- Node3&#45;&gt;Node2 -->
<g id="edge2_Node000002_Node000003" class="edge">
<title>Node3&#45;&gt;Node2</title>
<g id="a_edge2_Node000002_Node000003"><a xlink:title=" ">
<path fill="none" stroke="#63b8ff" d="M159.87,-66C167.74,-66 175.71,-66 183.56,-66"/>
<polygon fill="#63b8ff" stroke="#63b8ff" points="159.96,-62.5 149.96,-66 159.96,-69.5 159.96,-62.5"/>
</a>
</g>
</g>
<!-- Node4 -->
<g id="Node000004" class="node">
<title>Node4</title>
<g id="a_Node000004"><a xlink:href="interface_vecto_objects_1_1_i_component_data_declaration.html" target="_top" xlink:title=" ">
<polygon fill="white" stroke="#bfbfbf" points="343.25,-32 191.5,-32 191.5,0 343.25,0 343.25,-32"/>
<text xml:space="preserve" text-anchor="start" x="199.5" y="-18.5" font-family="Helvetica,sans-Serif" font-size="10.00">VectoObjects.IComponentData</text>
<text xml:space="preserve" text-anchor="middle" x="267.38" y="-6.5" font-family="Helvetica,sans-Serif" font-size="10.00">Declaration</text>
</a>
</g>
</g>
<!-- Node4&#45;&gt;Node1 -->
<g id="edge3_Node000001_Node000004" class="edge">
<title>Node4&#45;&gt;Node1</title>
<g id="a_edge3_Node000001_Node000004"><a xlink:title=" ">
<path fill="none" stroke="#63b8ff" d="M354.71,-26.46C365.18,-27.73 375.89,-29.02 386.39,-30.3"/>
<polygon fill="#63b8ff" stroke="#63b8ff" points="355.32,-23.01 344.97,-25.28 354.47,-29.96 355.32,-23.01"/>
</a>
</g>
</g>
</g>
</svg>
