<?xml version="1.0" encoding="UTF-8" standalone="no"?>
<!DOCTYPE svg PUBLIC "-//W3C//DTD SVG 1.1//EN"
 "http://www.w3.org/Graphics/SVG/1.1/DTD/svg11.dtd">
<!-- Generated by graphviz version 14.0.2 (20251019.1705)
 -->
<!-- Title: VectoObjects.Abstract_Components_HEV_Sx_PrimaryBusDeclarationType_v2_4 Pages: 1 -->
<svg width="588pt" height="140pt"
 viewBox="0.00 0.00 588.00 140.00" xmlns="http://www.w3.org/2000/svg" xmlns:xlink="http://www.w3.org/1999/xlink">
<g id="graph0" class="graph" transform="scale(1 1) rotate(0) translate(4 136)">
<title>VectoObjects.Abstract_Components_HEV_Sx_PrimaryBusDeclarationType_v2_4</title>
<!-- Node1 -->
<g id="Node000001" class="node">
<title>Node1</title>
<g id="a_Node000001"><a xlink:title=" ">
<polygon fill="#999999" stroke="#666666" points="380.75,-88 204.25,-88 204.25,-44 380.75,-44 380.75,-88"/>
<text xml:space="preserve" text-anchor="start" x="212.25" y="-74.5" font-family="Helvetica,sans-Serif" font-size="10.00">VectoObjects.Abstract</text>
<text xml:space="preserve" text-anchor="start" x="212.25" y="-62.5" font-family="Helvetica,sans-Serif" font-size="10.00">_Components_HEV_Sx_PrimaryBus</text>
<text xml:space="preserve" text-anchor="middle" x="292.5" y="-50.5" font-family="Helvetica,sans-Serif" font-size="10.00">DeclarationType_v2_4</text>
</a>
</g>
</g>
<!-- Node3 -->
<g id="Node000003" class="node">
<title>Node3</title>
<g id="a_Node000003"><a xlink:href="class_vecto_objects_1_1_components___h_e_v___s2___primary_bus_type__v2__4.html" target="_top" xlink:title=" ">
<polygon fill="white" stroke="#bfbfbf" points="579.75,-132 416.75,-132 416.75,-100 579.75,-100 579.75,-132"/>
<text xml:space="preserve" text-anchor="start" x="424.75" y="-118.5" font-family="Helvetica,sans-Serif" font-size="10.00">VectoObjects.Components</text>
<text xml:space="preserve" text-anchor="middle" x="498.25" y="-106.5" font-family="Helvetica,sans-Serif" font-size="10.00">_HEV_S2_PrimaryBusType_v2_4</text>
</a>
</g>
</g>
<!-- Node1&#45;&gt;Node3 -->
<g id="edge2_Node000001_Node000003" class="edge">
<title>Node1&#45;&gt;Node3</title>
<g id="a_edge2_Node000001_Node000003"><a xlink:title=" ">
<path fill="none" stroke="#63b8ff" d="M391.9,-90.15C404.82,-93.32 417.81,-96.51 430.04,-99.51"/>
<polygon fill="#63b8ff" stroke="#63b8ff" points="393.11,-86.84 382.56,-87.86 391.44,-93.64 393.11,-86.84"/>
</a>
</g>
</g>
<!-- Node4 -->
<g id="Node000004" class="node">
<title>Node4</title>
<g id="a_Node000004"><a xlink:href="class_vecto_objects_1_1_components___h_e_v___s3___primary_bus_type__v2__4.html" target="_top" xlink:title=" ">
<polygon fill="white" stroke="#bfbfbf" points="579.75,-82 416.75,-82 416.75,-50 579.75,-50 579.75,-82"/>
<text xml:space="preserve" text-anchor="start" x="424.75" y="-68.5" font-family="Helvetica,sans-Serif" font-size="10.00">VectoObjects.Components</text>
<text xml:space="preserve" text-anchor="middle" x="498.25" y="-56.5" font-family="Helvetica,sans-Serif" font-size="10.00">_HEV_S3_PrimaryBusType_v2_4</text>
</a>
</g>
</g>
<!-- Node1&#45;&gt;Node4 -->
<g id="edge3_Node000001_Node000004" class="edge">
<title>Node1&#45;&gt;Node4</title>
<g id="a_edge3_Node000001_Node000004"><a xlink:title=" ">
<path fill="none" stroke="#63b8ff" d="M392.45,-66C400.51,-66 408.59,-66 416.49,-66"/>
<polygon fill="#63b8ff" stroke="#63b8ff" points="392.6,-62.5 382.6,-66 392.6,-69.5 392.6,-62.5"/>
</a>
</g>
</g>
<!-- Node5 -->
<g id="Node000005" class="node">
<title>Node5</title>
<g id="a_Node000005"><a xlink:href="class_vecto_objects_1_1_components___h_e_v___s4___primary_bus_type__v2__4.html" target="_top" xlink:title=" ">
<polygon fill="white" stroke="#bfbfbf" points="579.75,-32 416.75,-32 416.75,0 579.75,0 579.75,-32"/>
<text xml:space="preserve" text-anchor="start" x="424.75" y="-18.5" font-family="Helvetica,sans-Serif" font-size="10.00">VectoObjects.Components</text>
<text xml:space="preserve" text-anchor="middle" x="498.25" y="-6.5" font-family="Helvetica,sans-Serif" font-size="10.00">_HEV_S4_PrimaryBusType_v2_4</text>
</a>
</g>
</g>
<!-- Node1&#45;&gt;Node5 -->
<g id="edge4_Node000001_Node000005" class="edge">
<title>Node1&#45;&gt;Node5</title>
<g id="a_edge4_Node000001_Node000005"><a xlink:title=" ">
<path fill="none" stroke="#63b8ff" d="M391.9,-41.85C404.82,-38.68 417.81,-35.49 430.04,-32.49"/>
<polygon fill="#63b8ff" stroke="#63b8ff" points="391.44,-38.36 382.56,-44.14 393.11,-45.16 391.44,-38.36"/>
</a>
</g>
</g>
<!-- Node2 -->
<g id="Node000002" class="node">
<title>Node2</title>
<g id="a_Node000002"><a xlink:href="class_vecto_objects_1_1_abstract_vehicle_components_declaration_type__v2__0.html" target="_top" xlink:title=" ">
<polygon fill="white" stroke="#bfbfbf" points="168.25,-82 0,-82 0,-50 168.25,-50 168.25,-82"/>
<text xml:space="preserve" text-anchor="start" x="8" y="-68.5" font-family="Helvetica,sans-Serif" font-size="10.00">VectoObjects.AbstractVehicle</text>
<text xml:space="preserve" text-anchor="middle" x="84.12" y="-56.5" font-family="Helvetica,sans-Serif" font-size="10.00">ComponentsDeclarationType_v2_0</text>
</a>
</g>
</g>
<!-- Node2&#45;&gt;Node1 -->
<g id="edge1_Node000001_Node000002" class="edge">
<title>Node2&#45;&gt;Node1</title>
<g id="a_edge1_Node000001_Node000002"><a xlink:title=" ">
<path fill="none" stroke="#63b8ff" d="M179.74,-66C187.75,-66 195.84,-66 203.8,-66"/>
<polygon fill="#63b8ff" stroke="#63b8ff" points="179.98,-62.5 169.98,-66 179.98,-69.5 179.98,-62.5"/>
</a>
</g>
</g>
</g>
</svg>
