<?xml version="1.0" encoding="UTF-8" standalone="no"?>
<!DOCTYPE svg PUBLIC "-//W3C//DTD SVG 1.1//EN"
 "http://www.w3.org/Graphics/SVG/1.1/DTD/svg11.dtd">
<!-- Generated by graphviz version 14.0.2 (20251019.1705)
 -->
<!-- Title: VectoObjects.AbstractCombustionEngineDataDeclarationType_v1_0 Pages: 1 -->
<svg width="573pt" height="240pt"
 viewBox="0.00 0.00 573.00 240.00" xmlns="http://www.w3.org/2000/svg" xmlns:xlink="http://www.w3.org/1999/xlink">
<g id="graph0" class="graph" transform="scale(1 1) rotate(0) translate(4 236)">
<title>VectoObjects.AbstractCombustionEngineDataDeclarationType_v1_0</title>
<!-- Node1 -->
<g id="Node000001" class="node">
<title>Node1</title>
<g id="a_Node000001"><a xlink:title=" ">
<polygon fill="#999999" stroke="#666666" points="350.75,-132 184,-132 184,-100 350.75,-100 350.75,-132"/>
<text xml:space="preserve" text-anchor="start" x="192" y="-118.5" font-family="Helvetica,sans-Serif" font-size="10.00">VectoObjects.AbstractCombustion</text>
<text xml:space="preserve" text-anchor="middle" x="267.38" y="-106.5" font-family="Helvetica,sans-Serif" font-size="10.00">EngineDataDeclarationType_v1_0</text>
</a>
</g>
</g>
<!-- Node3 -->
<g id="Node000003" class="node">
<title>Node3</title>
<g id="a_Node000003"><a xlink:href="class_vecto_objects_1_1_engine_data_declaration_type__v1__0.html" target="_top" xlink:title=" ">
<polygon fill="white" stroke="#bfbfbf" points="564.75,-232 386.75,-232 386.75,-200 564.75,-200 564.75,-232"/>
<text xml:space="preserve" text-anchor="start" x="394.75" y="-218.5" font-family="Helvetica,sans-Serif" font-size="10.00">VectoObjects.EngineDataDeclaration</text>
<text xml:space="preserve" text-anchor="middle" x="475.75" y="-206.5" font-family="Helvetica,sans-Serif" font-size="10.00">Type_v1_0</text>
</a>
</g>
</g>
<!-- Node1&#45;&gt;Node3 -->
<g id="edge2_Node000001_Node000003" class="edge">
<title>Node1&#45;&gt;Node3</title>
<g id="a_edge2_Node000001_Node000003"><a xlink:title=" ">
<path fill="none" stroke="#63b8ff" d="M299.25,-139.06C322.36,-155.43 355.27,-176.91 386.75,-191 393.85,-194.18 401.46,-197.06 409.12,-199.63"/>
<polygon fill="#63b8ff" stroke="#63b8ff" points="301.37,-136.28 291.21,-133.28 297.29,-141.96 301.37,-136.28"/>
</a>
</g>
</g>
<!-- Node4 -->
<g id="Node000004" class="node">
<title>Node4</title>
<g id="a_Node000004"><a xlink:href="class_vecto_objects_1_1_engine_data_declaration_type__v2__0.html" target="_top" xlink:title=" ">
<polygon fill="white" stroke="#bfbfbf" points="564.75,-182 386.75,-182 386.75,-150 564.75,-150 564.75,-182"/>
<text xml:space="preserve" text-anchor="start" x="394.75" y="-168.5" font-family="Helvetica,sans-Serif" font-size="10.00">VectoObjects.EngineDataDeclaration</text>
<text xml:space="preserve" text-anchor="middle" x="475.75" y="-156.5" font-family="Helvetica,sans-Serif" font-size="10.00">Type_v2_0</text>
</a>
</g>
</g>
<!-- Node1&#45;&gt;Node4 -->
<g id="edge3_Node000001_Node000004" class="edge">
<title>Node1&#45;&gt;Node4</title>
<g id="a_edge3_Node000001_Node000004"><a xlink:title=" ">
<path fill="none" stroke="#63b8ff" d="M347.31,-135.12C366.94,-139.88 387.8,-144.93 406.85,-149.55"/>
<polygon fill="#63b8ff" stroke="#63b8ff" points="348.25,-131.75 337.71,-132.8 346.6,-138.55 348.25,-131.75"/>
</a>
</g>
</g>
<!-- Node5 -->
<g id="Node000005" class="node">
<title>Node5</title>
<g id="a_Node000005"><a xlink:href="class_vecto_objects_1_1_engine_data_declaration_type__v2__1.html" target="_top" xlink:title=" ">
<polygon fill="white" stroke="#bfbfbf" points="564.75,-132 386.75,-132 386.75,-100 564.75,-100 564.75,-132"/>
<text xml:space="preserve" text-anchor="start" x="394.75" y="-118.5" font-family="Helvetica,sans-Serif" font-size="10.00">VectoObjects.EngineDataDeclaration</text>
<text xml:space="preserve" text-anchor="middle" x="475.75" y="-106.5" font-family="Helvetica,sans-Serif" font-size="10.00">Type_v2_1</text>
</a>
</g>
</g>
<!-- Node1&#45;&gt;Node5 -->
<g id="edge4_Node000001_Node000005" class="edge">
<title>Node1&#45;&gt;Node5</title>
<g id="a_edge4_Node000001_Node000005"><a xlink:title=" ">
<path fill="none" stroke="#63b8ff" d="M362.42,-116C370.47,-116 378.58,-116 386.57,-116"/>
<polygon fill="#63b8ff" stroke="#63b8ff" points="362.64,-112.5 352.64,-116 362.64,-119.5 362.64,-112.5"/>
</a>
</g>
</g>
<!-- Node6 -->
<g id="Node000006" class="node">
<title>Node6</title>
<g id="a_Node000006"><a xlink:href="class_vecto_objects_1_1_engine_data_declaration_type__v2__3.html" target="_top" xlink:title=" ">
<polygon fill="white" stroke="#bfbfbf" points="564.75,-82 386.75,-82 386.75,-50 564.75,-50 564.75,-82"/>
<text xml:space="preserve" text-anchor="start" x="394.75" y="-68.5" font-family="Helvetica,sans-Serif" font-size="10.00">VectoObjects.EngineDataDeclaration</text>
<text xml:space="preserve" text-anchor="middle" x="475.75" y="-56.5" font-family="Helvetica,sans-Serif" font-size="10.00">Type_v2_3</text>
</a>
</g>
</g>
<!-- Node1&#45;&gt;Node6 -->
<g id="edge5_Node000001_Node000006" class="edge">
<title>Node1&#45;&gt;Node6</title>
<g id="a_edge5_Node000001_Node000006"><a xlink:title=" ">
<path fill="none" stroke="#63b8ff" d="M347.31,-96.88C366.94,-92.12 387.8,-87.07 406.85,-82.45"/>
<polygon fill="#63b8ff" stroke="#63b8ff" points="346.6,-93.45 337.71,-99.2 348.25,-100.25 346.6,-93.45"/>
</a>
</g>
</g>
<!-- Node7 -->
<g id="Node000007" class="node">
<title>Node7</title>
<g id="a_Node000007"><a xlink:href="class_vecto_objects_1_1_engine_data_declaration_type__v2__6.html" target="_top" xlink:title=" ">
<polygon fill="white" stroke="#bfbfbf" points="564.75,-32 386.75,-32 386.75,0 564.75,0 564.75,-32"/>
<text xml:space="preserve" text-anchor="start" x="394.75" y="-18.5" font-family="Helvetica,sans-Serif" font-size="10.00">VectoObjects.EngineDataDeclaration</text>
<text xml:space="preserve" text-anchor="middle" x="475.75" y="-6.5" font-family="Helvetica,sans-Serif" font-size="10.00">Type_v2_6</text>
</a>
</g>
</g>
<!-- Node1&#45;&gt;Node7 -->
<g id="edge6_Node000001_Node000007" class="edge">
<title>Node1&#45;&gt;Node7</title>
<g id="a_edge6_Node000001_Node000007"><a xlink:title=" ">
<path fill="none" stroke="#63b8ff" d="M299.25,-92.94C322.36,-76.57 355.27,-55.09 386.75,-41 393.85,-37.82 401.46,-34.94 409.12,-32.37"/>
<polygon fill="#63b8ff" stroke="#63b8ff" points="297.29,-90.04 291.21,-98.72 301.37,-95.72 297.29,-90.04"/>
</a>
</g>
</g>
<!-- Node2 -->
<g id="Node000002" class="node">
<title>Node2</title>
<g id="a_Node000002"><a xlink:href="class_vecto_objects_1_1_vecto_simulation_component__v1__0.html" target="_top" xlink:title=" ">
<polygon fill="white" stroke="#bfbfbf" points="148,-132 0,-132 0,-100 148,-100 148,-132"/>
<text xml:space="preserve" text-anchor="start" x="8" y="-118.5" font-family="Helvetica,sans-Serif" font-size="10.00">VectoObjects.VectoSimulation</text>
<text xml:space="preserve" text-anchor="middle" x="74" y="-106.5" font-family="Helvetica,sans-Serif" font-size="10.00">Component_v1_0</text>
</a>
</g>
</g>
<!-- Node2&#45;&gt;Node1 -->
<g id="edge1_Node000001_Node000002" class="edge">
<title>Node2&#45;&gt;Node1</title>
<g id="a_edge1_Node000001_Node000002"><a xlink:title=" ">
<path fill="none" stroke="#63b8ff" d="M159.87,-116C167.74,-116 175.71,-116 183.56,-116"/>
<polygon fill="#63b8ff" stroke="#63b8ff" points="159.96,-112.5 149.96,-116 159.96,-119.5 159.96,-112.5"/>
</a>
</g>
</g>
</g>
</svg>
