<?xml version="1.0" encoding="UTF-8" standalone="no"?>
<!DOCTYPE svg PUBLIC "-//W3C//DTD SVG 1.1//EN"
 "http://www.w3.org/Graphics/SVG/1.1/DTD/svg11.dtd">
<!-- Generated by graphviz version 14.0.2 (20251019.1705)
 -->
<!-- Title: VectoObjects.ADAS_Conventional_Type_v2_4 Pages: 1 -->
<svg width="178pt" height="176pt"
 viewBox="0.00 0.00 178.00 176.00" xmlns="http://www.w3.org/2000/svg" xmlns:xlink="http://www.w3.org/1999/xlink">
<g id="graph0" class="graph" transform="scale(1 1) rotate(0) translate(4 172)">
<title>VectoObjects.ADAS_Conventional_Type_v2_4</title>
<!-- Node1 -->
<g id="Node000001" class="node">
<title>Node1</title>
<g id="a_Node000001"><a xlink:title=" ">
<polygon fill="#999999" stroke="#666666" points="168.62,-32 1.12,-32 1.12,0 168.62,0 168.62,-32"/>
<text xml:space="preserve" text-anchor="start" x="9.12" y="-18.5" font-family="Helvetica,sans-Serif" font-size="10.00">VectoObjects.ADAS_Conventional</text>
<text xml:space="preserve" text-anchor="middle" x="84.88" y="-6.5" font-family="Helvetica,sans-Serif" font-size="10.00">_Type_v2_4</text>
</a>
</g>
</g>
<!-- Node2 -->
<g id="Node000002" class="node">
<title>Node2</title>
<g id="a_Node000002"><a xlink:href="class_vecto_objects_1_1_abstract___a_d_a_s___conventional_type__v2__4.html" target="_top" xlink:title=" ">
<polygon fill="white" stroke="#bfbfbf" points="164.12,-100 5.62,-100 5.62,-68 164.12,-68 164.12,-100"/>
<text xml:space="preserve" text-anchor="start" x="13.62" y="-86.5" font-family="Helvetica,sans-Serif" font-size="10.00">VectoObjects.Abstract</text>
<text xml:space="preserve" text-anchor="middle" x="84.88" y="-74.5" font-family="Helvetica,sans-Serif" font-size="10.00">_ADAS_ConventionalType_v2_4</text>
</a>
</g>
</g>
<!-- Node2&#45;&gt;Node1 -->
<g id="edge1_Node000001_Node000002" class="edge">
<title>Node2&#45;&gt;Node1</title>
<g id="a_edge1_Node000001_Node000002"><a xlink:title=" ">
<path fill="none" stroke="#63b8ff" d="M84.88,-56.31C84.88,-48.12 84.88,-39.38 84.88,-32.22"/>
<polygon fill="#63b8ff" stroke="#63b8ff" points="81.38,-56.18 84.88,-66.18 88.38,-56.18 81.38,-56.18"/>
</a>
</g>
</g>
<!-- Node3 -->
<g id="Node000003" class="node">
<title>Node3</title>
<g id="a_Node000003"><a xlink:href="class_vecto_objects_1_1_abstract_advanced_driver_assistant_systems_type__v2__1.html" target="_top" xlink:title=" ">
<polygon fill="white" stroke="#bfbfbf" points="169.75,-168 0,-168 0,-136 169.75,-136 169.75,-168"/>
<text xml:space="preserve" text-anchor="start" x="8" y="-154.5" font-family="Helvetica,sans-Serif" font-size="10.00">VectoObjects.AbstractAdvanced</text>
<text xml:space="preserve" text-anchor="middle" x="84.88" y="-142.5" font-family="Helvetica,sans-Serif" font-size="10.00">DriverAssistantSystemsType_v2_1</text>
</a>
</g>
</g>
<!-- Node3&#45;&gt;Node2 -->
<g id="edge2_Node000002_Node000003" class="edge">
<title>Node3&#45;&gt;Node2</title>
<g id="a_edge2_Node000002_Node000003"><a xlink:title=" ">
<path fill="none" stroke="#63b8ff" d="M84.88,-124.31C84.88,-116.12 84.88,-107.38 84.88,-100.22"/>
<polygon fill="#63b8ff" stroke="#63b8ff" points="81.38,-124.18 84.88,-134.18 88.38,-124.18 81.38,-124.18"/>
</a>
</g>
</g>
</g>
</svg>
