<?xml version="1.0" encoding="UTF-8" standalone="no"?>
<!DOCTYPE svg PUBLIC "-//W3C//DTD SVG 1.1//EN"
 "http://www.w3.org/Graphics/SVG/1.1/DTD/svg11.dtd">
<!-- Generated by graphviz version 14.0.2 (20251019.1705)
 -->
<!-- Title: VectoObjects.AbstractAngledriveDataDeclarationType_v1_0 Pages: 1 -->
<svg width="751pt" height="140pt"
 viewBox="0.00 0.00 751.00 140.00" xmlns="http://www.w3.org/2000/svg" xmlns:xlink="http://www.w3.org/1999/xlink">
<g id="graph0" class="graph" transform="scale(1 1) rotate(0) translate(4 136)">
<title>VectoObjects.AbstractAngledriveDataDeclarationType_v1_0</title>
<!-- Node1 -->
<g id="Node000001" class="node">
<title>Node1</title>
<g id="a_Node000001"><a xlink:title=" ">
<polygon fill="#999999" stroke="#666666" points="344,-82 184,-82 184,-50 344,-50 344,-82"/>
<text xml:space="preserve" text-anchor="start" x="192" y="-68.5" font-family="Helvetica,sans-Serif" font-size="10.00">VectoObjects.AbstractAngledrive</text>
<text xml:space="preserve" text-anchor="middle" x="264" y="-56.5" font-family="Helvetica,sans-Serif" font-size="10.00">DataDeclarationType_v1_0</text>
</a>
</g>
</g>
<!-- Node3 -->
<g id="Node000003" class="node">
<title>Node3</title>
<g id="a_Node000003"><a xlink:href="class_vecto_objects_1_1_abstract_a_d_c_data_declaration_type__v2__3.html" target="_top" xlink:title=" ">
<polygon fill="white" stroke="#bfbfbf" points="537,-132 380,-132 380,-100 537,-100 537,-132"/>
<text xml:space="preserve" text-anchor="start" x="388" y="-118.5" font-family="Helvetica,sans-Serif" font-size="10.00">VectoObjects.AbstractADCData</text>
<text xml:space="preserve" text-anchor="middle" x="458.5" y="-106.5" font-family="Helvetica,sans-Serif" font-size="10.00">DeclarationType_v2_3</text>
</a>
</g>
</g>
<!-- Node1&#45;&gt;Node3 -->
<g id="edge2_Node000001_Node000003" class="edge">
<title>Node1&#45;&gt;Node3</title>
<g id="a_edge2_Node000001_Node000003"><a xlink:title=" ">
<path fill="none" stroke="#63b8ff" d="M339.39,-85.32C357.48,-90.02 376.65,-95 394.16,-99.55"/>
<polygon fill="#63b8ff" stroke="#63b8ff" points="340.32,-81.95 329.76,-82.82 338.56,-88.72 340.32,-81.95"/>
</a>
</g>
</g>
<!-- Node5 -->
<g id="Node000005" class="node">
<title>Node5</title>
<g id="a_Node000005"><a xlink:href="class_vecto_objects_1_1_angledrive_data_declaration_type__v1__0.html" target="_top" xlink:title=" ">
<polygon fill="white" stroke="#bfbfbf" points="530.62,-82 386.38,-82 386.38,-50 530.62,-50 530.62,-82"/>
<text xml:space="preserve" text-anchor="start" x="394.38" y="-68.5" font-family="Helvetica,sans-Serif" font-size="10.00">VectoObjects.AngledriveData</text>
<text xml:space="preserve" text-anchor="middle" x="458.5" y="-56.5" font-family="Helvetica,sans-Serif" font-size="10.00">DeclarationType_v1_0</text>
</a>
</g>
</g>
<!-- Node1&#45;&gt;Node5 -->
<g id="edge4_Node000001_Node000005" class="edge">
<title>Node1&#45;&gt;Node5</title>
<g id="a_edge4_Node000001_Node000005"><a xlink:title=" ">
<path fill="none" stroke="#63b8ff" d="M355.79,-66C365.92,-66 376.14,-66 385.98,-66"/>
<polygon fill="#63b8ff" stroke="#63b8ff" points="355.92,-62.5 345.92,-66 355.92,-69.5 355.92,-62.5"/>
</a>
</g>
</g>
<!-- Node6 -->
<g id="Node000006" class="node">
<title>Node6</title>
<g id="a_Node000006"><a xlink:href="class_vecto_objects_1_1_angledrive_data_declaration_type__v2__0.html" target="_top" xlink:title=" ">
<polygon fill="white" stroke="#bfbfbf" points="530.62,-32 386.38,-32 386.38,0 530.62,0 530.62,-32"/>
<text xml:space="preserve" text-anchor="start" x="394.38" y="-18.5" font-family="Helvetica,sans-Serif" font-size="10.00">VectoObjects.AngledriveData</text>
<text xml:space="preserve" text-anchor="middle" x="458.5" y="-6.5" font-family="Helvetica,sans-Serif" font-size="10.00">DeclarationType_v2_0</text>
</a>
</g>
</g>
<!-- Node1&#45;&gt;Node6 -->
<g id="edge5_Node000001_Node000006" class="edge">
<title>Node1&#45;&gt;Node6</title>
<g id="a_edge5_Node000001_Node000006"><a xlink:title=" ">
<path fill="none" stroke="#63b8ff" d="M339.39,-46.68C357.48,-41.98 376.65,-37 394.16,-32.45"/>
<polygon fill="#63b8ff" stroke="#63b8ff" points="338.56,-43.28 329.76,-49.18 340.32,-50.05 338.56,-43.28"/>
</a>
</g>
</g>
<!-- Node2 -->
<g id="Node000002" class="node">
<title>Node2</title>
<g id="a_Node000002"><a xlink:href="class_vecto_objects_1_1_vecto_simulation_component__v1__0.html" target="_top" xlink:title=" ">
<polygon fill="white" stroke="#bfbfbf" points="148,-82 0,-82 0,-50 148,-50 148,-82"/>
<text xml:space="preserve" text-anchor="start" x="8" y="-68.5" font-family="Helvetica,sans-Serif" font-size="10.00">VectoObjects.VectoSimulation</text>
<text xml:space="preserve" text-anchor="middle" x="74" y="-56.5" font-family="Helvetica,sans-Serif" font-size="10.00">Component_v1_0</text>
</a>
</g>
</g>
<!-- Node2&#45;&gt;Node1 -->
<g id="edge1_Node000001_Node000002" class="edge">
<title>Node2&#45;&gt;Node1</title>
<g id="a_edge1_Node000001_Node000002"><a xlink:title=" ">
<path fill="none" stroke="#63b8ff" d="M159.96,-66C167.85,-66 175.82,-66 183.65,-66"/>
<polygon fill="#63b8ff" stroke="#63b8ff" points="160.01,-62.5 150.01,-66 160.01,-69.5 160.01,-62.5"/>
</a>
</g>
</g>
<!-- Node4 -->
<g id="Node000004" class="node">
<title>Node4</title>
<g id="a_Node000004"><a xlink:href="class_vecto_objects_1_1_a_d_c_data_declaration_type__v2__3.html" target="_top" xlink:title=" ">
<polygon fill="white" stroke="#bfbfbf" points="742.75,-132 573,-132 573,-100 742.75,-100 742.75,-132"/>
<text xml:space="preserve" text-anchor="start" x="581" y="-118.5" font-family="Helvetica,sans-Serif" font-size="10.00">VectoObjects.ADCDataDeclaration</text>
<text xml:space="preserve" text-anchor="middle" x="657.88" y="-106.5" font-family="Helvetica,sans-Serif" font-size="10.00">Type_v2_3</text>
</a>
</g>
</g>
<!-- Node3&#45;&gt;Node4 -->
<g id="edge3_Node000003_Node000004" class="edge">
<title>Node3&#45;&gt;Node4</title>
<g id="a_edge3_Node000003_Node000004"><a xlink:title=" ">
<path fill="none" stroke="#63b8ff" d="M548.52,-116C556.57,-116 564.71,-116 572.71,-116"/>
<polygon fill="#63b8ff" stroke="#63b8ff" points="548.74,-112.5 538.74,-116 548.74,-119.5 548.74,-112.5"/>
</a>
</g>
</g>
</g>
</svg>
