<?xml version="1.0" encoding="UTF-8" standalone="no"?>
<!DOCTYPE svg PUBLIC "-//W3C//DTD SVG 1.1//EN"
 "http://www.w3.org/Graphics/SVG/1.1/DTD/svg11.dtd">
<!-- Generated by graphviz version 14.0.2 (20251019.1705)
 -->
<!-- Title: VectoObjects.VehicleDeclarationType_v2_0 Pages: 1 -->
<svg width="334pt" height="312pt"
 viewBox="0.00 0.00 334.00 312.00" xmlns="http://www.w3.org/2000/svg" xmlns:xlink="http://www.w3.org/1999/xlink">
<g id="graph0" class="graph" transform="scale(1 1) rotate(0) translate(4 308)">
<title>VectoObjects.VehicleDeclarationType_v2_0</title>
<!-- Node1 -->
<g id="Node000001" class="node">
<title>Node1</title>
<g id="a_Node000001"><a xlink:title=" ">
<polygon fill="#999999" stroke="#666666" points="241.25,-32 82.75,-32 82.75,0 241.25,0 241.25,-32"/>
<text xml:space="preserve" text-anchor="start" x="90.75" y="-18.5" font-family="Helvetica,sans-Serif" font-size="10.00">VectoObjects.VehicleDeclaration</text>
<text xml:space="preserve" text-anchor="middle" x="162" y="-6.5" font-family="Helvetica,sans-Serif" font-size="10.00">Type_v2_0</text>
</a>
</g>
</g>
<!-- Node2 -->
<g id="Node000002" class="node">
<title>Node2</title>
<g id="a_Node000002"><a xlink:href="class_vecto_objects_1_1_vehicle_base_type__v2__0.html" target="_top" xlink:title=" ">
<polygon fill="white" stroke="#bfbfbf" points="145.75,-100 14.25,-100 14.25,-68 145.75,-68 145.75,-100"/>
<text xml:space="preserve" text-anchor="start" x="22.25" y="-86.5" font-family="Helvetica,sans-Serif" font-size="10.00">VectoObjects.VehicleBase</text>
<text xml:space="preserve" text-anchor="middle" x="80" y="-74.5" font-family="Helvetica,sans-Serif" font-size="10.00">Type_v2_0</text>
</a>
</g>
</g>
<!-- Node2&#45;&gt;Node1 -->
<g id="edge1_Node000001_Node000002" class="edge">
<title>Node2&#45;&gt;Node1</title>
<g id="a_edge1_Node000001_Node000002"><a xlink:title=" ">
<path fill="none" stroke="#63b8ff" d="M107.83,-60.6C119.34,-51.34 132.39,-40.83 142.8,-32.45"/>
<polygon fill="#63b8ff" stroke="#63b8ff" points="105.79,-57.75 100.2,-66.74 110.18,-63.2 105.79,-57.75"/>
</a>
</g>
</g>
<!-- Node3 -->
<g id="Node000003" class="node">
<title>Node3</title>
<g id="a_Node000003"><a xlink:href="class_vecto_objects_1_1_abstract_vehicle_declaration_type__v2__0.html" target="_top" xlink:title=" ">
<polygon fill="white" stroke="#bfbfbf" points="152.88,-168 7.12,-168 7.12,-136 152.88,-136 152.88,-168"/>
<text xml:space="preserve" text-anchor="start" x="15.12" y="-154.5" font-family="Helvetica,sans-Serif" font-size="10.00">VectoObjects.AbstractVehicle</text>
<text xml:space="preserve" text-anchor="middle" x="80" y="-142.5" font-family="Helvetica,sans-Serif" font-size="10.00">DeclarationType_v2_0</text>
</a>
</g>
</g>
<!-- Node3&#45;&gt;Node2 -->
<g id="edge2_Node000002_Node000003" class="edge">
<title>Node3&#45;&gt;Node2</title>
<g id="a_edge2_Node000002_Node000003"><a xlink:title=" ">
<path fill="none" stroke="#63b8ff" d="M80,-124.31C80,-116.12 80,-107.38 80,-100.22"/>
<polygon fill="#63b8ff" stroke="#63b8ff" points="76.5,-124.18 80,-134.18 83.5,-124.18 76.5,-124.18"/>
</a>
</g>
</g>
<!-- Node4 -->
<g id="Node000004" class="node">
<title>Node4</title>
<g id="a_Node000004"><a xlink:href="class_vecto_objects_1_1_declaration_powertrain_component_type__v2__0.html" target="_top" xlink:title=" ">
<polygon fill="white" stroke="#bfbfbf" points="160,-236 0,-236 0,-204 160,-204 160,-236"/>
<text xml:space="preserve" text-anchor="start" x="8" y="-222.5" font-family="Helvetica,sans-Serif" font-size="10.00">VectoObjects.Declaration</text>
<text xml:space="preserve" text-anchor="middle" x="80" y="-210.5" font-family="Helvetica,sans-Serif" font-size="10.00">PowertrainComponentType_v2_0</text>
</a>
</g>
</g>
<!-- Node4&#45;&gt;Node3 -->
<g id="edge3_Node000003_Node000004" class="edge">
<title>Node4&#45;&gt;Node3</title>
<g id="a_edge3_Node000003_Node000004"><a xlink:title=" ">
<path fill="none" stroke="#63b8ff" d="M80,-192.31C80,-184.12 80,-175.38 80,-168.22"/>
<polygon fill="#63b8ff" stroke="#63b8ff" points="76.5,-192.18 80,-202.18 83.5,-192.18 76.5,-192.18"/>
</a>
</g>
</g>
<!-- Node5 -->
<g id="Node000005" class="node">
<title>Node5</title>
<g id="a_Node000005"><a xlink:href="class_vecto_objects_1_1_vecto_simulation_component__v2__0.html" target="_top" xlink:title=" ">
<polygon fill="white" stroke="#bfbfbf" points="154,-304 6,-304 6,-272 154,-272 154,-304"/>
<text xml:space="preserve" text-anchor="start" x="14" y="-290.5" font-family="Helvetica,sans-Serif" font-size="10.00">VectoObjects.VectoSimulation</text>
<text xml:space="preserve" text-anchor="middle" x="80" y="-278.5" font-family="Helvetica,sans-Serif" font-size="10.00">Component_v2_0</text>
</a>
</g>
</g>
<!-- Node5&#45;&gt;Node4 -->
<g id="edge4_Node000004_Node000005" class="edge">
<title>Node5&#45;&gt;Node4</title>
<g id="a_edge4_Node000004_Node000005"><a xlink:title=" ">
<path fill="none" stroke="#63b8ff" d="M80,-260.31C80,-252.12 80,-243.38 80,-236.22"/>
<polygon fill="#63b8ff" stroke="#63b8ff" points="76.5,-260.18 80,-270.18 83.5,-260.18 76.5,-260.18"/>
</a>
</g>
</g>
<!-- Node6 -->
<g id="Node000006" class="node">
<title>Node6</title>
<g id="a_Node000006"><a xlink:href="interface_vecto_objects_1_1_i_vehicle_declaration.html" target="_top" xlink:title=" ">
<polygon fill="white" stroke="#bfbfbf" points="325.75,-94 164.25,-94 164.25,-74 325.75,-74 325.75,-94"/>
<text xml:space="preserve" text-anchor="middle" x="245" y="-80.5" font-family="Helvetica,sans-Serif" font-size="10.00">VectoObjects.IVehicleDeclaration</text>
</a>
</g>
</g>
<!-- Node6&#45;&gt;Node1 -->
<g id="edge5_Node000001_Node000006" class="edge">
<title>Node6&#45;&gt;Node1</title>
<g id="a_edge5_Node000001_Node000006"><a xlink:title=" ">
<path fill="none" stroke="#63b8ff" d="M224.28,-66.53C211.1,-56.04 194.13,-42.55 181.24,-32.3"/>
<polygon fill="#63b8ff" stroke="#63b8ff" points="221.92,-69.12 231.92,-72.6 226.27,-63.64 221.92,-69.12"/>
</a>
</g>
</g>
</g>
</svg>
