<?xml version="1.0" encoding="UTF-8" standalone="no"?>
<!DOCTYPE svg PUBLIC "-//W3C//DTD SVG 1.1//EN"
 "http://www.w3.org/Graphics/SVG/1.1/DTD/svg11.dtd">
<!-- Generated by graphviz version 14.0.2 (20251019.1705)
 -->
<!-- Title: VectoObjects.AbstractIEPCDataType_v2_3 Pages: 1 -->
<svg width="550pt" height="190pt"
 viewBox="0.00 0.00 550.00 190.00" xmlns="http://www.w3.org/2000/svg" xmlns:xlink="http://www.w3.org/1999/xlink">
<g id="graph0" class="graph" transform="scale(1 1) rotate(0) translate(4 186)">
<title>VectoObjects.AbstractIEPCDataType_v2_3</title>
<!-- Node1 -->
<g id="Node000001" class="node">
<title>Node1</title>
<g id="a_Node000001"><a xlink:title=" ">
<polygon fill="#999999" stroke="#666666" points="343.25,-107 184,-107 184,-75 343.25,-75 343.25,-107"/>
<text xml:space="preserve" text-anchor="start" x="192" y="-93.5" font-family="Helvetica,sans-Serif" font-size="10.00">VectoObjects.AbstractIEPCData</text>
<text xml:space="preserve" text-anchor="middle" x="263.62" y="-81.5" font-family="Helvetica,sans-Serif" font-size="10.00">Type_v2_3</text>
</a>
</g>
</g>
<!-- Node3 -->
<g id="Node000003" class="node">
<title>Node3</title>
<g id="a_Node000003"><a xlink:href="class_vecto_objects_1_1_i_e_p_c_measured_data_declaration_type__v2__3.html" target="_top" xlink:title=" ">
<polygon fill="white" stroke="#bfbfbf" points="532.88,-182 388.62,-182 388.62,-150 532.88,-150 532.88,-182"/>
<text xml:space="preserve" text-anchor="start" x="396.62" y="-168.5" font-family="Helvetica,sans-Serif" font-size="10.00">VectoObjects.IEPCMeasured</text>
<text xml:space="preserve" text-anchor="middle" x="460.75" y="-156.5" font-family="Helvetica,sans-Serif" font-size="10.00">DataDeclarationType_v2_3</text>
</a>
</g>
</g>
<!-- Node1&#45;&gt;Node3 -->
<g id="edge2_Node000001_Node000003" class="edge">
<title>Node1&#45;&gt;Node3</title>
<g id="a_edge2_Node000001_Node000003"><a xlink:title=" ">
<path fill="none" stroke="#63b8ff" d="M310.07,-112.2C330.93,-121.57 356.12,-132.39 379.25,-141 387.2,-143.96 395.69,-146.86 404.05,-149.58"/>
<polygon fill="#63b8ff" stroke="#63b8ff" points="311.52,-109.01 300.96,-108.07 308.63,-115.39 311.52,-109.01"/>
</a>
</g>
</g>
<!-- Node4 -->
<g id="Node000004" class="node">
<title>Node4</title>
<g id="a_Node000004"><a xlink:href="class_vecto_objects_1_1_i_e_p_c_measured_data_declaration_type__v2__6.html" target="_top" xlink:title=" ">
<polygon fill="white" stroke="#bfbfbf" points="532.88,-132 388.62,-132 388.62,-100 532.88,-100 532.88,-132"/>
<text xml:space="preserve" text-anchor="start" x="396.62" y="-118.5" font-family="Helvetica,sans-Serif" font-size="10.00">VectoObjects.IEPCMeasured</text>
<text xml:space="preserve" text-anchor="middle" x="460.75" y="-106.5" font-family="Helvetica,sans-Serif" font-size="10.00">DataDeclarationType_v2_6</text>
</a>
</g>
</g>
<!-- Node1&#45;&gt;Node4 -->
<g id="edge3_Node000001_Node000004" class="edge">
<title>Node1&#45;&gt;Node4</title>
<g id="a_edge3_Node000001_Node000004"><a xlink:title=" ">
<path fill="none" stroke="#63b8ff" d="M354.89,-102.56C366.13,-104.01 377.51,-105.46 388.41,-106.86"/>
<polygon fill="#63b8ff" stroke="#63b8ff" points="355.57,-99.12 345.21,-101.32 354.68,-106.07 355.57,-99.12"/>
</a>
</g>
</g>
<!-- Node5 -->
<g id="Node000005" class="node">
<title>Node5</title>
<g id="a_Node000005"><a xlink:href="class_vecto_objects_1_1_i_e_p_c_standard_values_data_declaration_type__v2__3.html" target="_top" xlink:title=" ">
<polygon fill="white" stroke="#bfbfbf" points="542.25,-82 379.25,-82 379.25,-50 542.25,-50 542.25,-82"/>
<text xml:space="preserve" text-anchor="start" x="387.25" y="-68.5" font-family="Helvetica,sans-Serif" font-size="10.00">VectoObjects.IEPCStandard</text>
<text xml:space="preserve" text-anchor="middle" x="460.75" y="-56.5" font-family="Helvetica,sans-Serif" font-size="10.00">ValuesDataDeclarationType_v2_3</text>
</a>
</g>
</g>
<!-- Node1&#45;&gt;Node5 -->
<g id="edge4_Node000001_Node000005" class="edge">
<title>Node1&#45;&gt;Node5</title>
<g id="a_edge4_Node000001_Node000005"><a xlink:title=" ">
<path fill="none" stroke="#63b8ff" d="M354.96,-79.43C362.97,-78.4 371.05,-77.37 378.97,-76.35"/>
<polygon fill="#63b8ff" stroke="#63b8ff" points="354.68,-75.93 345.21,-80.68 355.57,-82.88 354.68,-75.93"/>
</a>
</g>
</g>
<!-- Node6 -->
<g id="Node000006" class="node">
<title>Node6</title>
<g id="a_Node000006"><a xlink:href="class_vecto_objects_1_1_i_e_p_c_standard_values_data_declaration_type__v2__6.html" target="_top" xlink:title=" ">
<polygon fill="white" stroke="#bfbfbf" points="542.25,-32 379.25,-32 379.25,0 542.25,0 542.25,-32"/>
<text xml:space="preserve" text-anchor="start" x="387.25" y="-18.5" font-family="Helvetica,sans-Serif" font-size="10.00">VectoObjects.IEPCStandard</text>
<text xml:space="preserve" text-anchor="middle" x="460.75" y="-6.5" font-family="Helvetica,sans-Serif" font-size="10.00">ValuesDataDeclarationType_v2_6</text>
</a>
</g>
</g>
<!-- Node1&#45;&gt;Node6 -->
<g id="edge5_Node000001_Node000006" class="edge">
<title>Node1&#45;&gt;Node6</title>
<g id="a_edge5_Node000001_Node000006"><a xlink:title=" ">
<path fill="none" stroke="#63b8ff" d="M310.07,-69.8C330.93,-60.43 356.12,-49.61 379.25,-41 387.2,-38.04 395.69,-35.14 404.05,-32.42"/>
<polygon fill="#63b8ff" stroke="#63b8ff" points="308.63,-66.61 300.96,-73.93 311.52,-72.99 308.63,-66.61"/>
</a>
</g>
</g>
<!-- Node2 -->
<g id="Node000002" class="node">
<title>Node2</title>
<g id="a_Node000002"><a xlink:href="class_vecto_objects_1_1_vecto_simulation_component__v1__0.html" target="_top" xlink:title=" ">
<polygon fill="white" stroke="#bfbfbf" points="148,-107 0,-107 0,-75 148,-75 148,-107"/>
<text xml:space="preserve" text-anchor="start" x="8" y="-93.5" font-family="Helvetica,sans-Serif" font-size="10.00">VectoObjects.VectoSimulation</text>
<text xml:space="preserve" text-anchor="middle" x="74" y="-81.5" font-family="Helvetica,sans-Serif" font-size="10.00">Component_v1_0</text>
</a>
</g>
</g>
<!-- Node2&#45;&gt;Node1 -->
<g id="edge1_Node000001_Node000002" class="edge">
<title>Node2&#45;&gt;Node1</title>
<g id="a_edge1_Node000001_Node000002"><a xlink:title=" ">
<path fill="none" stroke="#63b8ff" d="M159.62,-91C167.65,-91 175.77,-91 183.75,-91"/>
<polygon fill="#63b8ff" stroke="#63b8ff" points="159.86,-87.5 149.86,-91 159.86,-94.5 159.86,-87.5"/>
</a>
</g>
</g>
</g>
</svg>
