<?xml version="1.0" encoding="UTF-8" standalone="no"?>
<!DOCTYPE svg PUBLIC "-//W3C//DTD SVG 1.1//EN"
 "http://www.w3.org/Graphics/SVG/1.1/DTD/svg11.dtd">
<!-- Generated by graphviz version 14.0.2 (20251019.1705)
 -->
<!-- Title: VectoObjects.TorqueConverterDataDeclarationType_v2_0 Pages: 1 -->
<svg width="554pt" height="90pt"
 viewBox="0.00 0.00 554.00 90.00" xmlns="http://www.w3.org/2000/svg" xmlns:xlink="http://www.w3.org/1999/xlink">
<g id="graph0" class="graph" transform="scale(1 1) rotate(0) translate(4 86)">
<title>VectoObjects.TorqueConverterDataDeclarationType_v2_0</title>
<!-- Node1 -->
<g id="Node000001" class="node">
<title>Node1</title>
<g id="a_Node000001"><a xlink:title=" ">
<polygon fill="#999999" stroke="#666666" points="546,-57 396.5,-57 396.5,-25 546,-25 546,-57"/>
<text xml:space="preserve" text-anchor="start" x="404.5" y="-43.5" font-family="Helvetica,sans-Serif" font-size="10.00">VectoObjects.TorqueConverter</text>
<text xml:space="preserve" text-anchor="middle" x="471.25" y="-31.5" font-family="Helvetica,sans-Serif" font-size="10.00">DataDeclarationType_v2_0</text>
</a>
</g>
</g>
<!-- Node2 -->
<g id="Node000002" class="node">
<title>Node2</title>
<g id="a_Node000002"><a xlink:href="class_vecto_objects_1_1_abstract_torque_converter_data_declaration_type__v1__0.html" target="_top" xlink:title=" ">
<polygon fill="white" stroke="#bfbfbf" points="360.5,-82 184,-82 184,-50 360.5,-50 360.5,-82"/>
<text xml:space="preserve" text-anchor="start" x="192" y="-68.5" font-family="Helvetica,sans-Serif" font-size="10.00">VectoObjects.AbstractTorque</text>
<text xml:space="preserve" text-anchor="middle" x="272.25" y="-56.5" font-family="Helvetica,sans-Serif" font-size="10.00">ConverterDataDeclarationType_v1_0</text>
</a>
</g>
</g>
<!-- Node2&#45;&gt;Node1 -->
<g id="edge1_Node000001_Node000002" class="edge">
<title>Node2&#45;&gt;Node1</title>
<g id="a_edge1_Node000001_Node000002"><a xlink:title=" ">
<path fill="none" stroke="#63b8ff" d="M372.2,-53.44C380.28,-52.42 388.35,-51.39 396.2,-50.4"/>
<polygon fill="#63b8ff" stroke="#63b8ff" points="371.79,-49.97 362.31,-54.7 372.67,-56.91 371.79,-49.97"/>
</a>
</g>
</g>
<!-- Node3 -->
<g id="Node000003" class="node">
<title>Node3</title>
<g id="a_Node000003"><a xlink:href="class_vecto_objects_1_1_vecto_simulation_component__v1__0.html" target="_top" xlink:title=" ">
<polygon fill="white" stroke="#bfbfbf" points="148,-82 0,-82 0,-50 148,-50 148,-82"/>
<text xml:space="preserve" text-anchor="start" x="8" y="-68.5" font-family="Helvetica,sans-Serif" font-size="10.00">VectoObjects.VectoSimulation</text>
<text xml:space="preserve" text-anchor="middle" x="74" y="-56.5" font-family="Helvetica,sans-Serif" font-size="10.00">Component_v1_0</text>
</a>
</g>
</g>
<!-- Node3&#45;&gt;Node2 -->
<g id="edge2_Node000002_Node000003" class="edge">
<title>Node3&#45;&gt;Node2</title>
<g id="a_edge2_Node000002_Node000003"><a xlink:title=" ">
<path fill="none" stroke="#63b8ff" d="M159.85,-66C167.77,-66 175.8,-66 183.75,-66"/>
<polygon fill="#63b8ff" stroke="#63b8ff" points="159.87,-62.5 149.87,-66 159.87,-69.5 159.87,-62.5"/>
</a>
</g>
</g>
<!-- Node4 -->
<g id="Node000004" class="node">
<title>Node4</title>
<g id="a_Node000004"><a xlink:href="interface_vecto_objects_1_1_i_component_data_declaration.html" target="_top" xlink:title=" ">
<polygon fill="white" stroke="#bfbfbf" points="348.12,-32 196.38,-32 196.38,0 348.12,0 348.12,-32"/>
<text xml:space="preserve" text-anchor="start" x="204.38" y="-18.5" font-family="Helvetica,sans-Serif" font-size="10.00">VectoObjects.IComponentData</text>
<text xml:space="preserve" text-anchor="middle" x="272.25" y="-6.5" font-family="Helvetica,sans-Serif" font-size="10.00">Declaration</text>
</a>
</g>
</g>
<!-- Node4&#45;&gt;Node1 -->
<g id="edge3_Node000001_Node000004" class="edge">
<title>Node4&#45;&gt;Node1</title>
<g id="a_edge3_Node000001_Node000004"><a xlink:title=" ">
<path fill="none" stroke="#63b8ff" d="M359.68,-26.97C371.88,-28.52 384.33,-30.1 396.27,-31.61"/>
<polygon fill="#63b8ff" stroke="#63b8ff" points="360.43,-23.54 350.07,-25.75 359.55,-30.48 360.43,-23.54"/>
</a>
</g>
</g>
</g>
</svg>
