<?xml version="1.0" encoding="UTF-8" standalone="no"?>
<!DOCTYPE svg PUBLIC "-//W3C//DTD SVG 1.1//EN"
 "http://www.w3.org/Graphics/SVG/1.1/DTD/svg11.dtd">
<!-- Generated by graphviz version 14.0.2 (20251019.1705)
 -->
<!-- Title: VectoObjects.AirDragDataDeclarationType_v2_6 Pages: 1 -->
<svg width="511pt" height="90pt"
 viewBox="0.00 0.00 511.00 90.00" xmlns="http://www.w3.org/2000/svg" xmlns:xlink="http://www.w3.org/1999/xlink">
<g id="graph0" class="graph" transform="scale(1 1) rotate(0) translate(4 86)">
<title>VectoObjects.AirDragDataDeclarationType_v2_6</title>
<!-- Node1 -->
<g id="Node000001" class="node">
<title>Node1</title>
<g id="a_Node000001"><a xlink:title=" ">
<polygon fill="#999999" stroke="#666666" points="503.25,-57 371.75,-57 371.75,-25 503.25,-25 503.25,-57"/>
<text xml:space="preserve" text-anchor="start" x="379.75" y="-43.5" font-family="Helvetica,sans-Serif" font-size="10.00">VectoObjects.AirDragData</text>
<text xml:space="preserve" text-anchor="middle" x="437.5" y="-31.5" font-family="Helvetica,sans-Serif" font-size="10.00">DeclarationType_v2_6</text>
</a>
</g>
</g>
<!-- Node2 -->
<g id="Node000002" class="node">
<title>Node2</title>
<g id="a_Node000002"><a xlink:href="class_vecto_objects_1_1_abstract_airdrag_data_declaration_type__v1__0.html" target="_top" xlink:title=" ">
<polygon fill="white" stroke="#bfbfbf" points="332.38,-82 187.38,-82 187.38,-50 332.38,-50 332.38,-82"/>
<text xml:space="preserve" text-anchor="start" x="195.38" y="-68.5" font-family="Helvetica,sans-Serif" font-size="10.00">VectoObjects.AbstractAirdrag</text>
<text xml:space="preserve" text-anchor="middle" x="259.88" y="-56.5" font-family="Helvetica,sans-Serif" font-size="10.00">DataDeclarationType_v1_0</text>
</a>
</g>
</g>
<!-- Node2&#45;&gt;Node1 -->
<g id="edge1_Node000001_Node000002" class="edge">
<title>Node2&#45;&gt;Node1</title>
<g id="a_edge1_Node000001_Node000002"><a xlink:title=" ">
<path fill="none" stroke="#63b8ff" d="M343.99,-54.17C353.21,-52.86 362.49,-51.53 371.44,-50.26"/>
<polygon fill="#63b8ff" stroke="#63b8ff" points="343.72,-50.67 334.31,-55.55 344.71,-57.6 343.72,-50.67"/>
</a>
</g>
</g>
<!-- Node3 -->
<g id="Node000003" class="node">
<title>Node3</title>
<g id="a_Node000003"><a xlink:href="class_vecto_objects_1_1_vecto_simulation_component__v1__0.html" target="_top" xlink:title=" ">
<polygon fill="white" stroke="#bfbfbf" points="148,-82 0,-82 0,-50 148,-50 148,-82"/>
<text xml:space="preserve" text-anchor="start" x="8" y="-68.5" font-family="Helvetica,sans-Serif" font-size="10.00">VectoObjects.VectoSimulation</text>
<text xml:space="preserve" text-anchor="middle" x="74" y="-56.5" font-family="Helvetica,sans-Serif" font-size="10.00">Component_v1_0</text>
</a>
</g>
</g>
<!-- Node3&#45;&gt;Node2 -->
<g id="edge2_Node000002_Node000003" class="edge">
<title>Node3&#45;&gt;Node2</title>
<g id="a_edge2_Node000002_Node000003"><a xlink:title=" ">
<path fill="none" stroke="#63b8ff" d="M159.88,-66C168.96,-66 178.12,-66 187.02,-66"/>
<polygon fill="#63b8ff" stroke="#63b8ff" points="159.98,-62.5 149.98,-66 159.98,-69.5 159.98,-62.5"/>
</a>
</g>
</g>
<!-- Node4 -->
<g id="Node000004" class="node">
<title>Node4</title>
<g id="a_Node000004"><a xlink:href="interface_vecto_objects_1_1_i_component_data_declaration.html" target="_top" xlink:title=" ">
<polygon fill="white" stroke="#bfbfbf" points="335.75,-32 184,-32 184,0 335.75,0 335.75,-32"/>
<text xml:space="preserve" text-anchor="start" x="192" y="-18.5" font-family="Helvetica,sans-Serif" font-size="10.00">VectoObjects.IComponentData</text>
<text xml:space="preserve" text-anchor="middle" x="259.88" y="-6.5" font-family="Helvetica,sans-Serif" font-size="10.00">Declaration</text>
</a>
</g>
</g>
<!-- Node4&#45;&gt;Node1 -->
<g id="edge3_Node000001_Node000004" class="edge">
<title>Node4&#45;&gt;Node1</title>
<g id="a_edge3_Node000001_Node000004"><a xlink:title=" ">
<path fill="none" stroke="#63b8ff" d="M347.46,-28.33C355.5,-29.47 363.56,-30.62 371.37,-31.73"/>
<polygon fill="#63b8ff" stroke="#63b8ff" points="348.01,-24.87 337.62,-26.92 347.03,-31.8 348.01,-24.87"/>
</a>
</g>
</g>
</g>
</svg>
