<?xml version="1.0" encoding="UTF-8" standalone="no"?>
<!DOCTYPE svg PUBLIC "-//W3C//DTD SVG 1.1//EN"
 "http://www.w3.org/Graphics/SVG/1.1/DTD/svg11.dtd">
<!-- Generated by graphviz version 14.0.2 (20251019.1705)
 -->
<!-- Title: VectoObjects.Abstract_Components_HEV_Sx_LorryDeclarationType_v2_7 Pages: 1 -->
<svg width="375pt" height="140pt"
 viewBox="0.00 0.00 375.00 140.00" xmlns="http://www.w3.org/2000/svg" xmlns:xlink="http://www.w3.org/1999/xlink">
<g id="graph0" class="graph" transform="scale(1 1) rotate(0) translate(4 136)">
<title>VectoObjects.Abstract_Components_HEV_Sx_LorryDeclarationType_v2_7</title>
<!-- Node1 -->
<g id="Node000001" class="node">
<title>Node1</title>
<g id="a_Node000001"><a xlink:title=" ">
<polygon fill="#999999" stroke="#666666" points="196.75,-88 0,-88 0,-44 196.75,-44 196.75,-88"/>
<text xml:space="preserve" text-anchor="start" x="8" y="-74.5" font-family="Helvetica,sans-Serif" font-size="10.00">VectoObjects.Abstract</text>
<text xml:space="preserve" text-anchor="start" x="8" y="-62.5" font-family="Helvetica,sans-Serif" font-size="10.00">_Components_HEV_Sx_LorryDeclaration</text>
<text xml:space="preserve" text-anchor="middle" x="98.38" y="-50.5" font-family="Helvetica,sans-Serif" font-size="10.00">Type_v2_7</text>
</a>
</g>
</g>
<!-- Node2 -->
<g id="Node000002" class="node">
<title>Node2</title>
<g id="a_Node000002"><a xlink:href="class_vecto_objects_1_1_components___h_e_v___s2___lorry_type__v2__7.html" target="_top" xlink:title=" ">
<polygon fill="white" stroke="#bfbfbf" points="366.5,-132 232.75,-132 232.75,-100 366.5,-100 366.5,-132"/>
<text xml:space="preserve" text-anchor="start" x="240.75" y="-118.5" font-family="Helvetica,sans-Serif" font-size="10.00">VectoObjects.Components</text>
<text xml:space="preserve" text-anchor="middle" x="299.62" y="-106.5" font-family="Helvetica,sans-Serif" font-size="10.00">_HEV_S2_LorryType_v2_7</text>
</a>
</g>
</g>
<!-- Node1&#45;&gt;Node2 -->
<g id="edge1_Node000001_Node000002" class="edge">
<title>Node1&#45;&gt;Node2</title>
<g id="a_edge1_Node000001_Node000002"><a xlink:title=" ">
<path fill="none" stroke="#63b8ff" d="M199.66,-91.17C211,-94.01 222.33,-96.86 233.06,-99.55"/>
<polygon fill="#63b8ff" stroke="#63b8ff" points="200.82,-87.85 190.27,-88.81 199.12,-94.64 200.82,-87.85"/>
</a>
</g>
</g>
<!-- Node3 -->
<g id="Node000003" class="node">
<title>Node3</title>
<g id="a_Node000003"><a xlink:href="class_vecto_objects_1_1_components___h_e_v___s3___lorry_type__v2__7.html" target="_top" xlink:title=" ">
<polygon fill="white" stroke="#bfbfbf" points="366.5,-82 232.75,-82 232.75,-50 366.5,-50 366.5,-82"/>
<text xml:space="preserve" text-anchor="start" x="240.75" y="-68.5" font-family="Helvetica,sans-Serif" font-size="10.00">VectoObjects.Components</text>
<text xml:space="preserve" text-anchor="middle" x="299.62" y="-56.5" font-family="Helvetica,sans-Serif" font-size="10.00">_HEV_S3_LorryType_v2_7</text>
</a>
</g>
</g>
<!-- Node1&#45;&gt;Node3 -->
<g id="edge2_Node000001_Node000003" class="edge">
<title>Node1&#45;&gt;Node3</title>
<g id="a_edge2_Node000001_Node000003"><a xlink:title=" ">
<path fill="none" stroke="#63b8ff" d="M208.68,-66C216.74,-66 224.72,-66 232.39,-66"/>
<polygon fill="#63b8ff" stroke="#63b8ff" points="208.76,-62.5 198.76,-66 208.76,-69.5 208.76,-62.5"/>
</a>
</g>
</g>
<!-- Node4 -->
<g id="Node000004" class="node">
<title>Node4</title>
<g id="a_Node000004"><a xlink:href="class_vecto_objects_1_1_components___h_e_v___s4___lorry_type__v2__7.html" target="_top" xlink:title=" ">
<polygon fill="white" stroke="#bfbfbf" points="366.5,-32 232.75,-32 232.75,0 366.5,0 366.5,-32"/>
<text xml:space="preserve" text-anchor="start" x="240.75" y="-18.5" font-family="Helvetica,sans-Serif" font-size="10.00">VectoObjects.Components</text>
<text xml:space="preserve" text-anchor="middle" x="299.62" y="-6.5" font-family="Helvetica,sans-Serif" font-size="10.00">_HEV_S4_LorryType_v2_7</text>
</a>
</g>
</g>
<!-- Node1&#45;&gt;Node4 -->
<g id="edge3_Node000001_Node000004" class="edge">
<title>Node1&#45;&gt;Node4</title>
<g id="a_edge3_Node000001_Node000004"><a xlink:title=" ">
<path fill="none" stroke="#63b8ff" d="M199.66,-40.83C211,-37.99 222.33,-35.14 233.06,-32.45"/>
<polygon fill="#63b8ff" stroke="#63b8ff" points="199.12,-37.36 190.27,-43.19 200.82,-44.15 199.12,-37.36"/>
</a>
</g>
</g>
</g>
</svg>
