<?xml version="1.0" encoding="UTF-8" standalone="no"?>
<!DOCTYPE svg PUBLIC "-//W3C//DTD SVG 1.1//EN"
 "http://www.w3.org/Graphics/SVG/1.1/DTD/svg11.dtd">
<!-- Generated by graphviz version 14.0.2 (20251019.1705)
 -->
<!-- Title: VectoObjects.AngledriveDataDeclarationType_v2_0 Pages: 1 -->
<svg width="532pt" height="90pt"
 viewBox="0.00 0.00 532.00 90.00" xmlns="http://www.w3.org/2000/svg" xmlns:xlink="http://www.w3.org/1999/xlink">
<g id="graph0" class="graph" transform="scale(1 1) rotate(0) translate(4 86)">
<title>VectoObjects.AngledriveDataDeclarationType_v2_0</title>
<!-- Node1 -->
<g id="Node000001" class="node">
<title>Node1</title>
<g id="a_Node000001"><a xlink:title=" ">
<polygon fill="#999999" stroke="#666666" points="524.25,-57 380,-57 380,-25 524.25,-25 524.25,-57"/>
<text xml:space="preserve" text-anchor="start" x="388" y="-43.5" font-family="Helvetica,sans-Serif" font-size="10.00">VectoObjects.AngledriveData</text>
<text xml:space="preserve" text-anchor="middle" x="452.12" y="-31.5" font-family="Helvetica,sans-Serif" font-size="10.00">DeclarationType_v2_0</text>
</a>
</g>
</g>
<!-- Node2 -->
<g id="Node000002" class="node">
<title>Node2</title>
<g id="a_Node000002"><a xlink:href="class_vecto_objects_1_1_abstract_angledrive_data_declaration_type__v1__0.html" target="_top" xlink:title=" ">
<polygon fill="white" stroke="#bfbfbf" points="344,-82 184,-82 184,-50 344,-50 344,-82"/>
<text xml:space="preserve" text-anchor="start" x="192" y="-68.5" font-family="Helvetica,sans-Serif" font-size="10.00">VectoObjects.AbstractAngledrive</text>
<text xml:space="preserve" text-anchor="middle" x="264" y="-56.5" font-family="Helvetica,sans-Serif" font-size="10.00">DataDeclarationType_v1_0</text>
</a>
</g>
</g>
<!-- Node2&#45;&gt;Node1 -->
<g id="edge1_Node000001_Node000002" class="edge">
<title>Node2&#45;&gt;Node1</title>
<g id="a_edge1_Node000001_Node000002"><a xlink:title=" ">
<path fill="none" stroke="#63b8ff" d="M355.74,-53.81C363.74,-52.74 371.76,-51.66 379.57,-50.61"/>
<polygon fill="#63b8ff" stroke="#63b8ff" points="355.42,-50.32 345.97,-55.12 356.35,-57.26 355.42,-50.32"/>
</a>
</g>
</g>
<!-- Node3 -->
<g id="Node000003" class="node">
<title>Node3</title>
<g id="a_Node000003"><a xlink:href="class_vecto_objects_1_1_vecto_simulation_component__v1__0.html" target="_top" xlink:title=" ">
<polygon fill="white" stroke="#bfbfbf" points="148,-82 0,-82 0,-50 148,-50 148,-82"/>
<text xml:space="preserve" text-anchor="start" x="8" y="-68.5" font-family="Helvetica,sans-Serif" font-size="10.00">VectoObjects.VectoSimulation</text>
<text xml:space="preserve" text-anchor="middle" x="74" y="-56.5" font-family="Helvetica,sans-Serif" font-size="10.00">Component_v1_0</text>
</a>
</g>
</g>
<!-- Node3&#45;&gt;Node2 -->
<g id="edge2_Node000002_Node000003" class="edge">
<title>Node3&#45;&gt;Node2</title>
<g id="a_edge2_Node000002_Node000003"><a xlink:title=" ">
<path fill="none" stroke="#63b8ff" d="M159.96,-66C167.85,-66 175.82,-66 183.65,-66"/>
<polygon fill="#63b8ff" stroke="#63b8ff" points="160.01,-62.5 150.01,-66 160.01,-69.5 160.01,-62.5"/>
</a>
</g>
</g>
<!-- Node4 -->
<g id="Node000004" class="node">
<title>Node4</title>
<g id="a_Node000004"><a xlink:href="interface_vecto_objects_1_1_i_component_data_declaration.html" target="_top" xlink:title=" ">
<polygon fill="white" stroke="#bfbfbf" points="339.88,-32 188.12,-32 188.12,0 339.88,0 339.88,-32"/>
<text xml:space="preserve" text-anchor="start" x="196.12" y="-18.5" font-family="Helvetica,sans-Serif" font-size="10.00">VectoObjects.IComponentData</text>
<text xml:space="preserve" text-anchor="middle" x="264" y="-6.5" font-family="Helvetica,sans-Serif" font-size="10.00">Declaration</text>
</a>
</g>
</g>
<!-- Node4&#45;&gt;Node1 -->
<g id="edge3_Node000001_Node000004" class="edge">
<title>Node4&#45;&gt;Node1</title>
<g id="a_edge3_Node000001_Node000004"><a xlink:title=" ">
<path fill="none" stroke="#63b8ff" d="M351.55,-27.63C360.94,-28.89 370.42,-30.16 379.6,-31.39"/>
<polygon fill="#63b8ff" stroke="#63b8ff" points="352.04,-24.16 341.67,-26.3 351.11,-31.1 352.04,-24.16"/>
</a>
</g>
</g>
</g>
</svg>
