<?xml version="1.0" encoding="UTF-8" standalone="no"?>
<!DOCTYPE svg PUBLIC "-//W3C//DTD SVG 1.1//EN"
 "http://www.w3.org/Graphics/SVG/1.1/DTD/svg11.dtd">
<!-- Generated by graphviz version 14.0.2 (20251019.1705)
 -->
<!-- Title: VectoObjects.Abstract_Powertrain_xEV_DataType_v2_7 Pages: 1 -->
<svg width="351pt" height="190pt"
 viewBox="0.00 0.00 351.00 190.00" xmlns="http://www.w3.org/2000/svg" xmlns:xlink="http://www.w3.org/1999/xlink">
<g id="graph0" class="graph" transform="scale(1 1) rotate(0) translate(4 186)">
<title>VectoObjects.Abstract_Powertrain_xEV_DataType_v2_7</title>
<!-- Node1 -->
<g id="Node000001" class="node">
<title>Node1</title>
<g id="a_Node000001"><a xlink:title=" ">
<polygon fill="#999999" stroke="#666666" points="165.25,-107 0,-107 0,-75 165.25,-75 165.25,-107"/>
<text xml:space="preserve" text-anchor="start" x="8" y="-93.5" font-family="Helvetica,sans-Serif" font-size="10.00">VectoObjects.Abstract</text>
<text xml:space="preserve" text-anchor="middle" x="82.62" y="-81.5" font-family="Helvetica,sans-Serif" font-size="10.00">_Powertrain_xEV_DataType_v2_7</text>
</a>
</g>
</g>
<!-- Node2 -->
<g id="Node000002" class="node">
<title>Node2</title>
<g id="a_Node000002"><a xlink:href="class_vecto_objects_1_1x_e_v___e_m2___powertrain___data_type__v2__7.html" target="_top" xlink:title=" ">
<polygon fill="white" stroke="#bfbfbf" points="342.5,-182 201.25,-182 201.25,-150 342.5,-150 342.5,-182"/>
<text xml:space="preserve" text-anchor="start" x="209.25" y="-168.5" font-family="Helvetica,sans-Serif" font-size="10.00">VectoObjects.xEV_EM2</text>
<text xml:space="preserve" text-anchor="middle" x="271.88" y="-156.5" font-family="Helvetica,sans-Serif" font-size="10.00">_Powertrain_DataType_v2_7</text>
</a>
</g>
</g>
<!-- Node1&#45;&gt;Node2 -->
<g id="edge1_Node000001_Node000002" class="edge">
<title>Node1&#45;&gt;Node2</title>
<g id="a_edge1_Node000001_Node000002"><a xlink:title=" ">
<path fill="none" stroke="#63b8ff" d="M131.16,-111.94C152.48,-121.14 178.01,-131.9 201.25,-141 208.54,-143.86 216.32,-146.77 223.92,-149.56"/>
<polygon fill="#63b8ff" stroke="#63b8ff" points="132.7,-108.79 122.14,-108.03 129.92,-115.21 132.7,-108.79"/>
</a>
</g>
</g>
<!-- Node3 -->
<g id="Node000003" class="node">
<title>Node3</title>
<g id="a_Node000003"><a xlink:href="class_vecto_objects_1_1x_e_v___e_m3___powertrain___data_type__v2__7.html" target="_top" xlink:title=" ">
<polygon fill="white" stroke="#bfbfbf" points="342.5,-132 201.25,-132 201.25,-100 342.5,-100 342.5,-132"/>
<text xml:space="preserve" text-anchor="start" x="209.25" y="-118.5" font-family="Helvetica,sans-Serif" font-size="10.00">VectoObjects.xEV_EM3</text>
<text xml:space="preserve" text-anchor="middle" x="271.88" y="-106.5" font-family="Helvetica,sans-Serif" font-size="10.00">_Powertrain_DataType_v2_7</text>
</a>
</g>
</g>
<!-- Node1&#45;&gt;Node3 -->
<g id="edge2_Node000001_Node000003" class="edge">
<title>Node1&#45;&gt;Node3</title>
<g id="a_edge2_Node000001_Node000003"><a xlink:title=" ">
<path fill="none" stroke="#63b8ff" d="M176.88,-103.45C184.97,-104.53 193.05,-105.61 200.9,-106.66"/>
<polygon fill="#63b8ff" stroke="#63b8ff" points="177.36,-99.98 166.98,-102.13 176.43,-106.92 177.36,-99.98"/>
</a>
</g>
</g>
<!-- Node4 -->
<g id="Node000004" class="node">
<title>Node4</title>
<g id="a_Node000004"><a xlink:href="class_vecto_objects_1_1x_e_v___e_m4___powertrain___data_type__v2__7.html" target="_top" xlink:title=" ">
<polygon fill="white" stroke="#bfbfbf" points="342.5,-82 201.25,-82 201.25,-50 342.5,-50 342.5,-82"/>
<text xml:space="preserve" text-anchor="start" x="209.25" y="-68.5" font-family="Helvetica,sans-Serif" font-size="10.00">VectoObjects.xEV_EM4</text>
<text xml:space="preserve" text-anchor="middle" x="271.88" y="-56.5" font-family="Helvetica,sans-Serif" font-size="10.00">_Powertrain_DataType_v2_7</text>
</a>
</g>
</g>
<!-- Node1&#45;&gt;Node4 -->
<g id="edge3_Node000001_Node000004" class="edge">
<title>Node1&#45;&gt;Node4</title>
<g id="a_edge3_Node000001_Node000004"><a xlink:title=" ">
<path fill="none" stroke="#63b8ff" d="M176.88,-78.55C184.97,-77.47 193.05,-76.39 200.9,-75.34"/>
<polygon fill="#63b8ff" stroke="#63b8ff" points="176.43,-75.08 166.98,-79.87 177.36,-82.02 176.43,-75.08"/>
</a>
</g>
</g>
<!-- Node5 -->
<g id="Node000005" class="node">
<title>Node5</title>
<g id="a_Node000005"><a xlink:href="class_vecto_objects_1_1x_e_v___i_e_p_c___powertrain___data_type__v2__7.html" target="_top" xlink:title=" ">
<polygon fill="white" stroke="#bfbfbf" points="342.5,-32 201.25,-32 201.25,0 342.5,0 342.5,-32"/>
<text xml:space="preserve" text-anchor="start" x="209.25" y="-18.5" font-family="Helvetica,sans-Serif" font-size="10.00">VectoObjects.xEV_IEPC</text>
<text xml:space="preserve" text-anchor="middle" x="271.88" y="-6.5" font-family="Helvetica,sans-Serif" font-size="10.00">_Powertrain_DataType_v2_7</text>
</a>
</g>
</g>
<!-- Node1&#45;&gt;Node5 -->
<g id="edge4_Node000001_Node000005" class="edge">
<title>Node1&#45;&gt;Node5</title>
<g id="a_edge4_Node000001_Node000005"><a xlink:title=" ">
<path fill="none" stroke="#63b8ff" d="M131.16,-70.06C152.48,-60.86 178.01,-50.1 201.25,-41 208.54,-38.14 216.32,-35.23 223.92,-32.44"/>
<polygon fill="#63b8ff" stroke="#63b8ff" points="129.92,-66.79 122.14,-73.97 132.7,-73.21 129.92,-66.79"/>
</a>
</g>
</g>
</g>
</svg>
