<?xml version="1.0" encoding="UTF-8" standalone="no"?>
<!DOCTYPE svg PUBLIC "-//W3C//DTD SVG 1.1//EN"
 "http://www.w3.org/Graphics/SVG/1.1/DTD/svg11.dtd">
<!-- Generated by graphviz version 14.0.2 (20251019.1705)
 -->
<!-- Title: VectoObjects.AbstractAxlegearDataDeclarationType_v1_0 Pages: 1 -->
<svg width="517pt" height="90pt"
 viewBox="0.00 0.00 517.00 90.00" xmlns="http://www.w3.org/2000/svg" xmlns:xlink="http://www.w3.org/1999/xlink">
<g id="graph0" class="graph" transform="scale(1 1) rotate(0) translate(4 86)">
<title>VectoObjects.AbstractAxlegearDataDeclarationType_v1_0</title>
<!-- Node1 -->
<g id="Node000001" class="node">
<title>Node1</title>
<g id="a_Node000001"><a xlink:title=" ">
<polygon fill="#999999" stroke="#666666" points="336.5,-57 184,-57 184,-25 336.5,-25 336.5,-57"/>
<text xml:space="preserve" text-anchor="start" x="192" y="-43.5" font-family="Helvetica,sans-Serif" font-size="10.00">VectoObjects.AbstractAxlegear</text>
<text xml:space="preserve" text-anchor="middle" x="260.25" y="-31.5" font-family="Helvetica,sans-Serif" font-size="10.00">DataDeclarationType_v1_0</text>
</a>
</g>
</g>
<!-- Node3 -->
<g id="Node000003" class="node">
<title>Node3</title>
<g id="a_Node000003"><a xlink:href="class_vecto_objects_1_1_axlegear_data_declaration_type__v1__0.html" target="_top" xlink:title=" ">
<polygon fill="white" stroke="#666666" points="509.25,-82 372.5,-82 372.5,-50 509.25,-50 509.25,-82"/>
<text xml:space="preserve" text-anchor="start" x="380.5" y="-68.5" font-family="Helvetica,sans-Serif" font-size="10.00">VectoObjects.AxlegearData</text>
<text xml:space="preserve" text-anchor="middle" x="440.88" y="-56.5" font-family="Helvetica,sans-Serif" font-size="10.00">DeclarationType_v1_0</text>
</a>
</g>
</g>
<!-- Node1&#45;&gt;Node3 -->
<g id="edge2_Node000001_Node000003" class="edge">
<title>Node1&#45;&gt;Node3</title>
<g id="a_edge2_Node000001_Node000003"><a xlink:title=" ">
<path fill="none" stroke="#63b8ff" d="M348.07,-53.15C356.11,-54.28 364.19,-55.41 372.02,-56.5"/>
<polygon fill="#63b8ff" stroke="#63b8ff" points="348.63,-49.7 338.24,-51.78 347.66,-56.63 348.63,-49.7"/>
</a>
</g>
</g>
<!-- Node4 -->
<g id="Node000004" class="node">
<title>Node4</title>
<g id="a_Node000004"><a xlink:href="class_vecto_objects_1_1_axlegear_data_declaration_type__v2__0.html" target="_top" xlink:title=" ">
<polygon fill="white" stroke="#666666" points="509.25,-32 372.5,-32 372.5,0 509.25,0 509.25,-32"/>
<text xml:space="preserve" text-anchor="start" x="380.5" y="-18.5" font-family="Helvetica,sans-Serif" font-size="10.00">VectoObjects.AxlegearData</text>
<text xml:space="preserve" text-anchor="middle" x="440.88" y="-6.5" font-family="Helvetica,sans-Serif" font-size="10.00">DeclarationType_v2_0</text>
</a>
</g>
</g>
<!-- Node1&#45;&gt;Node4 -->
<g id="edge3_Node000001_Node000004" class="edge">
<title>Node1&#45;&gt;Node4</title>
<g id="a_edge3_Node000001_Node000004"><a xlink:title=" ">
<path fill="none" stroke="#63b8ff" d="M348.07,-28.85C356.11,-27.72 364.19,-26.59 372.02,-25.5"/>
<polygon fill="#63b8ff" stroke="#63b8ff" points="347.66,-25.37 338.24,-30.22 348.63,-32.3 347.66,-25.37"/>
</a>
</g>
</g>
<!-- Node2 -->
<g id="Node000002" class="node">
<title>Node2</title>
<g id="a_Node000002"><a xlink:href="class_vecto_objects_1_1_vecto_simulation_component__v1__0.html" target="_top" xlink:title=" ">
<polygon fill="white" stroke="#bfbfbf" points="148,-57 0,-57 0,-25 148,-25 148,-57"/>
<text xml:space="preserve" text-anchor="start" x="8" y="-43.5" font-family="Helvetica,sans-Serif" font-size="10.00">VectoObjects.VectoSimulation</text>
<text xml:space="preserve" text-anchor="middle" x="74" y="-31.5" font-family="Helvetica,sans-Serif" font-size="10.00">Component_v1_0</text>
</a>
</g>
</g>
<!-- Node2&#45;&gt;Node1 -->
<g id="edge1_Node000001_Node000002" class="edge">
<title>Node2&#45;&gt;Node1</title>
<g id="a_edge1_Node000001_Node000002"><a xlink:title=" ">
<path fill="none" stroke="#63b8ff" d="M159.64,-41C167.68,-41 175.79,-41 183.74,-41"/>
<polygon fill="#63b8ff" stroke="#63b8ff" points="159.86,-37.5 149.86,-41 159.86,-44.5 159.86,-37.5"/>
</a>
</g>
</g>
</g>
</svg>
