<?xml version="1.0" encoding="UTF-8" standalone="no"?>
<!DOCTYPE svg PUBLIC "-//W3C//DTD SVG 1.1//EN"
 "http://www.w3.org/Graphics/SVG/1.1/DTD/svg11.dtd">
<!-- Generated by graphviz version 14.0.2 (20251019.1705)
 -->
<!-- Title: VectoInputManager.Cli.XmlToJsonConverterCommand.Settings Pages: 1 -->
<svg width="182pt" height="164pt"
 viewBox="0.00 0.00 182.00 164.00" xmlns="http://www.w3.org/2000/svg" xmlns:xlink="http://www.w3.org/1999/xlink">
<g id="graph0" class="graph" transform="scale(1 1) rotate(0) translate(4 160)">
<title>VectoInputManager.Cli.XmlToJsonConverterCommand.Settings</title>
<!-- Node1 -->
<g id="Node000001" class="node">
<title>Node1</title>
<g id="a_Node000001"><a xlink:title=" ">
<polygon fill="#999999" stroke="#666666" points="174.25,-32 0,-32 0,0 174.25,0 174.25,-32"/>
<text xml:space="preserve" text-anchor="start" x="8" y="-18.5" font-family="Helvetica,sans-Serif" font-size="10.00">VectoInputManager.Cli.Xml</text>
<text xml:space="preserve" text-anchor="middle" x="87.12" y="-6.5" font-family="Helvetica,sans-Serif" font-size="10.00">ToJsonConverterCommand.Settings</text>
</a>
</g>
</g>
<!-- Node2 -->
<g id="Node000002" class="node">
<title>Node2</title>
<g id="a_Node000002"><a xlink:href="class_vecto_input_manager_1_1_cli_1_1_common_command_settings.html" target="_top" xlink:title="Base settings for all CLI commands, including a common verbose logging option. When verbose is enable...">
<polygon fill="white" stroke="#666666" points="166,-100 8.25,-100 8.25,-68 166,-68 166,-100"/>
<text xml:space="preserve" text-anchor="start" x="16.25" y="-86.5" font-family="Helvetica,sans-Serif" font-size="10.00">VectoInputManager.Cli.Common</text>
<text xml:space="preserve" text-anchor="middle" x="87.12" y="-74.5" font-family="Helvetica,sans-Serif" font-size="10.00">CommandSettings</text>
</a>
</g>
</g>
<!-- Node2&#45;&gt;Node1 -->
<g id="edge1_Node000001_Node000002" class="edge">
<title>Node2&#45;&gt;Node1</title>
<g id="a_edge1_Node000001_Node000002"><a xlink:title=" ">
<path fill="none" stroke="#63b8ff" d="M87.12,-56.31C87.12,-48.12 87.12,-39.38 87.12,-32.22"/>
<polygon fill="#63b8ff" stroke="#63b8ff" points="83.63,-56.18 87.13,-66.18 90.63,-56.18 83.63,-56.18"/>
</a>
</g>
</g>
<!-- Node3 -->
<g id="Node000003" class="node">
<title>Node3</title>
<g id="a_Node000003"><a xlink:title=" ">
<polygon fill="white" stroke="#bfbfbf" points="135.62,-156 38.62,-156 38.62,-136 135.62,-136 135.62,-156"/>
<text xml:space="preserve" text-anchor="middle" x="87.12" y="-142.5" font-family="Helvetica,sans-Serif" font-size="10.00">CommandSettings</text>
</a>
</g>
</g>
<!-- Node3&#45;&gt;Node2 -->
<g id="edge2_Node000002_Node000003" class="edge">
<title>Node3&#45;&gt;Node2</title>
<g id="a_edge2_Node000002_Node000003"><a xlink:title=" ">
<path fill="none" stroke="#63b8ff" d="M87.12,-124.31C87.12,-116.37 87.12,-107.46 87.12,-100.14"/>
<polygon fill="#63b8ff" stroke="#63b8ff" points="83.63,-124.11 87.13,-134.11 90.63,-124.11 83.63,-124.11"/>
</a>
</g>
</g>
</g>
</svg>
