<?xml version="1.0" encoding="UTF-8" standalone="no"?>
<!DOCTYPE svg PUBLIC "-//W3C//DTD SVG 1.1//EN"
 "http://www.w3.org/Graphics/SVG/1.1/DTD/svg11.dtd">
<!-- Generated by graphviz version 14.0.2 (20251019.1705)
 -->
<!-- Title: VectoInputManager.Cli.CommonCommandSettings Pages: 1 -->
<svg width="509pt" height="190pt"
 viewBox="0.00 0.00 509.00 190.00" xmlns="http://www.w3.org/2000/svg" xmlns:xlink="http://www.w3.org/1999/xlink">
<g id="graph0" class="graph" transform="scale(1 1) rotate(0) translate(4 186)">
<title>VectoInputManager.Cli.CommonCommandSettings</title>
<!-- Node1 -->
<g id="Node000001" class="node">
<title>Node1</title>
<g id="a_Node000001"><a xlink:title="Base settings for all CLI commands, including a common verbose logging option. When verbose is enable...">
<polygon fill="#999999" stroke="#666666" points="290.75,-107 133,-107 133,-75 290.75,-75 290.75,-107"/>
<text xml:space="preserve" text-anchor="start" x="141" y="-93.5" font-family="Helvetica,sans-Serif" font-size="10.00">VectoInputManager.Cli.Common</text>
<text xml:space="preserve" text-anchor="middle" x="211.88" y="-81.5" font-family="Helvetica,sans-Serif" font-size="10.00">CommandSettings</text>
</a>
</g>
</g>
<!-- Node3 -->
<g id="Node000003" class="node">
<title>Node3</title>
<g id="a_Node000003"><a xlink:href="class_vecto_input_manager_1_1_cli_1_1_component_extractor_command_1_1_settings.html" target="_top" xlink:title=" ">
<polygon fill="white" stroke="#bfbfbf" points="498,-182 329.75,-182 329.75,-150 498,-150 498,-182"/>
<text xml:space="preserve" text-anchor="start" x="337.75" y="-168.5" font-family="Helvetica,sans-Serif" font-size="10.00">VectoInputManager.Cli.Component</text>
<text xml:space="preserve" text-anchor="middle" x="413.88" y="-156.5" font-family="Helvetica,sans-Serif" font-size="10.00">ExtractorCommand.Settings</text>
</a>
</g>
</g>
<!-- Node1&#45;&gt;Node3 -->
<g id="edge2_Node000001_Node000003" class="edge">
<title>Node1&#45;&gt;Node3</title>
<g id="a_edge2_Node000001_Node000003"><a xlink:title=" ">
<path fill="none" stroke="#63b8ff" d="M257.24,-112.1C278.08,-121.59 303.42,-132.53 326.75,-141 334.95,-143.97 343.68,-146.84 352.32,-149.51"/>
<polygon fill="#63b8ff" stroke="#63b8ff" points="258.7,-108.92 248.16,-107.92 255.78,-115.28 258.7,-108.92"/>
</a>
</g>
</g>
<!-- Node4 -->
<g id="Node000004" class="node">
<title>Node4</title>
<g id="a_Node000004"><a xlink:href="class_vecto_input_manager_1_1_cli_1_1_job_creator_command_1_1_settings.html" target="_top" xlink:title=" ">
<polygon fill="white" stroke="#bfbfbf" points="480.75,-132 347,-132 347,-100 480.75,-100 480.75,-132"/>
<text xml:space="preserve" text-anchor="start" x="355" y="-118.5" font-family="Helvetica,sans-Serif" font-size="10.00">VectoInputManager.Cli.Job</text>
<text xml:space="preserve" text-anchor="middle" x="413.88" y="-106.5" font-family="Helvetica,sans-Serif" font-size="10.00">CreatorCommand.Settings</text>
</a>
</g>
</g>
<!-- Node1&#45;&gt;Node4 -->
<g id="edge3_Node000001_Node000004" class="edge">
<title>Node1&#45;&gt;Node4</title>
<g id="a_edge3_Node000001_Node000004"><a xlink:title=" ">
<path fill="none" stroke="#63b8ff" d="M302.38,-102.19C317.3,-104.05 332.53,-105.96 346.72,-107.73"/>
<polygon fill="#63b8ff" stroke="#63b8ff" points="302.92,-98.73 292.56,-100.96 302.05,-105.67 302.92,-98.73"/>
</a>
</g>
</g>
<!-- Node5 -->
<g id="Node000005" class="node">
<title>Node5</title>
<g id="a_Node000005"><a xlink:href="class_vecto_input_manager_1_1_cli_1_1_standard_values_command_1_1_settings.html" target="_top" xlink:title=" ">
<polygon fill="white" stroke="#bfbfbf" points="492.38,-82 335.38,-82 335.38,-50 492.38,-50 492.38,-82"/>
<text xml:space="preserve" text-anchor="start" x="343.38" y="-68.5" font-family="Helvetica,sans-Serif" font-size="10.00">VectoInputManager.Cli.Standard</text>
<text xml:space="preserve" text-anchor="middle" x="413.88" y="-56.5" font-family="Helvetica,sans-Serif" font-size="10.00">ValuesCommand.Settings</text>
</a>
</g>
</g>
<!-- Node1&#45;&gt;Node5 -->
<g id="edge4_Node000001_Node000005" class="edge">
<title>Node1&#45;&gt;Node5</title>
<g id="a_edge4_Node000001_Node000005"><a xlink:title=" ">
<path fill="none" stroke="#63b8ff" d="M302.35,-79.82C313.26,-78.45 324.35,-77.07 335.07,-75.73"/>
<polygon fill="#63b8ff" stroke="#63b8ff" points="302.05,-76.33 292.56,-81.04 302.92,-83.27 302.05,-76.33"/>
</a>
</g>
</g>
<!-- Node6 -->
<g id="Node000006" class="node">
<title>Node6</title>
<g id="a_Node000006"><a xlink:href="class_vecto_input_manager_1_1_cli_1_1_xml_to_json_converter_command_1_1_settings.html" target="_top" xlink:title=" ">
<polygon fill="white" stroke="#bfbfbf" points="501,-32 326.75,-32 326.75,0 501,0 501,-32"/>
<text xml:space="preserve" text-anchor="start" x="334.75" y="-18.5" font-family="Helvetica,sans-Serif" font-size="10.00">VectoInputManager.Cli.Xml</text>
<text xml:space="preserve" text-anchor="middle" x="413.88" y="-6.5" font-family="Helvetica,sans-Serif" font-size="10.00">ToJsonConverterCommand.Settings</text>
</a>
</g>
</g>
<!-- Node1&#45;&gt;Node6 -->
<g id="edge5_Node000001_Node000006" class="edge">
<title>Node1&#45;&gt;Node6</title>
<g id="a_edge5_Node000001_Node000006"><a xlink:title=" ">
<path fill="none" stroke="#63b8ff" d="M257.24,-69.9C278.08,-60.41 303.42,-49.47 326.75,-41 334.95,-38.03 343.68,-35.16 352.32,-32.49"/>
<polygon fill="#63b8ff" stroke="#63b8ff" points="255.78,-66.72 248.16,-74.08 258.7,-73.08 255.78,-66.72"/>
</a>
</g>
</g>
<!-- Node2 -->
<g id="Node000002" class="node">
<title>Node2</title>
<g id="a_Node000002"><a xlink:title=" ">
<polygon fill="white" stroke="#bfbfbf" points="97,-101 0,-101 0,-81 97,-81 97,-101"/>
<text xml:space="preserve" text-anchor="middle" x="48.5" y="-87.5" font-family="Helvetica,sans-Serif" font-size="10.00">CommandSettings</text>
</a>
</g>
</g>
<!-- Node2&#45;&gt;Node1 -->
<g id="edge1_Node000001_Node000002" class="edge">
<title>Node2&#45;&gt;Node1</title>
<g id="a_edge1_Node000001_Node000002"><a xlink:title=" ">
<path fill="none" stroke="#63b8ff" d="M108.92,-91C116.62,-91 124.6,-91 132.55,-91"/>
<polygon fill="#63b8ff" stroke="#63b8ff" points="108.99,-87.5 98.99,-91 108.99,-94.5 108.99,-87.5"/>
</a>
</g>
</g>
</g>
</svg>
