<?xml version="1.0" encoding="UTF-8" standalone="no"?>
<!DOCTYPE svg PUBLIC "-//W3C//DTD SVG 1.1//EN"
 "http://www.w3.org/Graphics/SVG/1.1/DTD/svg11.dtd">
<!-- Generated by graphviz version 14.0.2 (20251019.1705)
 -->
<!-- Title: VectoObjects.AbstractTransmissionDataDeclarationType_v1_0 Pages: 1 -->
<svg width="559pt" height="190pt"
 viewBox="0.00 0.00 559.00 190.00" xmlns="http://www.w3.org/2000/svg" xmlns:xlink="http://www.w3.org/1999/xlink">
<g id="graph0" class="graph" transform="scale(1 1) rotate(0) translate(4 186)">
<title>VectoObjects.AbstractTransmissionDataDeclarationType_v1_0</title>
<!-- Node1 -->
<g id="Node000001" class="node">
<title>Node1</title>
<g id="a_Node000001"><a xlink:title=" ">
<polygon fill="#999999" stroke="#666666" points="356.75,-107 184,-107 184,-75 356.75,-75 356.75,-107"/>
<text xml:space="preserve" text-anchor="start" x="192" y="-93.5" font-family="Helvetica,sans-Serif" font-size="10.00">VectoObjects.AbstractTransmission</text>
<text xml:space="preserve" text-anchor="middle" x="270.38" y="-81.5" font-family="Helvetica,sans-Serif" font-size="10.00">DataDeclarationType_v1_0</text>
</a>
</g>
</g>
<!-- Node3 -->
<g id="Node000003" class="node">
<title>Node3</title>
<g id="a_Node000003"><a xlink:href="class_vecto_objects_1_1_gearbox_data_declaration_type__v1__0.html" target="_top" xlink:title=" ">
<polygon fill="white" stroke="#666666" points="539.62,-182 404.38,-182 404.38,-150 539.62,-150 539.62,-182"/>
<text xml:space="preserve" text-anchor="start" x="412.38" y="-168.5" font-family="Helvetica,sans-Serif" font-size="10.00">VectoObjects.GearboxData</text>
<text xml:space="preserve" text-anchor="middle" x="472" y="-156.5" font-family="Helvetica,sans-Serif" font-size="10.00">DeclarationType_v1_0</text>
</a>
</g>
</g>
<!-- Node1&#45;&gt;Node3 -->
<g id="edge2_Node000001_Node000003" class="edge">
<title>Node1&#45;&gt;Node3</title>
<g id="a_edge2_Node000001_Node000003"><a xlink:title=" ">
<path fill="none" stroke="#63b8ff" d="M319.53,-111.89C341.67,-121.23 368.37,-132.1 392.75,-141 400.79,-143.93 409.36,-146.87 417.77,-149.64"/>
<polygon fill="#63b8ff" stroke="#63b8ff" points="321.02,-108.73 310.45,-108.04 318.29,-115.17 321.02,-108.73"/>
</a>
</g>
</g>
<!-- Node4 -->
<g id="Node000004" class="node">
<title>Node4</title>
<g id="a_Node000004"><a xlink:href="class_vecto_objects_1_1_gearbox_data_declaration_type__v2__0.html" target="_top" xlink:title=" ">
<polygon fill="white" stroke="#666666" points="539.62,-132 404.38,-132 404.38,-100 539.62,-100 539.62,-132"/>
<text xml:space="preserve" text-anchor="start" x="412.38" y="-118.5" font-family="Helvetica,sans-Serif" font-size="10.00">VectoObjects.GearboxData</text>
<text xml:space="preserve" text-anchor="middle" x="472" y="-106.5" font-family="Helvetica,sans-Serif" font-size="10.00">DeclarationType_v2_0</text>
</a>
</g>
</g>
<!-- Node1&#45;&gt;Node4 -->
<g id="edge3_Node000001_Node000004" class="edge">
<title>Node1&#45;&gt;Node4</title>
<g id="a_edge3_Node000001_Node000004"><a xlink:title=" ">
<path fill="none" stroke="#63b8ff" d="M368.62,-103.18C380.57,-104.67 392.57,-106.18 403.94,-107.6"/>
<polygon fill="#63b8ff" stroke="#63b8ff" points="369.05,-99.71 358.69,-101.94 368.18,-106.65 369.05,-99.71"/>
</a>
</g>
</g>
<!-- Node5 -->
<g id="Node000005" class="node">
<title>Node5</title>
<g id="a_Node000005"><a xlink:href="class_vecto_objects_1_1_gearbox_data_declaration_type__v2__3.html" target="_top" xlink:title=" ">
<polygon fill="white" stroke="#666666" points="539.62,-82 404.38,-82 404.38,-50 539.62,-50 539.62,-82"/>
<text xml:space="preserve" text-anchor="start" x="412.38" y="-68.5" font-family="Helvetica,sans-Serif" font-size="10.00">VectoObjects.GearboxData</text>
<text xml:space="preserve" text-anchor="middle" x="472" y="-56.5" font-family="Helvetica,sans-Serif" font-size="10.00">DeclarationType_v2_3</text>
</a>
</g>
</g>
<!-- Node1&#45;&gt;Node5 -->
<g id="edge4_Node000001_Node000005" class="edge">
<title>Node1&#45;&gt;Node5</title>
<g id="a_edge4_Node000001_Node000005"><a xlink:title=" ">
<path fill="none" stroke="#63b8ff" d="M368.62,-78.82C380.57,-77.33 392.57,-75.82 403.94,-74.4"/>
<polygon fill="#63b8ff" stroke="#63b8ff" points="368.18,-75.35 358.69,-80.06 369.05,-82.29 368.18,-75.35"/>
</a>
</g>
</g>
<!-- Node6 -->
<g id="Node000006" class="node">
<title>Node6</title>
<g id="a_Node000006"><a xlink:href="class_vecto_objects_1_1_gearbox_f_w_d_data_declaration_type__v2__3.html" target="_top" xlink:title=" ">
<polygon fill="white" stroke="#666666" points="551.25,-32 392.75,-32 392.75,0 551.25,0 551.25,-32"/>
<text xml:space="preserve" text-anchor="start" x="400.75" y="-18.5" font-family="Helvetica,sans-Serif" font-size="10.00">VectoObjects.GearboxFWDData</text>
<text xml:space="preserve" text-anchor="middle" x="472" y="-6.5" font-family="Helvetica,sans-Serif" font-size="10.00">DeclarationType_v2_3</text>
</a>
</g>
</g>
<!-- Node1&#45;&gt;Node6 -->
<g id="edge5_Node000001_Node000006" class="edge">
<title>Node1&#45;&gt;Node6</title>
<g id="a_edge5_Node000001_Node000006"><a xlink:title=" ">
<path fill="none" stroke="#63b8ff" d="M319.53,-70.11C341.67,-60.77 368.37,-49.9 392.75,-41 400.79,-38.07 409.36,-35.13 417.77,-32.36"/>
<polygon fill="#63b8ff" stroke="#63b8ff" points="318.29,-66.83 310.45,-73.96 321.02,-73.27 318.29,-66.83"/>
</a>
</g>
</g>
<!-- Node2 -->
<g id="Node000002" class="node">
<title>Node2</title>
<g id="a_Node000002"><a xlink:href="class_vecto_objects_1_1_vecto_simulation_component__v1__0.html" target="_top" xlink:title=" ">
<polygon fill="white" stroke="#bfbfbf" points="148,-107 0,-107 0,-75 148,-75 148,-107"/>
<text xml:space="preserve" text-anchor="start" x="8" y="-93.5" font-family="Helvetica,sans-Serif" font-size="10.00">VectoObjects.VectoSimulation</text>
<text xml:space="preserve" text-anchor="middle" x="74" y="-81.5" font-family="Helvetica,sans-Serif" font-size="10.00">Component_v1_0</text>
</a>
</g>
</g>
<!-- Node2&#45;&gt;Node1 -->
<g id="edge1_Node000001_Node000002" class="edge">
<title>Node2&#45;&gt;Node1</title>
<g id="a_edge1_Node000001_Node000002"><a xlink:title=" ">
<path fill="none" stroke="#63b8ff" d="M159.94,-91C167.82,-91 175.82,-91 183.71,-91"/>
<polygon fill="#63b8ff" stroke="#63b8ff" points="160,-87.5 150,-91 160,-94.5 160,-87.5"/>
</a>
</g>
</g>
</g>
</svg>
