<?xml version="1.0" encoding="UTF-8" standalone="no"?>
<!DOCTYPE svg PUBLIC "-//W3C//DTD SVG 1.1//EN"
 "http://www.w3.org/Graphics/SVG/1.1/DTD/svg11.dtd">
<!-- Generated by graphviz version 14.0.2 (20251019.1705)
 -->
<!-- Title: VectoObjects.AbstractTorqueConverterDataDeclarationType_v1_0 Pages: 1 -->
<svg width="554pt" height="90pt"
 viewBox="0.00 0.00 554.00 90.00" xmlns="http://www.w3.org/2000/svg" xmlns:xlink="http://www.w3.org/1999/xlink">
<g id="graph0" class="graph" transform="scale(1 1) rotate(0) translate(4 86)">
<title>VectoObjects.AbstractTorqueConverterDataDeclarationType_v1_0</title>
<!-- Node1 -->
<g id="Node000001" class="node">
<title>Node1</title>
<g id="a_Node000001"><a xlink:title=" ">
<polygon fill="#999999" stroke="#666666" points="360.5,-57 184,-57 184,-25 360.5,-25 360.5,-57"/>
<text xml:space="preserve" text-anchor="start" x="192" y="-43.5" font-family="Helvetica,sans-Serif" font-size="10.00">VectoObjects.AbstractTorque</text>
<text xml:space="preserve" text-anchor="middle" x="272.25" y="-31.5" font-family="Helvetica,sans-Serif" font-size="10.00">ConverterDataDeclarationType_v1_0</text>
</a>
</g>
</g>
<!-- Node3 -->
<g id="Node000003" class="node">
<title>Node3</title>
<g id="a_Node000003"><a xlink:href="class_vecto_objects_1_1_torque_converter_data_declaration_type__v1__0.html" target="_top" xlink:title=" ">
<polygon fill="white" stroke="#bfbfbf" points="546,-82 396.5,-82 396.5,-50 546,-50 546,-82"/>
<text xml:space="preserve" text-anchor="start" x="404.5" y="-68.5" font-family="Helvetica,sans-Serif" font-size="10.00">VectoObjects.TorqueConverter</text>
<text xml:space="preserve" text-anchor="middle" x="471.25" y="-56.5" font-family="Helvetica,sans-Serif" font-size="10.00">DataDeclarationType_v1_0</text>
</a>
</g>
</g>
<!-- Node1&#45;&gt;Node3 -->
<g id="edge2_Node000001_Node000003" class="edge">
<title>Node1&#45;&gt;Node3</title>
<g id="a_edge2_Node000001_Node000003"><a xlink:title=" ">
<path fill="none" stroke="#63b8ff" d="M372.2,-53.56C380.28,-54.58 388.35,-55.61 396.2,-56.6"/>
<polygon fill="#63b8ff" stroke="#63b8ff" points="372.67,-50.09 362.31,-52.3 371.79,-57.03 372.67,-50.09"/>
</a>
</g>
</g>
<!-- Node4 -->
<g id="Node000004" class="node">
<title>Node4</title>
<g id="a_Node000004"><a xlink:href="class_vecto_objects_1_1_torque_converter_data_declaration_type__v2__0.html" target="_top" xlink:title=" ">
<polygon fill="white" stroke="#bfbfbf" points="546,-32 396.5,-32 396.5,0 546,0 546,-32"/>
<text xml:space="preserve" text-anchor="start" x="404.5" y="-18.5" font-family="Helvetica,sans-Serif" font-size="10.00">VectoObjects.TorqueConverter</text>
<text xml:space="preserve" text-anchor="middle" x="471.25" y="-6.5" font-family="Helvetica,sans-Serif" font-size="10.00">DataDeclarationType_v2_0</text>
</a>
</g>
</g>
<!-- Node1&#45;&gt;Node4 -->
<g id="edge3_Node000001_Node000004" class="edge">
<title>Node1&#45;&gt;Node4</title>
<g id="a_edge3_Node000001_Node000004"><a xlink:title=" ">
<path fill="none" stroke="#63b8ff" d="M372.2,-28.44C380.28,-27.42 388.35,-26.39 396.2,-25.4"/>
<polygon fill="#63b8ff" stroke="#63b8ff" points="371.79,-24.97 362.31,-29.7 372.67,-31.91 371.79,-24.97"/>
</a>
</g>
</g>
<!-- Node2 -->
<g id="Node000002" class="node">
<title>Node2</title>
<g id="a_Node000002"><a xlink:href="class_vecto_objects_1_1_vecto_simulation_component__v1__0.html" target="_top" xlink:title=" ">
<polygon fill="white" stroke="#bfbfbf" points="148,-57 0,-57 0,-25 148,-25 148,-57"/>
<text xml:space="preserve" text-anchor="start" x="8" y="-43.5" font-family="Helvetica,sans-Serif" font-size="10.00">VectoObjects.VectoSimulation</text>
<text xml:space="preserve" text-anchor="middle" x="74" y="-31.5" font-family="Helvetica,sans-Serif" font-size="10.00">Component_v1_0</text>
</a>
</g>
</g>
<!-- Node2&#45;&gt;Node1 -->
<g id="edge1_Node000001_Node000002" class="edge">
<title>Node2&#45;&gt;Node1</title>
<g id="a_edge1_Node000001_Node000002"><a xlink:title=" ">
<path fill="none" stroke="#63b8ff" d="M159.85,-41C167.77,-41 175.8,-41 183.75,-41"/>
<polygon fill="#63b8ff" stroke="#63b8ff" points="159.87,-37.5 149.87,-41 159.87,-44.5 159.87,-37.5"/>
</a>
</g>
</g>
</g>
</svg>
