<?xml version="1.0" encoding="UTF-8" standalone="no"?>
<!DOCTYPE svg PUBLIC "-//W3C//DTD SVG 1.1//EN"
 "http://www.w3.org/Graphics/SVG/1.1/DTD/svg11.dtd">
<!-- Generated by graphviz version 14.0.2 (20251019.1705)
 -->
<!-- Title: VectoObjects.BatterySystemDataType_v2_3 Pages: 1 -->
<svg width="728pt" height="90pt"
 viewBox="0.00 0.00 728.00 90.00" xmlns="http://www.w3.org/2000/svg" xmlns:xlink="http://www.w3.org/1999/xlink">
<g id="graph0" class="graph" transform="scale(1 1) rotate(0) translate(4 86)">
<title>VectoObjects.BatterySystemDataType_v2_3</title>
<!-- Node1 -->
<g id="Node000001" class="node">
<title>Node1</title>
<g id="a_Node000001"><a xlink:title=" ">
<polygon fill="#999999" stroke="#666666" points="720.25,-57 577.5,-57 577.5,-25 720.25,-25 720.25,-57"/>
<text xml:space="preserve" text-anchor="start" x="585.5" y="-43.5" font-family="Helvetica,sans-Serif" font-size="10.00">VectoObjects.BatterySystem</text>
<text xml:space="preserve" text-anchor="middle" x="648.88" y="-31.5" font-family="Helvetica,sans-Serif" font-size="10.00">DataType_v2_3</text>
</a>
</g>
</g>
<!-- Node2 -->
<g id="Node000002" class="node">
<title>Node2</title>
<g id="a_Node000002"><a xlink:href="class_vecto_objects_1_1_abstract_battery_system_data_type__v2__3.html" target="_top" xlink:title=" ">
<polygon fill="white" stroke="#bfbfbf" points="538.5,-82 392.75,-82 392.75,-50 538.5,-50 538.5,-82"/>
<text xml:space="preserve" text-anchor="start" x="400.75" y="-68.5" font-family="Helvetica,sans-Serif" font-size="10.00">VectoObjects.AbstractBattery</text>
<text xml:space="preserve" text-anchor="middle" x="465.62" y="-56.5" font-family="Helvetica,sans-Serif" font-size="10.00">SystemDataType_v2_3</text>
</a>
</g>
</g>
<!-- Node2&#45;&gt;Node1 -->
<g id="edge1_Node000001_Node000002" class="edge">
<title>Node2&#45;&gt;Node1</title>
<g id="a_edge1_Node000001_Node000002"><a xlink:title=" ">
<path fill="none" stroke="#63b8ff" d="M550.14,-54.48C559.17,-53.24 568.29,-51.98 577.15,-50.76"/>
<polygon fill="#63b8ff" stroke="#63b8ff" points="549.71,-51.01 540.28,-55.84 550.66,-57.94 549.71,-51.01"/>
</a>
</g>
</g>
<!-- Node3 -->
<g id="Node000003" class="node">
<title>Node3</title>
<g id="a_Node000003"><a xlink:href="class_vecto_objects_1_1_abstract_r_e_e_s_s_data_type__v2__3.html" target="_top" xlink:title=" ">
<polygon fill="white" stroke="#bfbfbf" points="353.75,-82 184,-82 184,-50 353.75,-50 353.75,-82"/>
<text xml:space="preserve" text-anchor="start" x="192" y="-68.5" font-family="Helvetica,sans-Serif" font-size="10.00">VectoObjects.AbstractREESSData</text>
<text xml:space="preserve" text-anchor="middle" x="268.88" y="-56.5" font-family="Helvetica,sans-Serif" font-size="10.00">Type_v2_3</text>
</a>
</g>
</g>
<!-- Node3&#45;&gt;Node2 -->
<g id="edge2_Node000002_Node000003" class="edge">
<title>Node3&#45;&gt;Node2</title>
<g id="a_edge2_Node000002_Node000003"><a xlink:title=" ">
<path fill="none" stroke="#63b8ff" d="M365.57,-66C374.61,-66 383.66,-66 392.42,-66"/>
<polygon fill="#63b8ff" stroke="#63b8ff" points="365.68,-62.5 355.68,-66 365.68,-69.5 365.68,-62.5"/>
</a>
</g>
</g>
<!-- Node4 -->
<g id="Node000004" class="node">
<title>Node4</title>
<g id="a_Node000004"><a xlink:href="class_vecto_objects_1_1_vecto_simulation_component__v1__0.html" target="_top" xlink:title=" ">
<polygon fill="white" stroke="#bfbfbf" points="148,-82 0,-82 0,-50 148,-50 148,-82"/>
<text xml:space="preserve" text-anchor="start" x="8" y="-68.5" font-family="Helvetica,sans-Serif" font-size="10.00">VectoObjects.VectoSimulation</text>
<text xml:space="preserve" text-anchor="middle" x="74" y="-56.5" font-family="Helvetica,sans-Serif" font-size="10.00">Component_v1_0</text>
</a>
</g>
</g>
<!-- Node4&#45;&gt;Node3 -->
<g id="edge3_Node000003_Node000004" class="edge">
<title>Node4&#45;&gt;Node3</title>
<g id="a_edge3_Node000003_Node000004"><a xlink:title=" ">
<path fill="none" stroke="#63b8ff" d="M159.91,-66C167.79,-66 175.77,-66 183.64,-66"/>
<polygon fill="#63b8ff" stroke="#63b8ff" points="159.98,-62.5 149.98,-66 159.98,-69.5 159.98,-62.5"/>
</a>
</g>
</g>
<!-- Node5 -->
<g id="Node000005" class="node">
<title>Node5</title>
<g id="a_Node000005"><a xlink:href="interface_vecto_objects_1_1_i_component_data_declaration.html" target="_top" xlink:title=" ">
<polygon fill="white" stroke="#bfbfbf" points="541.5,-32 389.75,-32 389.75,0 541.5,0 541.5,-32"/>
<text xml:space="preserve" text-anchor="start" x="397.75" y="-18.5" font-family="Helvetica,sans-Serif" font-size="10.00">VectoObjects.IComponentData</text>
<text xml:space="preserve" text-anchor="middle" x="465.62" y="-6.5" font-family="Helvetica,sans-Serif" font-size="10.00">Declaration</text>
</a>
</g>
</g>
<!-- Node5&#45;&gt;Node1 -->
<g id="edge4_Node000001_Node000005" class="edge">
<title>Node5&#45;&gt;Node1</title>
<g id="a_edge4_Node000001_Node000005"><a xlink:title=" ">
<path fill="none" stroke="#63b8ff" d="M553.21,-27.94C561.24,-29.05 569.31,-30.16 577.17,-31.25"/>
<polygon fill="#63b8ff" stroke="#63b8ff" points="553.8,-24.49 543.42,-26.59 552.84,-31.43 553.8,-24.49"/>
</a>
</g>
</g>
</g>
</svg>
