<?xml version="1.0" encoding="UTF-8" standalone="no"?>
<!DOCTYPE svg PUBLIC "-//W3C//DTD SVG 1.1//EN"
 "http://www.w3.org/Graphics/SVG/1.1/DTD/svg11.dtd">
<!-- Generated by graphviz version 14.0.2 (20251019.1705)
 -->
<!-- Title: VectoObjects.AbstractAirdragDataDeclarationType_v1_0 Pages: 1 -->
<svg width="520pt" height="240pt"
 viewBox="0.00 0.00 520.00 240.00" xmlns="http://www.w3.org/2000/svg" xmlns:xlink="http://www.w3.org/1999/xlink">
<g id="graph0" class="graph" transform="scale(1 1) rotate(0) translate(4 236)">
<title>VectoObjects.AbstractAirdragDataDeclarationType_v1_0</title>
<!-- Node1 -->
<g id="Node000001" class="node">
<title>Node1</title>
<g id="a_Node000001"><a xlink:title=" ">
<polygon fill="#999999" stroke="#666666" points="329,-132 184,-132 184,-100 329,-100 329,-132"/>
<text xml:space="preserve" text-anchor="start" x="192" y="-118.5" font-family="Helvetica,sans-Serif" font-size="10.00">VectoObjects.AbstractAirdrag</text>
<text xml:space="preserve" text-anchor="middle" x="256.5" y="-106.5" font-family="Helvetica,sans-Serif" font-size="10.00">DataDeclarationType_v1_0</text>
</a>
</g>
</g>
<!-- Node3 -->
<g id="Node000003" class="node">
<title>Node3</title>
<g id="a_Node000003"><a xlink:href="class_vecto_objects_1_1_air_drag_data_declaration_type__v1__0.html" target="_top" xlink:title=" ">
<polygon fill="white" stroke="#bfbfbf" points="504.38,-232 372.88,-232 372.88,-200 504.38,-200 504.38,-232"/>
<text xml:space="preserve" text-anchor="start" x="380.88" y="-218.5" font-family="Helvetica,sans-Serif" font-size="10.00">VectoObjects.AirDragData</text>
<text xml:space="preserve" text-anchor="middle" x="438.62" y="-206.5" font-family="Helvetica,sans-Serif" font-size="10.00">DeclarationType_v1_0</text>
</a>
</g>
</g>
<!-- Node1&#45;&gt;Node3 -->
<g id="edge2_Node000001_Node000003" class="edge">
<title>Node1&#45;&gt;Node3</title>
<g id="a_edge2_Node000001_Node000003"><a xlink:title=" ">
<path fill="none" stroke="#63b8ff" d="M286.39,-139.48C307.27,-155.6 336.68,-176.6 365,-191 371.06,-194.08 377.59,-196.93 384.16,-199.51"/>
<polygon fill="#63b8ff" stroke="#63b8ff" points="288.65,-136.81 278.62,-133.39 284.34,-142.32 288.65,-136.81"/>
</a>
</g>
</g>
<!-- Node4 -->
<g id="Node000004" class="node">
<title>Node4</title>
<g id="a_Node000004"><a xlink:href="class_vecto_objects_1_1_air_drag_data_declaration_type__v2__0.html" target="_top" xlink:title=" ">
<polygon fill="white" stroke="#bfbfbf" points="504.38,-182 372.88,-182 372.88,-150 504.38,-150 504.38,-182"/>
<text xml:space="preserve" text-anchor="start" x="380.88" y="-168.5" font-family="Helvetica,sans-Serif" font-size="10.00">VectoObjects.AirDragData</text>
<text xml:space="preserve" text-anchor="middle" x="438.62" y="-156.5" font-family="Helvetica,sans-Serif" font-size="10.00">DeclarationType_v2_0</text>
</a>
</g>
</g>
<!-- Node1&#45;&gt;Node4 -->
<g id="edge3_Node000001_Node000004" class="edge">
<title>Node1&#45;&gt;Node4</title>
<g id="a_edge3_Node000001_Node000004"><a xlink:title=" ">
<path fill="none" stroke="#63b8ff" d="M327.59,-135.46C344.37,-140.11 362.12,-145.04 378.36,-149.55"/>
<polygon fill="#63b8ff" stroke="#63b8ff" points="328.76,-132.15 318.19,-132.85 326.89,-138.89 328.76,-132.15"/>
</a>
</g>
</g>
<!-- Node5 -->
<g id="Node000005" class="node">
<title>Node5</title>
<g id="a_Node000005"><a xlink:href="class_vecto_objects_1_1_air_drag_data_declaration_type__v2__6.html" target="_top" xlink:title=" ">
<polygon fill="white" stroke="#bfbfbf" points="504.38,-132 372.88,-132 372.88,-100 504.38,-100 504.38,-132"/>
<text xml:space="preserve" text-anchor="start" x="380.88" y="-118.5" font-family="Helvetica,sans-Serif" font-size="10.00">VectoObjects.AirDragData</text>
<text xml:space="preserve" text-anchor="middle" x="438.62" y="-106.5" font-family="Helvetica,sans-Serif" font-size="10.00">DeclarationType_v2_6</text>
</a>
</g>
</g>
<!-- Node1&#45;&gt;Node5 -->
<g id="edge4_Node000001_Node000005" class="edge">
<title>Node1&#45;&gt;Node5</title>
<g id="a_edge4_Node000001_Node000005"><a xlink:title=" ">
<path fill="none" stroke="#63b8ff" d="M340.89,-116C351.5,-116 362.22,-116 372.48,-116"/>
<polygon fill="#63b8ff" stroke="#63b8ff" points="340.98,-112.5 330.98,-116 340.98,-119.5 340.98,-112.5"/>
</a>
</g>
</g>
<!-- Node6 -->
<g id="Node000006" class="node">
<title>Node6</title>
<g id="a_Node000006"><a xlink:href="class_vecto_objects_1_1_air_drag_modified_use_standard_value_type__v2__4.html" target="_top" xlink:title=" ">
<polygon fill="white" stroke="#bfbfbf" points="512.25,-82 365,-82 365,-50 512.25,-50 512.25,-82"/>
<text xml:space="preserve" text-anchor="start" x="373" y="-68.5" font-family="Helvetica,sans-Serif" font-size="10.00">VectoObjects.AirDragModified</text>
<text xml:space="preserve" text-anchor="middle" x="438.62" y="-56.5" font-family="Helvetica,sans-Serif" font-size="10.00">UseStandardValueType_v2_4</text>
</a>
</g>
</g>
<!-- Node1&#45;&gt;Node6 -->
<g id="edge5_Node000001_Node000006" class="edge">
<title>Node1&#45;&gt;Node6</title>
<g id="a_edge5_Node000001_Node000006"><a xlink:title=" ">
<path fill="none" stroke="#63b8ff" d="M327.59,-96.54C344.37,-91.89 362.12,-86.96 378.36,-82.45"/>
<polygon fill="#63b8ff" stroke="#63b8ff" points="326.89,-93.11 318.19,-99.15 328.76,-99.85 326.89,-93.11"/>
</a>
</g>
</g>
<!-- Node7 -->
<g id="Node000007" class="node">
<title>Node7</title>
<g id="a_Node000007"><a xlink:href="class_vecto_objects_1_1_air_drag_modified_use_standard_value_type__v2__7.html" target="_top" xlink:title=" ">
<polygon fill="white" stroke="#bfbfbf" points="512.25,-32 365,-32 365,0 512.25,0 512.25,-32"/>
<text xml:space="preserve" text-anchor="start" x="373" y="-18.5" font-family="Helvetica,sans-Serif" font-size="10.00">VectoObjects.AirDragModified</text>
<text xml:space="preserve" text-anchor="middle" x="438.62" y="-6.5" font-family="Helvetica,sans-Serif" font-size="10.00">UseStandardValueType_v2_7</text>
</a>
</g>
</g>
<!-- Node1&#45;&gt;Node7 -->
<g id="edge6_Node000001_Node000007" class="edge">
<title>Node1&#45;&gt;Node7</title>
<g id="a_edge6_Node000001_Node000007"><a xlink:title=" ">
<path fill="none" stroke="#63b8ff" d="M286.39,-92.52C307.27,-76.4 336.68,-55.4 365,-41 371.06,-37.92 377.59,-35.07 384.16,-32.49"/>
<polygon fill="#63b8ff" stroke="#63b8ff" points="284.34,-89.68 278.62,-98.61 288.65,-95.19 284.34,-89.68"/>
</a>
</g>
</g>
<!-- Node2 -->
<g id="Node000002" class="node">
<title>Node2</title>
<g id="a_Node000002"><a xlink:href="class_vecto_objects_1_1_vecto_simulation_component__v1__0.html" target="_top" xlink:title=" ">
<polygon fill="white" stroke="#bfbfbf" points="148,-132 0,-132 0,-100 148,-100 148,-132"/>
<text xml:space="preserve" text-anchor="start" x="8" y="-118.5" font-family="Helvetica,sans-Serif" font-size="10.00">VectoObjects.VectoSimulation</text>
<text xml:space="preserve" text-anchor="middle" x="74" y="-106.5" font-family="Helvetica,sans-Serif" font-size="10.00">Component_v1_0</text>
</a>
</g>
</g>
<!-- Node2&#45;&gt;Node1 -->
<g id="edge1_Node000001_Node000002" class="edge">
<title>Node2&#45;&gt;Node1</title>
<g id="a_edge1_Node000001_Node000002"><a xlink:title=" ">
<path fill="none" stroke="#63b8ff" d="M159.67,-116C167.68,-116 175.74,-116 183.61,-116"/>
<polygon fill="#63b8ff" stroke="#63b8ff" points="159.93,-112.5 149.93,-116 159.93,-119.5 159.93,-112.5"/>
</a>
</g>
</g>
</g>
</svg>
