<?xml version="1.0" encoding="UTF-8" standalone="no"?>
<!DOCTYPE svg PUBLIC "-//W3C//DTD SVG 1.1//EN"
 "http://www.w3.org/Graphics/SVG/1.1/DTD/svg11.dtd">
<!-- Generated by graphviz version 14.0.2 (20251019.1705)
 -->
<!-- Title: VectoInputManager.Core.BaseInput Pages: 1 -->
<!--zoomable 540 -->

<svg id="main" version="1.1" xmlns="http://www.w3.org/2000/svg" xmlns:xlink="http://www.w3.org/1999/xlink" xml:space="preserve" onload="init(evt)">

<style type="text/css"><![CDATA[
.node, .edge {opacity: 0.7;}
.node.selected, .edge.selected {opacity: 1;}
.edge:hover path { stroke: red; }
.edge:hover polygon { stroke: red; fill: red; }
]]></style>

<defs>
  <circle id="rim" cx="0" cy="0" r="7"/>
  <circle id="rim2" cx="0" cy="0" r="3.5"/>
  <g id="zoomPlus">
    <use xlink:href="#rim" fill="#404040"><set attributeName="fill" to="#808080" begin="zoomplus.mouseover" end="zoomplus.mouseout"/></use>
    <path d="M-4,0h8M0,-4v8" fill="none" stroke="white" stroke-width="1.5" pointer-events="none"/>
  </g>
  <g id="zoomMin">
    <use xlink:href="#rim" fill="#404040"><set attributeName="fill" to="#808080" begin="zoomminus.mouseover" end="zoomminus.mouseout"/></use>
    <path d="M-4,0h8" fill="none" stroke="white" stroke-width="1.5" pointer-events="none"/>
  </g>
  <g id="arrowUp" transform="translate(30 24)">
    <use xlink:href="#rim"/>
    <path pointer-events="none" fill="none" stroke="white" stroke-width="1.5" d="M0,-3.0v7 M-2.5,-0.5L0,-3.0L2.5,-0.5"/>
  </g>
  <g id="arrowRight" transform="rotate(90) translate(36 -43)">
    <use xlink:href="#rim"/>
    <path pointer-events="none" fill="none" stroke="white" stroke-width="1.5" d="M0,-3.0v7 M-2.5,-0.5L0,-3.0L2.5,-0.5"/>
  </g>
  <g id="arrowDown" transform="rotate(180) translate(-30 -48)">
    <use xlink:href="#rim"/>
    <path pointer-events="none" fill="none" stroke="white" stroke-width="1.5" d="M0,-3.0v7 M-2.5,-0.5L0,-3.0L2.5,-0.5"/>
  </g>
  <g id="arrowLeft" transform="rotate(270) translate(-36 17)">
    <use xlink:href="#rim"/>
    <path pointer-events="none" fill="none" stroke="white" stroke-width="1.5" d="M0,-3.0v7 M-2.5,-0.5L0,-3.0L2.5,-0.5"/>
  </g>
  <g id="resetDef">
    <use xlink:href="#rim2" fill="#404040"><set attributeName="fill" to="#808080" begin="reset.mouseover" end="reset.mouseout"/></use>
  </g>
</defs>
<script type="application/ecmascript">
var viewWidth = 395;
var viewHeight = 540;
var sectionId = 'dynsection-0';
</script>
<script type="application/ecmascript" xlink:href="svg.min.js"/>
<svg id="graph" class="graph">
<g id="viewport">
<title>VectoInputManager.Core.BaseInput</title>
<!-- Node1 -->
<g id="Node000001" class="node">
<title>Node1</title>
<g id="a_Node000001"><a xlink:title="Base class for component input data. Contains common properties like manufacturer information and cer...">
<polygon fill="#999999" stroke="#666666" points="149.5,-282 0,-282 0,-250 149.5,-250 149.5,-282"/>
<text xml:space="preserve" text-anchor="start" x="8" y="-268.5" font-family="Helvetica,sans-Serif" font-size="10.00">VectoInputManager.Core.Base</text>
<text xml:space="preserve" text-anchor="middle" x="74.75" y="-256.5" font-family="Helvetica,sans-Serif" font-size="10.00">Input</text>
</a>
</g>
</g>
<!-- Node2 -->
<g id="Node000002" class="node">
<title>Node2</title>
<g id="a_Node000002"><a xlink:href="class_vecto_input_manager_1_1_core_1_1_a_d_c_component_input.html" target="_top" xlink:title="Input parameters for generating Additional Driveline Component (ADC) standard values including ratio,...">
<polygon fill="white" stroke="#666666" points="385.62,-532 186.62,-532 186.62,-500 385.62,-500 385.62,-532"/>
<text xml:space="preserve" text-anchor="start" x="194.62" y="-518.5" font-family="Helvetica,sans-Serif" font-size="10.00">VectoInputManager.Core.ADCComponent</text>
<text xml:space="preserve" text-anchor="middle" x="286.12" y="-506.5" font-family="Helvetica,sans-Serif" font-size="10.00">Input</text>
</a>
</g>
</g>
<!-- Node1&#45;&gt;Node2 -->
<g id="edge1_Node000001_Node000002" class="edge">
<title>Node1&#45;&gt;Node2</title>
<g id="a_edge1_Node000001_Node000002"><a xlink:title=" ">
<path fill="none" stroke="#63b8ff" d="M81.18,-293.2C92.15,-340.82 121.55,-439.14 185.5,-491 189.52,-494.26 193.9,-497.1 198.52,-499.57"/>
<polygon fill="#63b8ff" stroke="#63b8ff" points="84.66,-292.74 79.1,-283.72 77.83,-294.24 84.66,-292.74"/>
</a>
</g>
</g>
<!-- Node3 -->
<g id="Node000003" class="node">
<title>Node3</title>
<g id="a_Node000003"><a xlink:href="class_vecto_input_manager_1_1_core_1_1_angledrive_component_input.html" target="_top" xlink:title="Input parameters for generating angle drive standard values (ratio, max input torque,...">
<polygon fill="white" stroke="#666666" points="372.5,-482 199.75,-482 199.75,-450 372.5,-450 372.5,-482"/>
<text xml:space="preserve" text-anchor="start" x="207.75" y="-468.5" font-family="Helvetica,sans-Serif" font-size="10.00">VectoInputManager.Core.Angledrive</text>
<text xml:space="preserve" text-anchor="middle" x="286.12" y="-456.5" font-family="Helvetica,sans-Serif" font-size="10.00">ComponentInput</text>
</a>
</g>
</g>
<!-- Node1&#45;&gt;Node3 -->
<g id="edge2_Node000001_Node000003" class="edge">
<title>Node1&#45;&gt;Node3</title>
<g id="a_edge2_Node000001_Node000003"><a xlink:title=" ">
<path fill="none" stroke="#63b8ff" d="M85.16,-292.94C100.15,-331.79 133.21,-403.02 185.5,-441 189.97,-444.25 194.82,-447.08 199.89,-449.54"/>
<polygon fill="#63b8ff" stroke="#63b8ff" points="88.55,-292.02 81.78,-283.87 81.99,-294.46 88.55,-292.02"/>
</a>
</g>
</g>
<!-- Node4 -->
<g id="Node000004" class="node">
<title>Node4</title>
<g id="a_Node000004"><a xlink:href="class_vecto_input_manager_1_1_core_1_1_axle_component_input.html" target="_top" xlink:title="Input parameters for generating axle (axlegear) standard values, including ratio, line type,...">
<polygon fill="white" stroke="#666666" points="359.38,-432 212.88,-432 212.88,-400 359.38,-400 359.38,-432"/>
<text xml:space="preserve" text-anchor="start" x="220.88" y="-418.5" font-family="Helvetica,sans-Serif" font-size="10.00">VectoInputManager.Core.Axle</text>
<text xml:space="preserve" text-anchor="middle" x="286.12" y="-406.5" font-family="Helvetica,sans-Serif" font-size="10.00">ComponentInput</text>
</a>
</g>
</g>
<!-- Node1&#45;&gt;Node4 -->
<g id="edge3_Node000001_Node000004" class="edge">
<title>Node1&#45;&gt;Node4</title>
<g id="a_edge3_Node000001_Node000004"><a xlink:title=" ">
<path fill="none" stroke="#63b8ff" d="M91.3,-291.57C110.06,-320.18 144.27,-365.83 185.5,-391 193.8,-396.06 203.07,-400.1 212.54,-403.33"/>
<polygon fill="#63b8ff" stroke="#63b8ff" points="94.48,-290.03 86.14,-283.49 88.58,-293.8 94.48,-290.03"/>
</a>
</g>
</g>
<!-- Node5 -->
<g id="Node000005" class="node">
<title>Node5</title>
<g id="a_Node000005"><a xlink:href="class_vecto_input_manager_1_1_core_1_1_battery_component_input.html" target="_top" xlink:title="Input parameters for generating battery system standard values (cell configuration,...">
<polygon fill="white" stroke="#666666" points="365.38,-382 206.88,-382 206.88,-350 365.38,-350 365.38,-382"/>
<text xml:space="preserve" text-anchor="start" x="214.88" y="-368.5" font-family="Helvetica,sans-Serif" font-size="10.00">VectoInputManager.Core.Battery</text>
<text xml:space="preserve" text-anchor="middle" x="286.12" y="-356.5" font-family="Helvetica,sans-Serif" font-size="10.00">ComponentInput</text>
</a>
</g>
</g>
<!-- Node1&#45;&gt;Node5 -->
<g id="edge4_Node000001_Node000005" class="edge">
<title>Node1&#45;&gt;Node5</title>
<g id="a_edge4_Node000001_Node000005"><a xlink:title=" ">
<path fill="none" stroke="#63b8ff" d="M103.88,-289.38C125.12,-305.96 155.62,-327.56 185.5,-341 192.66,-344.22 200.29,-347.07 208.04,-349.58"/>
<polygon fill="#63b8ff" stroke="#63b8ff" points="106.29,-286.82 96.28,-283.34 101.93,-292.3 106.29,-286.82"/>
</a>
</g>
</g>
<!-- Node6 -->
<g id="Node000006" class="node">
<title>Node6</title>
<g id="a_Node000006"><a xlink:href="class_vecto_input_manager_1_1_core_1_1_capacitor_component_input.html" target="_top" xlink:title="Input parameters for generating capacitor system standard values (max voltage, capacitance,...">
<polygon fill="white" stroke="#666666" points="370.62,-332 201.62,-332 201.62,-300 370.62,-300 370.62,-332"/>
<text xml:space="preserve" text-anchor="start" x="209.62" y="-318.5" font-family="Helvetica,sans-Serif" font-size="10.00">VectoInputManager.Core.Capacitor</text>
<text xml:space="preserve" text-anchor="middle" x="286.12" y="-306.5" font-family="Helvetica,sans-Serif" font-size="10.00">ComponentInput</text>
</a>
</g>
</g>
<!-- Node1&#45;&gt;Node6 -->
<g id="edge5_Node000001_Node000006" class="edge">
<title>Node1&#45;&gt;Node6</title>
<g id="a_edge5_Node000001_Node000006"><a xlink:title=" ">
<path fill="none" stroke="#63b8ff" d="M155.55,-285.06C175.55,-289.83 196.82,-294.91 216.24,-299.55"/>
<polygon fill="#63b8ff" stroke="#63b8ff" points="156.61,-281.71 146.07,-282.79 154.98,-288.52 156.61,-281.71"/>
</a>
</g>
</g>
<!-- Node7 -->
<g id="Node000007" class="node">
<title>Node7</title>
<g id="a_Node000007"><a xlink:href="class_vecto_input_manager_1_1_core_1_1_e_m_s_component_input.html" target="_top" xlink:title=" ">
<polygon fill="white" stroke="#bfbfbf" points="385.62,-282 186.62,-282 186.62,-250 385.62,-250 385.62,-282"/>
<text xml:space="preserve" text-anchor="start" x="194.62" y="-268.5" font-family="Helvetica,sans-Serif" font-size="10.00">VectoInputManager.Core.EMSComponent</text>
<text xml:space="preserve" text-anchor="middle" x="286.12" y="-256.5" font-family="Helvetica,sans-Serif" font-size="10.00">Input</text>
</a>
</g>
</g>
<!-- Node1&#45;&gt;Node7 -->
<g id="edge6_Node000001_Node000007" class="edge">
<title>Node1&#45;&gt;Node7</title>
<g id="a_edge6_Node000001_Node000007"><a xlink:title=" ">
<path fill="none" stroke="#63b8ff" d="M161.32,-266C169.51,-266 177.87,-266 186.18,-266"/>
<polygon fill="#63b8ff" stroke="#63b8ff" points="161.38,-262.5 151.38,-266 161.38,-269.5 161.38,-262.5"/>
</a>
</g>
</g>
<!-- Node8 -->
<g id="Node000008" class="node">
<title>Node8</title>
<g id="a_Node000008"><a xlink:href="class_vecto_input_manager_1_1_core_1_1_fuel_cell_component_input.html" target="_top" xlink:title="Input parameters for generating fuel cell standard values (system rated power).">
<polygon fill="white" stroke="#666666" points="359,-232 213.25,-232 213.25,-200 359,-200 359,-232"/>
<text xml:space="preserve" text-anchor="start" x="221.25" y="-218.5" font-family="Helvetica,sans-Serif" font-size="10.00">VectoInputManager.Core.Fuel</text>
<text xml:space="preserve" text-anchor="middle" x="286.12" y="-206.5" font-family="Helvetica,sans-Serif" font-size="10.00">CellComponentInput</text>
</a>
</g>
</g>
<!-- Node1&#45;&gt;Node8 -->
<g id="edge7_Node000001_Node000008" class="edge">
<title>Node1&#45;&gt;Node8</title>
<g id="a_edge7_Node000001_Node000008"><a xlink:title=" ">
<path fill="none" stroke="#63b8ff" d="M155.55,-246.94C175.55,-242.17 196.82,-237.09 216.24,-232.45"/>
<polygon fill="#63b8ff" stroke="#63b8ff" points="154.98,-243.48 146.07,-249.21 156.61,-250.29 154.98,-243.48"/>
</a>
</g>
</g>
<!-- Node9 -->
<g id="Node000009" class="node">
<title>Node9</title>
<g id="a_Node000009"><a xlink:href="class_vecto_input_manager_1_1_core_1_1_gearbox_component_input.html" target="_top" xlink:title="Input parameters for generating standard values for a gearbox/transmission. Includes speed/torque gri...">
<polygon fill="white" stroke="#666666" points="368,-182 204.25,-182 204.25,-150 368,-150 368,-182"/>
<text xml:space="preserve" text-anchor="start" x="212.25" y="-168.5" font-family="Helvetica,sans-Serif" font-size="10.00">VectoInputManager.Core.Gearbox</text>
<text xml:space="preserve" text-anchor="middle" x="286.12" y="-156.5" font-family="Helvetica,sans-Serif" font-size="10.00">ComponentInput</text>
</a>
</g>
</g>
<!-- Node1&#45;&gt;Node9 -->
<g id="edge8_Node000001_Node000009" class="edge">
<title>Node1&#45;&gt;Node9</title>
<g id="a_edge8_Node000001_Node000009"><a xlink:title=" ">
<path fill="none" stroke="#63b8ff" d="M103.88,-242.62C125.12,-226.04 155.62,-204.44 185.5,-191 192.66,-187.78 200.29,-184.93 208.04,-182.42"/>
<polygon fill="#63b8ff" stroke="#63b8ff" points="101.93,-239.7 96.28,-248.66 106.29,-245.18 101.93,-239.7"/>
</a>
</g>
</g>
<!-- Node10 -->
<g id="Node000010" class="node">
<title>Node10</title>
<g id="a_Node000010"><a xlink:href="class_vecto_input_manager_1_1_core_1_1_i_e_p_c_component_input.html" target="_top" xlink:title=" ">
<polygon fill="white" stroke="#bfbfbf" points="386.75,-132 185.5,-132 185.5,-100 386.75,-100 386.75,-132"/>
<text xml:space="preserve" text-anchor="start" x="193.5" y="-118.5" font-family="Helvetica,sans-Serif" font-size="10.00">VectoInputManager.Core.IEPCComponent</text>
<text xml:space="preserve" text-anchor="middle" x="286.12" y="-106.5" font-family="Helvetica,sans-Serif" font-size="10.00">Input</text>
</a>
</g>
</g>
<!-- Node1&#45;&gt;Node10 -->
<g id="edge9_Node000001_Node000010" class="edge">
<title>Node1&#45;&gt;Node10</title>
<g id="a_edge9_Node000001_Node000010"><a xlink:title=" ">
<path fill="none" stroke="#63b8ff" d="M91.3,-240.43C110.06,-211.82 144.27,-166.17 185.5,-141 190.83,-137.75 196.56,-134.92 202.49,-132.46"/>
<polygon fill="#63b8ff" stroke="#63b8ff" points="88.58,-238.2 86.14,-248.51 94.48,-241.97 88.58,-238.2"/>
</a>
</g>
</g>
<!-- Node11 -->
<g id="Node000011" class="node">
<title>Node11</title>
<g id="a_Node000011"><a xlink:href="class_vecto_input_manager_1_1_core_1_1_retarder_component_input.html" target="_top" xlink:title="Input parameters for generating retarder standard values (retarder type and mechanical step&#45;up ratio)...">
<polygon fill="white" stroke="#666666" points="368.38,-82 203.88,-82 203.88,-50 368.38,-50 368.38,-82"/>
<text xml:space="preserve" text-anchor="start" x="211.88" y="-68.5" font-family="Helvetica,sans-Serif" font-size="10.00">VectoInputManager.Core.Retarder</text>
<text xml:space="preserve" text-anchor="middle" x="286.12" y="-56.5" font-family="Helvetica,sans-Serif" font-size="10.00">ComponentInput</text>
</a>
</g>
</g>
<!-- Node1&#45;&gt;Node11 -->
<g id="edge10_Node000001_Node000011" class="edge">
<title>Node1&#45;&gt;Node11</title>
<g id="a_edge10_Node000001_Node000011"><a xlink:title=" ">
<path fill="none" stroke="#63b8ff" d="M85.16,-239.06C100.15,-200.21 133.21,-128.98 185.5,-91 191.05,-86.96 197.19,-83.58 203.61,-80.74"/>
<polygon fill="#63b8ff" stroke="#63b8ff" points="81.99,-237.54 81.78,-248.13 88.55,-239.98 81.99,-237.54"/>
</a>
</g>
</g>
<!-- Node12 -->
<g id="Node000012" class="node">
<title>Node12</title>
<g id="a_Node000012"><a xlink:href="class_vecto_input_manager_1_1_core_1_1_torque_converter_component_input.html" target="_top" xlink:title="Input parameters for generating torque converter standard values (rated engine speed and maximum engi...">
<polygon fill="white" stroke="#666666" points="364.25,-32 208,-32 208,0 364.25,0 364.25,-32"/>
<text xml:space="preserve" text-anchor="start" x="216" y="-18.5" font-family="Helvetica,sans-Serif" font-size="10.00">VectoInputManager.Core.Torque</text>
<text xml:space="preserve" text-anchor="middle" x="286.12" y="-6.5" font-family="Helvetica,sans-Serif" font-size="10.00">ConverterComponentInput</text>
</a>
</g>
</g>
<!-- Node1&#45;&gt;Node12 -->
<g id="edge11_Node000001_Node000012" class="edge">
<title>Node1&#45;&gt;Node12</title>
<g id="a_edge11_Node000001_Node000012"><a xlink:title=" ">
<path fill="none" stroke="#63b8ff" d="M81.18,-238.8C92.15,-191.18 121.55,-92.86 185.5,-41 192.08,-35.66 199.65,-31.45 207.61,-28.12"/>
<polygon fill="#63b8ff" stroke="#63b8ff" points="77.83,-237.76 79.1,-248.28 84.66,-239.26 77.83,-237.76"/>
</a>
</g>
</g>
</g>
</svg>

<g id="navigator" transform="translate(0 0)" fill="#404254">
  <rect fill="#f2f5e9" fill-opacity="0.5" stroke="#606060" stroke-width=".5" x="0" y="0" width="60" height="60"/>
  <use id="zoomplus" xlink:href="#zoomPlus" x="17" y="9" onmousedown="handleZoom(evt,'in')"/>
  <use id="zoomminus" xlink:href="#zoomMin" x="42" y="9" onmousedown="handleZoom(evt,'out')"/>
  <use id="reset" xlink:href="#resetDef" x="30" y="36" onmousedown="handleReset()"/>
   <use id="arrowup" xlink:href="#arrowUp" x="0" y="0" onmousedown="handlePan(0,-1)"/>
  <use id="arrowright" xlink:href="#arrowRight" x="0" y="0" onmousedown="handlePan(1,0)"/>
  <use id="arrowdown" xlink:href="#arrowDown" x="0" y="0" onmousedown="handlePan(0,1)"/>
  <use id="arrowleft" xlink:href="#arrowLeft" x="0" y="0" onmousedown="handlePan(-1,0)"/>
</g>
<svg viewBox="0 0 15 15" width="100%" height="30px" preserveAspectRatio="xMaxYMin meet">
 <g id="arrow_out" transform="scale(0.3 0.3)">
  <a xlink:href="class_vecto_input_manager_1_1_core_1_1_base_input__inherit__graph_org.svg" target="_base">
   <rect id="button" ry="5" rx="5" y="6" x="6" height="38" width="38"
        fill="#f2f5e9" fill-opacity="0.5" stroke="#606060" stroke-width="1.0"/>
   <path id="arrow"
     d="M 11.500037,31.436501 C 11.940474,20.09759 22.043105,11.32322 32.158766,21.979434 L 37.068811,17.246167 C 37.068811,17.246167 37.088388,32 37.088388,32 L 22.160133,31.978069 C 22.160133,31.978069 26.997745,27.140456 26.997745,27.140456 C 18.528582,18.264221 13.291696,25.230495 11.500037,31.436501 z"
     style="fill:#404040;"/>
  </a>
 </g>
</svg>

<style type='text/css'>
<![CDATA[
[data-mouse-over-selected='false'] { opacity: 0.7; }
[data-mouse-over-selected='true']  { opacity: 1.0; }
]]>
</style>
<script type="application/ecmascript"><![CDATA[
document.addEventListener('DOMContentLoaded', (event) => {
  highlightEdges();
  highlightAdjacentNodes();
});
]]></script>
</svg>
