<?xml version="1.0" encoding="UTF-8" standalone="no"?>
<!DOCTYPE svg PUBLIC "-//W3C//DTD SVG 1.1//EN"
 "http://www.w3.org/Graphics/SVG/1.1/DTD/svg11.dtd">
<!-- Generated by graphviz version 14.0.2 (20251019.1705)
 -->
<!-- Title: VectoObjects.Abstract_Components_PEV_LorryDeclarationType_v2_4 Pages: 1 -->
<svg width="560pt" height="140pt"
 viewBox="0.00 0.00 560.00 140.00" xmlns="http://www.w3.org/2000/svg" xmlns:xlink="http://www.w3.org/1999/xlink">
<g id="graph0" class="graph" transform="scale(1 1) rotate(0) translate(4 136)">
<title>VectoObjects.Abstract_Components_PEV_LorryDeclarationType_v2_4</title>
<!-- Node1 -->
<g id="Node000001" class="node">
<title>Node1</title>
<g id="a_Node000001"><a xlink:title=" ">
<polygon fill="#999999" stroke="#666666" points="383,-88 204.25,-88 204.25,-44 383,-44 383,-88"/>
<text xml:space="preserve" text-anchor="start" x="212.25" y="-74.5" font-family="Helvetica,sans-Serif" font-size="10.00">VectoObjects.Abstract</text>
<text xml:space="preserve" text-anchor="start" x="212.25" y="-62.5" font-family="Helvetica,sans-Serif" font-size="10.00">_Components_PEV_LorryDeclaration</text>
<text xml:space="preserve" text-anchor="middle" x="293.62" y="-50.5" font-family="Helvetica,sans-Serif" font-size="10.00">Type_v2_4</text>
</a>
</g>
</g>
<!-- Node3 -->
<g id="Node000003" class="node">
<title>Node3</title>
<g id="a_Node000003"><a xlink:href="class_vecto_objects_1_1_components___p_e_v___e2___lorry_type__v2__4.html" target="_top" xlink:title=" ">
<polygon fill="white" stroke="#bfbfbf" points="552,-132 419,-132 419,-100 552,-100 552,-132"/>
<text xml:space="preserve" text-anchor="start" x="427" y="-118.5" font-family="Helvetica,sans-Serif" font-size="10.00">VectoObjects.Components</text>
<text xml:space="preserve" text-anchor="middle" x="485.5" y="-106.5" font-family="Helvetica,sans-Serif" font-size="10.00">_PEV_E2_LorryType_v2_4</text>
</a>
</g>
</g>
<!-- Node1&#45;&gt;Node3 -->
<g id="edge2_Node000001_Node000003" class="edge">
<title>Node1&#45;&gt;Node3</title>
<g id="a_edge2_Node000001_Node000003"><a xlink:title=" ">
<path fill="none" stroke="#63b8ff" d="M390.86,-91.34C401.44,-94.13 412.01,-96.91 422.02,-99.55"/>
<polygon fill="#63b8ff" stroke="#63b8ff" points="391.87,-87.99 381.31,-88.83 390.09,-94.76 391.87,-87.99"/>
</a>
</g>
</g>
<!-- Node4 -->
<g id="Node000004" class="node">
<title>Node4</title>
<g id="a_Node000004"><a xlink:href="class_vecto_objects_1_1_components___p_e_v___e3___lorry_type__v2__4.html" target="_top" xlink:title=" ">
<polygon fill="white" stroke="#bfbfbf" points="552,-82 419,-82 419,-50 552,-50 552,-82"/>
<text xml:space="preserve" text-anchor="start" x="427" y="-68.5" font-family="Helvetica,sans-Serif" font-size="10.00">VectoObjects.Components</text>
<text xml:space="preserve" text-anchor="middle" x="485.5" y="-56.5" font-family="Helvetica,sans-Serif" font-size="10.00">_PEV_E3_LorryType_v2_4</text>
</a>
</g>
</g>
<!-- Node1&#45;&gt;Node4 -->
<g id="edge3_Node000001_Node000004" class="edge">
<title>Node1&#45;&gt;Node4</title>
<g id="a_edge3_Node000001_Node000004"><a xlink:title=" ">
<path fill="none" stroke="#63b8ff" d="M394.87,-66C402.94,-66 410.96,-66 418.7,-66"/>
<polygon fill="#63b8ff" stroke="#63b8ff" points="394.96,-62.5 384.96,-66 394.96,-69.5 394.96,-62.5"/>
</a>
</g>
</g>
<!-- Node5 -->
<g id="Node000005" class="node">
<title>Node5</title>
<g id="a_Node000005"><a xlink:href="class_vecto_objects_1_1_components___p_e_v___e4___lorry_type__v2__4.html" target="_top" xlink:title=" ">
<polygon fill="white" stroke="#bfbfbf" points="552,-32 419,-32 419,0 552,0 552,-32"/>
<text xml:space="preserve" text-anchor="start" x="427" y="-18.5" font-family="Helvetica,sans-Serif" font-size="10.00">VectoObjects.Components</text>
<text xml:space="preserve" text-anchor="middle" x="485.5" y="-6.5" font-family="Helvetica,sans-Serif" font-size="10.00">_PEV_E4_LorryType_v2_4</text>
</a>
</g>
</g>
<!-- Node1&#45;&gt;Node5 -->
<g id="edge4_Node000001_Node000005" class="edge">
<title>Node1&#45;&gt;Node5</title>
<g id="a_edge4_Node000001_Node000005"><a xlink:title=" ">
<path fill="none" stroke="#63b8ff" d="M390.86,-40.66C401.44,-37.87 412.01,-35.09 422.02,-32.45"/>
<polygon fill="#63b8ff" stroke="#63b8ff" points="390.09,-37.24 381.31,-43.17 391.87,-44.01 390.09,-37.24"/>
</a>
</g>
</g>
<!-- Node2 -->
<g id="Node000002" class="node">
<title>Node2</title>
<g id="a_Node000002"><a xlink:href="class_vecto_objects_1_1_abstract_vehicle_components_declaration_type__v2__0.html" target="_top" xlink:title=" ">
<polygon fill="white" stroke="#bfbfbf" points="168.25,-82 0,-82 0,-50 168.25,-50 168.25,-82"/>
<text xml:space="preserve" text-anchor="start" x="8" y="-68.5" font-family="Helvetica,sans-Serif" font-size="10.00">VectoObjects.AbstractVehicle</text>
<text xml:space="preserve" text-anchor="middle" x="84.12" y="-56.5" font-family="Helvetica,sans-Serif" font-size="10.00">ComponentsDeclarationType_v2_0</text>
</a>
</g>
</g>
<!-- Node2&#45;&gt;Node1 -->
<g id="edge1_Node000001_Node000002" class="edge">
<title>Node2&#45;&gt;Node1</title>
<g id="a_edge1_Node000001_Node000002"><a xlink:title=" ">
<path fill="none" stroke="#63b8ff" d="M180.14,-66C188.04,-66 196.01,-66 203.87,-66"/>
<polygon fill="#63b8ff" stroke="#63b8ff" points="180.14,-62.5 170.14,-66 180.14,-69.5 180.14,-62.5"/>
</a>
</g>
</g>
</g>
</svg>
