<?xml version="1.0" encoding="UTF-8" standalone="no"?>
<!DOCTYPE svg PUBLIC "-//W3C//DTD SVG 1.1//EN"
 "http://www.w3.org/Graphics/SVG/1.1/DTD/svg11.dtd">
<!-- Generated by graphviz version 14.0.2 (20251019.1705)
 -->
<!-- Title: VectoObjects.AxlegearDataDeclarationType_v2_0 Pages: 1 -->
<svg width="517pt" height="90pt"
 viewBox="0.00 0.00 517.00 90.00" xmlns="http://www.w3.org/2000/svg" xmlns:xlink="http://www.w3.org/1999/xlink">
<g id="graph0" class="graph" transform="scale(1 1) rotate(0) translate(4 86)">
<title>VectoObjects.AxlegearDataDeclarationType_v2_0</title>
<!-- Node1 -->
<g id="Node000001" class="node">
<title>Node1</title>
<g id="a_Node000001"><a xlink:title=" ">
<polygon fill="#999999" stroke="#666666" points="509.25,-57 372.5,-57 372.5,-25 509.25,-25 509.25,-57"/>
<text xml:space="preserve" text-anchor="start" x="380.5" y="-43.5" font-family="Helvetica,sans-Serif" font-size="10.00">VectoObjects.AxlegearData</text>
<text xml:space="preserve" text-anchor="middle" x="440.88" y="-31.5" font-family="Helvetica,sans-Serif" font-size="10.00">DeclarationType_v2_0</text>
</a>
</g>
</g>
<!-- Node2 -->
<g id="Node000002" class="node">
<title>Node2</title>
<g id="a_Node000002"><a xlink:href="class_vecto_objects_1_1_abstract_axlegear_data_declaration_type__v1__0.html" target="_top" xlink:title=" ">
<polygon fill="white" stroke="#bfbfbf" points="336.5,-82 184,-82 184,-50 336.5,-50 336.5,-82"/>
<text xml:space="preserve" text-anchor="start" x="192" y="-68.5" font-family="Helvetica,sans-Serif" font-size="10.00">VectoObjects.AbstractAxlegear</text>
<text xml:space="preserve" text-anchor="middle" x="260.25" y="-56.5" font-family="Helvetica,sans-Serif" font-size="10.00">DataDeclarationType_v1_0</text>
</a>
</g>
</g>
<!-- Node2&#45;&gt;Node1 -->
<g id="edge1_Node000001_Node000002" class="edge">
<title>Node2&#45;&gt;Node1</title>
<g id="a_edge1_Node000001_Node000002"><a xlink:title=" ">
<path fill="none" stroke="#63b8ff" d="M348.07,-53.85C356.11,-52.72 364.19,-51.59 372.02,-50.5"/>
<polygon fill="#63b8ff" stroke="#63b8ff" points="347.66,-50.37 338.24,-55.22 348.63,-57.3 347.66,-50.37"/>
</a>
</g>
</g>
<!-- Node3 -->
<g id="Node000003" class="node">
<title>Node3</title>
<g id="a_Node000003"><a xlink:href="class_vecto_objects_1_1_vecto_simulation_component__v1__0.html" target="_top" xlink:title=" ">
<polygon fill="white" stroke="#bfbfbf" points="148,-82 0,-82 0,-50 148,-50 148,-82"/>
<text xml:space="preserve" text-anchor="start" x="8" y="-68.5" font-family="Helvetica,sans-Serif" font-size="10.00">VectoObjects.VectoSimulation</text>
<text xml:space="preserve" text-anchor="middle" x="74" y="-56.5" font-family="Helvetica,sans-Serif" font-size="10.00">Component_v1_0</text>
</a>
</g>
</g>
<!-- Node3&#45;&gt;Node2 -->
<g id="edge2_Node000002_Node000003" class="edge">
<title>Node3&#45;&gt;Node2</title>
<g id="a_edge2_Node000002_Node000003"><a xlink:title=" ">
<path fill="none" stroke="#63b8ff" d="M159.64,-66C167.68,-66 175.79,-66 183.74,-66"/>
<polygon fill="#63b8ff" stroke="#63b8ff" points="159.86,-62.5 149.86,-66 159.86,-69.5 159.86,-62.5"/>
</a>
</g>
</g>
<!-- Node4 -->
<g id="Node000004" class="node">
<title>Node4</title>
<g id="a_Node000004"><a xlink:href="interface_vecto_objects_1_1_i_component_data_declaration.html" target="_top" xlink:title=" ">
<polygon fill="white" stroke="#bfbfbf" points="336.12,-32 184.38,-32 184.38,0 336.12,0 336.12,-32"/>
<text xml:space="preserve" text-anchor="start" x="192.38" y="-18.5" font-family="Helvetica,sans-Serif" font-size="10.00">VectoObjects.IComponentData</text>
<text xml:space="preserve" text-anchor="middle" x="260.25" y="-6.5" font-family="Helvetica,sans-Serif" font-size="10.00">Declaration</text>
</a>
</g>
</g>
<!-- Node4&#45;&gt;Node1 -->
<g id="edge3_Node000001_Node000004" class="edge">
<title>Node4&#45;&gt;Node1</title>
<g id="a_edge3_Node000001_Node000004"><a xlink:title=" ">
<path fill="none" stroke="#63b8ff" d="M347.64,-28.09C355.86,-29.24 364.11,-30.4 372.11,-31.52"/>
<polygon fill="#63b8ff" stroke="#63b8ff" points="348.37,-24.66 337.98,-26.74 347.4,-31.59 348.37,-24.66"/>
</a>
</g>
</g>
</g>
</svg>
