<?xml version="1.0" encoding="UTF-8" standalone="no"?>
<!DOCTYPE svg PUBLIC "-//W3C//DTD SVG 1.1//EN"
 "http://www.w3.org/Graphics/SVG/1.1/DTD/svg11.dtd">
<!-- Generated by graphviz version 14.0.2 (20251019.1705)
 -->
<!-- Title: VectoObjects.FuelCellDataDeclarationType_v2_6 Pages: 1 -->
<svg width="318pt" height="176pt"
 viewBox="0.00 0.00 318.00 176.00" xmlns="http://www.w3.org/2000/svg" xmlns:xlink="http://www.w3.org/1999/xlink">
<g id="graph0" class="graph" transform="scale(1 1) rotate(0) translate(4 172)">
<title>VectoObjects.FuelCellDataDeclarationType_v2_6</title>
<!-- Node1 -->
<g id="Node000001" class="node">
<title>Node1</title>
<g id="a_Node000001"><a xlink:title=" ">
<polygon fill="#999999" stroke="#666666" points="221.25,-32 86.75,-32 86.75,0 221.25,0 221.25,-32"/>
<text xml:space="preserve" text-anchor="start" x="94.75" y="-18.5" font-family="Helvetica,sans-Serif" font-size="10.00">VectoObjects.FuelCellData</text>
<text xml:space="preserve" text-anchor="middle" x="154" y="-6.5" font-family="Helvetica,sans-Serif" font-size="10.00">DeclarationType_v2_6</text>
</a>
</g>
</g>
<!-- Node2 -->
<g id="Node000002" class="node">
<title>Node2</title>
<g id="a_Node000002"><a xlink:href="class_vecto_objects_1_1_abstract_fuel_cell_data_type__v2__6.html" target="_top" xlink:title=" ">
<polygon fill="white" stroke="#bfbfbf" points="140.5,-100 7.5,-100 7.5,-68 140.5,-68 140.5,-100"/>
<text xml:space="preserve" text-anchor="start" x="15.5" y="-86.5" font-family="Helvetica,sans-Serif" font-size="10.00">VectoObjects.AbstractFuel</text>
<text xml:space="preserve" text-anchor="middle" x="74" y="-74.5" font-family="Helvetica,sans-Serif" font-size="10.00">CellDataType_v2_6</text>
</a>
</g>
</g>
<!-- Node2&#45;&gt;Node1 -->
<g id="edge1_Node000001_Node000002" class="edge">
<title>Node2&#45;&gt;Node1</title>
<g id="a_edge1_Node000001_Node000002"><a xlink:title=" ">
<path fill="none" stroke="#63b8ff" d="M101.15,-60.6C112.38,-51.34 125.11,-40.83 135.27,-32.45"/>
<polygon fill="#63b8ff" stroke="#63b8ff" points="99.21,-57.67 93.72,-66.73 103.66,-63.07 99.21,-57.67"/>
</a>
</g>
</g>
<!-- Node3 -->
<g id="Node000003" class="node">
<title>Node3</title>
<g id="a_Node000003"><a xlink:href="class_vecto_objects_1_1_vecto_simulation_component__v1__0.html" target="_top" xlink:title=" ">
<polygon fill="white" stroke="#bfbfbf" points="148,-168 0,-168 0,-136 148,-136 148,-168"/>
<text xml:space="preserve" text-anchor="start" x="8" y="-154.5" font-family="Helvetica,sans-Serif" font-size="10.00">VectoObjects.VectoSimulation</text>
<text xml:space="preserve" text-anchor="middle" x="74" y="-142.5" font-family="Helvetica,sans-Serif" font-size="10.00">Component_v1_0</text>
</a>
</g>
</g>
<!-- Node3&#45;&gt;Node2 -->
<g id="edge2_Node000002_Node000003" class="edge">
<title>Node3&#45;&gt;Node2</title>
<g id="a_edge2_Node000002_Node000003"><a xlink:title=" ">
<path fill="none" stroke="#63b8ff" d="M74,-124.31C74,-116.12 74,-107.38 74,-100.22"/>
<polygon fill="#63b8ff" stroke="#63b8ff" points="70.5,-124.18 74,-134.18 77.5,-124.18 70.5,-124.18"/>
</a>
</g>
</g>
<!-- Node4 -->
<g id="Node000004" class="node">
<title>Node4</title>
<g id="a_Node000004"><a xlink:href="interface_vecto_objects_1_1_i_component_data_declaration.html" target="_top" xlink:title=" ">
<polygon fill="white" stroke="#bfbfbf" points="309.88,-100 158.12,-100 158.12,-68 309.88,-68 309.88,-100"/>
<text xml:space="preserve" text-anchor="start" x="166.12" y="-86.5" font-family="Helvetica,sans-Serif" font-size="10.00">VectoObjects.IComponentData</text>
<text xml:space="preserve" text-anchor="middle" x="234" y="-74.5" font-family="Helvetica,sans-Serif" font-size="10.00">Declaration</text>
</a>
</g>
</g>
<!-- Node4&#45;&gt;Node1 -->
<g id="edge3_Node000001_Node000004" class="edge">
<title>Node4&#45;&gt;Node1</title>
<g id="a_edge3_Node000001_Node000004"><a xlink:title=" ">
<path fill="none" stroke="#63b8ff" d="M206.85,-60.6C195.62,-51.34 182.89,-40.83 172.73,-32.45"/>
<polygon fill="#63b8ff" stroke="#63b8ff" points="204.34,-63.07 214.28,-66.73 208.79,-57.67 204.34,-63.07"/>
</a>
</g>
</g>
</g>
</svg>
