<?xml version="1.0" encoding="UTF-8" standalone="no"?>
<!DOCTYPE svg PUBLIC "-//W3C//DTD SVG 1.1//EN"
 "http://www.w3.org/Graphics/SVG/1.1/DTD/svg11.dtd">
<!-- Generated by graphviz version 14.0.2 (20251019.1705)
 -->
<!-- Title: VectoObjects.AbstractCompletedBusVehicleType_v2_4 Pages: 1 -->
<!--zoomable 610 -->

<svg id="main" version="1.1" xmlns="http://www.w3.org/2000/svg" xmlns:xlink="http://www.w3.org/1999/xlink" xml:space="preserve" onload="init(evt)">

<style type="text/css"><![CDATA[
.node, .edge {opacity: 0.7;}
.node.selected, .edge.selected {opacity: 1;}
.edge:hover path { stroke: red; }
.edge:hover polygon { stroke: red; fill: red; }
]]></style>

<defs>
  <circle id="rim" cx="0" cy="0" r="7"/>
  <circle id="rim2" cx="0" cy="0" r="3.5"/>
  <g id="zoomPlus">
    <use xlink:href="#rim" fill="#404040"><set attributeName="fill" to="#808080" begin="zoomplus.mouseover" end="zoomplus.mouseout"/></use>
    <path d="M-4,0h8M0,-4v8" fill="none" stroke="white" stroke-width="1.5" pointer-events="none"/>
  </g>
  <g id="zoomMin">
    <use xlink:href="#rim" fill="#404040"><set attributeName="fill" to="#808080" begin="zoomminus.mouseover" end="zoomminus.mouseout"/></use>
    <path d="M-4,0h8" fill="none" stroke="white" stroke-width="1.5" pointer-events="none"/>
  </g>
  <g id="arrowUp" transform="translate(30 24)">
    <use xlink:href="#rim"/>
    <path pointer-events="none" fill="none" stroke="white" stroke-width="1.5" d="M0,-3.0v7 M-2.5,-0.5L0,-3.0L2.5,-0.5"/>
  </g>
  <g id="arrowRight" transform="rotate(90) translate(36 -43)">
    <use xlink:href="#rim"/>
    <path pointer-events="none" fill="none" stroke="white" stroke-width="1.5" d="M0,-3.0v7 M-2.5,-0.5L0,-3.0L2.5,-0.5"/>
  </g>
  <g id="arrowDown" transform="rotate(180) translate(-30 -48)">
    <use xlink:href="#rim"/>
    <path pointer-events="none" fill="none" stroke="white" stroke-width="1.5" d="M0,-3.0v7 M-2.5,-0.5L0,-3.0L2.5,-0.5"/>
  </g>
  <g id="arrowLeft" transform="rotate(270) translate(-36 17)">
    <use xlink:href="#rim"/>
    <path pointer-events="none" fill="none" stroke="white" stroke-width="1.5" d="M0,-3.0v7 M-2.5,-0.5L0,-3.0L2.5,-0.5"/>
  </g>
  <g id="resetDef">
    <use xlink:href="#rim2" fill="#404040"><set attributeName="fill" to="#808080" begin="reset.mouseover" end="reset.mouseout"/></use>
  </g>
</defs>
<script type="application/ecmascript">
var viewWidth = 965;
var viewHeight = 610;
var sectionId = 'dynsection-0';
</script>
<script type="application/ecmascript" xlink:href="svg.min.js"/>
<svg id="graph" class="graph">
<g id="viewport">
<title>VectoObjects.AbstractCompletedBusVehicleType_v2_4</title>
<!-- Node1 -->
<g id="Node000001" class="node">
<title>Node1</title>
<g id="a_Node000001"><a xlink:title=" ">
<polygon fill="#999999" stroke="#666666" points="723.25,-317 561.75,-317 561.75,-285 723.25,-285 723.25,-317"/>
<text xml:space="preserve" text-anchor="start" x="569.75" y="-303.5" font-family="Helvetica,sans-Serif" font-size="10.00">VectoObjects.AbstractCompleted</text>
<text xml:space="preserve" text-anchor="middle" x="642.5" y="-291.5" font-family="Helvetica,sans-Serif" font-size="10.00">BusVehicleType_v2_4</text>
</a>
</g>
</g>
<!-- Node5 -->
<g id="Node000005" class="node">
<title>Node5</title>
<g id="a_Node000005"><a xlink:href="class_vecto_objects_1_1_vehicle___conventional___completed_bus_declaration_type__v2__4.html" target="_top" xlink:title=" ">
<polygon fill="white" stroke="#666666" points="956.75,-602 759.25,-602 759.25,-558 956.75,-558 956.75,-602"/>
<text xml:space="preserve" text-anchor="start" x="767.25" y="-588.5" font-family="Helvetica,sans-Serif" font-size="10.00">VectoObjects.Vehicle</text>
<text xml:space="preserve" text-anchor="start" x="767.25" y="-576.5" font-family="Helvetica,sans-Serif" font-size="10.00">_Conventional_CompletedBusDeclaration</text>
<text xml:space="preserve" text-anchor="middle" x="858" y="-564.5" font-family="Helvetica,sans-Serif" font-size="10.00">Type_v2_4</text>
</a>
</g>
</g>
<!-- Node1&#45;&gt;Node5 -->
<g id="edge4_Node000001_Node000005" class="edge">
<title>Node1&#45;&gt;Node5</title>
<g id="a_edge4_Node000001_Node000005"><a xlink:title=" ">
<path fill="none" stroke="#63b8ff" d="M648.72,-328.38C659.83,-379.29 690.67,-488.77 759.25,-549 762.86,-552.17 766.8,-555.02 770.95,-557.58"/>
<polygon fill="#63b8ff" stroke="#63b8ff" points="652.19,-327.88 646.72,-318.81 645.33,-329.31 652.19,-327.88"/>
</a>
</g>
</g>
<!-- Node6 -->
<g id="Node000006" class="node">
<title>Node6</title>
<g id="a_Node000006"><a xlink:href="class_vecto_objects_1_1_vehicle___conventional___completed_bus_declaration_type__v2__7.html" target="_top" xlink:title=" ">
<polygon fill="white" stroke="#666666" points="956.75,-540 759.25,-540 759.25,-496 956.75,-496 956.75,-540"/>
<text xml:space="preserve" text-anchor="start" x="767.25" y="-526.5" font-family="Helvetica,sans-Serif" font-size="10.00">VectoObjects.Vehicle</text>
<text xml:space="preserve" text-anchor="start" x="767.25" y="-514.5" font-family="Helvetica,sans-Serif" font-size="10.00">_Conventional_CompletedBusDeclaration</text>
<text xml:space="preserve" text-anchor="middle" x="858" y="-502.5" font-family="Helvetica,sans-Serif" font-size="10.00">Type_v2_7</text>
</a>
</g>
</g>
<!-- Node1&#45;&gt;Node6 -->
<g id="edge5_Node000001_Node000006" class="edge">
<title>Node1&#45;&gt;Node6</title>
<g id="a_edge5_Node000001_Node000006"><a xlink:title=" ">
<path fill="none" stroke="#63b8ff" d="M653.23,-328.02C669.16,-368.46 704.6,-444.53 759.25,-487 763.33,-490.17 767.73,-493.02 772.35,-495.58"/>
<polygon fill="#63b8ff" stroke="#63b8ff" points="656.55,-326.89 649.71,-318.79 650.01,-329.38 656.55,-326.89"/>
</a>
</g>
</g>
<!-- Node7 -->
<g id="Node000007" class="node">
<title>Node7</title>
<g id="a_Node000007"><a xlink:href="class_vecto_objects_1_1_vehicle___exempted___completed_bus_declaration_type__v2__4.html" target="_top" xlink:title=" ">
<polygon fill="white" stroke="#666666" points="950.38,-478 765.62,-478 765.62,-434 950.38,-434 950.38,-478"/>
<text xml:space="preserve" text-anchor="start" x="773.62" y="-464.5" font-family="Helvetica,sans-Serif" font-size="10.00">VectoObjects.Vehicle</text>
<text xml:space="preserve" text-anchor="start" x="773.62" y="-452.5" font-family="Helvetica,sans-Serif" font-size="10.00">_Exempted_CompletedBusDeclaration</text>
<text xml:space="preserve" text-anchor="middle" x="858" y="-440.5" font-family="Helvetica,sans-Serif" font-size="10.00">Type_v2_4</text>
</a>
</g>
</g>
<!-- Node1&#45;&gt;Node7 -->
<g id="edge6_Node000001_Node000007" class="edge">
<title>Node1&#45;&gt;Node7</title>
<g id="a_edge6_Node000001_Node000007"><a xlink:title=" ">
<path fill="none" stroke="#63b8ff" d="M660.89,-326.33C681.35,-354.3 717.83,-398.83 759.25,-425 764.22,-428.14 769.53,-430.98 775.01,-433.56"/>
<polygon fill="#63b8ff" stroke="#63b8ff" points="663.89,-324.5 655.22,-318.41 658.2,-328.58 663.89,-324.5"/>
</a>
</g>
</g>
<!-- Node8 -->
<g id="Node000008" class="node">
<title>Node8</title>
<g id="a_Node000008"><a xlink:href="class_vecto_objects_1_1_vehicle___exempted___completed_bus_declaration_type__v2__7.html" target="_top" xlink:title=" ">
<polygon fill="white" stroke="#666666" points="950.38,-416 765.62,-416 765.62,-372 950.38,-372 950.38,-416"/>
<text xml:space="preserve" text-anchor="start" x="773.62" y="-402.5" font-family="Helvetica,sans-Serif" font-size="10.00">VectoObjects.Vehicle</text>
<text xml:space="preserve" text-anchor="start" x="773.62" y="-390.5" font-family="Helvetica,sans-Serif" font-size="10.00">_Exempted_CompletedBusDeclaration</text>
<text xml:space="preserve" text-anchor="middle" x="858" y="-378.5" font-family="Helvetica,sans-Serif" font-size="10.00">Type_v2_7</text>
</a>
</g>
</g>
<!-- Node1&#45;&gt;Node8 -->
<g id="edge7_Node000001_Node000008" class="edge">
<title>Node1&#45;&gt;Node8</title>
<g id="a_edge7_Node000001_Node000008"><a xlink:title=" ">
<path fill="none" stroke="#63b8ff" d="M680.14,-322.87C702.49,-335.65 731.93,-351.47 759.25,-363 766.3,-365.98 773.74,-368.83 781.24,-371.51"/>
<polygon fill="#63b8ff" stroke="#63b8ff" points="682.12,-319.98 671.71,-318 678.61,-326.04 682.12,-319.98"/>
</a>
</g>
</g>
<!-- Node9 -->
<g id="Node000009" class="node">
<title>Node9</title>
<g id="a_Node000009"><a xlink:href="class_vecto_objects_1_1_vehicle___f_c_h_v___completed_bus_declaration_type__v2__7.html" target="_top" xlink:title=" ">
<polygon fill="white" stroke="#666666" points="942.12,-354 773.88,-354 773.88,-310 942.12,-310 942.12,-354"/>
<text xml:space="preserve" text-anchor="start" x="781.88" y="-340.5" font-family="Helvetica,sans-Serif" font-size="10.00">VectoObjects.Vehicle</text>
<text xml:space="preserve" text-anchor="start" x="781.88" y="-328.5" font-family="Helvetica,sans-Serif" font-size="10.00">_FCHV_CompletedBusDeclaration</text>
<text xml:space="preserve" text-anchor="middle" x="858" y="-316.5" font-family="Helvetica,sans-Serif" font-size="10.00">Type_v2_7</text>
</a>
</g>
</g>
<!-- Node1&#45;&gt;Node9 -->
<g id="edge8_Node000001_Node000009" class="edge">
<title>Node1&#45;&gt;Node9</title>
<g id="a_edge8_Node000001_Node000009"><a xlink:title=" ">
<path fill="none" stroke="#63b8ff" d="M734.82,-314.26C747.7,-316.13 760.88,-318.04 773.59,-319.89"/>
<polygon fill="#63b8ff" stroke="#63b8ff" points="735.5,-310.82 725.1,-312.85 734.5,-317.75 735.5,-310.82"/>
</a>
</g>
</g>
<!-- Node10 -->
<g id="Node000010" class="node">
<title>Node10</title>
<g id="a_Node000010"><a xlink:href="class_vecto_objects_1_1_vehicle___h_e_v___completed_bus_declaration_type__v2__4.html" target="_top" xlink:title=" ">
<polygon fill="white" stroke="#666666" points="938.75,-292 777.25,-292 777.25,-248 938.75,-248 938.75,-292"/>
<text xml:space="preserve" text-anchor="start" x="785.25" y="-278.5" font-family="Helvetica,sans-Serif" font-size="10.00">VectoObjects.Vehicle</text>
<text xml:space="preserve" text-anchor="start" x="785.25" y="-266.5" font-family="Helvetica,sans-Serif" font-size="10.00">_HEV_CompletedBusDeclaration</text>
<text xml:space="preserve" text-anchor="middle" x="858" y="-254.5" font-family="Helvetica,sans-Serif" font-size="10.00">Type_v2_4</text>
</a>
</g>
</g>
<!-- Node1&#45;&gt;Node10 -->
<g id="edge9_Node000001_Node000010" class="edge">
<title>Node1&#45;&gt;Node10</title>
<g id="a_edge9_Node000001_Node000010"><a xlink:title=" ">
<path fill="none" stroke="#63b8ff" d="M734.73,-287.75C748.72,-285.72 763.07,-283.64 776.8,-281.65"/>
<polygon fill="#63b8ff" stroke="#63b8ff" points="734.5,-284.25 725.1,-289.15 735.5,-291.18 734.5,-284.25"/>
</a>
</g>
</g>
<!-- Node11 -->
<g id="Node000011" class="node">
<title>Node11</title>
<g id="a_Node000011"><a xlink:href="class_vecto_objects_1_1_vehicle___h_e_v___completed_bus_declaration_type__v2__7.html" target="_top" xlink:title=" ">
<polygon fill="white" stroke="#666666" points="938.75,-230 777.25,-230 777.25,-186 938.75,-186 938.75,-230"/>
<text xml:space="preserve" text-anchor="start" x="785.25" y="-216.5" font-family="Helvetica,sans-Serif" font-size="10.00">VectoObjects.Vehicle</text>
<text xml:space="preserve" text-anchor="start" x="785.25" y="-204.5" font-family="Helvetica,sans-Serif" font-size="10.00">_HEV_CompletedBusDeclaration</text>
<text xml:space="preserve" text-anchor="middle" x="858" y="-192.5" font-family="Helvetica,sans-Serif" font-size="10.00">Type_v2_7</text>
</a>
</g>
</g>
<!-- Node1&#45;&gt;Node11 -->
<g id="edge10_Node000001_Node000011" class="edge">
<title>Node1&#45;&gt;Node11</title>
<g id="a_edge10_Node000001_Node000011"><a xlink:title=" ">
<path fill="none" stroke="#63b8ff" d="M680.14,-279.13C702.49,-266.35 731.93,-250.53 759.25,-239 766.3,-236.02 773.74,-233.17 781.24,-230.49"/>
<polygon fill="#63b8ff" stroke="#63b8ff" points="678.61,-275.96 671.71,-284 682.12,-282.02 678.61,-275.96"/>
</a>
</g>
</g>
<!-- Node12 -->
<g id="Node000012" class="node">
<title>Node12</title>
<g id="a_Node000012"><a xlink:href="class_vecto_objects_1_1_vehicle___i_e_p_c___completed_bus_declaration_type__v2__4.html" target="_top" xlink:title=" ">
<polygon fill="white" stroke="#666666" points="940.25,-168 775.75,-168 775.75,-124 940.25,-124 940.25,-168"/>
<text xml:space="preserve" text-anchor="start" x="783.75" y="-154.5" font-family="Helvetica,sans-Serif" font-size="10.00">VectoObjects.Vehicle</text>
<text xml:space="preserve" text-anchor="start" x="783.75" y="-142.5" font-family="Helvetica,sans-Serif" font-size="10.00">_IEPC_CompletedBusDeclaration</text>
<text xml:space="preserve" text-anchor="middle" x="858" y="-130.5" font-family="Helvetica,sans-Serif" font-size="10.00">Type_v2_4</text>
</a>
</g>
</g>
<!-- Node1&#45;&gt;Node12 -->
<g id="edge11_Node000001_Node000012" class="edge">
<title>Node1&#45;&gt;Node12</title>
<g id="a_edge11_Node000001_Node000012"><a xlink:title=" ">
<path fill="none" stroke="#63b8ff" d="M660.89,-275.67C681.35,-247.7 717.83,-203.17 759.25,-177 764.37,-173.77 769.85,-170.85 775.51,-168.21"/>
<polygon fill="#63b8ff" stroke="#63b8ff" points="658.2,-273.42 655.22,-283.59 663.89,-277.5 658.2,-273.42"/>
</a>
</g>
</g>
<!-- Node13 -->
<g id="Node000013" class="node">
<title>Node13</title>
<g id="a_Node000013"><a xlink:href="class_vecto_objects_1_1_vehicle___p_e_v___completed_bus_declaration_type__v2__4.html" target="_top" xlink:title=" ">
<polygon fill="white" stroke="#666666" points="938.38,-106 777.62,-106 777.62,-62 938.38,-62 938.38,-106"/>
<text xml:space="preserve" text-anchor="start" x="785.62" y="-92.5" font-family="Helvetica,sans-Serif" font-size="10.00">VectoObjects.Vehicle</text>
<text xml:space="preserve" text-anchor="start" x="785.62" y="-80.5" font-family="Helvetica,sans-Serif" font-size="10.00">_PEV_CompletedBusDeclaration</text>
<text xml:space="preserve" text-anchor="middle" x="858" y="-68.5" font-family="Helvetica,sans-Serif" font-size="10.00">Type_v2_4</text>
</a>
</g>
</g>
<!-- Node1&#45;&gt;Node13 -->
<g id="edge12_Node000001_Node000013" class="edge">
<title>Node1&#45;&gt;Node13</title>
<g id="a_edge12_Node000001_Node000013"><a xlink:title=" ">
<path fill="none" stroke="#63b8ff" d="M653.23,-273.98C669.16,-233.54 704.6,-157.47 759.25,-115 764.73,-110.74 770.81,-107.06 777.18,-103.88"/>
<polygon fill="#63b8ff" stroke="#63b8ff" points="650.01,-272.62 649.71,-283.21 656.55,-275.11 650.01,-272.62"/>
</a>
</g>
</g>
<!-- Node14 -->
<g id="Node000014" class="node">
<title>Node14</title>
<g id="a_Node000014"><a xlink:href="class_vecto_objects_1_1_vehicle___p_e_v___completed_bus_declaration_type__v2__7.html" target="_top" xlink:title=" ">
<polygon fill="white" stroke="#666666" points="938.38,-44 777.62,-44 777.62,0 938.38,0 938.38,-44"/>
<text xml:space="preserve" text-anchor="start" x="785.62" y="-30.5" font-family="Helvetica,sans-Serif" font-size="10.00">VectoObjects.Vehicle</text>
<text xml:space="preserve" text-anchor="start" x="785.62" y="-18.5" font-family="Helvetica,sans-Serif" font-size="10.00">_PEV_CompletedBusDeclaration</text>
<text xml:space="preserve" text-anchor="middle" x="858" y="-6.5" font-family="Helvetica,sans-Serif" font-size="10.00">Type_v2_7</text>
</a>
</g>
</g>
<!-- Node1&#45;&gt;Node14 -->
<g id="edge13_Node000001_Node000014" class="edge">
<title>Node1&#45;&gt;Node14</title>
<g id="a_edge13_Node000001_Node000014"><a xlink:title=" ">
<path fill="none" stroke="#63b8ff" d="M648.72,-273.62C659.83,-222.71 690.67,-113.23 759.25,-53 764.73,-48.18 770.97,-44.11 777.57,-40.68"/>
<polygon fill="#63b8ff" stroke="#63b8ff" points="645.33,-272.69 646.72,-283.19 652.19,-274.12 645.33,-272.69"/>
</a>
</g>
</g>
<!-- Node2 -->
<g id="Node000002" class="node">
<title>Node2</title>
<g id="a_Node000002"><a xlink:href="class_vecto_objects_1_1_abstract_vehicle_declaration_type__v2__0.html" target="_top" xlink:title=" ">
<polygon fill="white" stroke="#bfbfbf" points="525.75,-317 380,-317 380,-285 525.75,-285 525.75,-317"/>
<text xml:space="preserve" text-anchor="start" x="388" y="-303.5" font-family="Helvetica,sans-Serif" font-size="10.00">VectoObjects.AbstractVehicle</text>
<text xml:space="preserve" text-anchor="middle" x="452.88" y="-291.5" font-family="Helvetica,sans-Serif" font-size="10.00">DeclarationType_v2_0</text>
</a>
</g>
</g>
<!-- Node2&#45;&gt;Node1 -->
<g id="edge1_Node000001_Node000002" class="edge">
<title>Node2&#45;&gt;Node1</title>
<g id="a_edge1_Node000001_Node000002"><a xlink:title=" ">
<path fill="none" stroke="#63b8ff" d="M537.65,-301C545.57,-301 553.58,-301 561.46,-301"/>
<polygon fill="#63b8ff" stroke="#63b8ff" points="537.66,-297.5 527.66,-301 537.66,-304.5 537.66,-297.5"/>
</a>
</g>
</g>
<!-- Node3 -->
<g id="Node000003" class="node">
<title>Node3</title>
<g id="a_Node000003"><a xlink:href="class_vecto_objects_1_1_declaration_powertrain_component_type__v2__0.html" target="_top" xlink:title=" ">
<polygon fill="white" stroke="#bfbfbf" points="344,-317 184,-317 184,-285 344,-285 344,-317"/>
<text xml:space="preserve" text-anchor="start" x="192" y="-303.5" font-family="Helvetica,sans-Serif" font-size="10.00">VectoObjects.Declaration</text>
<text xml:space="preserve" text-anchor="middle" x="264" y="-291.5" font-family="Helvetica,sans-Serif" font-size="10.00">PowertrainComponentType_v2_0</text>
</a>
</g>
</g>
<!-- Node3&#45;&gt;Node2 -->
<g id="edge2_Node000002_Node000003" class="edge">
<title>Node3&#45;&gt;Node2</title>
<g id="a_edge2_Node000002_Node000003"><a xlink:title=" ">
<path fill="none" stroke="#63b8ff" d="M355.6,-301C363.66,-301 371.75,-301 379.62,-301"/>
<polygon fill="#63b8ff" stroke="#63b8ff" points="355.77,-297.5 345.77,-301 355.77,-304.5 355.77,-297.5"/>
</a>
</g>
</g>
<!-- Node4 -->
<g id="Node000004" class="node">
<title>Node4</title>
<g id="a_Node000004"><a xlink:href="class_vecto_objects_1_1_vecto_simulation_component__v2__0.html" target="_top" xlink:title=" ">
<polygon fill="white" stroke="#bfbfbf" points="148,-317 0,-317 0,-285 148,-285 148,-317"/>
<text xml:space="preserve" text-anchor="start" x="8" y="-303.5" font-family="Helvetica,sans-Serif" font-size="10.00">VectoObjects.VectoSimulation</text>
<text xml:space="preserve" text-anchor="middle" x="74" y="-291.5" font-family="Helvetica,sans-Serif" font-size="10.00">Component_v2_0</text>
</a>
</g>
</g>
<!-- Node4&#45;&gt;Node3 -->
<g id="edge3_Node000003_Node000004" class="edge">
<title>Node4&#45;&gt;Node3</title>
<g id="a_edge3_Node000003_Node000004"><a xlink:title=" ">
<path fill="none" stroke="#63b8ff" d="M159.96,-301C167.85,-301 175.82,-301 183.65,-301"/>
<polygon fill="#63b8ff" stroke="#63b8ff" points="160.01,-297.5 150.01,-301 160.01,-304.5 160.01,-297.5"/>
</a>
</g>
</g>
</g>
</svg>

<g id="navigator" transform="translate(0 0)" fill="#404254">
  <rect fill="#f2f5e9" fill-opacity="0.5" stroke="#606060" stroke-width=".5" x="0" y="0" width="60" height="60"/>
  <use id="zoomplus" xlink:href="#zoomPlus" x="17" y="9" onmousedown="handleZoom(evt,'in')"/>
  <use id="zoomminus" xlink:href="#zoomMin" x="42" y="9" onmousedown="handleZoom(evt,'out')"/>
  <use id="reset" xlink:href="#resetDef" x="30" y="36" onmousedown="handleReset()"/>
   <use id="arrowup" xlink:href="#arrowUp" x="0" y="0" onmousedown="handlePan(0,-1)"/>
  <use id="arrowright" xlink:href="#arrowRight" x="0" y="0" onmousedown="handlePan(1,0)"/>
  <use id="arrowdown" xlink:href="#arrowDown" x="0" y="0" onmousedown="handlePan(0,1)"/>
  <use id="arrowleft" xlink:href="#arrowLeft" x="0" y="0" onmousedown="handlePan(-1,0)"/>
</g>
<svg viewBox="0 0 15 15" width="100%" height="30px" preserveAspectRatio="xMaxYMin meet">
 <g id="arrow_out" transform="scale(0.3 0.3)">
  <a xlink:href="class_vecto_objects_1_1_abstract_completed_bus_vehicle_type__v2__4__inherit__graph_org.svg" target="_base">
   <rect id="button" ry="5" rx="5" y="6" x="6" height="38" width="38"
        fill="#f2f5e9" fill-opacity="0.5" stroke="#606060" stroke-width="1.0"/>
   <path id="arrow"
     d="M 11.500037,31.436501 C 11.940474,20.09759 22.043105,11.32322 32.158766,21.979434 L 37.068811,17.246167 C 37.068811,17.246167 37.088388,32 37.088388,32 L 22.160133,31.978069 C 22.160133,31.978069 26.997745,27.140456 26.997745,27.140456 C 18.528582,18.264221 13.291696,25.230495 11.500037,31.436501 z"
     style="fill:#404040;"/>
  </a>
 </g>
</svg>

<style type='text/css'>
<![CDATA[
[data-mouse-over-selected='false'] { opacity: 0.7; }
[data-mouse-over-selected='true']  { opacity: 1.0; }
]]>
</style>
<script type="application/ecmascript"><![CDATA[
document.addEventListener('DOMContentLoaded', (event) => {
  highlightEdges();
  highlightAdjacentNodes();
});
]]></script>
</svg>
