<?xml version="1.0" encoding="UTF-8" standalone="no"?>
<!DOCTYPE svg PUBLIC "-//W3C//DTD SVG 1.1//EN"
 "http://www.w3.org/Graphics/SVG/1.1/DTD/svg11.dtd">
<!-- Generated by graphviz version 14.0.2 (20251019.1705)
 -->
<!-- Title: VectoObjects.Abstract_Components_HEV_Sx_PrimaryBusDeclarationType_v2_7 Pages: 1 -->
<svg width="384pt" height="140pt"
 viewBox="0.00 0.00 384.00 140.00" xmlns="http://www.w3.org/2000/svg" xmlns:xlink="http://www.w3.org/1999/xlink">
<g id="graph0" class="graph" transform="scale(1 1) rotate(0) translate(4 136)">
<title>VectoObjects.Abstract_Components_HEV_Sx_PrimaryBusDeclarationType_v2_7</title>
<!-- Node1 -->
<g id="Node000001" class="node">
<title>Node1</title>
<g id="a_Node000001"><a xlink:title=" ">
<polygon fill="#999999" stroke="#666666" points="176.5,-88 0,-88 0,-44 176.5,-44 176.5,-88"/>
<text xml:space="preserve" text-anchor="start" x="8" y="-74.5" font-family="Helvetica,sans-Serif" font-size="10.00">VectoObjects.Abstract</text>
<text xml:space="preserve" text-anchor="start" x="8" y="-62.5" font-family="Helvetica,sans-Serif" font-size="10.00">_Components_HEV_Sx_PrimaryBus</text>
<text xml:space="preserve" text-anchor="middle" x="88.25" y="-50.5" font-family="Helvetica,sans-Serif" font-size="10.00">DeclarationType_v2_7</text>
</a>
</g>
</g>
<!-- Node2 -->
<g id="Node000002" class="node">
<title>Node2</title>
<g id="a_Node000002"><a xlink:href="class_vecto_objects_1_1_components___h_e_v___s2___primary_bus_type__v2__7.html" target="_top" xlink:title=" ">
<polygon fill="white" stroke="#bfbfbf" points="375.5,-132 212.5,-132 212.5,-100 375.5,-100 375.5,-132"/>
<text xml:space="preserve" text-anchor="start" x="220.5" y="-118.5" font-family="Helvetica,sans-Serif" font-size="10.00">VectoObjects.Components</text>
<text xml:space="preserve" text-anchor="middle" x="294" y="-106.5" font-family="Helvetica,sans-Serif" font-size="10.00">_HEV_S2_PrimaryBusType_v2_7</text>
</a>
</g>
</g>
<!-- Node1&#45;&gt;Node2 -->
<g id="edge1_Node000001_Node000002" class="edge">
<title>Node1&#45;&gt;Node2</title>
<g id="a_edge1_Node000001_Node000002"><a xlink:title=" ">
<path fill="none" stroke="#63b8ff" d="M187.65,-90.15C200.57,-93.32 213.56,-96.51 225.79,-99.51"/>
<polygon fill="#63b8ff" stroke="#63b8ff" points="188.86,-86.84 178.31,-87.86 187.19,-93.64 188.86,-86.84"/>
</a>
</g>
</g>
<!-- Node3 -->
<g id="Node000003" class="node">
<title>Node3</title>
<g id="a_Node000003"><a xlink:href="class_vecto_objects_1_1_components___h_e_v___s3___primary_bus_type__v2__7.html" target="_top" xlink:title=" ">
<polygon fill="white" stroke="#bfbfbf" points="375.5,-82 212.5,-82 212.5,-50 375.5,-50 375.5,-82"/>
<text xml:space="preserve" text-anchor="start" x="220.5" y="-68.5" font-family="Helvetica,sans-Serif" font-size="10.00">VectoObjects.Components</text>
<text xml:space="preserve" text-anchor="middle" x="294" y="-56.5" font-family="Helvetica,sans-Serif" font-size="10.00">_HEV_S3_PrimaryBusType_v2_7</text>
</a>
</g>
</g>
<!-- Node1&#45;&gt;Node3 -->
<g id="edge2_Node000001_Node000003" class="edge">
<title>Node1&#45;&gt;Node3</title>
<g id="a_edge2_Node000001_Node000003"><a xlink:title=" ">
<path fill="none" stroke="#63b8ff" d="M188.2,-66C196.26,-66 204.34,-66 212.24,-66"/>
<polygon fill="#63b8ff" stroke="#63b8ff" points="188.35,-62.5 178.35,-66 188.35,-69.5 188.35,-62.5"/>
</a>
</g>
</g>
<!-- Node4 -->
<g id="Node000004" class="node">
<title>Node4</title>
<g id="a_Node000004"><a xlink:href="class_vecto_objects_1_1_components___h_e_v___s4___primary_bus_type__v2__7.html" target="_top" xlink:title=" ">
<polygon fill="white" stroke="#bfbfbf" points="375.5,-32 212.5,-32 212.5,0 375.5,0 375.5,-32"/>
<text xml:space="preserve" text-anchor="start" x="220.5" y="-18.5" font-family="Helvetica,sans-Serif" font-size="10.00">VectoObjects.Components</text>
<text xml:space="preserve" text-anchor="middle" x="294" y="-6.5" font-family="Helvetica,sans-Serif" font-size="10.00">_HEV_S4_PrimaryBusType_v2_7</text>
</a>
</g>
</g>
<!-- Node1&#45;&gt;Node4 -->
<g id="edge3_Node000001_Node000004" class="edge">
<title>Node1&#45;&gt;Node4</title>
<g id="a_edge3_Node000001_Node000004"><a xlink:title=" ">
<path fill="none" stroke="#63b8ff" d="M187.65,-41.85C200.57,-38.68 213.56,-35.49 225.79,-32.49"/>
<polygon fill="#63b8ff" stroke="#63b8ff" points="187.19,-38.36 178.31,-44.14 188.86,-45.16 187.19,-38.36"/>
</a>
</g>
</g>
</g>
</svg>
