<?xml version="1.0" encoding="UTF-8" standalone="no"?>
<!DOCTYPE svg PUBLIC "-//W3C//DTD SVG 1.1//EN"
 "http://www.w3.org/Graphics/SVG/1.1/DTD/svg11.dtd">
<!-- Generated by graphviz version 14.0.2 (20251019.1705)
 -->
<!-- Pages: 1 -->
<svg width="263pt" height="332pt"
 viewBox="0.00 0.00 263.00 332.00" xmlns="http://www.w3.org/2000/svg" xmlns:xlink="http://www.w3.org/1999/xlink">
<g id="graph0" class="graph" transform="scale(1 1) rotate(0) translate(4 328)">
<polygon fill="white" stroke="none" points="-4,4 -4,-328 259.27,-328 259.27,4 -4,4"/>
<!-- VectoCore -->
<g id="node1" class="node">
<title>VectoCore</title>
<ellipse fill="none" stroke="black" cx="67.22" cy="-162" rx="49.82" ry="18"/>
<text xml:space="preserve" text-anchor="middle" x="67.22" y="-156.95" font-family="Times New Roman,serif" font-size="14.00">VectoCore</text>
</g>
<!-- VectoCommon -->
<g id="node2" class="node">
<title>VectoCommon</title>
<ellipse fill="none" stroke="black" cx="67.22" cy="-18" rx="67.22" ry="18"/>
<text xml:space="preserve" text-anchor="middle" x="67.22" y="-12.95" font-family="Times New Roman,serif" font-size="14.00">VectoCommon</text>
</g>
<!-- VectoCore&#45;&gt;VectoCommon -->
<g id="edge1" class="edge">
<title>VectoCore&#45;&gt;VectoCommon</title>
<path fill="none" stroke="black" d="M56.44,-144.08C50.68,-134.03 44.18,-120.78 41.22,-108 37.6,-92.41 37.6,-87.59 41.22,-72 43.28,-63.11 47.05,-54 51.09,-45.89"/>
<polygon fill="black" stroke="black" points="54.09,-47.72 55.73,-37.25 47.92,-44.41 54.09,-47.72"/>
</g>
<!-- VectoHashing -->
<g id="node3" class="node">
<title>VectoHashing</title>
<ellipse fill="none" stroke="black" cx="113.22" cy="-90" rx="62.61" ry="18"/>
<text xml:space="preserve" text-anchor="middle" x="113.22" y="-84.95" font-family="Times New Roman,serif" font-size="14.00">VectoHashing</text>
</g>
<!-- VectoCore&#45;&gt;VectoHashing -->
<g id="edge2" class="edge">
<title>VectoCore&#45;&gt;VectoHashing</title>
<path fill="none" stroke="black" d="M78.35,-144.05C83.61,-136.06 90,-126.33 95.87,-117.4"/>
<polygon fill="black" stroke="black" points="98.79,-119.33 101.35,-109.05 92.94,-115.49 98.79,-119.33"/>
</g>
<!-- VectoHashing&#45;&gt;VectoCommon -->
<g id="edge3" class="edge">
<title>VectoHashing&#45;&gt;VectoCommon</title>
<path fill="none" stroke="black" d="M102.08,-72.05C96.83,-64.06 90.43,-54.33 84.57,-45.4"/>
<polygon fill="black" stroke="black" points="87.5,-43.49 79.08,-37.05 81.65,-47.33 87.5,-43.49"/>
</g>
<!-- VectoInputManager -->
<g id="node4" class="node">
<title>VectoInputManager</title>
<ellipse fill="none" stroke="black" cx="131.22" cy="-306" rx="84.62" ry="18"/>
<text xml:space="preserve" text-anchor="middle" x="131.22" y="-300.95" font-family="Times New Roman,serif" font-size="14.00">VectoInputManager</text>
</g>
<!-- VectoInputManagerCore -->
<g id="node5" class="node">
<title>VectoInputManagerCore</title>
<ellipse fill="none" stroke="black" cx="131.22" cy="-234" rx="102.53" ry="18"/>
<text xml:space="preserve" text-anchor="middle" x="131.22" y="-228.95" font-family="Times New Roman,serif" font-size="14.00">VectoInputManagerCore</text>
</g>
<!-- VectoInputManager&#45;&gt;VectoInputManagerCore -->
<g id="edge4" class="edge">
<title>VectoInputManager&#45;&gt;VectoInputManagerCore</title>
<path fill="none" stroke="black" d="M131.22,-287.7C131.22,-280.41 131.22,-271.73 131.22,-263.54"/>
<polygon fill="black" stroke="black" points="134.72,-263.62 131.22,-253.62 127.72,-263.62 134.72,-263.62"/>
</g>
<!-- VectoInputManagerCore&#45;&gt;VectoCore -->
<g id="edge5" class="edge">
<title>VectoInputManagerCore&#45;&gt;VectoCore</title>
<path fill="none" stroke="black" d="M115.72,-216.05C107.91,-207.5 98.28,-196.97 89.67,-187.56"/>
<polygon fill="black" stroke="black" points="92.48,-185.44 83.15,-180.42 87.31,-190.17 92.48,-185.44"/>
</g>
<!-- VectoObjects -->
<g id="node6" class="node">
<title>VectoObjects</title>
<ellipse fill="none" stroke="black" cx="195.22" cy="-162" rx="60.05" ry="18"/>
<text xml:space="preserve" text-anchor="middle" x="195.22" y="-156.95" font-family="Times New Roman,serif" font-size="14.00">VectoObjects</text>
</g>
<!-- VectoInputManagerCore&#45;&gt;VectoObjects -->
<g id="edge6" class="edge">
<title>VectoInputManagerCore&#45;&gt;VectoObjects</title>
<path fill="none" stroke="black" d="M146.71,-216.05C154.34,-207.71 163.68,-197.49 172.13,-188.25"/>
<polygon fill="black" stroke="black" points="174.68,-190.65 178.85,-180.91 169.52,-185.92 174.68,-190.65"/>
</g>
</g>
</svg>
