<?xml version="1.0" encoding="UTF-8" standalone="no"?>
<!DOCTYPE svg PUBLIC "-//W3C//DTD SVG 1.1//EN"
 "http://www.w3.org/Graphics/SVG/1.1/DTD/svg11.dtd">
<!-- Generated by graphviz version 14.0.2 (20251019.1705)
 -->
<!-- Title: Graphical Class Hierarchy Pages: 1 -->
<svg width="353pt" height="66pt"
 viewBox="0.00 0.00 353.00 66.00" xmlns="http://www.w3.org/2000/svg" xmlns:xlink="http://www.w3.org/1999/xlink">
<g id="graph0" class="graph" transform="scale(1 1) rotate(0) translate(4 62)">
<title>Graphical Class Hierarchy</title>
<!-- Node0 -->
<g id="Node000000" class="node">
<title>Node0</title>
<g id="a_Node000000"><a xlink:href="interface_vecto_objects_1_1_i_signature_type.html" target="_top" xlink:title=" ">
<polygon fill="white" stroke="#666666" points="142.75,-39 0,-39 0,-19 142.75,-19 142.75,-39"/>
<text xml:space="preserve" text-anchor="middle" x="71.38" y="-25.5" font-family="Helvetica,sans-Serif" font-size="10.00">VectoObjects.ISignatureType</text>
</a>
</g>
</g>
<!-- Node1 -->
<g id="Node000001" class="node">
<title>Node1</title>
<g id="a_Node000001"><a xlink:href="class_vecto_objects_1_1_signature_type__v1__0.html" target="_top" xlink:title=" ">
<polygon fill="white" stroke="#666666" points="344.75,-58 178.75,-58 178.75,-38 344.75,-38 344.75,-58"/>
<text xml:space="preserve" text-anchor="middle" x="261.75" y="-44.5" font-family="Helvetica,sans-Serif" font-size="10.00">VectoObjects.SignatureType_v1_0</text>
</a>
</g>
</g>
<!-- Node0&#45;&gt;Node1 -->
<g id="edge396_Node000000_Node000001" class="edge">
<title>Node0&#45;&gt;Node1</title>
<g id="a_edge396_Node000000_Node000001"><a xlink:title=" ">
<path fill="none" stroke="#63b8ff" d="M154.49,-37.28C162.38,-38.08 170.37,-38.88 178.26,-39.68"/>
<polygon fill="#63b8ff" stroke="#63b8ff" points="154.86,-33.8 144.56,-36.28 154.16,-40.77 154.86,-33.8"/>
</a>
</g>
</g>
<!-- Node2 -->
<g id="Node000002" class="node">
<title>Node2</title>
<g id="a_Node000002"><a xlink:href="class_vecto_objects_1_1_signature_type__v2__0.html" target="_top" xlink:title=" ">
<polygon fill="white" stroke="#666666" points="344.75,-20 178.75,-20 178.75,0 344.75,0 344.75,-20"/>
<text xml:space="preserve" text-anchor="middle" x="261.75" y="-6.5" font-family="Helvetica,sans-Serif" font-size="10.00">VectoObjects.SignatureType_v2_0</text>
</a>
</g>
</g>
<!-- Node0&#45;&gt;Node2 -->
<g id="edge397_Node000000_Node000002" class="edge">
<title>Node0&#45;&gt;Node2</title>
<g id="a_edge397_Node000000_Node000002"><a xlink:title=" ">
<path fill="none" stroke="#63b8ff" d="M154.49,-20.72C162.38,-19.92 170.37,-19.12 178.26,-18.32"/>
<polygon fill="#63b8ff" stroke="#63b8ff" points="154.16,-17.23 144.56,-21.72 154.86,-24.2 154.16,-17.23"/>
</a>
</g>
</g>
</g>
</svg>
