<?xml version="1.0" encoding="UTF-8" standalone="no"?>
<!DOCTYPE svg PUBLIC "-//W3C//DTD SVG 1.1//EN"
 "http://www.w3.org/Graphics/SVG/1.1/DTD/svg11.dtd">
<!-- Generated by graphviz version 14.0.2 (20251019.1705)
 -->
<!-- Title: Graphical Class Hierarchy Pages: 1 -->
<svg width="453pt" height="352pt"
 viewBox="0.00 0.00 453.00 352.00" xmlns="http://www.w3.org/2000/svg" xmlns:xlink="http://www.w3.org/1999/xlink">
<g id="graph0" class="graph" transform="scale(1 1) rotate(0) translate(4 348)">
<title>Graphical Class Hierarchy</title>
<!-- Node0 -->
<g id="Node000000" class="node">
<title>Node0</title>
<g id="a_Node000000"><a xlink:href="class_vecto_objects_1_1_abstract_electric_machine_system_voltage_level_type__v2__3.html" target="_top" xlink:title=" ">
<polygon fill="white" stroke="#666666" points="189.25,-182 0,-182 0,-150 189.25,-150 189.25,-182"/>
<text xml:space="preserve" text-anchor="start" x="8" y="-168.5" font-family="Helvetica,sans-Serif" font-size="10.00">VectoObjects.AbstractElectric</text>
<text xml:space="preserve" text-anchor="middle" x="94.62" y="-156.5" font-family="Helvetica,sans-Serif" font-size="10.00">MachineSystemVoltageLevelType_v2_3</text>
</a>
</g>
</g>
<!-- Node1 -->
<g id="Node000001" class="node">
<title>Node1</title>
<g id="a_Node000001"><a xlink:href="class_vecto_objects_1_1_electric_machine_system_i_h_p_c_voltage_level_measured_type__v2__3.html" target="_top" xlink:title=" ">
<polygon fill="white" stroke="#666666" points="445.25,-344 225.25,-344 225.25,-312 445.25,-312 445.25,-344"/>
<text xml:space="preserve" text-anchor="start" x="233.25" y="-330.5" font-family="Helvetica,sans-Serif" font-size="10.00">VectoObjects.ElectricMachine</text>
<text xml:space="preserve" text-anchor="middle" x="335.25" y="-318.5" font-family="Helvetica,sans-Serif" font-size="10.00">SystemIHPCVoltageLevelMeasuredType_v2_3</text>
</a>
</g>
</g>
<!-- Node0&#45;&gt;Node1 -->
<g id="edge101_Node000000_Node000001" class="edge">
<title>Node0&#45;&gt;Node1</title>
<g id="a_edge101_Node000000_Node000001"><a xlink:title=" ">
<path fill="none" stroke="#63b8ff" d="M112.76,-191.85C134.92,-223.15 176.51,-275.14 225.25,-303 230.98,-306.28 237.11,-309.12 243.44,-311.6"/>
<polygon fill="#63b8ff" stroke="#63b8ff" points="115.69,-189.94 107.12,-183.71 109.94,-193.92 115.69,-189.94"/>
</a>
</g>
</g>
<!-- Node2 -->
<g id="Node000002" class="node">
<title>Node2</title>
<g id="a_Node000002"><a xlink:href="class_vecto_objects_1_1_electric_machine_system_voltage_level_measured_type__v2__3.html" target="_top" xlink:title=" ">
<polygon fill="white" stroke="#666666" points="432.88,-294 237.62,-294 237.62,-262 432.88,-262 432.88,-294"/>
<text xml:space="preserve" text-anchor="start" x="245.62" y="-280.5" font-family="Helvetica,sans-Serif" font-size="10.00">VectoObjects.ElectricMachine</text>
<text xml:space="preserve" text-anchor="middle" x="335.25" y="-268.5" font-family="Helvetica,sans-Serif" font-size="10.00">SystemVoltageLevelMeasuredType_v2_3</text>
</a>
</g>
</g>
<!-- Node0&#45;&gt;Node2 -->
<g id="edge102_Node000000_Node000002" class="edge">
<title>Node0&#45;&gt;Node2</title>
<g id="a_edge102_Node000000_Node000002"><a xlink:title=" ">
<path fill="none" stroke="#63b8ff" d="M123.89,-189.46C149.02,-209.17 187.53,-236.68 225.25,-253 232.73,-256.24 240.7,-259.09 248.78,-261.59"/>
<polygon fill="#63b8ff" stroke="#63b8ff" points="126.12,-186.76 116.12,-183.26 121.76,-192.23 126.12,-186.76"/>
</a>
</g>
</g>
<!-- Node3 -->
<g id="Node000003" class="node">
<title>Node3</title>
<g id="a_Node000003"><a xlink:href="class_vecto_objects_1_1_electric_machine_system_voltage_level_standard_values_type__v2__3.html" target="_top" xlink:title=" ">
<polygon fill="white" stroke="#666666" points="422,-244 248.5,-244 248.5,-200 422,-200 422,-244"/>
<text xml:space="preserve" text-anchor="start" x="256.5" y="-230.5" font-family="Helvetica,sans-Serif" font-size="10.00">VectoObjects.ElectricMachine</text>
<text xml:space="preserve" text-anchor="start" x="256.5" y="-218.5" font-family="Helvetica,sans-Serif" font-size="10.00">SystemVoltageLevelStandardValues</text>
<text xml:space="preserve" text-anchor="middle" x="335.25" y="-206.5" font-family="Helvetica,sans-Serif" font-size="10.00">Type_v2_3</text>
</a>
</g>
</g>
<!-- Node0&#45;&gt;Node3 -->
<g id="edge103_Node000000_Node000003" class="edge">
<title>Node0&#45;&gt;Node3</title>
<g id="a_edge103_Node000000_Node000003"><a xlink:title=" ">
<path fill="none" stroke="#63b8ff" d="M177.04,-185.11C200.04,-190.5 225.14,-196.39 248.4,-201.85"/>
<polygon fill="#63b8ff" stroke="#63b8ff" points="177.94,-181.72 167.4,-182.84 176.34,-188.54 177.94,-181.72"/>
</a>
</g>
</g>
<!-- Node4 -->
<g id="Node000004" class="node">
<title>Node4</title>
<g id="a_Node000004"><a xlink:href="class_vecto_objects_1_1_i_e_p_c_system_voltage_level_measured_type__v2__3.html" target="_top" xlink:title=" ">
<polygon fill="white" stroke="#666666" points="419,-182 251.5,-182 251.5,-150 419,-150 419,-182"/>
<text xml:space="preserve" text-anchor="start" x="259.5" y="-168.5" font-family="Helvetica,sans-Serif" font-size="10.00">VectoObjects.IEPCSystemVoltage</text>
<text xml:space="preserve" text-anchor="middle" x="335.25" y="-156.5" font-family="Helvetica,sans-Serif" font-size="10.00">LevelMeasuredType_v2_3</text>
</a>
</g>
</g>
<!-- Node0&#45;&gt;Node4 -->
<g id="edge104_Node000000_Node000004" class="edge">
<title>Node0&#45;&gt;Node4</title>
<g id="a_edge104_Node000000_Node000004"><a xlink:title=" ">
<path fill="none" stroke="#63b8ff" d="M200.65,-166C217.57,-166 234.89,-166 251.21,-166"/>
<polygon fill="#63b8ff" stroke="#63b8ff" points="201.11,-162.5 191.11,-166 201.11,-169.5 201.11,-162.5"/>
</a>
</g>
</g>
<!-- Node5 -->
<g id="Node000005" class="node">
<title>Node5</title>
<g id="a_Node000005"><a xlink:href="class_vecto_objects_1_1_i_e_p_c_system_voltage_level_measured_type__v2__6.html" target="_top" xlink:title=" ">
<polygon fill="white" stroke="#666666" points="419,-132 251.5,-132 251.5,-100 419,-100 419,-132"/>
<text xml:space="preserve" text-anchor="start" x="259.5" y="-118.5" font-family="Helvetica,sans-Serif" font-size="10.00">VectoObjects.IEPCSystemVoltage</text>
<text xml:space="preserve" text-anchor="middle" x="335.25" y="-106.5" font-family="Helvetica,sans-Serif" font-size="10.00">LevelMeasuredType_v2_6</text>
</a>
</g>
</g>
<!-- Node0&#45;&gt;Node5 -->
<g id="edge105_Node000000_Node000005" class="edge">
<title>Node0&#45;&gt;Node5</title>
<g id="a_edge105_Node000000_Node000005"><a xlink:title=" ">
<path fill="none" stroke="#63b8ff" d="M185.31,-147.21C208.46,-142.36 233.2,-137.17 255.74,-132.45"/>
<polygon fill="#63b8ff" stroke="#63b8ff" points="184.64,-143.77 175.57,-149.25 186.08,-150.62 184.64,-143.77"/>
</a>
</g>
</g>
<!-- Node6 -->
<g id="Node000006" class="node">
<title>Node6</title>
<g id="a_Node000006"><a xlink:href="class_vecto_objects_1_1_i_e_p_c_system_voltage_level_standard_values_type__v2__3.html" target="_top" xlink:title=" ">
<polygon fill="white" stroke="#666666" points="419,-82 251.5,-82 251.5,-50 419,-50 419,-82"/>
<text xml:space="preserve" text-anchor="start" x="259.5" y="-68.5" font-family="Helvetica,sans-Serif" font-size="10.00">VectoObjects.IEPCSystemVoltage</text>
<text xml:space="preserve" text-anchor="middle" x="335.25" y="-56.5" font-family="Helvetica,sans-Serif" font-size="10.00">LevelStandardValuesType_v2_3</text>
</a>
</g>
</g>
<!-- Node0&#45;&gt;Node6 -->
<g id="edge106_Node000000_Node000006" class="edge">
<title>Node0&#45;&gt;Node6</title>
<g id="a_edge106_Node000000_Node000006"><a xlink:title=" ">
<path fill="none" stroke="#63b8ff" d="M128.4,-143.33C153.8,-126.7 190.44,-104.7 225.25,-91 233.47,-87.76 242.21,-84.89 251.03,-82.35"/>
<polygon fill="#63b8ff" stroke="#63b8ff" points="126.56,-140.36 120.16,-148.81 130.43,-146.19 126.56,-140.36"/>
</a>
</g>
</g>
<!-- Node7 -->
<g id="Node000007" class="node">
<title>Node7</title>
<g id="a_Node000007"><a xlink:href="class_vecto_objects_1_1_i_e_p_c_system_voltage_level_standard_values_type__v2__6.html" target="_top" xlink:title=" ">
<polygon fill="white" stroke="#666666" points="419,-32 251.5,-32 251.5,0 419,0 419,-32"/>
<text xml:space="preserve" text-anchor="start" x="259.5" y="-18.5" font-family="Helvetica,sans-Serif" font-size="10.00">VectoObjects.IEPCSystemVoltage</text>
<text xml:space="preserve" text-anchor="middle" x="335.25" y="-6.5" font-family="Helvetica,sans-Serif" font-size="10.00">LevelStandardValuesType_v2_6</text>
</a>
</g>
</g>
<!-- Node0&#45;&gt;Node7 -->
<g id="edge107_Node000000_Node000007" class="edge">
<title>Node0&#45;&gt;Node7</title>
<g id="a_edge107_Node000000_Node000007"><a xlink:title=" ">
<path fill="none" stroke="#63b8ff" d="M114.67,-140.71C137.67,-112.03 179.06,-66.01 225.25,-41 233.36,-36.61 242.21,-32.99 251.25,-30"/>
<polygon fill="#63b8ff" stroke="#63b8ff" points="111.96,-138.5 108.53,-148.53 117.46,-142.83 111.96,-138.5"/>
</a>
</g>
</g>
</g>
</svg>
