<?xml version="1.0" encoding="UTF-8" standalone="no"?>
<!DOCTYPE svg PUBLIC "-//W3C//DTD SVG 1.1//EN"
 "http://www.w3.org/Graphics/SVG/1.1/DTD/svg11.dtd">
<!-- Generated by graphviz version 14.0.2 (20251019.1705)
 -->
<!-- Title: Graphical Class Hierarchy Pages: 1 -->
<svg width="536pt" height="78pt"
 viewBox="0.00 0.00 536.00 78.00" xmlns="http://www.w3.org/2000/svg" xmlns:xlink="http://www.w3.org/1999/xlink">
<g id="graph0" class="graph" transform="scale(1 1) rotate(0) translate(4 74)">
<title>Graphical Class Hierarchy</title>
<!-- Node0 -->
<g id="Node000000" class="node">
<title>Node0</title>
<g id="a_Node000000"><a xlink:href="class_vecto_objects_1_1_abstract_p_t_o_data_type__v2__0.html" target="_top" xlink:title=" ">
<polygon fill="white" stroke="#666666" points="155.5,-48 0,-48 0,-16 155.5,-16 155.5,-48"/>
<text xml:space="preserve" text-anchor="start" x="8" y="-34.5" font-family="Helvetica,sans-Serif" font-size="10.00">VectoObjects.AbstractPTOData</text>
<text xml:space="preserve" text-anchor="middle" x="77.75" y="-22.5" font-family="Helvetica,sans-Serif" font-size="10.00">Type_v2_0</text>
</a>
</g>
</g>
<!-- Node1 -->
<g id="Node000001" class="node">
<title>Node1</title>
<g id="a_Node000001"><a xlink:href="class_vecto_objects_1_1_abstract_p_t_o_data_type__v2__4.html" target="_top" xlink:title=" ">
<polygon fill="white" stroke="#666666" points="347,-70 191.5,-70 191.5,-38 347,-38 347,-70"/>
<text xml:space="preserve" text-anchor="start" x="199.5" y="-56.5" font-family="Helvetica,sans-Serif" font-size="10.00">VectoObjects.AbstractPTOData</text>
<text xml:space="preserve" text-anchor="middle" x="269.25" y="-44.5" font-family="Helvetica,sans-Serif" font-size="10.00">Type_v2_4</text>
</a>
</g>
</g>
<!-- Node0&#45;&gt;Node1 -->
<g id="edge114_Node000000_Node000001" class="edge">
<title>Node0&#45;&gt;Node1</title>
<g id="a_edge114_Node000000_Node000001"><a xlink:title=" ">
<path fill="none" stroke="#63b8ff" d="M167.14,-42.26C175.19,-43.2 183.3,-44.14 191.24,-45.06"/>
<polygon fill="#63b8ff" stroke="#63b8ff" points="167.67,-38.8 157.33,-41.12 166.86,-45.75 167.67,-38.8"/>
</a>
</g>
</g>
<!-- Node3 -->
<g id="Node000003" class="node">
<title>Node3</title>
<g id="a_Node000003"><a xlink:href="class_vecto_objects_1_1_p_t_o_type__v2__0.html" target="_top" xlink:title=" ">
<polygon fill="white" stroke="#666666" points="341.75,-20 196.75,-20 196.75,0 341.75,0 341.75,-20"/>
<text xml:space="preserve" text-anchor="middle" x="269.25" y="-6.5" font-family="Helvetica,sans-Serif" font-size="10.00">VectoObjects.PTOType_v2_0</text>
</a>
</g>
</g>
<!-- Node0&#45;&gt;Node3 -->
<g id="edge116_Node000000_Node000003" class="edge">
<title>Node0&#45;&gt;Node3</title>
<g id="a_edge116_Node000000_Node000003"><a xlink:title=" ">
<path fill="none" stroke="#63b8ff" d="M167.24,-21.73C177.03,-20.59 186.9,-19.44 196.44,-18.34"/>
<polygon fill="#63b8ff" stroke="#63b8ff" points="166.86,-18.25 157.33,-22.88 167.67,-25.2 166.86,-18.25"/>
</a>
</g>
</g>
<!-- Node2 -->
<g id="Node000002" class="node">
<title>Node2</title>
<g id="a_Node000002"><a xlink:href="class_vecto_objects_1_1_p_t_o_type__v2__4.html" target="_top" xlink:title=" ">
<polygon fill="white" stroke="#666666" points="528,-64 383,-64 383,-44 528,-44 528,-64"/>
<text xml:space="preserve" text-anchor="middle" x="455.5" y="-50.5" font-family="Helvetica,sans-Serif" font-size="10.00">VectoObjects.PTOType_v2_4</text>
</a>
</g>
</g>
<!-- Node1&#45;&gt;Node2 -->
<g id="edge115_Node000001_Node000002" class="edge">
<title>Node1&#45;&gt;Node2</title>
<g id="a_edge115_Node000001_Node000002"><a xlink:title=" ">
<path fill="none" stroke="#63b8ff" d="M358.67,-54C366.74,-54 374.85,-54 382.74,-54"/>
<polygon fill="#63b8ff" stroke="#63b8ff" points="358.83,-50.5 348.83,-54 358.83,-57.5 358.83,-50.5"/>
</a>
</g>
</g>
</g>
</svg>
