<?xml version="1.0" encoding="UTF-8" standalone="no"?>
<!DOCTYPE svg PUBLIC "-//W3C//DTD SVG 1.1//EN"
 "http://www.w3.org/Graphics/SVG/1.1/DTD/svg11.dtd">
<!-- Generated by graphviz version 14.0.2 (20251019.1705)
 -->
<!-- Title: Graphical Class Hierarchy Pages: 1 -->
<svg width="300pt" height="140pt"
 viewBox="0.00 0.00 300.00 140.00" xmlns="http://www.w3.org/2000/svg" xmlns:xlink="http://www.w3.org/1999/xlink">
<g id="graph0" class="graph" transform="scale(1 1) rotate(0) translate(4 136)">
<title>Graphical Class Hierarchy</title>
<!-- Node0 -->
<g id="Node000000" class="node">
<title>Node0</title>
<g id="a_Node000000"><a xlink:href="class_vecto_objects_1_1_abstract___s_h_e_v___sx___data_type__v2__7.html" target="_top" xlink:title=" ">
<polygon fill="white" stroke="#666666" points="139.75,-82 0,-82 0,-50 139.75,-50 139.75,-82"/>
<text xml:space="preserve" text-anchor="start" x="8" y="-68.5" font-family="Helvetica,sans-Serif" font-size="10.00">VectoObjects.Abstract</text>
<text xml:space="preserve" text-anchor="middle" x="69.88" y="-56.5" font-family="Helvetica,sans-Serif" font-size="10.00">_SHEV_Sx_DataType_v2_7</text>
</a>
</g>
</g>
<!-- Node1 -->
<g id="Node000001" class="node">
<title>Node1</title>
<g id="a_Node000001"><a xlink:href="class_vecto_objects_1_1_h_e_v___s2___data_type__v2__7.html" target="_top" xlink:title=" ">
<polygon fill="white" stroke="#666666" points="291.5,-132 175.75,-132 175.75,-100 291.5,-100 291.5,-132"/>
<text xml:space="preserve" text-anchor="start" x="183.75" y="-118.5" font-family="Helvetica,sans-Serif" font-size="10.00">VectoObjects.HEV_S2</text>
<text xml:space="preserve" text-anchor="middle" x="233.62" y="-106.5" font-family="Helvetica,sans-Serif" font-size="10.00">_DataType_v2_7</text>
</a>
</g>
</g>
<!-- Node0&#45;&gt;Node1 -->
<g id="edge83_Node000000_Node000001" class="edge">
<title>Node0&#45;&gt;Node1</title>
<g id="a_edge83_Node000000_Node000001"><a xlink:title=" ">
<path fill="none" stroke="#63b8ff" d="M134.46,-85.66C149.29,-90.24 164.93,-95.08 179.27,-99.51"/>
<polygon fill="#63b8ff" stroke="#63b8ff" points="135.87,-82.43 125.28,-82.82 133.8,-89.12 135.87,-82.43"/>
</a>
</g>
</g>
<!-- Node2 -->
<g id="Node000002" class="node">
<title>Node2</title>
<g id="a_Node000002"><a xlink:href="class_vecto_objects_1_1_h_e_v___s3___data_type__v2__7.html" target="_top" xlink:title=" ">
<polygon fill="white" stroke="#666666" points="291.5,-82 175.75,-82 175.75,-50 291.5,-50 291.5,-82"/>
<text xml:space="preserve" text-anchor="start" x="183.75" y="-68.5" font-family="Helvetica,sans-Serif" font-size="10.00">VectoObjects.HEV_S3</text>
<text xml:space="preserve" text-anchor="middle" x="233.62" y="-56.5" font-family="Helvetica,sans-Serif" font-size="10.00">_DataType_v2_7</text>
</a>
</g>
</g>
<!-- Node0&#45;&gt;Node2 -->
<g id="edge84_Node000000_Node000002" class="edge">
<title>Node0&#45;&gt;Node2</title>
<g id="a_edge84_Node000000_Node000002"><a xlink:title=" ">
<path fill="none" stroke="#63b8ff" d="M151.4,-66C159.53,-66 167.67,-66 175.48,-66"/>
<polygon fill="#63b8ff" stroke="#63b8ff" points="151.45,-62.5 141.45,-66 151.45,-69.5 151.45,-62.5"/>
</a>
</g>
</g>
<!-- Node3 -->
<g id="Node000003" class="node">
<title>Node3</title>
<g id="a_Node000003"><a xlink:href="class_vecto_objects_1_1_h_e_v___s4___data_type__v2__7.html" target="_top" xlink:title=" ">
<polygon fill="white" stroke="#666666" points="291.5,-32 175.75,-32 175.75,0 291.5,0 291.5,-32"/>
<text xml:space="preserve" text-anchor="start" x="183.75" y="-18.5" font-family="Helvetica,sans-Serif" font-size="10.00">VectoObjects.HEV_S4</text>
<text xml:space="preserve" text-anchor="middle" x="233.62" y="-6.5" font-family="Helvetica,sans-Serif" font-size="10.00">_DataType_v2_7</text>
</a>
</g>
</g>
<!-- Node0&#45;&gt;Node3 -->
<g id="edge85_Node000000_Node000003" class="edge">
<title>Node0&#45;&gt;Node3</title>
<g id="a_edge85_Node000000_Node000003"><a xlink:title=" ">
<path fill="none" stroke="#63b8ff" d="M134.46,-46.34C149.29,-41.76 164.93,-36.92 179.27,-32.49"/>
<polygon fill="#63b8ff" stroke="#63b8ff" points="133.8,-42.88 125.28,-49.18 135.87,-49.57 133.8,-42.88"/>
</a>
</g>
</g>
</g>
</svg>
