<?xml version="1.0" encoding="UTF-8" standalone="no"?>
<!DOCTYPE svg PUBLIC "-//W3C//DTD SVG 1.1//EN"
 "http://www.w3.org/Graphics/SVG/1.1/DTD/svg11.dtd">
<!-- Generated by graphviz version 14.0.2 (20251019.1705)
 -->
<!-- Title: Graphical Class Hierarchy Pages: 1 -->
<svg width="356pt" height="140pt"
 viewBox="0.00 0.00 356.00 140.00" xmlns="http://www.w3.org/2000/svg" xmlns:xlink="http://www.w3.org/1999/xlink">
<g id="graph0" class="graph" transform="scale(1 1) rotate(0) translate(4 136)">
<title>Graphical Class Hierarchy</title>
<!-- Node0 -->
<g id="Node000000" class="node">
<title>Node0</title>
<g id="a_Node000000"><a xlink:href="class_vecto_objects_1_1_abstract___components___p_e_v___lorry_declaration_type__v2__7.html" target="_top" xlink:title=" ">
<polygon fill="white" stroke="#666666" points="178.75,-88 0,-88 0,-44 178.75,-44 178.75,-88"/>
<text xml:space="preserve" text-anchor="start" x="8" y="-74.5" font-family="Helvetica,sans-Serif" font-size="10.00">VectoObjects.Abstract</text>
<text xml:space="preserve" text-anchor="start" x="8" y="-62.5" font-family="Helvetica,sans-Serif" font-size="10.00">_Components_PEV_LorryDeclaration</text>
<text xml:space="preserve" text-anchor="middle" x="89.38" y="-50.5" font-family="Helvetica,sans-Serif" font-size="10.00">Type_v2_7</text>
</a>
</g>
</g>
<!-- Node1 -->
<g id="Node000001" class="node">
<title>Node1</title>
<g id="a_Node000001"><a xlink:href="class_vecto_objects_1_1_components___p_e_v___e2___lorry_type__v2__7.html" target="_top" xlink:title=" ">
<polygon fill="white" stroke="#666666" points="347.75,-132 214.75,-132 214.75,-100 347.75,-100 347.75,-132"/>
<text xml:space="preserve" text-anchor="start" x="222.75" y="-118.5" font-family="Helvetica,sans-Serif" font-size="10.00">VectoObjects.Components</text>
<text xml:space="preserve" text-anchor="middle" x="281.25" y="-106.5" font-family="Helvetica,sans-Serif" font-size="10.00">_PEV_E2_LorryType_v2_7</text>
</a>
</g>
</g>
<!-- Node0&#45;&gt;Node1 -->
<g id="edge66_Node000000_Node000001" class="edge">
<title>Node0&#45;&gt;Node1</title>
<g id="a_edge66_Node000000_Node000001"><a xlink:title=" ">
<path fill="none" stroke="#63b8ff" d="M186.61,-91.34C197.19,-94.13 207.76,-96.91 217.77,-99.55"/>
<polygon fill="#63b8ff" stroke="#63b8ff" points="187.62,-87.99 177.06,-88.83 185.84,-94.76 187.62,-87.99"/>
</a>
</g>
</g>
<!-- Node2 -->
<g id="Node000002" class="node">
<title>Node2</title>
<g id="a_Node000002"><a xlink:href="class_vecto_objects_1_1_components___p_e_v___e3___lorry_type__v2__7.html" target="_top" xlink:title=" ">
<polygon fill="white" stroke="#666666" points="347.75,-82 214.75,-82 214.75,-50 347.75,-50 347.75,-82"/>
<text xml:space="preserve" text-anchor="start" x="222.75" y="-68.5" font-family="Helvetica,sans-Serif" font-size="10.00">VectoObjects.Components</text>
<text xml:space="preserve" text-anchor="middle" x="281.25" y="-56.5" font-family="Helvetica,sans-Serif" font-size="10.00">_PEV_E3_LorryType_v2_7</text>
</a>
</g>
</g>
<!-- Node0&#45;&gt;Node2 -->
<g id="edge67_Node000000_Node000002" class="edge">
<title>Node0&#45;&gt;Node2</title>
<g id="a_edge67_Node000000_Node000002"><a xlink:title=" ">
<path fill="none" stroke="#63b8ff" d="M190.62,-66C198.69,-66 206.71,-66 214.45,-66"/>
<polygon fill="#63b8ff" stroke="#63b8ff" points="190.71,-62.5 180.71,-66 190.71,-69.5 190.71,-62.5"/>
</a>
</g>
</g>
<!-- Node3 -->
<g id="Node000003" class="node">
<title>Node3</title>
<g id="a_Node000003"><a xlink:href="class_vecto_objects_1_1_components___p_e_v___e4___lorry_type__v2__7.html" target="_top" xlink:title=" ">
<polygon fill="white" stroke="#666666" points="347.75,-32 214.75,-32 214.75,0 347.75,0 347.75,-32"/>
<text xml:space="preserve" text-anchor="start" x="222.75" y="-18.5" font-family="Helvetica,sans-Serif" font-size="10.00">VectoObjects.Components</text>
<text xml:space="preserve" text-anchor="middle" x="281.25" y="-6.5" font-family="Helvetica,sans-Serif" font-size="10.00">_PEV_E4_LorryType_v2_7</text>
</a>
</g>
</g>
<!-- Node0&#45;&gt;Node3 -->
<g id="edge68_Node000000_Node000003" class="edge">
<title>Node0&#45;&gt;Node3</title>
<g id="a_edge68_Node000000_Node000003"><a xlink:title=" ">
<path fill="none" stroke="#63b8ff" d="M186.61,-40.66C197.19,-37.87 207.76,-35.09 217.77,-32.45"/>
<polygon fill="#63b8ff" stroke="#63b8ff" points="185.84,-37.24 177.06,-43.17 187.62,-44.01 185.84,-37.24"/>
</a>
</g>
</g>
</g>
</svg>
