<?xml version="1.0" encoding="UTF-8" standalone="no"?>
<!DOCTYPE svg PUBLIC "-//W3C//DTD SVG 1.1//EN"
 "http://www.w3.org/Graphics/SVG/1.1/DTD/svg11.dtd">
<!-- Generated by graphviz version 14.0.2 (20251019.1705)
 -->
<!-- Title: Graphical Class Hierarchy Pages: 1 -->
<svg width="576pt" height="90pt"
 viewBox="0.00 0.00 576.00 90.00" xmlns="http://www.w3.org/2000/svg" xmlns:xlink="http://www.w3.org/1999/xlink">
<g id="graph0" class="graph" transform="scale(1 1) rotate(0) translate(4 86)">
<title>Graphical Class Hierarchy</title>
<!-- Node0 -->
<g id="Node000000" class="node">
<title>Node0</title>
<g id="a_Node000000"><a xlink:href="class_vecto_objects_1_1_abstract_advanced_driver_assistant_systems_type__v2__1.html" target="_top" xlink:title=" ">
<polygon fill="white" stroke="#666666" points="169.75,-57 0,-57 0,-25 169.75,-25 169.75,-57"/>
<text xml:space="preserve" text-anchor="start" x="8" y="-43.5" font-family="Helvetica,sans-Serif" font-size="10.00">VectoObjects.AbstractAdvanced</text>
<text xml:space="preserve" text-anchor="middle" x="84.88" y="-31.5" font-family="Helvetica,sans-Serif" font-size="10.00">DriverAssistantSystemsType_v2_1</text>
</a>
</g>
</g>
<!-- Node1 -->
<g id="Node000001" class="node">
<title>Node1</title>
<g id="a_Node000001"><a xlink:href="class_vecto_objects_1_1_abstract___a_d_a_s___conventional_type__v2__4.html" target="_top" xlink:title=" ">
<polygon fill="white" stroke="#666666" points="364.25,-82 205.75,-82 205.75,-50 364.25,-50 364.25,-82"/>
<text xml:space="preserve" text-anchor="start" x="213.75" y="-68.5" font-family="Helvetica,sans-Serif" font-size="10.00">VectoObjects.Abstract</text>
<text xml:space="preserve" text-anchor="middle" x="285" y="-56.5" font-family="Helvetica,sans-Serif" font-size="10.00">_ADAS_ConventionalType_v2_4</text>
</a>
</g>
</g>
<!-- Node0&#45;&gt;Node1 -->
<g id="edge90_Node000000_Node000001" class="edge">
<title>Node0&#45;&gt;Node1</title>
<g id="a_edge90_Node000000_Node000001"><a xlink:title=" ">
<path fill="none" stroke="#63b8ff" d="M181.48,-53.06C189.5,-54.08 197.56,-55.09 205.43,-56.09"/>
<polygon fill="#63b8ff" stroke="#63b8ff" points="182.05,-49.61 171.69,-51.83 181.17,-56.55 182.05,-49.61"/>
</a>
</g>
</g>
<!-- Node3 -->
<g id="Node000003" class="node">
<title>Node3</title>
<g id="a_Node000003"><a xlink:href="class_vecto_objects_1_1_advanced_driver_assistant_systems_type__v2__1.html" target="_top" xlink:title=" ">
<polygon fill="white" stroke="#666666" points="358.62,-32 211.38,-32 211.38,0 358.62,0 358.62,-32"/>
<text xml:space="preserve" text-anchor="start" x="219.38" y="-18.5" font-family="Helvetica,sans-Serif" font-size="10.00">VectoObjects.AdvancedDriver</text>
<text xml:space="preserve" text-anchor="middle" x="285" y="-6.5" font-family="Helvetica,sans-Serif" font-size="10.00">AssistantSystemsType_v2_1</text>
</a>
</g>
</g>
<!-- Node0&#45;&gt;Node3 -->
<g id="edge92_Node000000_Node000003" class="edge">
<title>Node0&#45;&gt;Node3</title>
<g id="a_edge92_Node000000_Node000003"><a xlink:title=" ">
<path fill="none" stroke="#63b8ff" d="M181.39,-28.95C191.36,-27.69 201.37,-26.43 211.03,-25.21"/>
<polygon fill="#63b8ff" stroke="#63b8ff" points="181.17,-25.45 171.69,-30.17 182.05,-32.39 181.17,-25.45"/>
</a>
</g>
</g>
<!-- Node2 -->
<g id="Node000002" class="node">
<title>Node2</title>
<g id="a_Node000002"><a xlink:href="class_vecto_objects_1_1_a_d_a_s___conventional___type__v2__4.html" target="_top" xlink:title=" ">
<polygon fill="white" stroke="#666666" points="567.75,-82 400.25,-82 400.25,-50 567.75,-50 567.75,-82"/>
<text xml:space="preserve" text-anchor="start" x="408.25" y="-68.5" font-family="Helvetica,sans-Serif" font-size="10.00">VectoObjects.ADAS_Conventional</text>
<text xml:space="preserve" text-anchor="middle" x="484" y="-56.5" font-family="Helvetica,sans-Serif" font-size="10.00">_Type_v2_4</text>
</a>
</g>
</g>
<!-- Node1&#45;&gt;Node2 -->
<g id="edge91_Node000001_Node000002" class="edge">
<title>Node1&#45;&gt;Node2</title>
<g id="a_edge91_Node000001_Node000002"><a xlink:title=" ">
<path fill="none" stroke="#63b8ff" d="M376.2,-66C384.1,-66 392.06,-66 399.9,-66"/>
<polygon fill="#63b8ff" stroke="#63b8ff" points="376.22,-62.5 366.22,-66 376.22,-69.5 376.22,-62.5"/>
</a>
</g>
</g>
</g>
</svg>
