<?xml version="1.0" encoding="UTF-8" standalone="no"?>
<!DOCTYPE svg PUBLIC "-//W3C//DTD SVG 1.1//EN"
 "http://www.w3.org/Graphics/SVG/1.1/DTD/svg11.dtd">
<!-- Generated by graphviz version 14.0.2 (20251019.1705)
 -->
<!-- Title: Graphical Class Hierarchy Pages: 1 -->
<svg width="414pt" height="140pt"
 viewBox="0.00 0.00 414.00 140.00" xmlns="http://www.w3.org/2000/svg" xmlns:xlink="http://www.w3.org/1999/xlink">
<g id="graph0" class="graph" transform="scale(1 1) rotate(0) translate(4 136)">
<title>Graphical Class Hierarchy</title>
<!-- Node0 -->
<g id="Node000000" class="node">
<title>Node0</title>
<g id="a_Node000000"><a xlink:href="class_vecto_objects_1_1_abstract___components___p_e_v___primary_bus_declaration_type__v2__7.html" target="_top" xlink:title=" ">
<polygon fill="white" stroke="#666666" points="208,-88 0,-88 0,-44 208,-44 208,-88"/>
<text xml:space="preserve" text-anchor="start" x="8" y="-74.5" font-family="Helvetica,sans-Serif" font-size="10.00">VectoObjects.Abstract</text>
<text xml:space="preserve" text-anchor="start" x="8" y="-62.5" font-family="Helvetica,sans-Serif" font-size="10.00">_Components_PEV_PrimaryBusDeclaration</text>
<text xml:space="preserve" text-anchor="middle" x="104" y="-50.5" font-family="Helvetica,sans-Serif" font-size="10.00">Type_v2_7</text>
</a>
</g>
</g>
<!-- Node1 -->
<g id="Node000001" class="node">
<title>Node1</title>
<g id="a_Node000001"><a xlink:href="class_vecto_objects_1_1_components___p_e_v___e2___primary_bus_type__v2__7.html" target="_top" xlink:title=" ">
<polygon fill="white" stroke="#666666" points="406.25,-132 244,-132 244,-100 406.25,-100 406.25,-132"/>
<text xml:space="preserve" text-anchor="start" x="252" y="-118.5" font-family="Helvetica,sans-Serif" font-size="10.00">VectoObjects.Components</text>
<text xml:space="preserve" text-anchor="middle" x="325.12" y="-106.5" font-family="Helvetica,sans-Serif" font-size="10.00">_PEV_E2_PrimaryBusType_v2_7</text>
</a>
</g>
</g>
<!-- Node0&#45;&gt;Node1 -->
<g id="edge69_Node000000_Node000001" class="edge">
<title>Node0&#45;&gt;Node1</title>
<g id="a_edge69_Node000000_Node000001"><a xlink:title=" ">
<path fill="none" stroke="#63b8ff" d="M214.52,-90.99C227.25,-93.89 239.98,-96.8 252.02,-99.55"/>
<polygon fill="#63b8ff" stroke="#63b8ff" points="215.35,-87.59 204.82,-88.78 213.79,-94.41 215.35,-87.59"/>
</a>
</g>
</g>
<!-- Node2 -->
<g id="Node000002" class="node">
<title>Node2</title>
<g id="a_Node000002"><a xlink:href="class_vecto_objects_1_1_components___p_e_v___e3___primary_bus_type__v2__7.html" target="_top" xlink:title=" ">
<polygon fill="white" stroke="#666666" points="406.25,-82 244,-82 244,-50 406.25,-50 406.25,-82"/>
<text xml:space="preserve" text-anchor="start" x="252" y="-68.5" font-family="Helvetica,sans-Serif" font-size="10.00">VectoObjects.Components</text>
<text xml:space="preserve" text-anchor="middle" x="325.12" y="-56.5" font-family="Helvetica,sans-Serif" font-size="10.00">_PEV_E3_PrimaryBusType_v2_7</text>
</a>
</g>
</g>
<!-- Node0&#45;&gt;Node2 -->
<g id="edge70_Node000000_Node000002" class="edge">
<title>Node0&#45;&gt;Node2</title>
<g id="a_edge70_Node000000_Node000002"><a xlink:title=" ">
<path fill="none" stroke="#63b8ff" d="M219.87,-66C227.93,-66 235.96,-66 243.77,-66"/>
<polygon fill="#63b8ff" stroke="#63b8ff" points="219.98,-62.5 209.98,-66 219.98,-69.5 219.98,-62.5"/>
</a>
</g>
</g>
<!-- Node3 -->
<g id="Node000003" class="node">
<title>Node3</title>
<g id="a_Node000003"><a xlink:href="class_vecto_objects_1_1_components___p_e_v___e4___primary_bus_type__v2__7.html" target="_top" xlink:title=" ">
<polygon fill="white" stroke="#666666" points="406.25,-32 244,-32 244,0 406.25,0 406.25,-32"/>
<text xml:space="preserve" text-anchor="start" x="252" y="-18.5" font-family="Helvetica,sans-Serif" font-size="10.00">VectoObjects.Components</text>
<text xml:space="preserve" text-anchor="middle" x="325.12" y="-6.5" font-family="Helvetica,sans-Serif" font-size="10.00">_PEV_E4_PrimaryBusType_v2_7</text>
</a>
</g>
</g>
<!-- Node0&#45;&gt;Node3 -->
<g id="edge71_Node000000_Node000003" class="edge">
<title>Node0&#45;&gt;Node3</title>
<g id="a_edge71_Node000000_Node000003"><a xlink:title=" ">
<path fill="none" stroke="#63b8ff" d="M214.52,-41.01C227.25,-38.11 239.98,-35.2 252.02,-32.45"/>
<polygon fill="#63b8ff" stroke="#63b8ff" points="213.79,-37.59 204.82,-43.22 215.35,-44.41 213.79,-37.59"/>
</a>
</g>
</g>
</g>
</svg>
