<?xml version="1.0" encoding="UTF-8" standalone="no"?>
<!DOCTYPE svg PUBLIC "-//W3C//DTD SVG 1.1//EN"
 "http://www.w3.org/Graphics/SVG/1.1/DTD/svg11.dtd">
<!-- Generated by graphviz version 14.0.2 (20251019.1705)
 -->
<!-- Title: Graphical Class Hierarchy Pages: 1 -->
<svg width="324pt" height="140pt"
 viewBox="0.00 0.00 324.00 140.00" xmlns="http://www.w3.org/2000/svg" xmlns:xlink="http://www.w3.org/1999/xlink">
<g id="graph0" class="graph" transform="scale(1 1) rotate(0) translate(4 136)">
<title>Graphical Class Hierarchy</title>
<!-- Node0 -->
<g id="Node000000" class="node">
<title>Node0</title>
<g id="a_Node000000"><a xlink:href="interface_vecto_objects_1_1_i_vehicle_job_declaration.html" target="_top" xlink:title=" ">
<polygon fill="white" stroke="#666666" points="127.75,-82 0,-82 0,-50 127.75,-50 127.75,-82"/>
<text xml:space="preserve" text-anchor="start" x="8" y="-68.5" font-family="Helvetica,sans-Serif" font-size="10.00">VectoObjects.IVehicleJob</text>
<text xml:space="preserve" text-anchor="middle" x="63.88" y="-56.5" font-family="Helvetica,sans-Serif" font-size="10.00">Declaration</text>
</a>
</g>
</g>
<!-- Node1 -->
<g id="Node000001" class="node">
<title>Node1</title>
<g id="a_Node000001"><a xlink:href="class_vecto_objects_1_1_vecto_declaration_job_type__v1__0.html" target="_top" xlink:title=" ">
<polygon fill="white" stroke="#666666" points="315.5,-132 163.75,-132 163.75,-100 315.5,-100 315.5,-132"/>
<text xml:space="preserve" text-anchor="start" x="171.75" y="-118.5" font-family="Helvetica,sans-Serif" font-size="10.00">VectoObjects.VectoDeclaration</text>
<text xml:space="preserve" text-anchor="middle" x="239.62" y="-106.5" font-family="Helvetica,sans-Serif" font-size="10.00">JobType_v1_0</text>
</a>
</g>
</g>
<!-- Node0&#45;&gt;Node1 -->
<g id="edge396_Node000000_Node000001" class="edge">
<title>Node0&#45;&gt;Node1</title>
<g id="a_edge396_Node000000_Node000001"><a xlink:title=" ">
<path fill="none" stroke="#63b8ff" d="M132.72,-85.52C148.78,-90.15 165.76,-95.03 181.31,-99.51"/>
<polygon fill="#63b8ff" stroke="#63b8ff" points="133.8,-82.19 123.22,-82.79 131.86,-88.92 133.8,-82.19"/>
</a>
</g>
</g>
<!-- Node2 -->
<g id="Node000002" class="node">
<title>Node2</title>
<g id="a_Node000002"><a xlink:href="class_vecto_objects_1_1_vecto_declaration_job_type__v2__0.html" target="_top" xlink:title=" ">
<polygon fill="white" stroke="#666666" points="315.5,-82 163.75,-82 163.75,-50 315.5,-50 315.5,-82"/>
<text xml:space="preserve" text-anchor="start" x="171.75" y="-68.5" font-family="Helvetica,sans-Serif" font-size="10.00">VectoObjects.VectoDeclaration</text>
<text xml:space="preserve" text-anchor="middle" x="239.62" y="-56.5" font-family="Helvetica,sans-Serif" font-size="10.00">JobType_v2_0</text>
</a>
</g>
</g>
<!-- Node0&#45;&gt;Node2 -->
<g id="edge397_Node000000_Node000002" class="edge">
<title>Node0&#45;&gt;Node2</title>
<g id="a_edge397_Node000000_Node000002"><a xlink:title=" ">
<path fill="none" stroke="#63b8ff" d="M139.53,-66C147.42,-66 155.44,-66 163.34,-66"/>
<polygon fill="#63b8ff" stroke="#63b8ff" points="139.61,-62.5 129.61,-66 139.61,-69.5 139.61,-62.5"/>
</a>
</g>
</g>
<!-- Node3 -->
<g id="Node000003" class="node">
<title>Node3</title>
<g id="a_Node000003"><a xlink:href="class_vecto_objects_1_1_vecto_declaration_job_type__v2__7.html" target="_top" xlink:title=" ">
<polygon fill="white" stroke="#666666" points="315.5,-32 163.75,-32 163.75,0 315.5,0 315.5,-32"/>
<text xml:space="preserve" text-anchor="start" x="171.75" y="-18.5" font-family="Helvetica,sans-Serif" font-size="10.00">VectoObjects.VectoDeclaration</text>
<text xml:space="preserve" text-anchor="middle" x="239.62" y="-6.5" font-family="Helvetica,sans-Serif" font-size="10.00">JobType_v2_7</text>
</a>
</g>
</g>
<!-- Node0&#45;&gt;Node3 -->
<g id="edge398_Node000000_Node000003" class="edge">
<title>Node0&#45;&gt;Node3</title>
<g id="a_edge398_Node000000_Node000003"><a xlink:title=" ">
<path fill="none" stroke="#63b8ff" d="M132.72,-46.48C148.78,-41.85 165.76,-36.97 181.31,-32.49"/>
<polygon fill="#63b8ff" stroke="#63b8ff" points="131.86,-43.08 123.22,-49.21 133.8,-49.81 131.86,-43.08"/>
</a>
</g>
</g>
</g>
</svg>
