<?xml version="1.0" encoding="UTF-8" standalone="no"?>
<!DOCTYPE svg PUBLIC "-//W3C//DTD SVG 1.1//EN"
 "http://www.w3.org/Graphics/SVG/1.1/DTD/svg11.dtd">
<!-- Generated by graphviz version 14.0.2 (20251019.1705)
 -->
<!-- Title: Graphical Class Hierarchy Pages: 1 -->
<svg width="619pt" height="740pt"
 viewBox="0.00 0.00 619.00 740.00" xmlns="http://www.w3.org/2000/svg" xmlns:xlink="http://www.w3.org/1999/xlink">
<g id="graph0" class="graph" transform="scale(1 1) rotate(0) translate(4 736)">
<title>Graphical Class Hierarchy</title>
<!-- Node0 -->
<g id="Node000000" class="node">
<title>Node0</title>
<g id="a_Node000000"><a xlink:href="interface_vecto_objects_1_1_i_component_declaration.html" target="_top" xlink:title=" ">
<polygon fill="white" stroke="#666666" points="180.25,-376 0,-376 0,-356 180.25,-356 180.25,-376"/>
<text xml:space="preserve" text-anchor="middle" x="90.12" y="-362.5" font-family="Helvetica,sans-Serif" font-size="10.00">VectoObjects.IComponentDeclaration</text>
</a>
</g>
</g>
<!-- Node1 -->
<g id="Node000001" class="node">
<title>Node1</title>
<g id="a_Node000001"><a xlink:href="class_vecto_objects_1_1_a_d_c_component_declaration_type__v2__3.html" target="_top" xlink:title="VectoObjects.ADCComponentDeclarationType_v2_3 Types inheriting from AbstractADCDataDeclarationType_v2...">
<polygon fill="white" stroke="#666666" points="389.38,-732 239.88,-732 239.88,-700 389.38,-700 389.38,-732"/>
<text xml:space="preserve" text-anchor="start" x="247.88" y="-718.5" font-family="Helvetica,sans-Serif" font-size="10.00">VectoObjects.ADCComponent</text>
<text xml:space="preserve" text-anchor="middle" x="314.62" y="-706.5" font-family="Helvetica,sans-Serif" font-size="10.00">DeclarationType_v2_3</text>
</a>
</g>
</g>
<!-- Node0&#45;&gt;Node1 -->
<g id="edge378_Node000000_Node000001" class="edge">
<title>Node0&#45;&gt;Node1</title>
<g id="a_edge378_Node000000_Node000001"><a xlink:title=" ">
<path fill="none" stroke="#63b8ff" d="M92.82,-387.75C98.58,-446.15 122.62,-607.66 216.25,-691 223.03,-697.03 231.07,-701.65 239.59,-705.17"/>
<polygon fill="#63b8ff" stroke="#63b8ff" points="96.31,-387.5 91.94,-377.85 89.34,-388.12 96.31,-387.5"/>
</a>
</g>
</g>
<!-- Node2 -->
<g id="Node000002" class="node">
<title>Node2</title>
<g id="a_Node000002"><a xlink:href="class_vecto_objects_1_1_air_drag_component_declaration_type__v2__0.html" target="_top" xlink:title="VectoObjects.AirDragComponentDeclarationType_v2_0 Types inheriting from AbstractAirdragDataDeclaratio...">
<polygon fill="white" stroke="#666666" points="395,-682 234.25,-682 234.25,-650 395,-650 395,-682"/>
<text xml:space="preserve" text-anchor="start" x="242.25" y="-668.5" font-family="Helvetica,sans-Serif" font-size="10.00">VectoObjects.AirDragComponent</text>
<text xml:space="preserve" text-anchor="middle" x="314.62" y="-656.5" font-family="Helvetica,sans-Serif" font-size="10.00">DeclarationType_v2_0</text>
</a>
</g>
</g>
<!-- Node0&#45;&gt;Node2 -->
<g id="edge379_Node000000_Node000002" class="edge">
<title>Node0&#45;&gt;Node2</title>
<g id="a_edge379_Node000000_Node000002"><a xlink:title=" ">
<path fill="none" stroke="#63b8ff" d="M94.47,-387.5C103.71,-439.44 134.55,-572.52 216.25,-641 221.6,-645.48 227.66,-649.18 234.07,-652.22"/>
<polygon fill="#63b8ff" stroke="#63b8ff" points="97.96,-387.16 92.86,-377.88 91.06,-388.32 97.96,-387.16"/>
</a>
</g>
</g>
<!-- Node3 -->
<g id="Node000003" class="node">
<title>Node3</title>
<g id="a_Node000003"><a xlink:href="class_vecto_objects_1_1_angledrive_component_declaration_type__v2__0.html" target="_top" xlink:title="VectoObjects.AngledriveComponentDeclarationType_v2_0 Types inheriting from AbstractAngledriveDataDecl...">
<polygon fill="white" stroke="#666666" points="401.38,-632 227.88,-632 227.88,-600 401.38,-600 401.38,-632"/>
<text xml:space="preserve" text-anchor="start" x="235.88" y="-618.5" font-family="Helvetica,sans-Serif" font-size="10.00">VectoObjects.AngledriveComponent</text>
<text xml:space="preserve" text-anchor="middle" x="314.62" y="-606.5" font-family="Helvetica,sans-Serif" font-size="10.00">DeclarationType_v2_0</text>
</a>
</g>
</g>
<!-- Node0&#45;&gt;Node3 -->
<g id="edge380_Node000000_Node000003" class="edge">
<title>Node0&#45;&gt;Node3</title>
<g id="a_edge380_Node000000_Node000003"><a xlink:title=" ">
<path fill="none" stroke="#63b8ff" d="M96.81,-387.47C109.86,-432.5 146.39,-537.08 216.25,-591 220.53,-594.31 225.21,-597.18 230.11,-599.67"/>
<polygon fill="#63b8ff" stroke="#63b8ff" points="100.19,-386.6 94.14,-377.9 93.45,-388.47 100.19,-386.6"/>
</a>
</g>
</g>
<!-- Node4 -->
<g id="Node000004" class="node">
<title>Node4</title>
<g id="a_Node000004"><a xlink:href="class_vecto_objects_1_1_axlegear_component_declaration_type__v2__0.html" target="_top" xlink:title="VectoObjects.AxlegearComponentDeclarationType_v2_0 Types inheriting from AbstractAxlegearDataDeclarat...">
<polygon fill="white" stroke="#666666" points="397.62,-582 231.62,-582 231.62,-550 397.62,-550 397.62,-582"/>
<text xml:space="preserve" text-anchor="start" x="239.62" y="-568.5" font-family="Helvetica,sans-Serif" font-size="10.00">VectoObjects.AxlegearComponent</text>
<text xml:space="preserve" text-anchor="middle" x="314.62" y="-556.5" font-family="Helvetica,sans-Serif" font-size="10.00">DeclarationType_v2_0</text>
</a>
</g>
</g>
<!-- Node0&#45;&gt;Node4 -->
<g id="edge381_Node000000_Node000004" class="edge">
<title>Node0&#45;&gt;Node4</title>
<g id="a_edge381_Node000000_Node000004"><a xlink:title=" ">
<path fill="none" stroke="#63b8ff" d="M100.01,-386.67C116.97,-423.6 157.59,-500.81 216.25,-541 221,-544.26 226.15,-547.09 231.5,-549.55"/>
<polygon fill="#63b8ff" stroke="#63b8ff" points="103.22,-385.28 95.95,-377.57 96.83,-388.13 103.22,-385.28"/>
</a>
</g>
</g>
<!-- Node5 -->
<g id="Node000005" class="node">
<title>Node5</title>
<g id="a_Node000005"><a xlink:href="class_vecto_objects_1_1_battery_component_declaration_type__v2__3.html" target="_top" xlink:title="VectoObjects.BatteryComponentDeclarationType_v2_3 Types inheriting from AbstractBatterySystemDataType...">
<polygon fill="white" stroke="#666666" points="394.25,-532 235,-532 235,-500 394.25,-500 394.25,-532"/>
<text xml:space="preserve" text-anchor="start" x="243" y="-518.5" font-family="Helvetica,sans-Serif" font-size="10.00">VectoObjects.BatteryComponent</text>
<text xml:space="preserve" text-anchor="middle" x="314.62" y="-506.5" font-family="Helvetica,sans-Serif" font-size="10.00">DeclarationType_v2_3</text>
</a>
</g>
</g>
<!-- Node0&#45;&gt;Node5 -->
<g id="edge382_Node000000_Node000005" class="edge">
<title>Node0&#45;&gt;Node5</title>
<g id="a_edge382_Node000000_Node000005"><a xlink:title=" ">
<path fill="none" stroke="#63b8ff" d="M105,-385.32C125.92,-413 168.26,-463.64 216.25,-491 222.01,-494.28 228.21,-497.14 234.58,-499.63"/>
<polygon fill="#63b8ff" stroke="#63b8ff" points="107.95,-383.42 99.19,-377.46 102.32,-387.58 107.95,-383.42"/>
</a>
</g>
</g>
<!-- Node6 -->
<g id="Node000006" class="node">
<title>Node6</title>
<g id="a_Node000006"><a xlink:href="class_vecto_objects_1_1_capacitor_system_component_declaration_type__v2__3.html" target="_top" xlink:title="VectoObjects.CapacitorSystemComponentDeclarationType_v2_3 Types inheriting from AbstractCapacitorSyst...">
<polygon fill="white" stroke="#666666" points="396.12,-482 233.12,-482 233.12,-450 396.12,-450 396.12,-482"/>
<text xml:space="preserve" text-anchor="start" x="241.12" y="-468.5" font-family="Helvetica,sans-Serif" font-size="10.00">VectoObjects.CapacitorSystem</text>
<text xml:space="preserve" text-anchor="middle" x="314.62" y="-456.5" font-family="Helvetica,sans-Serif" font-size="10.00">ComponentDeclarationType_v2_3</text>
</a>
</g>
</g>
<!-- Node0&#45;&gt;Node6 -->
<g id="edge383_Node000000_Node000006" class="edge">
<title>Node0&#45;&gt;Node6</title>
<g id="a_edge383_Node000000_Node000006"><a xlink:title=" ">
<path fill="none" stroke="#63b8ff" d="M114.56,-382.88C138.91,-399.72 178.66,-425.3 216.25,-441 223.82,-444.16 231.89,-447 240.03,-449.54"/>
<polygon fill="#63b8ff" stroke="#63b8ff" points="116.85,-380.21 106.65,-377.33 112.83,-385.94 116.85,-380.21"/>
</a>
</g>
</g>
<!-- Node7 -->
<g id="Node000007" class="node">
<title>Node7</title>
<g id="a_Node000007"><a xlink:href="class_vecto_objects_1_1_electric_machine_system_component_declaration_type__v2__3.html" target="_top" xlink:title="VectoObjects.ElectricMachineSystemComponentDeclarationType_v2_3 Types inheriting from AbstractElectri...">
<polygon fill="white" stroke="#666666" points="413,-432 216.25,-432 216.25,-400 413,-400 413,-432"/>
<text xml:space="preserve" text-anchor="start" x="224.25" y="-418.5" font-family="Helvetica,sans-Serif" font-size="10.00">VectoObjects.ElectricMachine</text>
<text xml:space="preserve" text-anchor="middle" x="314.62" y="-406.5" font-family="Helvetica,sans-Serif" font-size="10.00">SystemComponentDeclarationType_v2_3</text>
</a>
</g>
</g>
<!-- Node0&#45;&gt;Node7 -->
<g id="edge384_Node000000_Node000007" class="edge">
<title>Node0&#45;&gt;Node7</title>
<g id="a_edge384_Node000000_Node000007"><a xlink:title=" ">
<path fill="none" stroke="#63b8ff" d="M148.94,-378.99C176.85,-385.26 210.64,-392.86 240.33,-399.53"/>
<polygon fill="#63b8ff" stroke="#63b8ff" points="149.77,-375.59 139.25,-376.81 148.23,-382.42 149.77,-375.59"/>
</a>
</g>
</g>
<!-- Node8 -->
<g id="Node000008" class="node">
<title>Node8</title>
<g id="a_Node000008"><a xlink:href="class_vecto_objects_1_1_engine_component_declaration_type__v2__0.html" target="_top" xlink:title="VectoObjects.EngineComponentDeclarationType_v2_0 Types inheriting from AbstractCombustionEngineDataDe...">
<polygon fill="white" stroke="#666666" points="393.5,-382 235.75,-382 235.75,-350 393.5,-350 393.5,-382"/>
<text xml:space="preserve" text-anchor="start" x="243.75" y="-368.5" font-family="Helvetica,sans-Serif" font-size="10.00">VectoObjects.EngineComponent</text>
<text xml:space="preserve" text-anchor="middle" x="314.62" y="-356.5" font-family="Helvetica,sans-Serif" font-size="10.00">DeclarationType_v2_0</text>
</a>
</g>
</g>
<!-- Node0&#45;&gt;Node8 -->
<g id="edge385_Node000000_Node000008" class="edge">
<title>Node0&#45;&gt;Node8</title>
<g id="a_edge385_Node000000_Node000008"><a xlink:title=" ">
<path fill="none" stroke="#63b8ff" d="M191.78,-366C206.41,-366 221.28,-366 235.38,-366"/>
<polygon fill="#63b8ff" stroke="#63b8ff" points="192.18,-362.5 182.18,-366 192.18,-369.5 192.18,-362.5"/>
</a>
</g>
</g>
<!-- Node9 -->
<g id="Node000009" class="node">
<title>Node9</title>
<g id="a_Node000009"><a xlink:href="class_vecto_objects_1_1_fuel_cell_component_declaration_type__v2__6.html" target="_top" xlink:title="VectoObjects.FuelCellComponentDeclarationType_v2_6 Types inheriting from AbstractFuelCellDataType_v2_...">
<polygon fill="white" stroke="#666666" points="396.5,-332 232.75,-332 232.75,-300 396.5,-300 396.5,-332"/>
<text xml:space="preserve" text-anchor="start" x="240.75" y="-318.5" font-family="Helvetica,sans-Serif" font-size="10.00">VectoObjects.FuelCellComponent</text>
<text xml:space="preserve" text-anchor="middle" x="314.62" y="-306.5" font-family="Helvetica,sans-Serif" font-size="10.00">DeclarationType_v2_6</text>
</a>
</g>
</g>
<!-- Node0&#45;&gt;Node9 -->
<g id="edge386_Node000000_Node000009" class="edge">
<title>Node0&#45;&gt;Node9</title>
<g id="a_edge386_Node000000_Node000009"><a xlink:title=" ">
<path fill="none" stroke="#63b8ff" d="M148.94,-353.01C176.85,-346.74 210.64,-339.14 240.33,-332.47"/>
<polygon fill="#63b8ff" stroke="#63b8ff" points="148.23,-349.58 139.25,-355.19 149.77,-356.41 148.23,-349.58"/>
</a>
</g>
</g>
<!-- Node10 -->
<g id="Node000010" class="node">
<title>Node10</title>
<g id="a_Node000010"><a xlink:href="class_vecto_objects_1_1_gearbox_component_declaration_type__v2__0.html" target="_top" xlink:title="VectoObjects.GearboxComponentDeclarationType_v2_0 Types inheriting from AbstractTransmissionDataDecla...">
<polygon fill="white" stroke="#666666" points="396.88,-282 232.38,-282 232.38,-250 396.88,-250 396.88,-282"/>
<text xml:space="preserve" text-anchor="start" x="240.38" y="-268.5" font-family="Helvetica,sans-Serif" font-size="10.00">VectoObjects.GearboxComponent</text>
<text xml:space="preserve" text-anchor="middle" x="314.62" y="-256.5" font-family="Helvetica,sans-Serif" font-size="10.00">DeclarationType_v2_0</text>
</a>
</g>
</g>
<!-- Node0&#45;&gt;Node10 -->
<g id="edge387_Node000000_Node000010" class="edge">
<title>Node0&#45;&gt;Node10</title>
<g id="a_edge387_Node000000_Node000010"><a xlink:title=" ">
<path fill="none" stroke="#63b8ff" d="M114.56,-349.12C138.91,-332.28 178.66,-306.7 216.25,-291 223.82,-287.84 231.89,-285 240.03,-282.46"/>
<polygon fill="#63b8ff" stroke="#63b8ff" points="112.83,-346.06 106.65,-354.67 116.85,-351.79 112.83,-346.06"/>
</a>
</g>
</g>
<!-- Node11 -->
<g id="Node000011" class="node">
<title>Node11</title>
<g id="a_Node000011"><a xlink:href="class_vecto_objects_1_1_i_e_p_c_component_declaration_type__v2__3.html" target="_top" xlink:title="VectoObjects.IEPCComponentDeclarationType_v2_3 Types inheriting from AbstractIEPCDataType_v2_3: Vecto...">
<polygon fill="white" stroke="#666666" points="390.5,-232 238.75,-232 238.75,-200 390.5,-200 390.5,-232"/>
<text xml:space="preserve" text-anchor="start" x="246.75" y="-218.5" font-family="Helvetica,sans-Serif" font-size="10.00">VectoObjects.IEPCComponent</text>
<text xml:space="preserve" text-anchor="middle" x="314.62" y="-206.5" font-family="Helvetica,sans-Serif" font-size="10.00">DeclarationType_v2_3</text>
</a>
</g>
</g>
<!-- Node0&#45;&gt;Node11 -->
<g id="edge388_Node000000_Node000011" class="edge">
<title>Node0&#45;&gt;Node11</title>
<g id="a_edge388_Node000000_Node000011"><a xlink:title=" ">
<path fill="none" stroke="#63b8ff" d="M105,-346.68C125.92,-319 168.26,-268.36 216.25,-241 223.15,-237.07 230.67,-233.74 238.38,-230.93"/>
<polygon fill="#63b8ff" stroke="#63b8ff" points="102.32,-344.42 99.19,-354.54 107.95,-348.58 102.32,-344.42"/>
</a>
</g>
</g>
<!-- Node12 -->
<g id="Node000012" class="node">
<title>Node12</title>
<g id="a_Node000012"><a xlink:href="interface_vecto_objects_1_1_i_r_e_e_s_s_component_delaration.html" target="_top" xlink:title=" ">
<polygon fill="white" stroke="#666666" points="397.25,-182 232,-182 232,-150 397.25,-150 397.25,-182"/>
<text xml:space="preserve" text-anchor="start" x="240" y="-168.5" font-family="Helvetica,sans-Serif" font-size="10.00">VectoObjects.IREESSComponent</text>
<text xml:space="preserve" text-anchor="middle" x="314.62" y="-156.5" font-family="Helvetica,sans-Serif" font-size="10.00">Delaration</text>
</a>
</g>
</g>
<!-- Node0&#45;&gt;Node12 -->
<g id="edge389_Node000000_Node000012" class="edge">
<title>Node0&#45;&gt;Node12</title>
<g id="a_edge389_Node000000_Node000012"><a xlink:title=" ">
<path fill="none" stroke="#63b8ff" d="M100.01,-345.33C116.97,-308.4 157.59,-231.19 216.25,-191 221,-187.74 226.15,-184.91 231.5,-182.45"/>
<polygon fill="#63b8ff" stroke="#63b8ff" points="96.83,-343.87 95.95,-354.43 103.22,-346.72 96.83,-343.87"/>
</a>
</g>
</g>
<!-- Node16 -->
<g id="Node000016" class="node">
<title>Node16</title>
<g id="a_Node000016"><a xlink:href="class_vecto_objects_1_1_retarder_component_declaration_type__v2__0.html" target="_top" xlink:title="VectoObjects.RetarderComponentDeclarationType_v2_0 Types inheriting from AbstractRetarderDataDeclarat...">
<polygon fill="white" stroke="#666666" points="397.25,-132 232,-132 232,-100 397.25,-100 397.25,-132"/>
<text xml:space="preserve" text-anchor="start" x="240" y="-118.5" font-family="Helvetica,sans-Serif" font-size="10.00">VectoObjects.RetarderComponent</text>
<text xml:space="preserve" text-anchor="middle" x="314.62" y="-106.5" font-family="Helvetica,sans-Serif" font-size="10.00">DeclarationType_v2_0</text>
</a>
</g>
</g>
<!-- Node0&#45;&gt;Node16 -->
<g id="edge393_Node000000_Node000016" class="edge">
<title>Node0&#45;&gt;Node16</title>
<g id="a_edge393_Node000000_Node000016"><a xlink:title=" ">
<path fill="none" stroke="#63b8ff" d="M96.81,-344.53C109.86,-299.5 146.39,-194.92 216.25,-141 220.95,-137.37 226.12,-134.27 231.55,-131.61"/>
<polygon fill="#63b8ff" stroke="#63b8ff" points="93.45,-343.53 94.14,-354.1 100.19,-345.4 93.45,-343.53"/>
</a>
</g>
</g>
<!-- Node17 -->
<g id="Node000017" class="node">
<title>Node17</title>
<g id="a_Node000017"><a xlink:href="class_vecto_objects_1_1_torque_converter_component_declaration_type__v2__0.html" target="_top" xlink:title="VectoObjects.TorqueConverterComponentDeclarationType_v2_0 Types inheriting from AbstractTorqueConvert...">
<polygon fill="white" stroke="#666666" points="396.12,-82 233.12,-82 233.12,-50 396.12,-50 396.12,-82"/>
<text xml:space="preserve" text-anchor="start" x="241.12" y="-68.5" font-family="Helvetica,sans-Serif" font-size="10.00">VectoObjects.TorqueConverter</text>
<text xml:space="preserve" text-anchor="middle" x="314.62" y="-56.5" font-family="Helvetica,sans-Serif" font-size="10.00">ComponentDeclarationType_v2_0</text>
</a>
</g>
</g>
<!-- Node0&#45;&gt;Node17 -->
<g id="edge394_Node000000_Node000017" class="edge">
<title>Node0&#45;&gt;Node17</title>
<g id="a_edge394_Node000000_Node000017"><a xlink:title=" ">
<path fill="none" stroke="#63b8ff" d="M94.47,-344.5C103.71,-292.56 134.55,-159.48 216.25,-91 221.2,-86.85 226.75,-83.38 232.63,-80.48"/>
<polygon fill="#63b8ff" stroke="#63b8ff" points="91.06,-343.68 92.86,-354.12 97.96,-344.84 91.06,-343.68"/>
</a>
</g>
</g>
<!-- Node18 -->
<g id="Node000018" class="node">
<title>Node18</title>
<g id="a_Node000018"><a xlink:href="class_vecto_objects_1_1_tyre_component_declaration_type__v2__0.html" target="_top" xlink:title="VectoObjects.TyreComponentDeclarationType_v2_0 Types inheriting from AbstractTyreDataDeclarationType_...">
<polygon fill="white" stroke="#666666" points="387.88,-32 241.38,-32 241.38,0 387.88,0 387.88,-32"/>
<text xml:space="preserve" text-anchor="start" x="249.38" y="-18.5" font-family="Helvetica,sans-Serif" font-size="10.00">VectoObjects.TyreComponent</text>
<text xml:space="preserve" text-anchor="middle" x="314.62" y="-6.5" font-family="Helvetica,sans-Serif" font-size="10.00">DeclarationType_v2_0</text>
</a>
</g>
</g>
<!-- Node0&#45;&gt;Node18 -->
<g id="edge395_Node000000_Node000018" class="edge">
<title>Node0&#45;&gt;Node18</title>
<g id="a_edge395_Node000000_Node000018"><a xlink:title=" ">
<path fill="none" stroke="#63b8ff" d="M92.82,-344.25C98.58,-285.85 122.62,-124.34 216.25,-41 223.42,-34.62 232,-29.82 241.06,-26.23"/>
<polygon fill="#63b8ff" stroke="#63b8ff" points="89.34,-343.88 91.94,-354.15 96.31,-344.5 89.34,-343.88"/>
</a>
</g>
</g>
<!-- Node13 -->
<g id="Node000013" class="node">
<title>Node13</title>
<g id="a_Node000013"><a xlink:href="class_vecto_objects_1_1_r_e_e_s_s_battery_type_r_e_e_s_s__v2__4.html" target="_top" xlink:title=" ">
<polygon fill="white" stroke="#666666" points="601.88,-232 458.38,-232 458.38,-200 601.88,-200 601.88,-232"/>
<text xml:space="preserve" text-anchor="start" x="466.38" y="-218.5" font-family="Helvetica,sans-Serif" font-size="10.00">VectoObjects.REESSBattery</text>
<text xml:space="preserve" text-anchor="middle" x="530.12" y="-206.5" font-family="Helvetica,sans-Serif" font-size="10.00">TypeREESS_v2_4</text>
</a>
</g>
</g>
<!-- Node12&#45;&gt;Node13 -->
<g id="edge390_Node000012_Node000013" class="edge">
<title>Node12&#45;&gt;Node13</title>
<g id="a_edge390_Node000012_Node000013"><a xlink:title=" ">
<path fill="none" stroke="#63b8ff" d="M397,-185.06C417.39,-189.83 439.08,-194.91 458.88,-199.55"/>
<polygon fill="#63b8ff" stroke="#63b8ff" points="397.84,-181.66 387.3,-182.79 396.24,-188.47 397.84,-181.66"/>
</a>
</g>
</g>
<!-- Node14 -->
<g id="Node000014" class="node">
<title>Node14</title>
<g id="a_Node000014"><a xlink:href="class_vecto_objects_1_1_r_e_e_s_s_capacitor_type__v2__4.html" target="_top" xlink:title=" ">
<polygon fill="white" stroke="#666666" points="607.12,-182 453.12,-182 453.12,-150 607.12,-150 607.12,-182"/>
<text xml:space="preserve" text-anchor="start" x="461.12" y="-168.5" font-family="Helvetica,sans-Serif" font-size="10.00">VectoObjects.REESSCapacitor</text>
<text xml:space="preserve" text-anchor="middle" x="530.12" y="-156.5" font-family="Helvetica,sans-Serif" font-size="10.00">Type_v2_4</text>
</a>
</g>
</g>
<!-- Node12&#45;&gt;Node14 -->
<g id="edge391_Node000012_Node000014" class="edge">
<title>Node12&#45;&gt;Node14</title>
<g id="a_edge391_Node000012_Node000014"><a xlink:title=" ">
<path fill="none" stroke="#63b8ff" d="M408.7,-166C423.38,-166 438.42,-166 452.67,-166"/>
<polygon fill="#63b8ff" stroke="#63b8ff" points="409.07,-162.5 399.07,-166 409.07,-169.5 409.07,-162.5"/>
</a>
</g>
</g>
<!-- Node15 -->
<g id="Node000015" class="node">
<title>Node15</title>
<g id="a_Node000015"><a xlink:href="class_vecto_objects_1_1_r_e_e_s_s_component_declaration_type__v2__3.html" target="_top" xlink:title=" ">
<polygon fill="white" stroke="#666666" points="611.25,-132 449,-132 449,-100 611.25,-100 611.25,-132"/>
<text xml:space="preserve" text-anchor="start" x="457" y="-118.5" font-family="Helvetica,sans-Serif" font-size="10.00">VectoObjects.REESSComponent</text>
<text xml:space="preserve" text-anchor="middle" x="530.12" y="-106.5" font-family="Helvetica,sans-Serif" font-size="10.00">DeclarationType_v2_3</text>
</a>
</g>
</g>
<!-- Node12&#45;&gt;Node15 -->
<g id="edge392_Node000012_Node000015" class="edge">
<title>Node12&#45;&gt;Node15</title>
<g id="a_edge392_Node000012_Node000015"><a xlink:title=" ">
<path fill="none" stroke="#63b8ff" d="M397,-146.94C417.39,-142.17 439.08,-137.09 458.88,-132.45"/>
<polygon fill="#63b8ff" stroke="#63b8ff" points="396.24,-143.53 387.3,-149.21 397.84,-150.34 396.24,-143.53"/>
</a>
</g>
</g>
</g>
</svg>
