<?xml version="1.0" encoding="UTF-8" standalone="no"?>
<!DOCTYPE svg PUBLIC "-//W3C//DTD SVG 1.1//EN"
 "http://www.w3.org/Graphics/SVG/1.1/DTD/svg11.dtd">
<!-- Generated by graphviz version 14.0.2 (20251019.1705)
 -->
<!-- Title: Graphical Class Hierarchy Pages: 1 -->
<svg width="305pt" height="140pt"
 viewBox="0.00 0.00 305.00 140.00" xmlns="http://www.w3.org/2000/svg" xmlns:xlink="http://www.w3.org/1999/xlink">
<g id="graph0" class="graph" transform="scale(1 1) rotate(0) translate(4 136)">
<title>Graphical Class Hierarchy</title>
<!-- Node0 -->
<g id="Node000000" class="node">
<title>Node0</title>
<g id="a_Node000000"><a xlink:href="class_vecto_objects_1_1_abstract___f_c_h_v___fx___data_type__v2__7.html" target="_top" xlink:title=" ">
<polygon fill="white" stroke="#666666" points="139,-82 0,-82 0,-50 139,-50 139,-82"/>
<text xml:space="preserve" text-anchor="start" x="8" y="-68.5" font-family="Helvetica,sans-Serif" font-size="10.00">VectoObjects.Abstract</text>
<text xml:space="preserve" text-anchor="middle" x="69.5" y="-56.5" font-family="Helvetica,sans-Serif" font-size="10.00">_FCHV_Fx_DataType_v2_7</text>
</a>
</g>
</g>
<!-- Node1 -->
<g id="Node000001" class="node">
<title>Node1</title>
<g id="a_Node000001"><a xlink:href="class_vecto_objects_1_1_f_c_h_v___f2___data_type__v2__7.html" target="_top" xlink:title=" ">
<polygon fill="white" stroke="#666666" points="296.75,-132 175,-132 175,-100 296.75,-100 296.75,-132"/>
<text xml:space="preserve" text-anchor="start" x="183" y="-118.5" font-family="Helvetica,sans-Serif" font-size="10.00">VectoObjects.FCHV_F2</text>
<text xml:space="preserve" text-anchor="middle" x="235.88" y="-106.5" font-family="Helvetica,sans-Serif" font-size="10.00">_DataType_v2_7</text>
</a>
</g>
</g>
<!-- Node0&#45;&gt;Node1 -->
<g id="edge73_Node000000_Node000001" class="edge">
<title>Node0&#45;&gt;Node1</title>
<g id="a_edge73_Node000000_Node000001"><a xlink:title=" ">
<path fill="none" stroke="#63b8ff" d="M135.12,-85.66C150.19,-90.24 166.08,-95.08 180.65,-99.51"/>
<polygon fill="#63b8ff" stroke="#63b8ff" points="136.36,-82.37 125.77,-82.81 134.32,-89.07 136.36,-82.37"/>
</a>
</g>
</g>
<!-- Node2 -->
<g id="Node000002" class="node">
<title>Node2</title>
<g id="a_Node000002"><a xlink:href="class_vecto_objects_1_1_f_c_h_v___f3___data_type__v2__7.html" target="_top" xlink:title=" ">
<polygon fill="white" stroke="#666666" points="296.75,-82 175,-82 175,-50 296.75,-50 296.75,-82"/>
<text xml:space="preserve" text-anchor="start" x="183" y="-68.5" font-family="Helvetica,sans-Serif" font-size="10.00">VectoObjects.FCHV_F3</text>
<text xml:space="preserve" text-anchor="middle" x="235.88" y="-56.5" font-family="Helvetica,sans-Serif" font-size="10.00">_DataType_v2_7</text>
</a>
</g>
</g>
<!-- Node0&#45;&gt;Node2 -->
<g id="edge74_Node000000_Node000002" class="edge">
<title>Node0&#45;&gt;Node2</title>
<g id="a_edge74_Node000000_Node000002"><a xlink:title=" ">
<path fill="none" stroke="#63b8ff" d="M150.67,-66C158.78,-66 166.91,-66 174.75,-66"/>
<polygon fill="#63b8ff" stroke="#63b8ff" points="150.77,-62.5 140.77,-66 150.77,-69.5 150.77,-62.5"/>
</a>
</g>
</g>
<!-- Node3 -->
<g id="Node000003" class="node">
<title>Node3</title>
<g id="a_Node000003"><a xlink:href="class_vecto_objects_1_1_f_c_h_v___f4___data_type__v2__7.html" target="_top" xlink:title=" ">
<polygon fill="white" stroke="#666666" points="296.75,-32 175,-32 175,0 296.75,0 296.75,-32"/>
<text xml:space="preserve" text-anchor="start" x="183" y="-18.5" font-family="Helvetica,sans-Serif" font-size="10.00">VectoObjects.FCHV_F4</text>
<text xml:space="preserve" text-anchor="middle" x="235.88" y="-6.5" font-family="Helvetica,sans-Serif" font-size="10.00">_DataType_v2_7</text>
</a>
</g>
</g>
<!-- Node0&#45;&gt;Node3 -->
<g id="edge75_Node000000_Node000003" class="edge">
<title>Node0&#45;&gt;Node3</title>
<g id="a_edge75_Node000000_Node000003"><a xlink:title=" ">
<path fill="none" stroke="#63b8ff" d="M135.12,-46.34C150.19,-41.76 166.08,-36.92 180.65,-32.49"/>
<polygon fill="#63b8ff" stroke="#63b8ff" points="134.32,-42.93 125.77,-49.19 136.36,-49.63 134.32,-42.93"/>
</a>
</g>
</g>
</g>
</svg>
