<?xml version="1.0" encoding="UTF-8" standalone="no"?>
<!DOCTYPE svg PUBLIC "-//W3C//DTD SVG 1.1//EN"
 "http://www.w3.org/Graphics/SVG/1.1/DTD/svg11.dtd">
<!-- Generated by graphviz version 14.0.2 (20251019.1705)
 -->
<!-- Title: Graphical Class Hierarchy Pages: 1 -->
<svg width="273pt" height="190pt"
 viewBox="0.00 0.00 273.00 190.00" xmlns="http://www.w3.org/2000/svg" xmlns:xlink="http://www.w3.org/1999/xlink">
<g id="graph0" class="graph" transform="scale(1 1) rotate(0) translate(4 186)">
<title>Graphical Class Hierarchy</title>
<!-- Node0 -->
<g id="Node000000" class="node">
<title>Node0</title>
<g id="a_Node000000"><a xlink:title=" ">
<polygon fill="#e0e0e0" stroke="#999999" points="61,-101 0,-101 0,-81 61,-81 61,-101"/>
<text xml:space="preserve" text-anchor="middle" x="30.5" y="-87.5" font-family="Helvetica,sans-Serif" font-size="10.00">Command</text>
</a>
</g>
</g>
<!-- Node1 -->
<g id="Node000001" class="node">
<title>Node1</title>
<g id="a_Node000001"><a xlink:href="class_vecto_input_manager_1_1_cli_1_1_component_extractor_command.html" target="_top" xlink:title=" ">
<polygon fill="white" stroke="#666666" points="265.25,-182 97,-182 97,-150 265.25,-150 265.25,-182"/>
<text xml:space="preserve" text-anchor="start" x="105" y="-168.5" font-family="Helvetica,sans-Serif" font-size="10.00">VectoInputManager.Cli.Component</text>
<text xml:space="preserve" text-anchor="middle" x="181.12" y="-156.5" font-family="Helvetica,sans-Serif" font-size="10.00">ExtractorCommand</text>
</a>
</g>
</g>
<!-- Node0&#45;&gt;Node1 -->
<g id="edge2_Node000000_Node000001" class="edge">
<title>Node0&#45;&gt;Node1</title>
<g id="a_edge2_Node000000_Node000001"><a xlink:title=" ">
<path fill="none" stroke="#63b8ff" d="M50.8,-108.72C63.22,-119.33 80.15,-132.39 97,-141 103.31,-144.22 110.1,-147.1 116.99,-149.66"/>
<polygon fill="#63b8ff" stroke="#63b8ff" points="53.21,-106.17 43.39,-102.19 48.58,-111.43 53.21,-106.17"/>
</a>
</g>
</g>
<!-- Node2 -->
<g id="Node000002" class="node">
<title>Node2</title>
<g id="a_Node000002"><a xlink:href="class_vecto_input_manager_1_1_cli_1_1_job_creator_command.html" target="_top" xlink:title=" ">
<polygon fill="white" stroke="#666666" points="248,-132 114.25,-132 114.25,-100 248,-100 248,-132"/>
<text xml:space="preserve" text-anchor="start" x="122.25" y="-118.5" font-family="Helvetica,sans-Serif" font-size="10.00">VectoInputManager.Cli.Job</text>
<text xml:space="preserve" text-anchor="middle" x="181.12" y="-106.5" font-family="Helvetica,sans-Serif" font-size="10.00">CreatorCommand</text>
</a>
</g>
</g>
<!-- Node0&#45;&gt;Node2 -->
<g id="edge3_Node000000_Node000002" class="edge">
<title>Node0&#45;&gt;Node2</title>
<g id="a_edge3_Node000000_Node000002"><a xlink:title=" ">
<path fill="none" stroke="#63b8ff" d="M72.47,-97.89C85.3,-100.05 99.8,-102.49 113.9,-104.86"/>
<polygon fill="#63b8ff" stroke="#63b8ff" points="73.15,-94.46 62.71,-96.25 71.99,-101.36 73.15,-94.46"/>
</a>
</g>
</g>
<!-- Node3 -->
<g id="Node000003" class="node">
<title>Node3</title>
<g id="a_Node000003"><a xlink:href="class_vecto_input_manager_1_1_cli_1_1_standard_values_command.html" target="_top" xlink:title=" ">
<polygon fill="white" stroke="#666666" points="259.62,-82 102.62,-82 102.62,-50 259.62,-50 259.62,-82"/>
<text xml:space="preserve" text-anchor="start" x="110.62" y="-68.5" font-family="Helvetica,sans-Serif" font-size="10.00">VectoInputManager.Cli.Standard</text>
<text xml:space="preserve" text-anchor="middle" x="181.12" y="-56.5" font-family="Helvetica,sans-Serif" font-size="10.00">ValuesCommand</text>
</a>
</g>
</g>
<!-- Node0&#45;&gt;Node3 -->
<g id="edge4_Node000000_Node000003" class="edge">
<title>Node0&#45;&gt;Node3</title>
<g id="a_edge4_Node000000_Node000003"><a xlink:title=" ">
<path fill="none" stroke="#63b8ff" d="M72.53,-84.1C81.88,-82.53 92.11,-80.81 102.43,-79.07"/>
<polygon fill="#63b8ff" stroke="#63b8ff" points="71.99,-80.64 62.71,-85.75 73.15,-87.54 71.99,-80.64"/>
</a>
</g>
</g>
<!-- Node4 -->
<g id="Node000004" class="node">
<title>Node4</title>
<g id="a_Node000004"><a xlink:href="class_vecto_input_manager_1_1_cli_1_1_xml_to_json_converter_command.html" target="_top" xlink:title=" ">
<polygon fill="white" stroke="#666666" points="248.75,-32 113.5,-32 113.5,0 248.75,0 248.75,-32"/>
<text xml:space="preserve" text-anchor="start" x="121.5" y="-18.5" font-family="Helvetica,sans-Serif" font-size="10.00">VectoInputManager.Cli.Xml</text>
<text xml:space="preserve" text-anchor="middle" x="181.12" y="-6.5" font-family="Helvetica,sans-Serif" font-size="10.00">ToJsonConverterCommand</text>
</a>
</g>
</g>
<!-- Node0&#45;&gt;Node4 -->
<g id="edge5_Node000000_Node000004" class="edge">
<title>Node0&#45;&gt;Node4</title>
<g id="a_edge5_Node000000_Node000004"><a xlink:title=" ">
<path fill="none" stroke="#63b8ff" d="M50.8,-73.28C63.22,-62.67 80.15,-49.61 97,-41 103.31,-37.78 110.1,-34.9 116.99,-32.34"/>
<polygon fill="#63b8ff" stroke="#63b8ff" points="48.58,-70.57 43.39,-79.81 53.21,-75.83 48.58,-70.57"/>
</a>
</g>
</g>
</g>
</svg>
