<?xml version="1.0" encoding="UTF-8" standalone="no"?>
<!DOCTYPE svg PUBLIC "-//W3C//DTD SVG 1.1//EN"
 "http://www.w3.org/Graphics/SVG/1.1/DTD/svg11.dtd">
<!-- Generated by graphviz version 14.0.2 (20251019.1705)
 -->
<!-- Title: VectoObjects.IREESSComponentDelaration Pages: 1 -->
<svg width="588pt" height="140pt"
 viewBox="0.00 0.00 588.00 140.00" xmlns="http://www.w3.org/2000/svg" xmlns:xlink="http://www.w3.org/1999/xlink">
<g id="graph0" class="graph" transform="scale(1 1) rotate(0) translate(4 136)">
<title>VectoObjects.IREESSComponentDelaration</title>
<!-- Node1 -->
<g id="Node000001" class="node">
<title>Node1</title>
<g id="a_Node000001"><a xlink:title=" ">
<polygon fill="#999999" stroke="#666666" points="381.5,-82 216.25,-82 216.25,-50 381.5,-50 381.5,-82"/>
<text xml:space="preserve" text-anchor="start" x="224.25" y="-68.5" font-family="Helvetica,sans-Serif" font-size="10.00">VectoObjects.IREESSComponent</text>
<text xml:space="preserve" text-anchor="middle" x="298.88" y="-56.5" font-family="Helvetica,sans-Serif" font-size="10.00">Delaration</text>
</a>
</g>
</g>
<!-- Node3 -->
<g id="Node000003" class="node">
<title>Node3</title>
<g id="a_Node000003"><a xlink:href="class_vecto_objects_1_1_r_e_e_s_s_battery_type_r_e_e_s_s__v2__4.html" target="_top" xlink:title=" ">
<polygon fill="white" stroke="#bfbfbf" points="570.38,-132 426.88,-132 426.88,-100 570.38,-100 570.38,-132"/>
<text xml:space="preserve" text-anchor="start" x="434.88" y="-118.5" font-family="Helvetica,sans-Serif" font-size="10.00">VectoObjects.REESSBattery</text>
<text xml:space="preserve" text-anchor="middle" x="498.62" y="-106.5" font-family="Helvetica,sans-Serif" font-size="10.00">TypeREESS_v2_4</text>
</a>
</g>
</g>
<!-- Node1&#45;&gt;Node3 -->
<g id="edge2_Node000001_Node000003" class="edge">
<title>Node1&#45;&gt;Node3</title>
<g id="a_edge2_Node000001_Node000003"><a xlink:title=" ">
<path fill="none" stroke="#63b8ff" d="M376.03,-85.26C394.69,-89.97 414.48,-94.98 432.56,-99.55"/>
<polygon fill="#63b8ff" stroke="#63b8ff" points="376.92,-81.87 366.37,-82.81 375.2,-88.66 376.92,-81.87"/>
</a>
</g>
</g>
<!-- Node4 -->
<g id="Node000004" class="node">
<title>Node4</title>
<g id="a_Node000004"><a xlink:href="class_vecto_objects_1_1_r_e_e_s_s_capacitor_type__v2__4.html" target="_top" xlink:title=" ">
<polygon fill="white" stroke="#bfbfbf" points="575.62,-82 421.62,-82 421.62,-50 575.62,-50 575.62,-82"/>
<text xml:space="preserve" text-anchor="start" x="429.62" y="-68.5" font-family="Helvetica,sans-Serif" font-size="10.00">VectoObjects.REESSCapacitor</text>
<text xml:space="preserve" text-anchor="middle" x="498.62" y="-56.5" font-family="Helvetica,sans-Serif" font-size="10.00">Type_v2_4</text>
</a>
</g>
</g>
<!-- Node1&#45;&gt;Node4 -->
<g id="edge3_Node000001_Node000004" class="edge">
<title>Node1&#45;&gt;Node4</title>
<g id="a_edge3_Node000001_Node000004"><a xlink:title=" ">
<path fill="none" stroke="#63b8ff" d="M393.15,-66C402.55,-66 412.02,-66 421.22,-66"/>
<polygon fill="#63b8ff" stroke="#63b8ff" points="393.25,-62.5 383.25,-66 393.25,-69.5 393.25,-62.5"/>
</a>
</g>
</g>
<!-- Node5 -->
<g id="Node000005" class="node">
<title>Node5</title>
<g id="a_Node000005"><a xlink:href="class_vecto_objects_1_1_r_e_e_s_s_component_declaration_type__v2__3.html" target="_top" xlink:title=" ">
<polygon fill="white" stroke="#bfbfbf" points="579.75,-32 417.5,-32 417.5,0 579.75,0 579.75,-32"/>
<text xml:space="preserve" text-anchor="start" x="425.5" y="-18.5" font-family="Helvetica,sans-Serif" font-size="10.00">VectoObjects.REESSComponent</text>
<text xml:space="preserve" text-anchor="middle" x="498.62" y="-6.5" font-family="Helvetica,sans-Serif" font-size="10.00">DeclarationType_v2_3</text>
</a>
</g>
</g>
<!-- Node1&#45;&gt;Node5 -->
<g id="edge4_Node000001_Node000005" class="edge">
<title>Node1&#45;&gt;Node5</title>
<g id="a_edge4_Node000001_Node000005"><a xlink:title=" ">
<path fill="none" stroke="#63b8ff" d="M376.03,-46.74C394.69,-42.03 414.48,-37.02 432.56,-32.45"/>
<polygon fill="#63b8ff" stroke="#63b8ff" points="375.2,-43.34 366.37,-49.19 376.92,-50.13 375.2,-43.34"/>
</a>
</g>
</g>
<!-- Node2 -->
<g id="Node000002" class="node">
<title>Node2</title>
<g id="a_Node000002"><a xlink:href="interface_vecto_objects_1_1_i_component_declaration.html" target="_top" xlink:title=" ">
<polygon fill="white" stroke="#bfbfbf" points="180.25,-76 0,-76 0,-56 180.25,-56 180.25,-76"/>
<text xml:space="preserve" text-anchor="middle" x="90.12" y="-62.5" font-family="Helvetica,sans-Serif" font-size="10.00">VectoObjects.IComponentDeclaration</text>
</a>
</g>
</g>
<!-- Node2&#45;&gt;Node1 -->
<g id="edge1_Node000001_Node000002" class="edge">
<title>Node2&#45;&gt;Node1</title>
<g id="a_edge1_Node000001_Node000002"><a xlink:title=" ">
<path fill="none" stroke="#63b8ff" d="M191.88,-66C199.88,-66 207.9,-66 215.75,-66"/>
<polygon fill="#63b8ff" stroke="#63b8ff" points="192.12,-62.5 182.12,-66 192.12,-69.5 192.12,-62.5"/>
</a>
</g>
</g>
</g>
</svg>
