<?xml version="1.0" encoding="UTF-8" standalone="no"?>
<!DOCTYPE svg PUBLIC "-//W3C//DTD SVG 1.1//EN"
 "http://www.w3.org/Graphics/SVG/1.1/DTD/svg11.dtd">
<!-- Generated by graphviz version 14.0.2 (20251019.1705)
 -->
<!-- Title: VectoObjects.IComponentDeclaration Pages: 1 -->
<!--zoomable 790 -->

<svg id="main" version="1.1" xmlns="http://www.w3.org/2000/svg" xmlns:xlink="http://www.w3.org/1999/xlink" xml:space="preserve" onload="init(evt)">

<style type="text/css"><![CDATA[
.node, .edge {opacity: 0.7;}
.node.selected, .edge.selected {opacity: 1;}
.edge:hover path { stroke: red; }
.edge:hover polygon { stroke: red; fill: red; }
]]></style>

<defs>
  <circle id="rim" cx="0" cy="0" r="7"/>
  <circle id="rim2" cx="0" cy="0" r="3.5"/>
  <g id="zoomPlus">
    <use xlink:href="#rim" fill="#404040"><set attributeName="fill" to="#808080" begin="zoomplus.mouseover" end="zoomplus.mouseout"/></use>
    <path d="M-4,0h8M0,-4v8" fill="none" stroke="white" stroke-width="1.5" pointer-events="none"/>
  </g>
  <g id="zoomMin">
    <use xlink:href="#rim" fill="#404040"><set attributeName="fill" to="#808080" begin="zoomminus.mouseover" end="zoomminus.mouseout"/></use>
    <path d="M-4,0h8" fill="none" stroke="white" stroke-width="1.5" pointer-events="none"/>
  </g>
  <g id="arrowUp" transform="translate(30 24)">
    <use xlink:href="#rim"/>
    <path pointer-events="none" fill="none" stroke="white" stroke-width="1.5" d="M0,-3.0v7 M-2.5,-0.5L0,-3.0L2.5,-0.5"/>
  </g>
  <g id="arrowRight" transform="rotate(90) translate(36 -43)">
    <use xlink:href="#rim"/>
    <path pointer-events="none" fill="none" stroke="white" stroke-width="1.5" d="M0,-3.0v7 M-2.5,-0.5L0,-3.0L2.5,-0.5"/>
  </g>
  <g id="arrowDown" transform="rotate(180) translate(-30 -48)">
    <use xlink:href="#rim"/>
    <path pointer-events="none" fill="none" stroke="white" stroke-width="1.5" d="M0,-3.0v7 M-2.5,-0.5L0,-3.0L2.5,-0.5"/>
  </g>
  <g id="arrowLeft" transform="rotate(270) translate(-36 17)">
    <use xlink:href="#rim"/>
    <path pointer-events="none" fill="none" stroke="white" stroke-width="1.5" d="M0,-3.0v7 M-2.5,-0.5L0,-3.0L2.5,-0.5"/>
  </g>
  <g id="resetDef">
    <use xlink:href="#rim2" fill="#404040"><set attributeName="fill" to="#808080" begin="reset.mouseover" end="reset.mouseout"/></use>
  </g>
</defs>
<script type="application/ecmascript">
var viewWidth = 619;
var viewHeight = 790;
var sectionId = 'dynsection-0';
</script>
<script type="application/ecmascript" xlink:href="svg.min.js"/>
<svg id="graph" class="graph">
<g id="viewport">
<title>VectoObjects.IComponentDeclaration</title>
<!-- Node1 -->
<g id="Node000001" class="node">
<title>Node1</title>
<g id="a_Node000001"><a xlink:title=" ">
<polygon fill="#999999" stroke="#666666" points="180.25,-401 0,-401 0,-381 180.25,-381 180.25,-401"/>
<text xml:space="preserve" text-anchor="middle" x="90.12" y="-387.5" font-family="Helvetica,sans-Serif" font-size="10.00">VectoObjects.IComponentDeclaration</text>
</a>
</g>
</g>
<!-- Node2 -->
<g id="Node000002" class="node">
<title>Node2</title>
<g id="a_Node000002"><a xlink:href="class_vecto_objects_1_1_a_d_c_component_declaration_type__v2__3.html" target="_top" xlink:title="VectoObjects.ADCComponentDeclarationType_v2_3 Types inheriting from AbstractADCDataDeclarationType_v2...">
<polygon fill="white" stroke="#666666" points="389.38,-782 239.88,-782 239.88,-750 389.38,-750 389.38,-782"/>
<text xml:space="preserve" text-anchor="start" x="247.88" y="-768.5" font-family="Helvetica,sans-Serif" font-size="10.00">VectoObjects.ADCComponent</text>
<text xml:space="preserve" text-anchor="middle" x="314.62" y="-756.5" font-family="Helvetica,sans-Serif" font-size="10.00">DeclarationType_v2_3</text>
</a>
</g>
</g>
<!-- Node1&#45;&gt;Node2 -->
<g id="edge1_Node000001_Node000002" class="edge">
<title>Node1&#45;&gt;Node2</title>
<g id="a_edge1_Node000001_Node000002"><a xlink:title=" ">
<path fill="none" stroke="#63b8ff" d="M92.14,-412.76C96.24,-474.14 116.54,-650.07 216.25,-741 222.96,-747.12 230.96,-751.78 239.45,-755.33"/>
<polygon fill="#63b8ff" stroke="#63b8ff" points="95.65,-412.77 91.58,-402.98 88.66,-413.17 95.65,-412.77"/>
</a>
</g>
</g>
<!-- Node3 -->
<g id="Node000003" class="node">
<title>Node3</title>
<g id="a_Node000003"><a xlink:href="class_vecto_objects_1_1_air_drag_component_declaration_type__v2__0.html" target="_top" xlink:title="VectoObjects.AirDragComponentDeclarationType_v2_0 Types inheriting from AbstractAirdragDataDeclaratio...">
<polygon fill="white" stroke="#666666" points="395,-732 234.25,-732 234.25,-700 395,-700 395,-732"/>
<text xml:space="preserve" text-anchor="start" x="242.25" y="-718.5" font-family="Helvetica,sans-Serif" font-size="10.00">VectoObjects.AirDragComponent</text>
<text xml:space="preserve" text-anchor="middle" x="314.62" y="-706.5" font-family="Helvetica,sans-Serif" font-size="10.00">DeclarationType_v2_0</text>
</a>
</g>
</g>
<!-- Node1&#45;&gt;Node3 -->
<g id="edge2_Node000001_Node000003" class="edge">
<title>Node1&#45;&gt;Node3</title>
<g id="a_edge2_Node000001_Node000003"><a xlink:title=" ">
<path fill="none" stroke="#63b8ff" d="M93.58,-412.56C101.03,-467.75 128.57,-615.11 216.25,-691 221.53,-695.57 227.53,-699.32 233.91,-702.4"/>
<polygon fill="#63b8ff" stroke="#63b8ff" points="97.08,-412.41 92.37,-402.92 90.14,-413.28 97.08,-412.41"/>
</a>
</g>
</g>
<!-- Node4 -->
<g id="Node000004" class="node">
<title>Node4</title>
<g id="a_Node000004"><a xlink:href="class_vecto_objects_1_1_angledrive_component_declaration_type__v2__0.html" target="_top" xlink:title="VectoObjects.AngledriveComponentDeclarationType_v2_0 Types inheriting from AbstractAngledriveDataDecl...">
<polygon fill="white" stroke="#666666" points="401.38,-682 227.88,-682 227.88,-650 401.38,-650 401.38,-682"/>
<text xml:space="preserve" text-anchor="start" x="235.88" y="-668.5" font-family="Helvetica,sans-Serif" font-size="10.00">VectoObjects.AngledriveComponent</text>
<text xml:space="preserve" text-anchor="middle" x="314.62" y="-656.5" font-family="Helvetica,sans-Serif" font-size="10.00">DeclarationType_v2_0</text>
</a>
</g>
</g>
<!-- Node1&#45;&gt;Node4 -->
<g id="edge3_Node000001_Node000004" class="edge">
<title>Node1&#45;&gt;Node4</title>
<g id="a_edge3_Node000001_Node000004"><a xlink:title=" ">
<path fill="none" stroke="#63b8ff" d="M95.53,-412.51C106.65,-461.1 140.51,-579.87 216.25,-641 220.32,-644.29 224.78,-647.15 229.48,-649.64"/>
<polygon fill="#63b8ff" stroke="#63b8ff" points="99.01,-412 93.46,-402.98 92.17,-413.49 99.01,-412"/>
</a>
</g>
</g>
<!-- Node5 -->
<g id="Node000005" class="node">
<title>Node5</title>
<g id="a_Node000005"><a xlink:href="class_vecto_objects_1_1_axlegear_component_declaration_type__v2__0.html" target="_top" xlink:title="VectoObjects.AxlegearComponentDeclarationType_v2_0 Types inheriting from AbstractAxlegearDataDeclarat...">
<polygon fill="white" stroke="#666666" points="397.62,-632 231.62,-632 231.62,-600 397.62,-600 397.62,-632"/>
<text xml:space="preserve" text-anchor="start" x="239.62" y="-618.5" font-family="Helvetica,sans-Serif" font-size="10.00">VectoObjects.AxlegearComponent</text>
<text xml:space="preserve" text-anchor="middle" x="314.62" y="-606.5" font-family="Helvetica,sans-Serif" font-size="10.00">DeclarationType_v2_0</text>
</a>
</g>
</g>
<!-- Node1&#45;&gt;Node5 -->
<g id="edge4_Node000001_Node000005" class="edge">
<title>Node1&#45;&gt;Node5</title>
<g id="a_edge4_Node000001_Node000005"><a xlink:title=" ">
<path fill="none" stroke="#63b8ff" d="M98.22,-412.03C113.19,-453.09 152,-544 216.25,-591 220.9,-594.4 225.97,-597.34 231.27,-599.88"/>
<polygon fill="#63b8ff" stroke="#63b8ff" points="101.53,-410.9 94.91,-402.63 94.93,-413.23 101.53,-410.9"/>
</a>
</g>
</g>
<!-- Node6 -->
<g id="Node000006" class="node">
<title>Node6</title>
<g id="a_Node000006"><a xlink:href="class_vecto_objects_1_1_battery_component_declaration_type__v2__3.html" target="_top" xlink:title="VectoObjects.BatteryComponentDeclarationType_v2_3 Types inheriting from AbstractBatterySystemDataType...">
<polygon fill="white" stroke="#666666" points="394.25,-582 235,-582 235,-550 394.25,-550 394.25,-582"/>
<text xml:space="preserve" text-anchor="start" x="243" y="-568.5" font-family="Helvetica,sans-Serif" font-size="10.00">VectoObjects.BatteryComponent</text>
<text xml:space="preserve" text-anchor="middle" x="314.62" y="-556.5" font-family="Helvetica,sans-Serif" font-size="10.00">DeclarationType_v2_3</text>
</a>
</g>
</g>
<!-- Node1&#45;&gt;Node6 -->
<g id="edge5_Node000001_Node000006" class="edge">
<title>Node1&#45;&gt;Node6</title>
<g id="a_edge5_Node000001_Node000006"><a xlink:title=" ">
<path fill="none" stroke="#63b8ff" d="M102.12,-410.97C121.04,-443.41 162.93,-507.31 216.25,-541 222,-544.64 228.27,-547.74 234.75,-550.4"/>
<polygon fill="#63b8ff" stroke="#63b8ff" points="105.33,-409.54 97.35,-402.58 99.25,-413 105.33,-409.54"/>
</a>
</g>
</g>
<!-- Node7 -->
<g id="Node000007" class="node">
<title>Node7</title>
<g id="a_Node000007"><a xlink:href="class_vecto_objects_1_1_capacitor_system_component_declaration_type__v2__3.html" target="_top" xlink:title="VectoObjects.CapacitorSystemComponentDeclarationType_v2_3 Types inheriting from AbstractCapacitorSyst...">
<polygon fill="white" stroke="#666666" points="396.12,-532 233.12,-532 233.12,-500 396.12,-500 396.12,-532"/>
<text xml:space="preserve" text-anchor="start" x="241.12" y="-518.5" font-family="Helvetica,sans-Serif" font-size="10.00">VectoObjects.CapacitorSystem</text>
<text xml:space="preserve" text-anchor="middle" x="314.62" y="-506.5" font-family="Helvetica,sans-Serif" font-size="10.00">ComponentDeclarationType_v2_3</text>
</a>
</g>
</g>
<!-- Node1&#45;&gt;Node7 -->
<g id="edge6_Node000001_Node000007" class="edge">
<title>Node1&#45;&gt;Node7</title>
<g id="a_edge6_Node000001_Node000007"><a xlink:title=" ">
<path fill="none" stroke="#63b8ff" d="M108.82,-409.28C131.61,-431.78 173.41,-469.63 216.25,-491 222.73,-494.23 229.67,-497.08 236.75,-499.57"/>
<polygon fill="#63b8ff" stroke="#63b8ff" points="111.39,-406.9 101.85,-402.28 106.42,-411.84 111.39,-406.9"/>
</a>
</g>
</g>
<!-- Node8 -->
<g id="Node000008" class="node">
<title>Node8</title>
<g id="a_Node000008"><a xlink:href="class_vecto_objects_1_1_electric_machine_system_component_declaration_type__v2__3.html" target="_top" xlink:title="VectoObjects.ElectricMachineSystemComponentDeclarationType_v2_3 Types inheriting from AbstractElectri...">
<polygon fill="white" stroke="#666666" points="413,-482 216.25,-482 216.25,-450 413,-450 413,-482"/>
<text xml:space="preserve" text-anchor="start" x="224.25" y="-468.5" font-family="Helvetica,sans-Serif" font-size="10.00">VectoObjects.ElectricMachine</text>
<text xml:space="preserve" text-anchor="middle" x="314.62" y="-456.5" font-family="Helvetica,sans-Serif" font-size="10.00">SystemComponentDeclarationType_v2_3</text>
</a>
</g>
</g>
<!-- Node1&#45;&gt;Node8 -->
<g id="edge7_Node000001_Node000008" class="edge">
<title>Node1&#45;&gt;Node8</title>
<g id="a_edge7_Node000001_Node000008"><a xlink:title=" ">
<path fill="none" stroke="#63b8ff" d="M124.69,-405.78C149.63,-416.43 184.68,-430.69 216.25,-441 225.46,-444.01 235.25,-446.89 244.94,-449.55"/>
<polygon fill="#63b8ff" stroke="#63b8ff" points="126.27,-402.65 115.71,-401.91 123.51,-409.08 126.27,-402.65"/>
</a>
</g>
</g>
<!-- Node9 -->
<g id="Node000009" class="node">
<title>Node9</title>
<g id="a_Node000009"><a xlink:href="class_vecto_objects_1_1_engine_component_declaration_type__v2__0.html" target="_top" xlink:title="VectoObjects.EngineComponentDeclarationType_v2_0 Types inheriting from AbstractCombustionEngineDataDe...">
<polygon fill="white" stroke="#666666" points="393.5,-432 235.75,-432 235.75,-400 393.5,-400 393.5,-432"/>
<text xml:space="preserve" text-anchor="start" x="243.75" y="-418.5" font-family="Helvetica,sans-Serif" font-size="10.00">VectoObjects.EngineComponent</text>
<text xml:space="preserve" text-anchor="middle" x="314.62" y="-406.5" font-family="Helvetica,sans-Serif" font-size="10.00">DeclarationType_v2_0</text>
</a>
</g>
</g>
<!-- Node1&#45;&gt;Node9 -->
<g id="edge8_Node000001_Node000009" class="edge">
<title>Node1&#45;&gt;Node9</title>
<g id="a_edge8_Node000001_Node000009"><a xlink:title=" ">
<path fill="none" stroke="#63b8ff" d="M191.78,-402.31C206.41,-403.95 221.28,-405.62 235.38,-407.21"/>
<polygon fill="#63b8ff" stroke="#63b8ff" points="192.49,-398.87 182.17,-401.23 191.71,-405.82 192.49,-398.87"/>
</a>
</g>
</g>
<!-- Node10 -->
<g id="Node000010" class="node">
<title>Node10</title>
<g id="a_Node000010"><a xlink:href="class_vecto_objects_1_1_fuel_cell_component_declaration_type__v2__6.html" target="_top" xlink:title="VectoObjects.FuelCellComponentDeclarationType_v2_6 Types inheriting from AbstractFuelCellDataType_v2_...">
<polygon fill="white" stroke="#666666" points="396.5,-382 232.75,-382 232.75,-350 396.5,-350 396.5,-382"/>
<text xml:space="preserve" text-anchor="start" x="240.75" y="-368.5" font-family="Helvetica,sans-Serif" font-size="10.00">VectoObjects.FuelCellComponent</text>
<text xml:space="preserve" text-anchor="middle" x="314.62" y="-356.5" font-family="Helvetica,sans-Serif" font-size="10.00">DeclarationType_v2_6</text>
</a>
</g>
</g>
<!-- Node1&#45;&gt;Node10 -->
<g id="edge9_Node000001_Node000010" class="edge">
<title>Node1&#45;&gt;Node10</title>
<g id="a_edge9_Node000001_Node000010"><a xlink:title=" ">
<path fill="none" stroke="#63b8ff" d="M192,-379.67C205.58,-378.14 219.36,-376.59 232.54,-375.11"/>
<polygon fill="#63b8ff" stroke="#63b8ff" points="191.71,-376.18 182.17,-380.77 192.49,-383.13 191.71,-376.18"/>
</a>
</g>
</g>
<!-- Node11 -->
<g id="Node000011" class="node">
<title>Node11</title>
<g id="a_Node000011"><a xlink:href="class_vecto_objects_1_1_gearbox_component_declaration_type__v2__0.html" target="_top" xlink:title="VectoObjects.GearboxComponentDeclarationType_v2_0 Types inheriting from AbstractTransmissionDataDecla...">
<polygon fill="white" stroke="#666666" points="396.88,-332 232.38,-332 232.38,-300 396.88,-300 396.88,-332"/>
<text xml:space="preserve" text-anchor="start" x="240.38" y="-318.5" font-family="Helvetica,sans-Serif" font-size="10.00">VectoObjects.GearboxComponent</text>
<text xml:space="preserve" text-anchor="middle" x="314.62" y="-306.5" font-family="Helvetica,sans-Serif" font-size="10.00">DeclarationType_v2_0</text>
</a>
</g>
</g>
<!-- Node1&#45;&gt;Node11 -->
<g id="edge10_Node000001_Node000011" class="edge">
<title>Node1&#45;&gt;Node11</title>
<g id="a_edge10_Node000001_Node000011"><a xlink:title=" ">
<path fill="none" stroke="#63b8ff" d="M124.69,-376.22C149.63,-365.57 184.68,-351.31 216.25,-341 225.46,-337.99 235.25,-335.11 244.94,-332.45"/>
<polygon fill="#63b8ff" stroke="#63b8ff" points="123.51,-372.92 115.71,-380.09 126.27,-379.35 123.51,-372.92"/>
</a>
</g>
</g>
<!-- Node12 -->
<g id="Node000012" class="node">
<title>Node12</title>
<g id="a_Node000012"><a xlink:href="class_vecto_objects_1_1_i_e_p_c_component_declaration_type__v2__3.html" target="_top" xlink:title="VectoObjects.IEPCComponentDeclarationType_v2_3 Types inheriting from AbstractIEPCDataType_v2_3: Vecto...">
<polygon fill="white" stroke="#666666" points="390.5,-282 238.75,-282 238.75,-250 390.5,-250 390.5,-282"/>
<text xml:space="preserve" text-anchor="start" x="246.75" y="-268.5" font-family="Helvetica,sans-Serif" font-size="10.00">VectoObjects.IEPCComponent</text>
<text xml:space="preserve" text-anchor="middle" x="314.62" y="-256.5" font-family="Helvetica,sans-Serif" font-size="10.00">DeclarationType_v2_3</text>
</a>
</g>
</g>
<!-- Node1&#45;&gt;Node12 -->
<g id="edge11_Node000001_Node000012" class="edge">
<title>Node1&#45;&gt;Node12</title>
<g id="a_edge11_Node000001_Node000012"><a xlink:title=" ">
<path fill="none" stroke="#63b8ff" d="M108.82,-372.72C131.61,-350.22 173.41,-312.37 216.25,-291 223.2,-287.53 230.68,-284.52 238.29,-281.9"/>
<polygon fill="#63b8ff" stroke="#63b8ff" points="106.42,-370.16 101.85,-379.72 111.39,-375.1 106.42,-370.16"/>
</a>
</g>
</g>
<!-- Node13 -->
<g id="Node000013" class="node">
<title>Node13</title>
<g id="a_Node000013"><a xlink:href="interface_vecto_objects_1_1_i_r_e_e_s_s_component_delaration.html" target="_top" xlink:title=" ">
<polygon fill="white" stroke="#bfbfbf" points="397.25,-232 232,-232 232,-200 397.25,-200 397.25,-232"/>
<text xml:space="preserve" text-anchor="start" x="240" y="-218.5" font-family="Helvetica,sans-Serif" font-size="10.00">VectoObjects.IREESSComponent</text>
<text xml:space="preserve" text-anchor="middle" x="314.62" y="-206.5" font-family="Helvetica,sans-Serif" font-size="10.00">Delaration</text>
</a>
</g>
</g>
<!-- Node1&#45;&gt;Node13 -->
<g id="edge12_Node000001_Node000013" class="edge">
<title>Node1&#45;&gt;Node13</title>
<g id="a_edge12_Node000001_Node000013"><a xlink:title=" ">
<path fill="none" stroke="#63b8ff" d="M102.12,-371.03C121.04,-338.59 162.93,-274.69 216.25,-241 221.41,-237.74 226.99,-234.9 232.76,-232.43"/>
<polygon fill="#63b8ff" stroke="#63b8ff" points="99.25,-369 97.35,-379.42 105.33,-372.46 99.25,-369"/>
</a>
</g>
</g>
<!-- Node17 -->
<g id="Node000017" class="node">
<title>Node17</title>
<g id="a_Node000017"><a xlink:href="class_vecto_objects_1_1_retarder_component_declaration_type__v2__0.html" target="_top" xlink:title="VectoObjects.RetarderComponentDeclarationType_v2_0 Types inheriting from AbstractRetarderDataDeclarat...">
<polygon fill="white" stroke="#666666" points="397.25,-182 232,-182 232,-150 397.25,-150 397.25,-182"/>
<text xml:space="preserve" text-anchor="start" x="240" y="-168.5" font-family="Helvetica,sans-Serif" font-size="10.00">VectoObjects.RetarderComponent</text>
<text xml:space="preserve" text-anchor="middle" x="314.62" y="-156.5" font-family="Helvetica,sans-Serif" font-size="10.00">DeclarationType_v2_0</text>
</a>
</g>
</g>
<!-- Node1&#45;&gt;Node17 -->
<g id="edge16_Node000001_Node000017" class="edge">
<title>Node1&#45;&gt;Node17</title>
<g id="a_edge16_Node000001_Node000017"><a xlink:title=" ">
<path fill="none" stroke="#63b8ff" d="M98.22,-369.97C113.19,-328.91 152,-238 216.25,-191 221.04,-187.5 226.27,-184.48 231.75,-181.89"/>
<polygon fill="#63b8ff" stroke="#63b8ff" points="94.93,-368.77 94.91,-379.37 101.53,-371.1 94.93,-368.77"/>
</a>
</g>
</g>
<!-- Node18 -->
<g id="Node000018" class="node">
<title>Node18</title>
<g id="a_Node000018"><a xlink:title=" ">
<polygon fill="white" stroke="#666666" points="387.88,-132 241.38,-132 241.38,-100 387.88,-100 387.88,-132"/>
<text xml:space="preserve" text-anchor="start" x="249.38" y="-118.5" font-family="Helvetica,sans-Serif" font-size="10.00">VectoObjects.TestComponent</text>
<text xml:space="preserve" text-anchor="middle" x="314.62" y="-106.5" font-family="Helvetica,sans-Serif" font-size="10.00">Declaration</text>
</a>
</g>
</g>
<!-- Node1&#45;&gt;Node18 -->
<g id="edge17_Node000001_Node000018" class="edge">
<title>Node1&#45;&gt;Node18</title>
<g id="a_edge17_Node000001_Node000018"><a xlink:title=" ">
<path fill="none" stroke="#63b8ff" d="M95.53,-369.49C106.65,-320.9 140.51,-202.13 216.25,-141 223.58,-135.08 232.16,-130.55 241.12,-127.08"/>
<polygon fill="#63b8ff" stroke="#63b8ff" points="92.17,-368.51 93.46,-379.02 99.01,-370 92.17,-368.51"/>
</a>
</g>
</g>
<!-- Node19 -->
<g id="Node000019" class="node">
<title>Node19</title>
<g id="a_Node000019"><a xlink:href="class_vecto_objects_1_1_torque_converter_component_declaration_type__v2__0.html" target="_top" xlink:title="VectoObjects.TorqueConverterComponentDeclarationType_v2_0 Types inheriting from AbstractTorqueConvert...">
<polygon fill="white" stroke="#666666" points="396.12,-82 233.12,-82 233.12,-50 396.12,-50 396.12,-82"/>
<text xml:space="preserve" text-anchor="start" x="241.12" y="-68.5" font-family="Helvetica,sans-Serif" font-size="10.00">VectoObjects.TorqueConverter</text>
<text xml:space="preserve" text-anchor="middle" x="314.62" y="-56.5" font-family="Helvetica,sans-Serif" font-size="10.00">ComponentDeclarationType_v2_0</text>
</a>
</g>
</g>
<!-- Node1&#45;&gt;Node19 -->
<g id="edge18_Node000001_Node000019" class="edge">
<title>Node1&#45;&gt;Node19</title>
<g id="a_edge18_Node000001_Node000019"><a xlink:title=" ">
<path fill="none" stroke="#63b8ff" d="M93.58,-369.44C101.03,-314.25 128.57,-166.89 216.25,-91 221.26,-86.66 226.94,-83.06 232.96,-80.07"/>
<polygon fill="#63b8ff" stroke="#63b8ff" points="90.14,-368.72 92.37,-379.08 97.08,-369.59 90.14,-368.72"/>
</a>
</g>
</g>
<!-- Node20 -->
<g id="Node000020" class="node">
<title>Node20</title>
<g id="a_Node000020"><a xlink:href="class_vecto_objects_1_1_tyre_component_declaration_type__v2__0.html" target="_top" xlink:title="VectoObjects.TyreComponentDeclarationType_v2_0 Types inheriting from AbstractTyreDataDeclarationType_...">
<polygon fill="white" stroke="#666666" points="387.88,-32 241.38,-32 241.38,0 387.88,0 387.88,-32"/>
<text xml:space="preserve" text-anchor="start" x="249.38" y="-18.5" font-family="Helvetica,sans-Serif" font-size="10.00">VectoObjects.TyreComponent</text>
<text xml:space="preserve" text-anchor="middle" x="314.62" y="-6.5" font-family="Helvetica,sans-Serif" font-size="10.00">DeclarationType_v2_0</text>
</a>
</g>
</g>
<!-- Node1&#45;&gt;Node20 -->
<g id="edge19_Node000001_Node000020" class="edge">
<title>Node1&#45;&gt;Node20</title>
<g id="a_edge19_Node000001_Node000020"><a xlink:title=" ">
<path fill="none" stroke="#63b8ff" d="M92.14,-369.24C96.24,-307.86 116.54,-131.93 216.25,-41 223.34,-34.53 231.88,-29.69 240.92,-26.07"/>
<polygon fill="#63b8ff" stroke="#63b8ff" points="88.66,-368.83 91.58,-379.02 95.65,-369.23 88.66,-368.83"/>
</a>
</g>
</g>
<!-- Node14 -->
<g id="Node000014" class="node">
<title>Node14</title>
<g id="a_Node000014"><a xlink:href="class_vecto_objects_1_1_r_e_e_s_s_battery_type_r_e_e_s_s__v2__4.html" target="_top" xlink:title=" ">
<polygon fill="white" stroke="#bfbfbf" points="601.88,-282 458.38,-282 458.38,-250 601.88,-250 601.88,-282"/>
<text xml:space="preserve" text-anchor="start" x="466.38" y="-268.5" font-family="Helvetica,sans-Serif" font-size="10.00">VectoObjects.REESSBattery</text>
<text xml:space="preserve" text-anchor="middle" x="530.12" y="-256.5" font-family="Helvetica,sans-Serif" font-size="10.00">TypeREESS_v2_4</text>
</a>
</g>
</g>
<!-- Node13&#45;&gt;Node14 -->
<g id="edge13_Node000013_Node000014" class="edge">
<title>Node13&#45;&gt;Node14</title>
<g id="a_edge13_Node000013_Node000014"><a xlink:title=" ">
<path fill="none" stroke="#63b8ff" d="M397,-235.06C417.39,-239.83 439.08,-244.91 458.88,-249.55"/>
<polygon fill="#63b8ff" stroke="#63b8ff" points="397.84,-231.66 387.3,-232.79 396.24,-238.47 397.84,-231.66"/>
</a>
</g>
</g>
<!-- Node15 -->
<g id="Node000015" class="node">
<title>Node15</title>
<g id="a_Node000015"><a xlink:href="class_vecto_objects_1_1_r_e_e_s_s_capacitor_type__v2__4.html" target="_top" xlink:title=" ">
<polygon fill="white" stroke="#bfbfbf" points="607.12,-232 453.12,-232 453.12,-200 607.12,-200 607.12,-232"/>
<text xml:space="preserve" text-anchor="start" x="461.12" y="-218.5" font-family="Helvetica,sans-Serif" font-size="10.00">VectoObjects.REESSCapacitor</text>
<text xml:space="preserve" text-anchor="middle" x="530.12" y="-206.5" font-family="Helvetica,sans-Serif" font-size="10.00">Type_v2_4</text>
</a>
</g>
</g>
<!-- Node13&#45;&gt;Node15 -->
<g id="edge14_Node000013_Node000015" class="edge">
<title>Node13&#45;&gt;Node15</title>
<g id="a_edge14_Node000013_Node000015"><a xlink:title=" ">
<path fill="none" stroke="#63b8ff" d="M408.7,-216C423.38,-216 438.42,-216 452.67,-216"/>
<polygon fill="#63b8ff" stroke="#63b8ff" points="409.07,-212.5 399.07,-216 409.07,-219.5 409.07,-212.5"/>
</a>
</g>
</g>
<!-- Node16 -->
<g id="Node000016" class="node">
<title>Node16</title>
<g id="a_Node000016"><a xlink:href="class_vecto_objects_1_1_r_e_e_s_s_component_declaration_type__v2__3.html" target="_top" xlink:title=" ">
<polygon fill="white" stroke="#bfbfbf" points="611.25,-182 449,-182 449,-150 611.25,-150 611.25,-182"/>
<text xml:space="preserve" text-anchor="start" x="457" y="-168.5" font-family="Helvetica,sans-Serif" font-size="10.00">VectoObjects.REESSComponent</text>
<text xml:space="preserve" text-anchor="middle" x="530.12" y="-156.5" font-family="Helvetica,sans-Serif" font-size="10.00">DeclarationType_v2_3</text>
</a>
</g>
</g>
<!-- Node13&#45;&gt;Node16 -->
<g id="edge15_Node000013_Node000016" class="edge">
<title>Node13&#45;&gt;Node16</title>
<g id="a_edge15_Node000013_Node000016"><a xlink:title=" ">
<path fill="none" stroke="#63b8ff" d="M397,-196.94C417.39,-192.17 439.08,-187.09 458.88,-182.45"/>
<polygon fill="#63b8ff" stroke="#63b8ff" points="396.24,-193.53 387.3,-199.21 397.84,-200.34 396.24,-193.53"/>
</a>
</g>
</g>
</g>
</svg>

<g id="navigator" transform="translate(0 0)" fill="#404254">
  <rect fill="#f2f5e9" fill-opacity="0.5" stroke="#606060" stroke-width=".5" x="0" y="0" width="60" height="60"/>
  <use id="zoomplus" xlink:href="#zoomPlus" x="17" y="9" onmousedown="handleZoom(evt,'in')"/>
  <use id="zoomminus" xlink:href="#zoomMin" x="42" y="9" onmousedown="handleZoom(evt,'out')"/>
  <use id="reset" xlink:href="#resetDef" x="30" y="36" onmousedown="handleReset()"/>
   <use id="arrowup" xlink:href="#arrowUp" x="0" y="0" onmousedown="handlePan(0,-1)"/>
  <use id="arrowright" xlink:href="#arrowRight" x="0" y="0" onmousedown="handlePan(1,0)"/>
  <use id="arrowdown" xlink:href="#arrowDown" x="0" y="0" onmousedown="handlePan(0,1)"/>
  <use id="arrowleft" xlink:href="#arrowLeft" x="0" y="0" onmousedown="handlePan(-1,0)"/>
</g>
<svg viewBox="0 0 15 15" width="100%" height="30px" preserveAspectRatio="xMaxYMin meet">
 <g id="arrow_out" transform="scale(0.3 0.3)">
  <a xlink:href="interface_vecto_objects_1_1_i_component_declaration__inherit__graph_org.svg" target="_base">
   <rect id="button" ry="5" rx="5" y="6" x="6" height="38" width="38"
        fill="#f2f5e9" fill-opacity="0.5" stroke="#606060" stroke-width="1.0"/>
   <path id="arrow"
     d="M 11.500037,31.436501 C 11.940474,20.09759 22.043105,11.32322 32.158766,21.979434 L 37.068811,17.246167 C 37.068811,17.246167 37.088388,32 37.088388,32 L 22.160133,31.978069 C 22.160133,31.978069 26.997745,27.140456 26.997745,27.140456 C 18.528582,18.264221 13.291696,25.230495 11.500037,31.436501 z"
     style="fill:#404040;"/>
  </a>
 </g>
</svg>

<style type='text/css'>
<![CDATA[
[data-mouse-over-selected='false'] { opacity: 0.7; }
[data-mouse-over-selected='true']  { opacity: 1.0; }
]]>
</style>
<script type="application/ecmascript"><![CDATA[
document.addEventListener('DOMContentLoaded', (event) => {
  highlightEdges();
  highlightAdjacentNodes();
});
]]></script>
</svg>
