<?xml version="1.0" encoding="UTF-8" standalone="no"?>
<!DOCTYPE svg PUBLIC "-//W3C//DTD SVG 1.1//EN"
 "http://www.w3.org/Graphics/SVG/1.1/DTD/svg11.dtd">
<!-- Generated by graphviz version 14.0.2 (20251019.1705)
 -->
<!-- Title: VectoObjects.IComponentDataDeclaration Pages: 1 -->
<svg width="406pt" height="964pt"
 viewBox="0.00 0.00 406.00 964.00" xmlns="http://www.w3.org/2000/svg" xmlns:xlink="http://www.w3.org/1999/xlink">
<g id="graph0" class="graph" transform="scale(1 1) rotate(0) translate(4 960)">
<title>VectoObjects.IComponentDataDeclaration</title>
<!-- Node1 -->
<g id="Node000001" class="node">
<title>Node1</title>
<g id="a_Node000001"><a xlink:title=" ">
<polygon fill="#999999" stroke="#666666" points="151.75,-488 0,-488 0,-456 151.75,-456 151.75,-488"/>
<text xml:space="preserve" text-anchor="start" x="8" y="-474.5" font-family="Helvetica,sans-Serif" font-size="10.00">VectoObjects.IComponentData</text>
<text xml:space="preserve" text-anchor="middle" x="75.88" y="-462.5" font-family="Helvetica,sans-Serif" font-size="10.00">Declaration</text>
</a>
</g>
</g>
<!-- Node2 -->
<g id="Node000002" class="node">
<title>Node2</title>
<g id="a_Node000002"><a xlink:href="class_vecto_objects_1_1_a_d_c_data_declaration_type__v2__3.html" target="_top" xlink:title=" ">
<polygon fill="white" stroke="#bfbfbf" points="377.75,-956 208,-956 208,-924 377.75,-924 377.75,-956"/>
<text xml:space="preserve" text-anchor="start" x="216" y="-942.5" font-family="Helvetica,sans-Serif" font-size="10.00">VectoObjects.ADCDataDeclaration</text>
<text xml:space="preserve" text-anchor="middle" x="292.88" y="-930.5" font-family="Helvetica,sans-Serif" font-size="10.00">Type_v2_3</text>
</a>
</g>
</g>
<!-- Node1&#45;&gt;Node2 -->
<g id="edge1_Node000001_Node000002" class="edge">
<title>Node1&#45;&gt;Node2</title>
<g id="a_edge1_Node000001_Node000002"><a xlink:title=" ">
<path fill="none" stroke="#63b8ff" d="M80.02,-499.38C90.59,-586.56 127.56,-855.38 187.75,-915 193.5,-920.69 200.3,-925.17 207.62,-928.68"/>
<polygon fill="#63b8ff" stroke="#63b8ff" points="83.52,-499.13 78.86,-489.61 76.57,-499.95 83.52,-499.13"/>
</a>
</g>
</g>
<!-- Node3 -->
<g id="Node000003" class="node">
<title>Node3</title>
<g id="a_Node000003"><a xlink:href="class_vecto_objects_1_1_air_drag_data_declaration_type__v2__6.html" target="_top" xlink:title=" ">
<polygon fill="white" stroke="#bfbfbf" points="358.62,-906 227.12,-906 227.12,-874 358.62,-874 358.62,-906"/>
<text xml:space="preserve" text-anchor="start" x="235.12" y="-892.5" font-family="Helvetica,sans-Serif" font-size="10.00">VectoObjects.AirDragData</text>
<text xml:space="preserve" text-anchor="middle" x="292.88" y="-880.5" font-family="Helvetica,sans-Serif" font-size="10.00">DeclarationType_v2_6</text>
</a>
</g>
</g>
<!-- Node1&#45;&gt;Node3 -->
<g id="edge2_Node000001_Node000003" class="edge">
<title>Node1&#45;&gt;Node3</title>
<g id="a_edge2_Node000001_Node000003"><a xlink:title=" ">
<path fill="none" stroke="#63b8ff" d="M80.92,-499.17C93.41,-579.44 133.79,-813.13 187.75,-865 198.4,-875.24 212.48,-881.54 226.83,-885.34"/>
<polygon fill="#63b8ff" stroke="#63b8ff" points="84.42,-498.92 79.45,-489.57 77.5,-499.98 84.42,-498.92"/>
</a>
</g>
</g>
<!-- Node4 -->
<g id="Node000004" class="node">
<title>Node4</title>
<g id="a_Node000004"><a xlink:href="class_vecto_objects_1_1_angledrive_data_declaration_type__v2__0.html" target="_top" xlink:title=" ">
<polygon fill="white" stroke="#bfbfbf" points="365,-856 220.75,-856 220.75,-824 365,-824 365,-856"/>
<text xml:space="preserve" text-anchor="start" x="228.75" y="-842.5" font-family="Helvetica,sans-Serif" font-size="10.00">VectoObjects.AngledriveData</text>
<text xml:space="preserve" text-anchor="middle" x="292.88" y="-830.5" font-family="Helvetica,sans-Serif" font-size="10.00">DeclarationType_v2_0</text>
</a>
</g>
</g>
<!-- Node1&#45;&gt;Node4 -->
<g id="edge3_Node000001_Node000004" class="edge">
<title>Node1&#45;&gt;Node4</title>
<g id="a_edge3_Node000001_Node000004"><a xlink:title=" ">
<path fill="none" stroke="#63b8ff" d="M77.2,-499.45C79.51,-564.48 94.78,-728.93 187.75,-815 196.89,-823.46 208.38,-829.21 220.36,-833.08"/>
<polygon fill="#63b8ff" stroke="#63b8ff" points="80.7,-499.57 76.93,-489.67 73.7,-499.76 80.7,-499.57"/>
</a>
</g>
</g>
<!-- Node5 -->
<g id="Node000005" class="node">
<title>Node5</title>
<g id="a_Node000005"><a xlink:href="class_vecto_objects_1_1_axlegear_data_declaration_type__v2__0.html" target="_top" xlink:title=" ">
<polygon fill="white" stroke="#666666" points="361.25,-806 224.5,-806 224.5,-774 361.25,-774 361.25,-806"/>
<text xml:space="preserve" text-anchor="start" x="232.5" y="-792.5" font-family="Helvetica,sans-Serif" font-size="10.00">VectoObjects.AxlegearData</text>
<text xml:space="preserve" text-anchor="middle" x="292.88" y="-780.5" font-family="Helvetica,sans-Serif" font-size="10.00">DeclarationType_v2_0</text>
</a>
</g>
</g>
<!-- Node1&#45;&gt;Node5 -->
<g id="edge4_Node000001_Node000005" class="edge">
<title>Node1&#45;&gt;Node5</title>
<g id="a_edge4_Node000001_Node000005"><a xlink:title=" ">
<path fill="none" stroke="#63b8ff" d="M78.94,-499.41C84.83,-557.57 106.99,-693.83 187.75,-765 198,-774.03 210.95,-779.94 224.2,-783.77"/>
<polygon fill="#63b8ff" stroke="#63b8ff" points="82.45,-499.38 78.05,-489.74 75.48,-500.02 82.45,-499.38"/>
</a>
</g>
</g>
<!-- Node6 -->
<g id="Node000006" class="node">
<title>Node6</title>
<g id="a_Node000006"><a xlink:href="class_vecto_objects_1_1_battery_system_data_type__v2__3.html" target="_top" xlink:title=" ">
<polygon fill="white" stroke="#bfbfbf" points="364.25,-756 221.5,-756 221.5,-724 364.25,-724 364.25,-756"/>
<text xml:space="preserve" text-anchor="start" x="229.5" y="-742.5" font-family="Helvetica,sans-Serif" font-size="10.00">VectoObjects.BatterySystem</text>
<text xml:space="preserve" text-anchor="middle" x="292.88" y="-730.5" font-family="Helvetica,sans-Serif" font-size="10.00">DataType_v2_3</text>
</a>
</g>
</g>
<!-- Node1&#45;&gt;Node6 -->
<g id="edge5_Node000001_Node000006" class="edge">
<title>Node1&#45;&gt;Node6</title>
<g id="a_edge5_Node000001_Node000006"><a xlink:title=" ">
<path fill="none" stroke="#63b8ff" d="M81.36,-499.6C91.12,-550.35 119.15,-658.47 187.75,-715 197.36,-722.92 209.08,-728.41 221.13,-732.19"/>
<polygon fill="#63b8ff" stroke="#63b8ff" points="84.81,-498.98 79.58,-489.76 77.92,-500.23 84.81,-498.98"/>
</a>
</g>
</g>
<!-- Node7 -->
<g id="Node000007" class="node">
<title>Node7</title>
<g id="a_Node000007"><a xlink:href="class_vecto_objects_1_1_battery_system_standard_values_data_type__v2__6.html" target="_top" xlink:title=" ">
<polygon fill="white" stroke="#bfbfbf" points="369.12,-706 216.62,-706 216.62,-674 369.12,-674 369.12,-706"/>
<text xml:space="preserve" text-anchor="start" x="224.62" y="-692.5" font-family="Helvetica,sans-Serif" font-size="10.00">VectoObjects.BatterySystem</text>
<text xml:space="preserve" text-anchor="middle" x="292.88" y="-680.5" font-family="Helvetica,sans-Serif" font-size="10.00">StandardValuesDataType_v2_6</text>
</a>
</g>
</g>
<!-- Node1&#45;&gt;Node7 -->
<g id="edge6_Node000001_Node000007" class="edge">
<title>Node1&#45;&gt;Node7</title>
<g id="a_edge6_Node000001_Node000007"><a xlink:title=" ">
<path fill="none" stroke="#63b8ff" d="M84.81,-499.29C98.55,-541.57 130.91,-622.46 187.75,-665 196.23,-671.35 206.1,-676.11 216.32,-679.68"/>
<polygon fill="#63b8ff" stroke="#63b8ff" points="88.19,-498.4 81.87,-489.9 81.51,-500.49 88.19,-498.4"/>
</a>
</g>
</g>
<!-- Node8 -->
<g id="Node000008" class="node">
<title>Node8</title>
<g id="a_Node000008"><a xlink:href="class_vecto_objects_1_1_capacitor_system_data_type__v2__6.html" target="_top" xlink:title=" ">
<polygon fill="white" stroke="#bfbfbf" points="369.5,-656 216.25,-656 216.25,-624 369.5,-624 369.5,-656"/>
<text xml:space="preserve" text-anchor="start" x="224.25" y="-642.5" font-family="Helvetica,sans-Serif" font-size="10.00">VectoObjects.CapacitorSystem</text>
<text xml:space="preserve" text-anchor="middle" x="292.88" y="-630.5" font-family="Helvetica,sans-Serif" font-size="10.00">DataType_v2_6</text>
</a>
</g>
</g>
<!-- Node1&#45;&gt;Node8 -->
<g id="edge7_Node000001_Node000008" class="edge">
<title>Node1&#45;&gt;Node8</title>
<g id="a_edge7_Node000001_Node000008"><a xlink:title=" ">
<path fill="none" stroke="#63b8ff" d="M90.04,-498.33C107.71,-530.89 142.23,-585.6 187.75,-615 196.34,-620.55 206.04,-624.87 215.99,-628.23"/>
<polygon fill="#63b8ff" stroke="#63b8ff" points="93.17,-496.76 85.41,-489.55 86.97,-500.02 93.17,-496.76"/>
</a>
</g>
</g>
<!-- Node9 -->
<g id="Node000009" class="node">
<title>Node9</title>
<g id="a_Node000009"><a xlink:href="class_vecto_objects_1_1_electric_machine_system_i_h_p_c_measured_data_declaration_type__v2__3.html" target="_top" xlink:title=" ">
<polygon fill="white" stroke="#bfbfbf" points="386.75,-606 199,-606 199,-562 386.75,-562 386.75,-606"/>
<text xml:space="preserve" text-anchor="start" x="207" y="-592.5" font-family="Helvetica,sans-Serif" font-size="10.00">VectoObjects.ElectricMachine</text>
<text xml:space="preserve" text-anchor="start" x="207" y="-580.5" font-family="Helvetica,sans-Serif" font-size="10.00">SystemIHPCMeasuredDataDeclaration</text>
<text xml:space="preserve" text-anchor="middle" x="292.88" y="-568.5" font-family="Helvetica,sans-Serif" font-size="10.00">Type_v2_3</text>
</a>
</g>
</g>
<!-- Node1&#45;&gt;Node9 -->
<g id="edge8_Node000001_Node000009" class="edge">
<title>Node1&#45;&gt;Node9</title>
<g id="a_edge8_Node000001_Node000009"><a xlink:title=" ">
<path fill="none" stroke="#63b8ff" d="M103.75,-495.73C125.21,-513.62 156.73,-537.62 187.75,-553 194,-556.1 200.62,-558.95 207.37,-561.56"/>
<polygon fill="#63b8ff" stroke="#63b8ff" points="106.25,-493.26 96.36,-489.46 101.72,-498.59 106.25,-493.26"/>
</a>
</g>
</g>
<!-- Node10 -->
<g id="Node000010" class="node">
<title>Node10</title>
<g id="a_Node000010"><a xlink:href="class_vecto_objects_1_1_electric_machine_system_measured_data_declaration_type__v2__3.html" target="_top" xlink:title=" ">
<polygon fill="white" stroke="#bfbfbf" points="398,-544 187.75,-544 187.75,-512 398,-512 398,-544"/>
<text xml:space="preserve" text-anchor="start" x="195.75" y="-530.5" font-family="Helvetica,sans-Serif" font-size="10.00">VectoObjects.ElectricMachine</text>
<text xml:space="preserve" text-anchor="middle" x="292.88" y="-518.5" font-family="Helvetica,sans-Serif" font-size="10.00">SystemMeasuredDataDeclarationType_v2_3</text>
</a>
</g>
</g>
<!-- Node1&#45;&gt;Node10 -->
<g id="edge9_Node000001_Node000010" class="edge">
<title>Node1&#45;&gt;Node10</title>
<g id="a_edge9_Node000001_Node000010"><a xlink:title=" ">
<path fill="none" stroke="#63b8ff" d="M145.37,-491.58C159.36,-495.46 174.01,-499.43 187.75,-503 198.73,-505.85 210.38,-508.76 221.77,-511.54"/>
<polygon fill="#63b8ff" stroke="#63b8ff" points="146.34,-488.22 135.77,-488.9 144.46,-494.96 146.34,-488.22"/>
</a>
</g>
</g>
<!-- Node11 -->
<g id="Node000011" class="node">
<title>Node11</title>
<g id="a_Node000011"><a xlink:href="class_vecto_objects_1_1_electric_machine_system_standard_values_data_declaration_type__v2__3.html" target="_top" xlink:title=" ">
<polygon fill="white" stroke="#bfbfbf" points="387.12,-494 198.62,-494 198.62,-450 387.12,-450 387.12,-494"/>
<text xml:space="preserve" text-anchor="start" x="206.62" y="-480.5" font-family="Helvetica,sans-Serif" font-size="10.00">VectoObjects.ElectricMachine</text>
<text xml:space="preserve" text-anchor="start" x="206.62" y="-468.5" font-family="Helvetica,sans-Serif" font-size="10.00">SystemStandardValuesDataDeclaration</text>
<text xml:space="preserve" text-anchor="middle" x="292.88" y="-456.5" font-family="Helvetica,sans-Serif" font-size="10.00">Type_v2_3</text>
</a>
</g>
</g>
<!-- Node1&#45;&gt;Node11 -->
<g id="edge10_Node000001_Node000011" class="edge">
<title>Node1&#45;&gt;Node11</title>
<g id="a_edge10_Node000001_Node000011"><a xlink:title=" ">
<path fill="none" stroke="#63b8ff" d="M163.39,-472C174.85,-472 186.63,-472 198.19,-472"/>
<polygon fill="#63b8ff" stroke="#63b8ff" points="163.59,-468.5 153.59,-472 163.59,-475.5 163.59,-468.5"/>
</a>
</g>
</g>
<!-- Node12 -->
<g id="Node000012" class="node">
<title>Node12</title>
<g id="a_Node000012"><a xlink:href="class_vecto_objects_1_1_engine_data_declaration_type__v2__6.html" target="_top" xlink:title=" ">
<polygon fill="white" stroke="#bfbfbf" points="381.88,-432 203.88,-432 203.88,-400 381.88,-400 381.88,-432"/>
<text xml:space="preserve" text-anchor="start" x="211.88" y="-418.5" font-family="Helvetica,sans-Serif" font-size="10.00">VectoObjects.EngineDataDeclaration</text>
<text xml:space="preserve" text-anchor="middle" x="292.88" y="-406.5" font-family="Helvetica,sans-Serif" font-size="10.00">Type_v2_6</text>
</a>
</g>
</g>
<!-- Node1&#45;&gt;Node12 -->
<g id="edge11_Node000001_Node000012" class="edge">
<title>Node1&#45;&gt;Node12</title>
<g id="a_edge11_Node000001_Node000012"><a xlink:title=" ">
<path fill="none" stroke="#63b8ff" d="M145.37,-452.42C159.36,-448.54 174.01,-444.57 187.75,-441 198.73,-438.15 210.38,-435.24 221.77,-432.46"/>
<polygon fill="#63b8ff" stroke="#63b8ff" points="144.46,-449.04 135.77,-455.1 146.34,-455.78 144.46,-449.04"/>
</a>
</g>
</g>
<!-- Node13 -->
<g id="Node000013" class="node">
<title>Node13</title>
<g id="a_Node000013"><a xlink:href="class_vecto_objects_1_1_fuel_cell_data_declaration_type__v2__6.html" target="_top" xlink:title=" ">
<polygon fill="white" stroke="#bfbfbf" points="360.12,-382 225.62,-382 225.62,-350 360.12,-350 360.12,-382"/>
<text xml:space="preserve" text-anchor="start" x="233.62" y="-368.5" font-family="Helvetica,sans-Serif" font-size="10.00">VectoObjects.FuelCellData</text>
<text xml:space="preserve" text-anchor="middle" x="292.88" y="-356.5" font-family="Helvetica,sans-Serif" font-size="10.00">DeclarationType_v2_6</text>
</a>
</g>
</g>
<!-- Node1&#45;&gt;Node13 -->
<g id="edge12_Node000001_Node000013" class="edge">
<title>Node1&#45;&gt;Node13</title>
<g id="a_edge12_Node000001_Node000013"><a xlink:title=" ">
<path fill="none" stroke="#63b8ff" d="M102.76,-448.45C124.11,-430.24 155.95,-405.71 187.75,-391 199.48,-385.58 212.51,-381.25 225.28,-377.84"/>
<polygon fill="#63b8ff" stroke="#63b8ff" points="100.68,-445.63 95.43,-454.83 105.27,-450.91 100.68,-445.63"/>
</a>
</g>
</g>
<!-- Node14 -->
<g id="Node000014" class="node">
<title>Node14</title>
<g id="a_Node000014"><a xlink:href="class_vecto_objects_1_1_gearbox_data_declaration_type__v2__3.html" target="_top" xlink:title=" ">
<polygon fill="white" stroke="#666666" points="360.5,-332 225.25,-332 225.25,-300 360.5,-300 360.5,-332"/>
<text xml:space="preserve" text-anchor="start" x="233.25" y="-318.5" font-family="Helvetica,sans-Serif" font-size="10.00">VectoObjects.GearboxData</text>
<text xml:space="preserve" text-anchor="middle" x="292.88" y="-306.5" font-family="Helvetica,sans-Serif" font-size="10.00">DeclarationType_v2_3</text>
</a>
</g>
</g>
<!-- Node1&#45;&gt;Node14 -->
<g id="edge13_Node000001_Node000014" class="edge">
<title>Node1&#45;&gt;Node14</title>
<g id="a_edge13_Node000001_Node000014"><a xlink:title=" ">
<path fill="none" stroke="#63b8ff" d="M91.71,-446.08C110.26,-416.08 144.86,-367.42 187.75,-341 198.99,-334.08 212,-329.07 224.94,-325.45"/>
<polygon fill="#63b8ff" stroke="#63b8ff" points="88.77,-444.18 86.61,-454.55 94.77,-447.79 88.77,-444.18"/>
</a>
</g>
</g>
<!-- Node15 -->
<g id="Node000015" class="node">
<title>Node15</title>
<g id="a_Node000015"><a xlink:href="class_vecto_objects_1_1_gearbox_f_w_d_data_declaration_type__v2__3.html" target="_top" xlink:title=" ">
<polygon fill="white" stroke="#666666" points="372.12,-282 213.62,-282 213.62,-250 372.12,-250 372.12,-282"/>
<text xml:space="preserve" text-anchor="start" x="221.62" y="-268.5" font-family="Helvetica,sans-Serif" font-size="10.00">VectoObjects.GearboxFWDData</text>
<text xml:space="preserve" text-anchor="middle" x="292.88" y="-256.5" font-family="Helvetica,sans-Serif" font-size="10.00">DeclarationType_v2_3</text>
</a>
</g>
</g>
<!-- Node1&#45;&gt;Node15 -->
<g id="edge14_Node000001_Node000015" class="edge">
<title>Node1&#45;&gt;Node15</title>
<g id="a_edge14_Node000001_Node000015"><a xlink:title=" ">
<path fill="none" stroke="#63b8ff" d="M85.81,-444.98C100.5,-404.93 133.62,-330.33 187.75,-291 195.42,-285.43 204.17,-281.08 213.26,-277.7"/>
<polygon fill="#63b8ff" stroke="#63b8ff" points="82.54,-443.74 82.51,-454.33 89.14,-446.07 82.54,-443.74"/>
</a>
</g>
</g>
<!-- Node16 -->
<g id="Node000016" class="node">
<title>Node16</title>
<g id="a_Node000016"><a xlink:href="class_vecto_objects_1_1_i_e_p_c_measured_data_declaration_type__v2__6.html" target="_top" xlink:title=" ">
<polygon fill="white" stroke="#bfbfbf" points="365,-232 220.75,-232 220.75,-200 365,-200 365,-232"/>
<text xml:space="preserve" text-anchor="start" x="228.75" y="-218.5" font-family="Helvetica,sans-Serif" font-size="10.00">VectoObjects.IEPCMeasured</text>
<text xml:space="preserve" text-anchor="middle" x="292.88" y="-206.5" font-family="Helvetica,sans-Serif" font-size="10.00">DataDeclarationType_v2_6</text>
</a>
</g>
</g>
<!-- Node1&#45;&gt;Node16 -->
<g id="edge15_Node000001_Node000016" class="edge">
<title>Node1&#45;&gt;Node16</title>
<g id="a_edge15_Node000001_Node000016"><a xlink:title=" ">
<path fill="none" stroke="#63b8ff" d="M82.09,-444.37C92.8,-395.53 122.03,-294.08 187.75,-241 197.22,-233.35 208.66,-227.98 220.45,-224.22"/>
<polygon fill="#63b8ff" stroke="#63b8ff" points="78.67,-443.61 80.06,-454.11 85.53,-445.04 78.67,-443.61"/>
</a>
</g>
</g>
<!-- Node17 -->
<g id="Node000017" class="node">
<title>Node17</title>
<g id="a_Node000017"><a xlink:href="class_vecto_objects_1_1_i_e_p_c_standard_values_data_declaration_type__v2__6.html" target="_top" xlink:title=" ">
<polygon fill="white" stroke="#bfbfbf" points="374.38,-182 211.38,-182 211.38,-150 374.38,-150 374.38,-182"/>
<text xml:space="preserve" text-anchor="start" x="219.38" y="-168.5" font-family="Helvetica,sans-Serif" font-size="10.00">VectoObjects.IEPCStandard</text>
<text xml:space="preserve" text-anchor="middle" x="292.88" y="-156.5" font-family="Helvetica,sans-Serif" font-size="10.00">ValuesDataDeclarationType_v2_6</text>
</a>
</g>
</g>
<!-- Node1&#45;&gt;Node17 -->
<g id="edge16_Node000001_Node000017" class="edge">
<title>Node1&#45;&gt;Node17</title>
<g id="a_edge16_Node000001_Node000017"><a xlink:title=" ">
<path fill="none" stroke="#63b8ff" d="M79.44,-444.54C86.24,-388.08 109.92,-258.61 187.75,-191 194.56,-185.09 202.52,-180.52 210.96,-176.99"/>
<polygon fill="#63b8ff" stroke="#63b8ff" points="75.99,-443.9 78.37,-454.23 82.95,-444.67 75.99,-443.9"/>
</a>
</g>
</g>
<!-- Node18 -->
<g id="Node000018" class="node">
<title>Node18</title>
<g id="a_Node000018"><a xlink:href="class_vecto_objects_1_1_retarder_data_declaration_type__v2__0.html" target="_top" xlink:title=" ">
<polygon fill="white" stroke="#666666" points="360.88,-132 224.88,-132 224.88,-100 360.88,-100 360.88,-132"/>
<text xml:space="preserve" text-anchor="start" x="232.88" y="-118.5" font-family="Helvetica,sans-Serif" font-size="10.00">VectoObjects.RetarderData</text>
<text xml:space="preserve" text-anchor="middle" x="292.88" y="-106.5" font-family="Helvetica,sans-Serif" font-size="10.00">DeclarationType_v2_0</text>
</a>
</g>
</g>
<!-- Node1&#45;&gt;Node18 -->
<g id="edge17_Node000001_Node000018" class="edge">
<title>Node1&#45;&gt;Node18</title>
<g id="a_edge17_Node000001_Node000018"><a xlink:title=" ">
<path fill="none" stroke="#63b8ff" d="M77.59,-444.21C80.79,-380.55 97.88,-223.32 187.75,-141 197.96,-131.64 211.05,-125.62 224.47,-121.77"/>
<polygon fill="#63b8ff" stroke="#63b8ff" points="74.09,-444 77.18,-454.14 81.09,-444.29 74.09,-444"/>
</a>
</g>
</g>
<!-- Node19 -->
<g id="Node000019" class="node">
<title>Node19</title>
<g id="a_Node000019"><a xlink:href="class_vecto_objects_1_1_torque_converter_data_declaration_type__v2__0.html" target="_top" xlink:title=" ">
<polygon fill="white" stroke="#bfbfbf" points="367.62,-82 218.12,-82 218.12,-50 367.62,-50 367.62,-82"/>
<text xml:space="preserve" text-anchor="start" x="226.12" y="-68.5" font-family="Helvetica,sans-Serif" font-size="10.00">VectoObjects.TorqueConverter</text>
<text xml:space="preserve" text-anchor="middle" x="292.88" y="-56.5" font-family="Helvetica,sans-Serif" font-size="10.00">DataDeclarationType_v2_0</text>
</a>
</g>
</g>
<!-- Node1&#45;&gt;Node19 -->
<g id="edge18_Node000001_Node000019" class="edge">
<title>Node1&#45;&gt;Node19</title>
<g id="a_edge18_Node000001_Node000019"><a xlink:title=" ">
<path fill="none" stroke="#63b8ff" d="M76.15,-444.45C75.91,-374.47 85.45,-188.54 187.75,-91 196.16,-82.98 206.67,-77.39 217.75,-73.51"/>
<polygon fill="#63b8ff" stroke="#63b8ff" points="72.65,-444.28 76.27,-454.24 79.65,-444.2 72.65,-444.28"/>
</a>
</g>
</g>
<!-- Node20 -->
<g id="Node000020" class="node">
<title>Node20</title>
<g id="a_Node000020"><a xlink:href="class_vecto_objects_1_1_tyre_data_declaration_type__v2__5.html" target="_top" xlink:title=" ">
<polygon fill="white" stroke="#bfbfbf" points="376.25,-32 209.5,-32 209.5,0 376.25,0 376.25,-32"/>
<text xml:space="preserve" text-anchor="start" x="217.5" y="-18.5" font-family="Helvetica,sans-Serif" font-size="10.00">VectoObjects.TyreDataDeclaration</text>
<text xml:space="preserve" text-anchor="middle" x="292.88" y="-6.5" font-family="Helvetica,sans-Serif" font-size="10.00">Type_v2_5</text>
</a>
</g>
</g>
<!-- Node1&#45;&gt;Node20 -->
<g id="edge19_Node000001_Node000020" class="edge">
<title>Node1&#45;&gt;Node20</title>
<g id="a_edge19_Node000001_Node000020"><a xlink:title=" ">
<path fill="none" stroke="#63b8ff" d="M80.24,-444.52C91.28,-358.82 129.09,-98.72 187.75,-41 193.91,-34.94 201.27,-30.25 209.19,-26.64"/>
<polygon fill="#63b8ff" stroke="#63b8ff" points="76.78,-443.99 79,-454.35 83.72,-444.87 76.78,-443.99"/>
</a>
</g>
</g>
</g>
</svg>
